<svg width="14" height="17" viewBox="0 0 14 17" fill="none" xmlns="http://www.w3.org/2000/svg">
<path fill-rule="evenodd" clip-rule="evenodd" d="M0 15.5859C-2.41411e-08 15.0337 0.447715 14.5859 1 14.5859H13C13.5523 14.5859 14 15.0337 14 15.5859C14 16.1382 13.5523 16.5859 13 16.5859H1C0.447715 16.5859 2.41411e-08 16.1382 0 15.5859ZM3.29289 7.87883C3.68342 7.48831 4.31658 7.48831 4.70711 7.87883L6 9.17172L6 1.58594C6 1.03365 6.44771 0.585938 7 0.585938C7.55228 0.585937 8 1.03365 8 1.58594L8 9.17172L9.29289 7.87883C9.68342 7.48831 10.3166 7.48831 10.7071 7.87883C11.0976 8.26936 11.0976 8.90252 10.7071 9.29304L7.70711 12.293C7.51957 12.4806 7.26522 12.5859 7 12.5859C6.73478 12.5859 6.48043 12.4806 6.29289 12.293L3.29289 9.29304C2.90237 8.90252 2.90237 8.26935 3.29289 7.87883Z" fill="white"/>
</svg>
