<svg width="182" height="60" viewBox="0 0 182 60" fill="none" xmlns="http://www.w3.org/2000/svg">
<path fill-rule="evenodd" clip-rule="evenodd" d="M30 46C38.8366 46 46 38.8366 46 30C46 21.1634 38.8366 14 30 14C21.1634 14 14 21.1634 14 30C14 38.8366 21.1634 46 30 46ZM29.1094 24.3359C28.4957 23.9268 27.7066 23.8886 27.0563 24.2367C26.406 24.5847 26 25.2624 26 26V34C26 34.7376 26.406 35.4153 27.0563 35.7634C27.7066 36.1114 28.4957 36.0732 29.1094 35.6641L35.1094 31.6641C35.6658 31.2932 36 30.6687 36 30C36 29.3313 35.6658 28.7068 35.1094 28.3359L29.1094 24.3359Z" fill="#DC2626"/>
<path d="M75.9415 22.916C75.9415 23.0227 75.8988 23.1187 75.8135 23.204C75.7495 23.268 75.6642 23.3 75.5575 23.3H64.6455C64.5388 23.3 64.4855 23.3533 64.4855 23.46V29.444C64.4855 29.5507 64.5388 29.604 64.6455 29.604H71.9735C72.0802 29.604 72.1655 29.6467 72.2295 29.732C72.3148 29.796 72.3575 29.8813 72.3575 29.988V32.42C72.3575 32.5267 72.3148 32.6227 72.2295 32.708C72.1655 32.772 72.0802 32.804 71.9735 32.804H64.6455C64.5388 32.804 64.4855 32.8573 64.4855 32.964V39.14C64.4855 39.2467 64.5388 39.3 64.6455 39.3H75.5575C75.6642 39.3 75.7495 39.3427 75.8135 39.428C75.8988 39.492 75.9415 39.5773 75.9415 39.684V42.116C75.9415 42.2227 75.8988 42.3187 75.8135 42.404C75.7495 42.468 75.6642 42.5 75.5575 42.5H61.1575C61.0508 42.5 60.9548 42.468 60.8695 42.404C60.8055 42.3187 60.7735 42.2227 60.7735 42.116V20.484C60.7735 20.3773 60.8055 20.292 60.8695 20.228C60.9548 20.1427 61.0508 20.1 61.1575 20.1H75.5575C75.6642 20.1 75.7495 20.1427 75.8135 20.228C75.8988 20.292 75.9415 20.3773 75.9415 20.484V22.916ZM92.735 20.484C92.735 20.3773 92.767 20.292 92.831 20.228C92.9163 20.1427 93.0123 20.1 93.119 20.1H96.063C96.1697 20.1 96.255 20.1427 96.319 20.228C96.4043 20.292 96.447 20.3773 96.447 20.484V42.116C96.447 42.2227 96.4043 42.3187 96.319 42.404C96.255 42.468 96.1697 42.5 96.063 42.5H93.215C93.0017 42.5 92.8523 42.4147 92.767 42.244L83.551 27.14C83.5083 27.076 83.4657 27.0547 83.423 27.076C83.3803 27.076 83.359 27.1187 83.359 27.204L83.423 42.116C83.423 42.2227 83.3803 42.3187 83.295 42.404C83.231 42.468 83.1457 42.5 83.039 42.5H80.095C79.9883 42.5 79.8923 42.468 79.807 42.404C79.743 42.3187 79.711 42.2227 79.711 42.116V20.484C79.711 20.3773 79.743 20.292 79.807 20.228C79.8923 20.1427 79.9883 20.1 80.095 20.1H82.943C83.1563 20.1 83.3057 20.1853 83.391 20.356L92.575 35.46C92.6177 35.524 92.6603 35.556 92.703 35.556C92.7457 35.5347 92.767 35.4813 92.767 35.396L92.735 20.484ZM113.316 42.5C113.102 42.5 112.964 42.3933 112.9 42.18L106.18 20.548L106.148 20.42C106.148 20.2067 106.265 20.1 106.5 20.1H109.668C109.902 20.1 110.052 20.2067 110.116 20.42L114.916 37.124C114.937 37.188 114.969 37.22 115.012 37.22C115.054 37.22 115.086 37.188 115.108 37.124L119.876 20.42C119.94 20.2067 120.089 20.1 120.324 20.1H123.428C123.556 20.1 123.652 20.1427 123.716 20.228C123.78 20.3133 123.79 20.42 123.748 20.548L116.932 42.18C116.868 42.3933 116.729 42.5 116.516 42.5H113.316ZM127.439 42.5C127.332 42.5 127.236 42.468 127.151 42.404C127.087 42.3187 127.055 42.2227 127.055 42.116V20.484C127.055 20.3773 127.087 20.292 127.151 20.228C127.236 20.1427 127.332 20.1 127.439 20.1H130.383C130.489 20.1 130.575 20.1427 130.639 20.228C130.724 20.292 130.767 20.3773 130.767 20.484V42.116C130.767 42.2227 130.724 42.3187 130.639 42.404C130.575 42.468 130.489 42.5 130.383 42.5H127.439ZM141.222 42.5C141.008 42.5 140.87 42.3933 140.806 42.18L134.086 20.548L134.054 20.42C134.054 20.2067 134.171 20.1 134.406 20.1H137.574C137.808 20.1 137.958 20.2067 138.022 20.42L142.822 37.124C142.843 37.188 142.875 37.22 142.918 37.22C142.96 37.22 142.992 37.188 143.014 37.124L147.782 20.42C147.846 20.2067 147.995 20.1 148.23 20.1H151.334C151.462 20.1 151.558 20.1427 151.622 20.228C151.686 20.3133 151.696 20.42 151.654 20.548L144.838 42.18C144.774 42.3933 144.635 42.5 144.422 42.5H141.222ZM161.608 42.82C160.008 42.82 158.589 42.5 157.352 41.86C156.114 41.1987 155.154 40.2707 154.472 39.076C153.81 37.8813 153.48 36.5053 153.48 34.948V27.652C153.48 26.116 153.821 24.7613 154.504 23.588C155.186 22.3933 156.136 21.476 157.352 20.836C158.589 20.1747 160.008 19.844 161.608 19.844C163.229 19.844 164.648 20.1747 165.864 20.836C167.101 21.476 168.061 22.3933 168.744 23.588C169.426 24.7613 169.767 26.116 169.767 27.652V34.948C169.767 36.5053 169.426 37.8813 168.744 39.076C168.061 40.2707 167.101 41.1987 165.864 41.86C164.648 42.5 163.229 42.82 161.608 42.82ZM161.608 39.62C162.952 39.62 164.029 39.204 164.84 38.372C165.65 37.54 166.056 36.4413 166.056 35.076V27.62C166.056 26.2333 165.65 25.124 164.84 24.292C164.029 23.46 162.952 23.044 161.608 23.044C160.285 23.044 159.218 23.46 158.408 24.292C157.597 25.124 157.192 26.2333 157.192 27.62V35.076C157.192 36.4413 157.597 37.54 158.408 38.372C159.218 39.204 160.285 39.62 161.608 39.62Z" fill="#DC2626"/>
<path d="M8 3H174V-3H8V3ZM179 8V52H185V8H179ZM174 57H8V63H174V57ZM3 52V8H-3V52H3ZM8 57C5.23858 57 3 54.7614 3 52H-3C-3 58.0751 1.92487 63 8 63V57ZM179 52C179 54.7614 176.761 57 174 57V63C180.075 63 185 58.0751 185 52H179ZM174 3C176.761 3 179 5.23858 179 8H185C185 1.92487 180.075 -3 174 -3V3ZM8 -3C1.92487 -3 -3 1.92487 -3 8H3C3 5.23858 5.23858 3 8 3V-3Z" fill="#DC2626"/>
</svg>
