<svg width="345" height="49" viewBox="0 0 345 49" fill="none" xmlns="http://www.w3.org/2000/svg">
<path d="M335.145 46.6654H336.164C337.07 46.7409 337.919 46.7975 338.787 46.7975C341.561 46.7975 343.636 46.3069 344.787 45.4012C344.938 45.1936 344.862 44.3823 344.825 43.8351C344.768 43.0804 344.693 42.2124 344.75 41.2878V34.646C344.75 34.3441 344.769 34.0234 344.75 33.8158C345.127 28.476 345.07 22.8531 344.617 17.8341V16.0415C344.636 14.3622 344.674 12.6641 344.712 10.8904C344.712 10.3243 344.75 9.75828 344.769 9.17335L344.806 8.21105C344.938 5.41849 345.089 2.51273 344.165 0.90889C344.089 0.814547 343.749 0.550381 342.466 0.550381C341.843 0.550381 341.165 0.606983 340.466 0.663589C339.448 0.739063 338.41 0.814544 337.504 0.757938H336.315C334.617 0.908887 332.466 0.927735 330.504 0.795654C330.655 3.24858 330.617 5.32414 330.409 7.8148L330.428 12.3999C330.56 14.8528 330.617 17.5133 330.617 20.2304V22.9286C330.617 25.5136 330.635 29.0421 330.635 29.4006V29.8345L330.371 30.1742C329.504 31.2686 328.032 31.6082 324.258 31.6082C323.315 31.6082 322.201 31.5893 320.862 31.5327H319.635C319.069 31.5893 317.352 31.7591 315.824 31.7591C313.918 31.7591 313.031 31.5516 312.522 30.9667L312.163 30.5327C311.031 29.2874 311.182 27.2684 311.314 25.2872C311.389 24.3249 311.446 23.3437 311.389 22.4192V7.96575C311.578 5.45622 311.352 3.07877 311.107 0.776796C310.937 0.663584 310.578 0.531494 309.748 0.531494C309.201 0.531494 308.616 0.588096 308.012 0.644702C307.087 0.720176 306.125 0.814525 305.219 0.739051C304.785 0.739051 304.295 0.701316 303.804 0.682447L302.974 0.625843C302.125 0.569237 301.295 0.531494 300.502 0.531494C298.917 0.531494 297.88 0.757927 297.276 1.24851C296.691 1.66362 296.842 3.38068 296.955 4.73923C297.031 5.66379 297.125 6.62608 297.068 7.55064V8.64503C297.163 12.3244 297.181 16.2868 297.144 20.0983C297.144 20.3436 297.181 21.8342 297.219 23.4569C297.276 25.4759 297.332 27.6835 297.314 27.9854C297.2 31.929 298.238 33.1366 303.106 37.0801L304.106 38.1179C304.748 38.7971 305.408 39.2877 306.106 39.8161C306.823 40.3444 307.559 40.9105 308.257 41.6463L309.012 42.4577C312.333 46.2314 312.673 46.3824 314.352 46.3824C314.729 46.3824 315.144 46.3635 315.616 46.3446L315.899 46.3258C316.126 46.3258 317.276 46.4012 318.427 46.4956C319.522 46.571 320.616 46.6654 320.824 46.6654H335.145Z" fill="white"/>
<path d="M43.135 2.32423C42.5123 1.0789 40.5877 0.739243 34.1724 0.739243C33.1346 0.739243 32.0781 0.739262 31.0215 0.758131C28.7949 0.776999 26.7002 0.79586 25.0398 0.720385H21.8322C19.3793 0.814728 15.5867 0.758114 11.945 0.68264C9.71852 0.644902 7.54857 0.607178 5.75605 0.607178C1.69929 0.607178 0.18972 0.607165 0.0199017 2.09779C-0.0933103 3.09783 -0.112068 3.30538 11.4544 13.5888C13.4356 15.3436 15.3416 17.0418 16.87 18.4192C17.1152 18.6834 17.3793 19.0796 17.6623 19.5136C18.0019 20.0419 18.3606 20.608 18.8135 21.0608L25.5681 27.8724C26.021 28.3441 26.4927 28.8158 26.9455 29.2309C29.4173 31.2876 32.6819 35.1746 35.3047 38.3256C39.286 43.0805 40.1537 44.0051 41.2292 44.0051C41.6066 44.0051 42.0596 43.7976 42.3049 43.5334C43.003 42.7409 43.2295 40.8729 43.3427 29.948C43.3616 28.5328 43.3801 27.2308 43.3989 26.1176C43.3801 25.1742 43.3801 24.2496 43.3989 23.4194V22.3061C43.3801 21.3627 43.3612 20.4004 43.3612 19.4758C43.3046 14.0605 43.5123 12.2491 44.0595 7.43763C44.286 5.32434 43.5878 3.22993 43.135 2.32423Z" fill="white"/>
<path d="M227.501 4.13538L227.482 2.73909C227.482 2.15416 227.067 1.64473 226.501 1.49378L225.142 1.15413C224.708 1.04092 224.048 0.9277 222.18 0.852225C221.897 0.852225 221.746 0.833357 221.765 0.852225C221.52 0.739013 221.237 0.720157 220.954 0.776763L219.029 1.22962C218.897 1.26736 218.784 1.3051 218.671 1.38057L217.897 1.8334C217.632 1.98435 217.425 2.22965 217.331 2.51268C216.52 4.81465 216.123 7.6827 216.123 11.3055C216.123 13.4376 216.18 16.6076 216.255 20.7398C216.35 24.8532 216.388 28.0043 216.388 30.1175C216.388 35.0989 216.274 39.4387 216.048 42.986L216.01 43.8539L216.123 46.0616C216.142 46.4578 216.331 46.8163 216.651 47.0427C216.878 47.2126 217.142 47.288 217.425 47.288C217.538 47.288 217.633 47.2692 217.746 47.2503L220.331 46.5899C220.444 46.6087 220.595 46.6465 220.84 46.7031C221.746 46.9295 222.444 47.0427 223.048 47.0427C224.237 47.0427 225.35 46.6276 226.369 45.8163L227.029 45.2879C227.331 45.0426 227.52 44.6841 227.52 44.2879L227.539 43.4388C227.633 36.4951 227.671 31.4572 227.671 28.042V19.6643C227.633 16.2679 227.595 11.1734 227.501 4.13538Z" fill="white"/>
<path d="M191.971 1.13539C189.839 0.758018 188.16 0.607071 180.046 0.607071C178.103 0.607071 176.386 0.512729 174.895 0.342911L174.197 0.26742C173.857 0.229683 173.518 0.324025 173.253 0.53158H173.235C171.197 0.588186 170.197 1.68258 169.763 2.34298L169.404 2.90905C169.234 3.17321 169.178 3.47509 169.216 3.77699L169.291 4.43741C169.461 5.73935 169.536 7.21109 169.536 8.81492C169.536 9.43759 169.499 10.4565 169.404 11.8339C169.31 13.3434 169.272 14.5133 169.272 15.3246C169.272 15.4567 169.291 15.5888 169.329 15.702L169.348 16.2681C169.385 17.9096 169.461 21.7777 169.631 24.0231C169.706 24.9854 169.763 33.7782 169.8 39.6086C169.819 42.8351 169.838 45.4201 169.857 45.9485C169.876 46.6466 170.442 47.2127 171.159 47.2127H179.933C180.216 47.2127 180.48 47.1183 180.707 46.9674C180.914 47.1183 181.16 47.2127 181.424 47.2127C182.273 47.2504 182.613 47.2693 182.877 47.2881C183.292 47.3259 183.518 47.3447 185.103 47.3447C189.103 47.3447 192.103 47.1183 194.217 46.6655C198.028 45.9485 201.141 44.4201 203.443 42.0804C207.557 37.9482 208.632 35.8537 209.028 34.4952C210.028 32.8913 210.632 30.8913 210.84 28.4761V22.9853C210.84 22.7966 210.859 22.4192 210.915 21.74C210.991 20.9286 211.029 20.3626 211.029 19.9475C211.029 18.3436 210.481 15.8718 206.33 9.7395C203.198 5.09781 198.349 2.19204 191.971 1.13539ZM181.254 35.2122C181.292 27.0421 181.367 16.4379 181.462 12.4943C182.782 12.5509 183.801 12.5887 184.669 12.6264C186.839 12.7207 187.952 12.7774 189.915 12.7774C190.084 12.8151 190.405 12.9094 190.953 13.0604C193.368 13.7774 195.443 15.0416 197.141 16.8152C197.858 17.5511 198.066 17.8908 198.103 17.9662C198.669 18.9285 199.028 20.4758 199.141 22.3815C199.179 24.2118 199.236 26.0986 199.311 27.9855C198.349 30.3441 197.934 31.1554 197.839 31.363C197.236 32.4008 196.556 33.0989 195.764 33.5329C193.669 34.665 189.952 35.2499 185.065 35.2499C184.329 35.2499 183.197 35.2311 181.499 35.1744C181.386 35.1933 181.31 35.1933 181.254 35.2122Z" fill="white"/>
<path d="M167.424 42.6656L166.669 41.2693C164.594 37.4012 159.424 24.363 156.348 16.5891C154.706 12.4757 153.989 10.6266 153.763 10.2115C153.121 8.96614 152.48 7.75856 151.82 6.56983C151.159 5.3245 150.687 4.26784 150.461 3.39988L150.367 3.07912C150.31 2.9093 150.234 2.73948 150.121 2.6074L149.895 2.32438C148.48 0.531858 142.026 0.30542 141.97 0.30542C141.347 0.30542 140.592 0.399762 139.649 0.56958C139.064 0.682792 138.8 0.701675 138.724 0.701675H133.838C133.385 0.701675 132.951 0.94696 132.705 1.3432L132.139 2.26775C131.479 3.34326 130.573 4.89051 129.328 7.11701L129.233 7.32457C129.158 7.47552 122.063 23.4573 117.988 33.401C117.497 34.5898 118.384 35.7408 120.668 36.9484C120.856 37.0427 121.063 37.0993 121.29 37.0993H130.422C131.026 37.1182 144.574 37.5144 148.367 37.571L151.121 45.7412C151.31 46.2884 151.8 46.6469 152.385 46.6469H152.404H153.008C154.688 46.628 157.027 46.5902 161.16 46.5525L163.084 46.5336C163.556 46.5336 163.971 46.2695 164.216 45.8732C164.669 45.7034 165.103 45.5147 165.481 45.2883L166.915 44.4392C167.537 44.0619 167.763 43.2882 167.424 42.6656ZM143.461 25.6272C143.234 25.6272 142.857 25.6272 142.517 25.7404C142.31 25.7592 141.989 25.7593 141.555 25.7781C139.781 25.8347 139.46 25.8725 139.253 25.8913C139.121 25.9102 139.045 25.9102 138.442 25.9102C136.989 25.9102 135.574 25.8913 134.215 25.8536C136.706 19.1929 138.329 15.1173 139.102 13.6078C139.272 13.1361 139.498 12.5512 139.781 11.8342C140.177 12.7021 140.819 14.0984 141.668 15.74C142.178 16.6079 142.593 17.4382 142.97 18.2684C143.819 19.9477 144.857 22.7969 145.914 25.7404C145.064 25.646 144.234 25.6272 143.461 25.6272Z" fill="white"/>
<path d="M113.383 6.40004C110.893 4.23015 107.402 2.75839 103.005 2.00364C99.7789 1.55079 96.5711 1.07908 93.4012 0.626236L93.005 0.569632C92.8163 0.550763 92.6275 0.550771 92.4388 0.607377L92.0616 0.720585C91.1181 1.00361 89.986 1.15456 88.7218 1.15456C87.9104 1.15456 86.6273 1.06021 84.9291 0.890396C83.0045 0.701709 81.5709 0.58849 80.5708 0.58849C79.1368 0.58849 77.7969 0.701728 76.5705 0.909283L75.0798 1.17344C74.4571 1.28666 74.0046 1.81496 74.0046 2.4565V8.77751C74.0046 10.5134 74.0231 13.0984 74.0797 16.5136V24.1743C74.0797 25.7404 74.0608 26.2876 74.0419 27.3631L73.9668 30.4576C73.9668 30.8161 74.0988 31.1369 74.3441 31.401C74.5894 31.6463 74.929 31.7973 75.2686 31.7973H80.4764C80.5896 31.835 80.7027 31.8539 80.8726 31.8539H82.6839L82.9294 31.8916C83.0804 31.9105 83.2502 31.9105 83.4011 31.8727L84.4008 31.7218C84.5706 31.7218 84.7404 31.6652 84.8914 31.5897C85.6084 31.4954 86.4576 31.4576 87.4199 31.4576C88.1936 31.4576 89.3825 31.4954 90.9864 31.5897C92.6845 31.6841 94.005 31.7407 94.8919 31.7407C95.2315 31.7407 95.609 31.7218 96.0242 31.6841L103.024 45.0431C104.138 47.0809 106.138 48.213 108.666 48.213C109.062 48.213 109.591 48.1942 110.289 48.1376C110.78 48.0998 111.138 48.0809 111.364 48.0809C111.44 48.0809 111.572 48.0998 111.874 48.1564L114.044 48.5904C114.119 48.6092 114.213 48.6093 114.308 48.6093C114.61 48.6093 114.893 48.5149 115.138 48.3074C115.44 48.0621 115.61 47.6847 115.61 47.3073V44.2883C115.61 44.0996 115.572 43.9298 115.497 43.76L115.346 43.4015C114.723 42.0241 113.27 39.4202 110.874 35.4389C109.911 33.854 109.1 32.4011 108.496 31.0991C111.383 30.1746 113.855 27.9103 115.874 24.4196C116.648 23.1366 116.968 22.4573 117.119 21.8912C117.421 20.7968 117.572 19.2873 117.572 17.1363C117.572 13.4947 117.138 11.1361 116.157 9.45679C115.496 8.43788 114.61 7.43782 113.383 6.40004ZM106.1 17.3816C106.1 17.9854 106.062 18.2118 106.062 18.2118C105.968 18.6081 104.76 19.4006 101.949 19.8346C101.194 19.9478 100.684 20.0421 100.439 20.0798H95.0052C93.5712 20.1176 92.4957 20.1553 91.7787 20.1553C89.4956 20.1553 87.6088 20.0421 86.137 19.8157L86.2314 12.3625C86.5711 12.3814 86.967 12.3814 87.3822 12.4003C88.6275 12.4569 89.4389 12.4569 89.7974 12.4758C100.458 12.7022 104.024 14.0041 105.194 14.74C105.402 14.8909 106.1 15.3438 106.1 17.3816Z" fill="white"/>
<path d="M276.125 16.2116C275.805 14.0795 275.239 11.4001 273.786 9.62647C272.842 8.32453 271.786 7.11693 270.635 6.07915C264.993 0.946872 256.823 -1.03433 247.671 0.512898C247.596 0.531767 247.521 0.550633 247.464 0.569502C246.181 1.02235 244.898 1.62614 243.671 2.36202C242.502 3.07903 241.35 3.90925 240.275 4.87156C238.879 6.13576 237.614 7.56976 236.482 9.13586C230.124 18.9853 229.973 31.3632 236.105 39.9295C237.105 41.3258 238.275 42.6655 239.558 43.8731C239.615 43.9297 239.671 43.9674 239.728 44.0052L240.162 44.2882C241.048 44.892 241.936 45.4958 242.822 46.0619C242.898 46.1185 242.973 46.1562 243.067 46.1751C246.445 47.477 250.275 48.1563 254.125 48.1563C262.974 48.1563 273.238 44.2316 275.484 33.1934C275.729 32.0424 275.956 30.7405 276.22 29.0989C276.427 25.0422 276.408 20.9854 276.125 16.2116ZM264.578 26.8724C264.465 27.6838 264.332 28.3631 264.219 28.9669C262.766 36.6087 254.124 37.6842 248.69 35.4577C248.181 35.0992 247.652 34.7218 247.143 34.3444C246.52 33.7217 245.954 33.0236 245.483 32.3066C242.596 28.0234 242.596 21.5892 245.69 16.4758C246.219 15.6833 246.822 14.9663 247.502 14.3059C248.011 13.8342 248.539 13.4002 249.105 13.0417C249.671 12.6832 250.276 12.3624 250.898 12.136C255.313 11.3435 259.219 12.287 261.955 14.9663C262.502 15.4946 263.012 16.0984 263.465 16.7777C264.068 17.5702 264.352 18.7589 264.521 20.0231C264.691 22.6836 264.691 24.8157 264.578 26.8724Z" fill="white"/>
</svg>
