<svg width="342" height="100" viewBox="0 0 342 100" fill="none" xmlns="http://www.w3.org/2000/svg">
<path d="M164.397 43.503L163.628 42.0785C161.492 38.0862 156.187 24.7224 153.02 16.719C151.333 12.4831 150.583 10.5712 150.358 10.1589C149.702 8.88436 149.028 7.64731 148.372 6.41026C147.678 5.13572 147.209 4.02979 146.966 3.16761L146.872 2.83024C146.816 2.66155 146.741 2.49285 146.628 2.3429L146.403 2.06182C144.941 0.206244 138.325 0 138.25 0C137.613 0 136.844 0.0937618 135.851 0.281194C135.251 0.393653 134.989 0.431172 134.914 0.431172H129.891C129.422 0.431172 128.972 0.674787 128.729 1.08714L128.148 2.04306C127.473 3.14891 126.536 4.74213 125.261 7.01005C125.242 7.0288 125.167 7.21622 125.148 7.23496C125.074 7.40365 117.764 23.8227 113.584 34.0377C113.078 35.256 113.978 36.4556 116.339 37.6739C116.527 37.7864 116.752 37.8239 116.977 37.8239H126.367C126.986 37.8426 140.911 38.2549 144.81 38.3111L147.64 46.7081C147.828 47.2704 148.352 47.6265 148.933 47.6265H148.952H149.309C151.071 47.6078 153.488 47.5703 157.968 47.5141L159.955 47.4953C160.442 47.4953 160.873 47.233 161.117 46.8206C161.585 46.6519 162.017 46.4457 162.41 46.2208L163.891 45.3398C164.528 44.9462 164.734 44.1403 164.397 43.503ZM142.261 26.0719C141.418 26.0156 140.574 25.9782 139.768 25.9782C139.525 25.9782 139.15 25.9782 138.794 26.0906C138.569 26.1094 138.25 26.1093 137.819 26.128C136.001 26.1843 135.663 26.2217 135.457 26.2405C135.326 26.2592 135.251 26.2592 134.614 26.2592C133.114 26.2592 131.652 26.2406 130.265 26.2031C132.814 19.3618 134.483 15.1633 135.289 13.6076C135.458 13.139 135.701 12.5205 135.982 11.7895C136.394 12.6892 137.051 14.1137 137.913 15.8006C138.438 16.7003 138.869 17.5437 139.243 18.4058C140.106 20.1115 141.193 23.0542 142.261 26.0719Z" fill="white"/>
<path d="M221.939 4.72346L221.92 3.33648C221.92 2.75545 221.508 2.24933 220.945 2.11813L219.596 1.78077C219.183 1.68705 218.509 1.5559 216.672 1.48093C216.353 1.48093 216.203 1.46216 216.222 1.46216C215.978 1.36845 215.716 1.34965 215.472 1.40588L213.56 1.85581C213.429 1.8933 213.316 1.93068 213.204 1.98691L212.436 2.43685C212.173 2.58679 211.967 2.83043 211.873 3.11158C211.067 5.3795 210.674 8.20974 210.674 11.7897C210.674 13.8889 210.711 17.0377 210.805 21.105C210.899 25.1535 210.936 28.2649 210.936 30.3642C210.936 35.2936 210.824 39.5671 210.599 43.0721L210.561 43.9342L210.674 46.1273C210.693 46.5209 210.88 46.8582 211.199 47.1018C211.424 47.2705 211.686 47.3455 211.967 47.3455C212.08 47.3455 212.173 47.3268 212.286 47.3081L214.835 46.652C214.947 46.6707 215.097 46.7082 215.322 46.7645C216.203 46.9894 216.897 47.1018 217.496 47.1018C218.658 47.1018 219.764 46.6895 220.776 45.8836L221.433 45.3587C221.732 45.1151 221.901 44.759 221.92 44.3654L221.939 43.5219C222.032 36.6619 222.07 31.695 222.07 28.3212V20.0554C222.07 16.6816 222.014 11.6584 221.939 4.72346Z" fill="white"/>
<path d="M201.04 10.2715C197.929 5.66067 193.131 2.79298 186.833 1.74336C184.715 1.3685 183.065 1.2185 175.062 1.2185C173.169 1.2185 171.445 1.12475 169.983 0.956065L169.308 0.881134C168.989 0.843647 168.652 0.937391 168.371 1.14357H168.352C166.346 1.1998 165.353 2.28683 164.922 2.94284L164.566 3.50523C164.397 3.76763 164.341 4.06743 164.379 4.34858L164.453 5.00466C164.603 6.2792 164.697 7.74117 164.697 9.33434C164.697 9.95286 164.659 10.9462 164.566 12.3144C164.472 13.7952 164.434 14.9573 164.434 15.7445C164.434 15.8757 164.453 16.0069 164.491 16.1194L164.509 16.7192C164.547 18.3498 164.622 22.1547 164.791 24.3477C164.866 25.3036 164.922 34.0191 164.959 39.792C164.978 42.9596 164.997 45.4712 165.016 45.996C165.034 46.6895 165.596 47.2518 166.29 47.2518H174.95C175.231 47.2518 175.493 47.1581 175.718 47.0081C175.924 47.1581 176.168 47.2518 176.43 47.2518C177.274 47.2893 177.611 47.308 177.874 47.3267C178.286 47.3642 178.511 47.383 180.066 47.383C184.021 47.383 186.983 47.1581 189.082 46.7271C192.849 46.0336 195.923 44.4966 198.191 42.2099C202.258 38.1239 203.308 36.0621 203.702 34.7314C204.695 33.1382 205.295 31.1702 205.501 28.7898V23.373C205.501 23.1855 205.52 22.8106 205.576 22.1359C205.651 21.3299 205.688 20.7677 205.688 20.3554C205.688 18.7622 205.126 16.3256 201.04 10.2715ZM176.243 35.3873C176.28 27.3277 176.355 16.8503 176.449 12.933C177.78 12.9892 178.811 13.0267 179.673 13.083C181.772 13.1767 182.897 13.2328 184.79 13.2328C184.958 13.2703 185.258 13.3641 185.802 13.514C188.182 14.2263 190.244 15.4633 191.912 17.2252C192.587 17.9187 192.812 18.2749 192.868 18.3686C193.43 19.3245 193.787 20.8427 193.899 22.717C193.937 24.5164 193.993 26.3906 194.068 28.2462C193.112 30.5891 192.718 31.3763 192.605 31.5825C192.006 32.5946 191.331 33.3069 190.544 33.7193C188.464 34.8251 184.808 35.4249 179.973 35.4249C179.242 35.4249 178.117 35.4061 176.468 35.3499C176.393 35.3687 176.318 35.3873 176.243 35.3873Z" fill="white"/>
<path d="M111.897 9.93392C111.316 8.95927 110.435 7.98456 109.217 6.93494C106.743 4.79821 103.313 3.33623 98.9643 2.5865C95.778 2.13666 92.6102 1.66812 89.4801 1.21828L89.0866 1.16211C88.8992 1.14337 88.7117 1.14329 88.543 1.19952L88.1682 1.31198C87.231 1.59312 86.1252 1.72439 84.8694 1.72439C84.0634 1.72439 82.7701 1.63064 81.1207 1.46195C79.2089 1.27452 77.8031 1.16211 76.8097 1.16211C75.404 1.16211 74.0735 1.27454 72.8551 1.48071L71.3744 1.74315C70.7558 1.85561 70.3246 2.38038 70.3246 2.99891V9.24043C70.3246 10.9461 70.3434 13.495 70.3997 16.8688V24.4411C70.3997 25.9968 70.3809 26.5404 70.3622 27.59L70.2871 30.6451C70.2871 30.9825 70.4187 31.3199 70.6436 31.5635C70.8872 31.8072 71.2246 31.9572 71.562 31.9572H76.6976C76.8101 31.9947 76.9412 32.0134 77.0724 32.0134L78.7778 31.9946L79.1151 32.0321C79.265 32.0509 79.4337 32.0508 79.5837 32.0134L80.5771 31.8634C80.7458 31.8634 80.9145 31.8072 81.0645 31.7323C81.7767 31.6386 82.6203 31.6011 83.5762 31.6011C84.3447 31.6011 85.5253 31.6386 87.0997 31.7323C88.7866 31.826 90.08 31.8821 90.9609 31.8821C91.2983 31.8821 91.6546 31.8635 92.0669 31.826L98.9831 45.0211C100.07 47.0267 102.057 48.1512 104.55 48.1512C104.943 48.1512 105.468 48.1325 106.162 48.0763C106.649 48.0388 106.987 48.0201 107.212 48.0201C107.287 48.0201 107.436 48.0388 107.717 48.0951L109.854 48.5261C109.929 48.5449 110.023 48.5449 110.098 48.5449C110.398 48.5449 110.679 48.4512 110.904 48.245C111.204 48.0014 111.373 47.6452 111.373 47.2516V44.2715C111.373 44.0841 111.335 43.9153 111.26 43.7466L111.11 43.4093C110.51 42.0597 109.067 39.4919 106.687 35.5371C105.731 33.9627 104.944 32.5382 104.325 31.2449C107.174 30.3265 109.629 28.096 111.616 24.6473C112.384 23.3728 112.703 22.7167 112.835 22.1544C113.134 21.0673 113.284 19.5866 113.284 17.4686C113.284 13.9261 112.872 11.5833 111.897 9.93392ZM102.02 17.7873C102.02 18.3871 101.982 18.612 101.982 18.612C101.888 19.0244 100.708 19.7928 97.8025 20.2427C97.034 20.3739 96.5463 20.4488 96.5276 20.4488H91.0735C89.649 20.4863 88.5995 20.505 87.8872 20.505C85.6381 20.505 83.7638 20.3926 82.3018 20.1676L82.3951 12.8016C82.7325 12.8203 83.1076 12.8203 83.5387 12.8391C84.7757 12.8953 85.563 12.914 85.9191 12.914C96.4528 13.1389 99.9767 14.4135 101.12 15.1632C101.326 15.3319 102.02 15.7818 102.02 17.7873Z" fill="white"/>
<path d="M269.153 16.4003C268.834 14.3011 268.272 11.6396 266.847 9.89648C265.91 8.60319 264.86 7.42238 263.736 6.39151C258.169 1.3121 250.072 -0.637183 241.057 0.89976C240.982 0.918503 240.906 0.937187 240.85 0.95593C239.576 1.40577 238.32 2.00557 237.12 2.73656C235.958 3.43006 234.834 4.27351 233.765 5.21067C232.378 6.46647 231.122 7.87221 230.017 9.4279C223.738 19.1556 223.588 31.3762 229.642 39.8481C230.635 41.2351 231.779 42.5471 233.053 43.7467C233.109 43.8029 233.166 43.8404 233.222 43.8779L233.597 44.1216C234.497 44.7401 235.377 45.3399 236.277 45.9022C236.352 45.9584 236.427 45.9959 236.521 46.0147C239.857 47.2892 243.624 47.9827 247.448 47.9827C256.201 47.9827 266.322 44.1028 268.553 33.1943C268.796 32.0509 269.022 30.7764 269.284 29.1458C269.453 25.0973 269.434 21.0861 269.153 16.4003ZM257.719 26.8966C257.607 27.6838 257.476 28.3585 257.363 28.9583C255.92 36.4931 247.429 37.5427 242.088 35.3498C241.582 34.9937 241.075 34.6375 240.569 34.2626C239.951 33.6441 239.407 32.9694 238.938 32.2571C236.108 28.0399 236.108 21.7047 239.145 16.6815C239.67 15.913 240.269 15.182 240.925 14.5448C241.413 14.0762 241.956 13.6639 242.519 13.289C243.081 12.9329 243.662 12.633 244.28 12.3894C248.629 11.6021 252.471 12.5393 255.17 15.1633C255.714 15.6881 256.201 16.2879 256.651 16.9439C257.251 17.7312 257.513 18.8932 257.7 20.149C257.813 22.773 257.813 24.8911 257.719 26.8966Z" fill="white"/>
<path d="M228.011 93.4536C228.011 93.3974 228.011 93.3223 227.993 93.3036C227.993 93.2474 228.011 93.0787 228.068 92.685C228.161 92.0478 228.198 91.523 228.198 91.1107C228.198 89.8549 227.805 88.7303 227.055 87.8306L226.474 87.1558C226.212 86.8559 225.799 86.6497 225.425 86.6872L224.525 86.7247C223.513 86.7622 221.957 86.7997 219.877 86.7997C217.609 86.7997 210.955 86.7248 206.794 86.5561C202.445 86.3874 199.147 86.3124 196.935 86.3124C195.998 86.3124 195.154 86.3123 194.404 86.3311L194.274 78.5339C195.623 78.4215 197.76 78.3466 201.171 78.3466C202.727 78.3466 204.339 78.2716 205.951 78.1217L207.6 77.9717C208.274 77.9154 208.781 77.3531 208.781 76.6784V70.3619C208.781 69.8184 208.443 69.331 207.937 69.1436L206.756 68.7125C205.201 68.1315 203.289 67.8128 201.115 67.7566C200.965 67.7566 200.852 67.7754 200.74 67.8129C200.215 67.8316 199.015 67.8315 196.335 67.8315C195.548 67.8315 194.836 67.7941 194.198 67.7378C194.198 67.6066 194.217 67.438 194.236 67.2693V62.9021C194.442 63.0333 194.686 63.1271 194.948 63.1271H195.623C200.253 63.1271 203.926 62.7709 206.831 62.0212C207.131 61.9462 207.394 61.7775 207.581 61.5338L208.162 60.8028C208.275 60.6716 208.35 60.5029 208.406 60.3343L208.987 58.535C209.118 58.1601 209.137 57.8789 208.93 57.5415C208.93 57.5415 208.912 57.4479 208.912 57.148C208.818 55.4049 208.649 54.7488 208.499 54.299L208.068 53.0432C207.862 52.4809 207.337 52.0873 206.738 52.0873L204.92 52.0686C201.171 52.0311 197.872 52.0124 194.948 51.9936C194.573 52.0498 194.198 52.1435 193.936 52.4059C193.936 52.4059 193.936 52.4059 193.936 52.4247C193.711 52.1435 193.392 51.9561 193.017 51.9186C191.93 51.8436 190.919 51.7312 190.056 51.6187L189.25 51.5063C188.894 51.45 188.519 51.5624 188.238 51.7874L188.107 51.8998C188.051 51.8998 187.994 51.8812 187.938 51.8812C187.376 51.8249 187.001 51.7874 186.72 51.7874C184.171 51.7874 182.371 53.5305 182.353 56.0796C182.353 56.1733 182.371 56.267 182.39 56.3607L182.484 56.7919C182.521 57.0168 182.615 57.5977 182.784 59.041C182.99 60.7091 183.103 62.4523 183.103 64.2704C183.103 65.5074 183.046 67.5129 182.934 70.212C182.821 72.9672 182.765 75.0477 182.765 76.416C182.765 77.2219 182.803 78.3466 182.915 79.8835C183.009 81.233 183.046 82.2638 183.046 82.9386C183.046 83.4821 182.99 84.588 182.727 86.7247C182.484 88.7115 182.353 90.1922 182.353 91.2793C182.353 92.6101 182.521 93.9408 182.859 95.2529L183.234 96.6961C183.383 97.2772 183.909 97.6708 184.49 97.6708C184.508 97.6708 184.545 97.6708 184.564 97.6708L186.064 97.577C189.006 97.3896 191.931 97.2959 194.742 97.2959C196.991 97.2959 200.365 97.3334 205.032 97.4271C209.568 97.5208 216.484 97.5583 218.921 97.5583H225.294C225.65 97.5583 225.968 97.4271 226.212 97.1647L227.88 95.4778C228.199 95.1591 228.33 94.6906 228.217 94.2408L228.011 93.4536Z" fill="white"/>
<path d="M116.901 94.2033L116.133 92.7788C113.996 88.7865 108.673 75.4039 105.505 67.3818C103.837 63.1459 103.088 61.2716 102.863 60.8592C102.207 59.5847 101.532 58.3476 100.876 57.1106C100.182 55.836 99.7139 54.7302 99.4702 53.868L99.3764 53.5306C99.3202 53.3619 99.2454 53.1933 99.133 53.0433L98.9078 52.7621C97.4459 50.9066 90.8298 50.7004 90.7548 50.7004C90.1175 50.7004 89.349 50.7941 88.3556 50.9815C87.7558 51.094 87.4934 51.1315 87.4185 51.1315H82.395C81.9264 51.1315 81.4768 51.3751 81.2331 51.7875L80.652 52.7434C79.9772 53.8492 79.04 55.4425 77.7654 57.7104C77.7654 57.7291 77.6721 57.9165 77.6533 57.9353C77.5784 58.104 70.2682 74.523 66.0885 84.738C65.5824 85.9564 66.482 87.1559 68.8437 88.3742C69.0311 88.4867 69.2562 88.5242 69.4811 88.5242H78.8715C79.49 88.543 93.4164 88.9553 97.3149 89.0116L100.145 97.4085C100.333 97.9708 100.857 98.3269 101.438 98.3269H101.457H101.813C103.575 98.3081 105.993 98.2706 110.473 98.2144L112.459 98.1957C112.946 98.1957 113.378 97.9333 113.621 97.5209C114.09 97.3522 114.521 97.146 114.915 96.9211L116.395 96.0403C117.014 95.6466 117.239 94.8594 116.901 94.2033ZM94.7469 76.7909C93.9035 76.7347 93.0599 76.6973 92.2539 76.6973C92.0102 76.6973 91.6358 76.6973 91.2797 76.8097C91.0548 76.8285 90.7361 76.8284 90.305 76.8471C88.4869 76.9033 88.1495 76.9408 87.9433 76.9596C87.7934 76.9783 87.7368 76.9783 87.0995 76.9783C85.6001 76.9783 84.1384 76.9597 82.7514 76.9222C85.3005 70.0622 86.9685 65.8824 87.7745 64.3267C87.9432 63.8581 88.1871 63.2396 88.4682 62.5086C88.8806 63.4083 89.5362 64.8328 90.3983 66.5197C90.9232 67.4194 91.3546 68.2627 91.7295 69.1249C92.6104 70.8306 93.6785 73.7545 94.7469 76.7909Z" fill="white"/>
<path d="M341.839 94.2031L341.07 92.7786C338.933 88.805 333.629 75.4225 330.462 67.4379C328.775 63.1832 328.025 61.2713 327.8 60.859C327.144 59.5844 326.469 58.3474 325.813 57.1103C325.12 55.8358 324.651 54.7487 324.408 53.8678L324.314 53.5303C324.258 53.3616 324.183 53.193 324.07 53.0431L323.845 52.7619C322.383 50.9063 315.767 50.7002 315.692 50.7002C315.055 50.7002 314.286 50.7938 313.293 50.9813C312.693 51.0937 312.431 51.1313 312.356 51.1313H307.332C306.864 51.1313 306.414 51.3749 306.17 51.7872L305.589 52.7431C304.915 53.849 303.977 55.4422 302.703 57.7101C302.703 57.7289 302.609 57.9163 302.591 57.935C302.516 58.1037 295.206 74.5228 291.026 84.7378C290.538 85.9561 291.438 87.1369 293.781 88.374C293.968 88.4865 294.194 88.524 294.418 88.524H303.809C304.446 88.5427 318.354 88.9551 322.252 89.0113L325.083 97.4082C325.27 97.9705 325.795 98.3266 326.376 98.3266H326.394H326.75C328.512 98.3079 330.93 98.2704 335.41 98.2142L337.396 98.1954C337.884 98.1954 338.315 97.933 338.559 97.5207C339.027 97.352 339.458 97.1458 339.871 96.9209L341.352 96.04C341.97 95.6464 342.176 94.8591 341.839 94.2031ZM317.191 76.697C316.948 76.697 316.573 76.697 316.217 76.8095C315.992 76.8282 315.673 76.8281 315.242 76.8469C313.424 76.9031 313.087 76.9406 312.862 76.9593C312.731 76.9781 312.655 76.9781 312.018 76.9781C310.519 76.9781 309.057 76.9594 307.67 76.9219C310.219 70.0619 311.887 65.8821 312.693 64.3264C312.862 63.8578 313.106 63.2394 313.387 62.5084C313.799 63.4081 314.455 64.8326 315.336 66.5195C315.861 67.4191 316.292 68.2625 316.667 69.1247C317.548 70.8491 318.616 73.7918 319.684 76.8095C318.86 76.7157 318.016 76.697 317.191 76.697Z" fill="white"/>
<path d="M296.986 56.192L296.592 54.2427C296.574 54.1302 296.536 54.0365 296.48 53.9428L296.086 53.1556C295.955 52.8932 295.73 52.6871 295.468 52.5746C293.444 51.7311 290.894 51.3375 287.708 51.3375C285.852 51.3375 283.079 51.375 279.461 51.4687L278.355 51.4875C277.924 51.4312 277.287 51.3562 276.144 51.3187C275.825 51.3187 275.675 51.2813 275.656 51.2813C275.431 51.1876 275.169 51.1688 274.925 51.225L273.463 51.5624C272.639 51.5811 271.889 51.5811 271.27 51.5811C266.922 51.5811 263.154 51.4687 260.043 51.2438L259.256 51.1875L257.325 51.3001C256.969 51.3188 256.632 51.4874 256.426 51.7873C256.22 52.0684 256.126 52.4434 256.22 52.7807L256.819 55.4422C256.801 55.5547 256.763 55.7421 256.707 56.0233C256.501 56.9042 256.407 57.5978 256.407 58.1788C256.407 59.3221 256.763 60.4092 257.457 61.4026L257.925 62.0774C258.15 62.396 258.506 62.6022 258.9 62.6022L259.65 62.6209C263.998 62.6959 267.466 62.7334 270.202 62.7521C270.221 64.8514 270.258 67.7003 270.333 71.2615C270.427 75.4038 270.464 78.5713 270.464 80.708C270.464 85.75 270.352 90.1172 270.127 93.6972L270.09 94.5593L270.202 96.7897C270.221 97.1459 270.408 97.502 270.69 97.7081C270.896 97.8581 271.158 97.9518 271.402 97.9518C271.514 97.9518 271.608 97.9332 271.72 97.9144L274.288 97.2396C274.401 97.2583 274.55 97.2958 274.794 97.352C275.675 97.5769 276.368 97.6895 276.949 97.6895C278.112 97.6895 279.199 97.2771 280.192 96.4524L280.848 95.9089C281.129 95.684 281.298 95.3466 281.298 94.9717L281.317 94.1095C281.41 87.1183 281.448 82.0389 281.448 78.5902V70.1557C281.448 68.2252 281.429 65.7698 281.411 62.7334C284.353 62.7146 288.477 62.6771 293.931 62.6022L295.149 62.5834C295.711 62.5834 296.199 62.171 296.33 61.6275L296.63 60.2593C296.724 59.8469 296.817 59.1722 296.892 57.3353C296.892 56.9605 296.93 56.7918 296.93 56.7918C297.005 56.6231 297.024 56.3982 296.986 56.192Z" fill="white"/>
<path d="M176.449 54.5238L176.43 53.1181C176.43 52.5371 176.018 52.0311 175.455 51.8811L174.106 51.5436C173.675 51.4312 173 51.3188 171.182 51.2438C170.863 51.2438 170.732 51.225 170.751 51.225C170.507 51.1313 170.245 51.1126 169.964 51.1689L168.052 51.6187C167.921 51.6562 167.808 51.6937 167.695 51.7687L166.927 52.2185C166.665 52.3684 166.458 52.6121 166.365 52.912C165.559 55.2174 165.165 58.1225 165.165 61.7587C165.165 63.9142 165.203 67.1193 165.297 71.2803C165.39 75.4225 165.428 78.5901 165.428 80.7268C165.428 85.75 165.315 90.1359 165.09 93.7158L165.053 94.5968L165.165 96.8273C165.184 97.2209 165.372 97.577 165.69 97.802C165.915 97.9706 166.177 98.0455 166.458 98.0455C166.571 98.0455 166.683 98.0269 166.796 98.0081L169.345 97.3334C169.457 97.3521 169.607 97.3896 169.832 97.4458C170.713 97.6895 171.407 97.7832 172.025 97.7832C173.206 97.7832 174.312 97.3708 175.324 96.5461L175.98 96.0026C176.28 95.7589 176.449 95.4027 176.449 95.0091L176.468 94.147C176.561 87.1558 176.598 82.0763 176.598 78.6276V70.1931C176.58 66.7444 176.542 61.6275 176.449 54.5238Z" fill="white"/>
<path d="M157.874 75.0103C158.399 74.3917 158.867 73.717 159.298 73.0047C160.067 71.8239 160.386 71.1867 160.536 70.6806C160.836 69.6685 160.986 68.2815 160.986 66.2948C160.986 62.9397 160.555 60.7467 159.58 59.191C158.999 58.2726 158.118 57.3729 156.899 56.417C154.444 54.449 151.014 53.0995 146.703 52.406C143.517 51.9936 140.349 51.5625 137.219 51.1314L136.825 51.0752C136.657 51.0564 136.488 51.0565 136.338 51.1127L135.963 51.2251C135.007 51.4875 133.901 51.6188 132.627 51.6188C131.821 51.6188 130.546 51.5438 128.859 51.3751C126.966 51.1877 125.561 51.1127 124.567 51.1127C123.161 51.1127 121.85 51.2065 120.631 51.4126L119.151 51.6562C118.551 51.7499 118.12 52.2748 118.12 52.8746V58.6663C118.12 60.2407 118.138 62.621 118.195 65.7324V70.212C118.157 70.3432 118.12 70.4745 118.12 70.6244V76.6409L118.082 78.4778C118.082 78.609 118.101 78.7214 118.138 78.8338C118.157 80.1271 118.157 81.6641 118.195 83.4635V90.4734C118.195 91.9166 118.176 92.4227 118.157 93.3786L118.082 96.2088C118.082 96.5462 118.195 96.8648 118.439 97.1085C118.664 97.3521 118.982 97.4834 119.319 97.4834H124.493C124.605 97.5208 124.717 97.5396 124.849 97.5396L126.573 97.5209L126.91 97.5584C126.966 97.5584 127.004 97.5584 127.06 97.5584C127.154 97.5584 127.229 97.5584 127.323 97.5209L128.335 97.3897C128.503 97.3897 128.653 97.3334 128.803 97.2772C129.534 97.2022 130.378 97.146 131.352 97.146C132.121 97.146 133.302 97.1835 134.876 97.2772C136.563 97.3709 137.856 97.4084 138.737 97.4084C139.131 97.4084 139.581 97.3897 140.105 97.3147C140.387 97.4647 140.724 97.5021 141.043 97.4084C142.486 96.9773 143.91 96.8273 145.354 97.0148C145.841 97.071 146.31 97.1461 146.778 97.221C147.303 97.296 147.847 97.371 148.371 97.4459C148.465 97.4647 148.577 97.4647 148.671 97.4459L148.933 97.4084C149.027 97.3897 149.121 97.3709 149.234 97.3709C149.402 97.3522 149.59 97.3521 149.758 97.3521H150.377H150.395C150.658 97.3521 150.883 97.2398 151.089 97.0711C154.35 96.4338 157.124 94.297 159.336 90.7171C160.104 89.5363 160.423 88.9178 160.573 88.393C160.873 87.3808 161.023 85.9938 161.023 84.007C161.023 80.652 160.592 78.459 159.617 76.9034C159.168 76.3223 158.624 75.685 157.874 75.0103ZM130.097 79.7336C130.453 79.7336 130.846 79.7523 131.296 79.771C132.533 79.8085 133.321 79.8273 133.677 79.8273C144.248 80.0335 147.771 81.233 148.933 81.9265C149.158 82.0577 149.833 82.4701 149.833 84.2882C149.833 84.813 149.796 85.0192 149.796 85.0192C149.721 85.3191 148.615 86.0875 145.71 86.4999L145.447 86.5374C144.754 86.6311 144.323 86.706 144.285 86.7248H138.831C137.407 86.7623 136.357 86.7811 135.645 86.7811C133.377 86.7811 131.503 86.6685 130.022 86.4623L130.097 79.7336ZM149.777 67.2693C149.702 67.5692 148.596 68.3377 145.691 68.7313C144.847 68.8625 144.323 68.9375 144.266 68.9563H138.812L137.931 68.975L136.807 68.825C136.638 68.8063 136.469 68.8063 136.319 68.8626L135.626 69.0124C133.358 69.0124 131.465 68.9 130.003 68.6938L130.097 61.965C130.453 61.9837 130.846 61.9837 131.296 62.0025C132.533 62.04 133.321 62.0588 133.677 62.0588C144.248 62.2649 147.771 63.4645 148.933 64.158C149.177 64.3079 149.833 64.7016 149.833 66.5197C149.815 67.082 149.777 67.2693 149.777 67.2693Z" fill="white"/>
<path d="M254.739 60.0906C254.158 59.0972 253.277 58.0852 252.077 57.0355C249.603 54.8426 246.173 53.3618 241.806 52.5933C238.62 52.1247 235.452 51.6562 232.322 51.2063L231.928 51.1501C231.741 51.1314 231.535 51.1313 231.366 51.1876L230.991 51.3001C230.054 51.5813 228.948 51.7312 227.711 51.7312C226.905 51.7312 225.649 51.6374 223.963 51.4688C222.051 51.2626 220.627 51.1689 219.652 51.1689C218.227 51.1689 216.897 51.2814 215.697 51.5063L214.216 51.7687C213.598 51.8812 213.148 52.4247 213.148 53.0432V59.4159C213.148 61.159 213.166 63.7643 213.223 67.2131V74.9353C213.223 76.5285 213.204 77.0719 213.185 78.1403L213.111 81.2517C213.111 81.6079 213.242 81.9265 213.485 82.1889C213.729 82.4326 214.066 82.5824 214.404 82.5824H219.539C219.652 82.6199 219.783 82.6387 219.914 82.6387L221.62 82.6199L221.957 82.6575C222.126 82.6762 222.276 82.6762 222.445 82.6387L223.419 82.4887C223.588 82.4887 223.756 82.4325 223.906 82.3575C224.618 82.2638 225.462 82.2264 226.399 82.2264C227.168 82.2264 228.349 82.2638 229.923 82.3575C231.61 82.4512 232.903 82.5075 233.784 82.5075C234.103 82.5075 234.478 82.4888 234.89 82.4513L241.806 95.9089C242.893 97.9707 244.88 99.0953 247.392 99.0953C247.785 99.0953 248.31 99.0765 249.004 99.0203C249.491 98.9828 249.847 98.9641 250.053 98.9641C250.128 98.9641 250.26 98.9828 250.541 99.039L252.677 99.4701C252.771 99.4888 252.846 99.4888 252.94 99.4888C253.24 99.4888 253.521 99.3952 253.764 99.189C254.064 98.9453 254.233 98.5704 254.233 98.1768V95.1404C254.233 94.9717 254.195 94.7843 254.121 94.6156L253.97 94.2595C253.371 92.8725 251.928 90.2484 249.547 86.2374C248.591 84.6255 247.785 83.1635 247.186 81.8328C250.053 80.8956 252.508 78.6276 254.477 75.0851C255.245 73.7919 255.564 73.1172 255.695 72.5549C255.995 71.449 256.145 69.9308 256.145 67.7754C256.126 64.1579 255.695 61.7775 254.739 60.0906ZM244.843 68.094C244.843 68.7125 244.805 68.9374 244.805 68.9374C244.693 69.3685 243.531 70.1558 240.757 70.5868C239.913 70.718 239.389 70.8118 239.351 70.8305H233.897C232.472 70.868 231.423 70.9054 230.71 70.9054C228.48 70.9054 226.606 70.793 225.144 70.5681L225.237 63.0146C225.575 63.0334 225.949 63.0333 226.362 63.052C227.599 63.1083 228.386 63.1271 228.742 63.1271C239.276 63.352 242.781 64.664 243.924 65.4137C244.13 65.5636 244.843 66.0322 244.843 68.094Z" fill="white"/>
<path d="M42.5657 48.8819C41.5911 48.8819 41.0289 48.4884 31.0013 37.1862C29.2207 35.1807 27.4778 33.2314 26.0909 31.6945C25.8284 31.4321 25.4159 31.1697 24.9661 30.8885C24.4225 30.5324 23.8601 30.1763 23.3915 29.7077L16.4941 22.8664C15.988 22.379 15.4819 21.8918 15.0508 21.4045C12.9704 18.8929 8.97816 15.5566 5.79182 12.8763C0.956068 8.82779 0.0187432 7.94682 0 6.85971C0 6.48485 0.168689 4.98536 0.46858 4.72296C1.27454 4.01072 3.20538 4.01071 14.3576 3.89825C15.8008 3.87951 17.1125 3.917 18.2559 3.89825C19.2305 3.917 20.1681 3.917 20.9928 3.89825H22.1358H25.0224C30.5329 3.95448 32.426 4.46055 37.2993 3.89825C37.6179 3.86077 37.9365 3.89825 38.2364 3.89825C40.092 3.89825 41.8164 4.51681 42.5287 4.87294C44.0094 5.62266 44.1966 8.17168 44.1216 17.2246C44.1028 19.5301 44.0841 21.6855 44.1591 23.3349V25.0219V26.5962C44.0654 29.0891 44.1217 32.9502 44.1966 36.6801C44.3466 47.851 44.3276 48.6945 42.5657 48.8819Z" fill="white"/>
</svg>
