<svg width="25" height="25" viewBox="0 0 25 25" fill="none" xmlns="http://www.w3.org/2000/svg">
<path d="M24.4292 7.60648C24.4157 6.59665 24.2267 5.59685 23.8705 4.65181C23.5616 3.85468 23.0899 3.13074 22.4854 2.52625C21.8809 1.92176 21.157 1.45001 20.3599 1.14115C19.427 0.790955 18.4414 0.601601 17.4452 0.581146C16.1625 0.523813 15.7558 0.507812 12.4999 0.507812C9.24385 0.507812 8.82652 0.507813 7.55318 0.581146C6.55739 0.601751 5.57231 0.791103 4.63985 1.14115C3.84259 1.4498 3.11854 1.92147 2.51403 2.52599C1.90951 3.13051 1.43784 3.85456 1.12918 4.65181C0.778291 5.58399 0.589347 6.56929 0.570516 7.56515C0.513183 8.84915 0.49585 9.25582 0.49585 12.5118C0.49585 15.7678 0.49585 16.1838 0.570516 17.4585C0.590516 18.4558 0.778516 19.4398 1.12918 20.3745C1.43835 21.1715 1.91038 21.8953 2.5151 22.4995C3.11982 23.1038 3.84393 23.5753 4.64118 23.8838C5.57109 24.2481 6.55635 24.451 7.55452 24.4838C8.83852 24.5412 9.24518 24.5585 12.5012 24.5585C15.7572 24.5585 16.1745 24.5585 17.4479 24.4838C18.4441 24.4642 19.4297 24.2753 20.3625 23.9252C21.1594 23.6159 21.8832 23.1441 22.4876 22.5396C23.0921 21.9352 23.564 21.2114 23.8732 20.4145C24.2239 19.4812 24.4118 18.4972 24.4319 17.4985C24.4892 16.2158 24.5065 15.8092 24.5065 12.5518C24.5038 9.29582 24.5039 8.88248 24.4292 7.60648ZM12.4919 18.6692C9.08652 18.6692 6.32785 15.9105 6.32785 12.5051C6.32785 9.09982 9.08652 6.34115 12.4919 6.34115C14.1266 6.34115 15.6945 6.99057 16.8505 8.14654C18.0064 9.30252 18.6559 10.8704 18.6559 12.5051C18.6559 14.1399 18.0064 15.7078 16.8505 16.8638C15.6945 18.0197 14.1266 18.6691 12.4919 18.6692ZM18.9012 7.55048C18.1052 7.55048 17.4639 6.90781 17.4639 6.11315C17.4639 5.92448 17.501 5.73766 17.5732 5.56336C17.6454 5.38905 17.7512 5.23068 17.8846 5.09727C18.018 4.96386 18.1764 4.85804 18.3507 4.78584C18.525 4.71364 18.7119 4.67648 18.9005 4.67648C19.0892 4.67648 19.276 4.71364 19.4503 4.78584C19.6246 4.85804 19.783 4.96386 19.9164 5.09727C20.0498 5.23068 20.1556 5.38905 20.2278 5.56336C20.3 5.73766 20.3372 5.92448 20.3372 6.11315C20.3372 6.90781 19.6945 7.55048 18.9012 7.55048Z" fill="white"/>
</svg>
