<svg width="25" height="25" viewBox="0 0 25 25" fill="none" xmlns="http://www.w3.org/2000/svg">
<path d="M3.16667 0.533203H21.8333C22.5406 0.533203 23.2189 0.814155 23.719 1.31425C24.219 1.81435 24.5 2.49263 24.5 3.19987V21.8665C24.5 22.5738 24.219 23.2521 23.719 23.7522C23.2189 24.2523 22.5406 24.5332 21.8333 24.5332H3.16667C2.45942 24.5332 1.78115 24.2523 1.28105 23.7522C0.780951 23.2521 0.5 22.5738 0.5 21.8665V3.19987C0.5 2.49263 0.780951 1.81435 1.28105 1.31425C1.78115 0.814155 2.45942 0.533203 3.16667 0.533203ZM6.5 16.5332C5.96957 16.5332 5.46086 16.7439 5.08579 17.119C4.71071 17.4941 4.5 18.0028 4.5 18.5332C4.5 19.0636 4.71071 19.5723 5.08579 19.9474C5.46086 20.3225 5.96957 20.5332 6.5 20.5332C7.03043 20.5332 7.53914 20.3225 7.91421 19.9474C8.28929 19.5723 8.5 19.0636 8.5 18.5332C8.5 18.0028 8.28929 17.4941 7.91421 17.119C7.53914 16.7439 7.03043 16.5332 6.5 16.5332ZM4.5 9.86654V12.5332C6.62173 12.5332 8.65656 13.3761 10.1569 14.8763C11.6571 16.3766 12.5 18.4115 12.5 20.5332H15.1667C15.1667 17.7042 14.0429 14.9911 12.0425 12.9907C10.0421 10.9903 7.32898 9.86654 4.5 9.86654ZM4.5 4.5332V7.19987C8.03622 7.19987 11.4276 8.60463 13.9281 11.1051C16.4286 13.6056 17.8333 16.997 17.8333 20.5332H20.5C20.5 16.2897 18.8143 12.2201 15.8137 9.2195C12.8131 6.21891 8.74346 4.5332 4.5 4.5332Z" fill="white"/>
</svg>
