<svg width="229" height="128" viewBox="0 0 229 128" fill="none" xmlns="http://www.w3.org/2000/svg">
<path d="M66.4959 34.1033C65.7459 34.1033 65.3258 33.8033 57.7258 25.2333C56.3758 23.7133 55.0559 22.2333 54.0059 21.0633C53.8059 20.8633 53.4959 20.6633 53.1559 20.4533C52.7459 20.1933 52.3158 19.9133 51.9558 19.5633L46.7258 14.3833C46.3458 14.0133 45.9659 13.6333 45.6259 13.2833C44.0459 11.3733 41.0258 8.85333 38.5958 6.82333C34.9358 3.76333 34.2158 3.08333 34.2058 2.26333C34.1958 1.97333 34.3358 0.833338 34.5558 0.643338C35.1658 0.0933382 36.6258 0.103333 45.0858 0.0133333C46.1758 0.00333333 47.1859 0.0333333 48.0359 0.0133333C48.7659 0.0333333 49.4858 0.0233333 50.1058 0.0133333H50.9758H53.1658C57.3358 0.0633333 58.7858 0.443333 62.4758 0.0133333C62.7158 -0.0166667 62.9558 0.0133333 63.1958 0.0133333C64.6058 0.0133333 65.9058 0.483333 66.4558 0.763333C67.5758 1.33333 67.7258 3.27332 67.6658 10.1233C67.6558 11.8633 67.6358 13.5133 67.6958 14.7633V16.0433V17.2433C67.6258 19.1333 67.6758 22.0633 67.7158 24.8933C67.8558 33.3233 67.8359 33.9633 66.4959 34.1033Z" fill="white"/>
<path d="M67.7758 37.6334C67.6458 39.1134 68.1757 45.0734 67.6757 50.4834C67.6757 51.1734 67.6757 51.8734 67.6757 52.6134C67.6757 54.0234 67.6757 55.4634 67.6757 56.9434C67.6857 57.7934 67.6858 58.5934 67.6858 59.4034C67.9258 64.1234 68.0557 69.1733 68.0557 74.2233C68.0557 75.2333 68.1158 90.5333 68.1058 91.5333C66.8758 93.0033 64.1758 93.7433 50.9858 93.2833C50.1458 93.2833 49.3158 93.2833 48.4458 93.2833C44.4158 93.6633 35.6558 94.2334 35.7758 92.5834C32.5358 90.4234 34.6959 83.9434 34.2859 78.2134C34.2859 77.4934 34.2859 76.7434 34.2859 75.9634C34.2859 68.8034 34.2859 60.4934 34.2859 53.2334C34.2859 52.4634 34.2859 51.7433 34.2859 51.0333C34.6959 46.1433 34.1858 41.3734 33.6158 36.4234C31.4558 33.1834 24.9758 35.3434 19.7458 35.0134C18.8058 34.9934 17.8458 34.9534 16.8958 34.9034C11.2158 34.6034 5.54575 33.9934 2.30575 36.4234C-0.934251 38.5834 1.22579 45.0634 0.975793 50.1034C0.975793 50.8234 0.975793 51.5634 0.975793 52.3034C1.15579 59.3334 1.20583 66.7334 1.13583 73.9534C1.12583 74.9834 1.52582 87.7934 1.50582 88.8134C1.25582 97.6634 4.38581 100.583 13.9958 107.943C14.5758 108.523 15.1658 109.113 15.7558 109.703C18.5258 112.473 21.4557 113.783 24.0457 116.373C24.5657 116.893 25.0758 117.403 25.5758 117.903C33.4558 126.423 33.7058 126.173 41.0758 125.933C41.7758 125.933 50.0958 126.573 50.8258 126.573C59.4658 126.573 70.1357 126.573 79.4157 126.573C80.1157 126.573 80.7858 126.573 81.4358 126.583C87.6258 127.143 95.7458 126.963 100.066 123.723C102.226 122.643 100.586 118.503 100.926 114.253C100.926 113.623 100.926 112.973 100.946 112.273C100.946 109.333 100.946 106.043 100.946 102.543C100.946 101.663 100.986 100.503 100.956 99.8034C101.666 90.4234 101.666 79.6234 100.676 69.4334C100.686 68.3934 100.696 67.3434 100.706 66.2934C100.746 63.1334 100.816 59.9134 100.916 56.5634C100.936 55.5034 100.976 54.4334 101.026 53.3634C101.326 46.9434 101.936 40.4633 99.5058 36.4133C97.3458 33.1733 89.7858 35.3334 84.3158 35.0134C83.4858 35.0134 82.6458 35.0134 81.8158 35.0134C77.9058 35.3434 74.3658 35.4034 70.3758 35.0734C69.1558 35.0834 67.8758 36.4634 67.7758 37.6334Z" fill="white"/>
<path d="M228.566 68.413L228.556 67.543C228.546 67.173 228.296 66.853 227.946 66.773L227.106 66.563C226.846 66.493 226.416 66.423 225.256 66.373C225.056 66.373 224.966 66.353 224.976 66.363C224.826 66.303 224.656 66.293 224.496 66.323L223.296 66.603C223.216 66.623 223.146 66.653 223.076 66.693L222.586 66.973C222.416 67.073 222.296 67.223 222.226 67.403C221.716 68.833 221.466 70.633 221.466 72.893C221.466 74.223 221.496 76.203 221.556 78.783C221.616 81.363 221.646 83.333 221.646 84.633C221.646 87.763 221.576 90.463 221.436 92.673L221.406 93.213L221.476 94.593C221.486 94.833 221.606 95.063 221.806 95.203C221.946 95.303 222.116 95.363 222.286 95.363C222.356 95.363 222.426 95.353 222.486 95.333L224.106 94.923C224.176 94.933 224.276 94.963 224.426 95.003C224.986 95.153 225.426 95.213 225.796 95.213C226.536 95.213 227.236 94.953 227.876 94.443L228.296 94.113C228.486 93.963 228.596 93.733 228.596 93.493L228.606 92.963C228.666 88.703 228.696 85.473 228.696 83.353V78.133C228.656 75.993 228.626 72.733 228.566 68.413Z" fill="white"/>
<path d="M228.836 37.1833L228.826 36.3133C228.816 35.9433 228.566 35.6233 228.216 35.5333L227.366 35.3233C227.106 35.2533 226.676 35.1833 225.516 35.1333C225.316 35.1333 225.216 35.1133 225.236 35.1233C225.086 35.0633 224.916 35.0433 224.756 35.0833L223.546 35.3633C223.466 35.3833 223.396 35.4133 223.326 35.4533L222.836 35.7333C222.666 35.8333 222.546 35.9833 222.476 36.1633C221.966 37.5933 221.716 39.3933 221.716 41.6533C221.716 42.9833 221.746 44.9633 221.806 47.5433C221.866 50.1033 221.896 52.0733 221.896 53.3933C221.896 56.5033 221.826 59.2133 221.686 61.4333L221.656 61.9733L221.726 63.3533C221.736 63.5933 221.856 63.8233 222.056 63.9633C222.196 64.0633 222.366 64.1233 222.536 64.1233C222.606 64.1233 222.676 64.1133 222.736 64.0933L224.346 63.6733C224.416 63.6833 224.516 63.7133 224.656 63.7433C225.216 63.8933 225.656 63.9533 226.026 63.9533C226.766 63.9533 227.456 63.6933 228.096 63.1833L228.516 62.8533C228.706 62.7033 228.816 62.4733 228.816 62.2333L228.826 61.6933C228.886 57.3633 228.916 54.2133 228.916 52.0833V46.8633C228.926 44.7533 228.896 41.5833 228.836 37.1833Z" fill="black"/>
<path d="M227.766 99.5229C227.166 99.5229 226.826 99.7629 220.686 106.683C219.596 107.913 218.536 109.103 217.686 110.043C217.526 110.203 217.266 110.363 216.996 110.543C216.666 110.753 216.316 110.973 216.026 111.263L211.806 115.443C211.496 115.743 211.196 116.043 210.916 116.333C209.636 117.873 207.206 119.913 205.246 121.543C202.296 124.013 201.716 124.553 201.706 125.223C201.706 125.453 201.826 125.753 201.996 125.903C202.486 126.343 203.656 126.483 210.486 126.553C211.366 126.563 212.176 126.573 212.866 126.583C213.456 126.563 214.036 126.573 214.536 126.583L215.236 126.593L216.996 126.563C220.366 126.523 221.536 126.653 224.506 127.003C224.696 127.023 224.896 127.033 225.086 127.033C226.226 127.033 227.276 126.653 227.716 126.433C228.616 125.973 228.736 124.413 228.696 118.883C228.686 117.473 228.676 116.153 228.716 115.143V114.113V113.143C228.656 111.613 228.696 109.253 228.736 106.973C228.856 100.153 228.846 99.6329 227.766 99.5229Z" fill="black"/>
<path d="M144.096 37.0232L143.996 36.3332C143.956 36.0332 143.746 35.7732 143.456 35.6832L142.796 35.4632C141.726 35.1032 140.726 35.1632 138.916 35.6432L138.016 35.8832C137.636 35.9832 137.386 36.3331 137.416 36.7231L137.486 37.6532C137.946 43.9132 138.046 45.8232 138.046 46.3132C138.046 46.7032 138.016 47.3932 137.966 48.3632L137.716 53.1532C137.536 54.6832 137.116 55.8232 136.456 56.5532C136.136 56.9232 135.896 57.0932 135.756 57.1732C135.376 57.3832 134.386 57.7432 132.086 57.7432C130.896 57.7432 129.716 57.5232 128.576 57.0832C127.376 56.6332 126.496 56.0531 125.946 55.3431C125.716 55.0331 125.546 54.5232 125.476 53.9432L125.386 51.2632C125.386 51.2532 125.376 51.1332 125.376 51.1232C125.286 50.4432 125.216 49.9132 125.166 49.6532C125.086 47.8832 125.046 46.5432 125.046 45.6532C124.956 41.6932 124.806 38.8131 124.596 37.1031L124.496 36.2532C124.456 35.8932 124.176 35.6032 123.816 35.5532L122.966 35.4232C122.116 35.2932 121.476 35.2231 121.026 35.2231C119.956 35.2231 119.056 35.5232 118.356 36.1132L117.886 36.5132C117.676 36.6932 117.566 36.9632 117.606 37.2332L117.686 37.8431C117.816 38.8831 117.886 40.1732 117.886 41.6732C117.886 42.4732 117.866 43.6532 117.826 45.1732C117.786 46.7432 117.756 47.9332 117.756 48.7332C117.756 53.4732 118.566 57.2832 120.176 60.0632C120.826 61.1732 121.166 61.5632 121.386 61.7532C121.866 62.2632 122.586 62.7532 123.636 63.3032C124.656 63.8332 125.476 64.1632 126.146 64.3132C126.626 64.4232 127.536 64.5331 130.616 64.5331C134.406 64.5331 137.486 63.9232 139.776 62.7032C141.816 61.6132 143.256 59.5532 144.056 56.5732C144.356 55.4732 144.426 55.0831 144.456 54.8431C144.486 54.6131 144.516 54.1932 144.516 52.0132C144.516 51.3032 144.526 50.2531 144.556 48.8531C144.586 47.4231 144.596 46.3631 144.596 45.6631C144.596 42.2631 144.426 39.3532 144.096 37.0232Z" fill="white"/>
<path d="M187.026 37.1834L187.016 36.3134C187.006 35.9434 186.756 35.6233 186.406 35.5333L185.556 35.3234C185.296 35.2534 184.866 35.1834 183.706 35.1334C183.506 35.1334 183.396 35.1134 183.416 35.1234C183.266 35.0634 183.096 35.0533 182.946 35.0933L181.746 35.3734C181.666 35.3934 181.596 35.4234 181.526 35.4634L181.036 35.7434C180.866 35.8434 180.746 35.9933 180.676 36.1733C180.166 37.6033 179.916 39.4033 179.916 41.6633C179.916 42.9933 179.946 44.9733 180.006 47.5533C180.066 50.1333 180.096 52.0934 180.096 53.4034C180.096 56.5134 180.026 59.2134 179.886 61.4434L179.856 61.8934C179.846 62.1034 179.906 62.3034 180.046 62.4634L181.196 63.8433C181.356 64.0333 181.586 64.1334 181.816 64.1334C181.976 64.1334 182.126 64.0934 182.266 63.9934L182.686 63.7134C182.736 63.7234 182.796 63.7434 182.866 63.7534C183.426 63.9034 183.856 63.9634 184.246 63.9634C184.986 63.9634 185.676 63.7034 186.316 63.1934L186.736 62.8633C186.926 62.7133 187.036 62.4834 187.046 62.2434L187.056 61.7134C187.116 57.3834 187.146 54.2333 187.146 52.1033V46.8834C187.106 44.7534 187.076 41.5834 187.026 37.1834Z" fill="white"/>
<path d="M175.666 62.7031L175.306 61.6331C175.196 61.3031 175.066 60.623 175.066 59.313C175.066 58.583 175.126 57.3031 175.236 55.5031C175.296 54.5131 175.326 52.9731 175.326 50.9431C175.326 49.3031 175.286 44.473 175.216 41.483L175.206 41.1931C175.196 40.7531 174.836 40.4031 174.396 40.4031H169.016C168.576 40.4031 168.216 40.7631 168.206 41.2031C168.166 44.2331 168.106 47.973 168.026 50.553C164.756 46.753 162.186 43.7731 160.386 41.7131C159.956 41.1731 159.626 40.7431 159.376 40.4031L159.256 40.2531C158.836 39.8031 158.506 39.4531 158.336 39.2631L156.896 37.3231C156.886 37.3131 156.836 37.243 156.826 37.233C155.856 36.073 155.086 35.423 154.286 35.103C153.836 34.933 153.336 34.853 152.786 34.853C152.506 34.853 152.106 34.873 151.586 34.923C151.126 34.963 150.886 34.983 150.756 34.983H149.766C149.356 34.983 149.016 35.2831 148.966 35.6931L148.836 36.673C148.506 39.163 148.346 42.2731 148.346 45.9031C148.346 47.0731 148.366 48.833 148.416 51.113C148.456 53.443 148.476 55.1131 148.476 56.2131C148.476 58.3031 148.416 60.213 148.306 61.913L148.226 63.0831C148.216 63.3031 148.286 63.523 148.436 63.683C148.586 63.843 148.796 63.9431 149.016 63.9431L154.306 64.0831C154.636 64.1031 154.986 63.863 155.096 63.533L155.356 62.733C155.486 62.343 155.536 62.043 155.536 61.733C155.536 61.503 155.506 61.2631 155.446 60.9631C155.396 59.3631 155.366 55.8031 155.366 50.3831C155.366 49.8231 155.426 48.923 155.546 47.733C155.586 47.373 155.616 47.0331 155.646 46.7131C157.256 48.6031 159.106 50.993 161.176 53.843C164.586 58.583 167.096 61.8831 168.626 63.6531L168.936 64.0031C169.076 64.1631 169.276 64.263 169.486 64.283L169.956 64.313C170.826 64.373 171.456 64.4031 171.906 64.4031C172.716 64.4031 173.446 64.2931 174.076 64.0831L175.146 63.723C175.346 63.653 175.516 63.5131 175.616 63.313C175.716 63.133 175.736 62.9131 175.666 62.7031Z" fill="white"/>
<path d="M141.056 104.093C139.086 101.183 136.066 99.3732 132.086 98.7132C130.756 98.4832 129.706 98.3832 124.646 98.3832C123.436 98.3832 122.356 98.3332 121.426 98.2232L120.996 98.1732C120.796 98.1532 120.586 98.2032 120.416 98.3332L120.406 98.3432C119.136 98.3832 118.516 99.0632 118.246 99.4732L118.026 99.8232C117.926 99.9832 117.886 100.163 117.906 100.353L117.956 100.773C118.056 101.583 118.106 102.503 118.106 103.513C118.106 103.903 118.076 104.533 118.026 105.393C117.966 106.333 117.936 107.063 117.936 107.563C117.936 107.643 117.946 107.723 117.966 107.793C117.966 107.873 117.976 108.013 117.976 108.203C117.996 109.223 118.046 111.623 118.146 112.993C118.196 113.593 118.226 119.103 118.246 122.743C118.256 124.743 118.266 126.353 118.276 126.673C118.286 127.103 118.636 127.453 119.076 127.453H124.556C124.736 127.453 124.906 127.393 125.036 127.293C125.166 127.383 125.316 127.443 125.486 127.453C126.016 127.473 126.236 127.493 126.396 127.503C126.656 127.523 126.796 127.533 127.786 127.533C130.286 127.533 132.146 127.393 133.476 127.113C135.856 126.673 137.796 125.713 139.226 124.263C141.796 121.683 142.466 120.383 142.706 119.533C143.326 118.533 143.706 117.283 143.836 115.783V112.353C143.836 112.233 143.846 112.003 143.886 111.573C143.936 111.073 143.956 110.713 143.956 110.453C143.986 109.453 143.636 107.923 141.056 104.093ZM125.386 119.983C125.406 114.873 125.456 108.233 125.516 105.773C126.346 105.803 126.986 105.833 127.536 105.863C128.896 105.923 129.586 105.953 130.806 105.963C130.916 105.993 131.106 106.043 131.456 106.143C132.966 106.593 134.266 107.383 135.326 108.493C135.756 108.933 135.896 109.153 135.936 109.213C136.296 109.823 136.516 110.783 136.586 111.973C136.606 113.113 136.646 114.293 136.696 115.473C136.086 116.953 135.836 117.463 135.766 117.583C135.386 118.233 134.956 118.673 134.456 118.943C133.126 119.653 130.876 120.013 127.766 120.013C127.306 120.013 126.596 120.003 125.546 119.973C125.476 119.963 125.436 119.973 125.386 119.983Z" fill="white"/>
<path d="M200.456 104.093C198.486 101.183 195.466 99.3732 191.486 98.7132C190.156 98.4832 189.106 98.3832 184.046 98.3832C182.836 98.3832 181.756 98.3332 180.826 98.2232L180.396 98.1732C180.196 98.1532 179.986 98.2032 179.816 98.3332L179.806 98.3432C178.536 98.3832 177.916 99.0632 177.646 99.4732L177.426 99.8232C177.326 99.9832 177.286 100.163 177.306 100.353L177.356 100.773C177.456 101.583 177.506 102.503 177.506 103.513C177.506 103.903 177.476 104.533 177.426 105.393C177.366 106.333 177.336 107.063 177.336 107.563C177.336 107.643 177.346 107.723 177.366 107.793C177.366 107.873 177.376 108.013 177.376 108.203C177.396 109.223 177.446 111.623 177.546 112.993C177.596 113.593 177.626 119.103 177.646 122.743C177.656 124.743 177.666 126.353 177.676 126.673C177.686 127.103 178.036 127.453 178.476 127.453H183.956C184.136 127.453 184.306 127.393 184.436 127.293C184.566 127.383 184.716 127.443 184.886 127.453C185.416 127.473 185.636 127.493 185.796 127.503C186.056 127.523 186.196 127.533 187.186 127.533C189.686 127.533 191.546 127.393 192.876 127.113C195.256 126.673 197.196 125.713 198.626 124.263C201.196 121.683 201.866 120.383 202.106 119.533C202.726 118.533 203.106 117.283 203.236 115.783V112.353C203.236 112.233 203.246 112.003 203.286 111.573C203.336 111.073 203.356 110.713 203.356 110.453C203.386 109.453 203.036 107.923 200.456 104.093ZM184.786 119.983C184.806 114.873 184.856 108.233 184.916 105.773C185.746 105.803 186.386 105.833 186.936 105.863C188.296 105.923 188.986 105.953 190.206 105.963C190.316 105.993 190.506 106.043 190.856 106.143C192.366 106.593 193.666 107.383 194.726 108.493C195.156 108.933 195.296 109.153 195.336 109.213C195.696 109.823 195.916 110.783 195.986 111.973C196.006 113.113 196.046 114.293 196.096 115.473C195.486 116.953 195.236 117.463 195.166 117.583C194.786 118.233 194.356 118.673 193.856 118.943C192.526 119.653 190.276 120.013 187.166 120.013C186.706 120.013 185.996 120.003 184.946 119.973C184.876 119.963 184.836 119.973 184.786 119.983Z" fill="white"/>
<path d="M215.046 40.6432C213.076 37.7232 210.056 35.9131 206.066 35.2531C204.736 35.0231 203.686 34.9231 198.626 34.9231C197.416 34.9231 196.336 34.8732 195.416 34.7632L194.986 34.7132C194.776 34.6832 194.566 34.7431 194.396 34.8731H194.386C193.116 34.9131 192.486 35.5932 192.226 36.0132L192.006 36.3631C191.906 36.5231 191.866 36.7132 191.886 36.9032L191.936 37.3231C192.036 38.1331 192.086 39.0531 192.086 40.0531C192.086 40.4331 192.056 41.0731 192.006 41.9331C191.946 42.8731 191.916 43.6031 191.916 44.1031C191.916 44.1831 191.926 44.2632 191.946 44.3332C191.946 44.4132 191.956 44.5531 191.956 44.7331C191.976 45.7531 192.026 48.1532 192.126 49.5232C192.176 50.1232 192.206 55.6332 192.226 59.2732C192.236 61.2832 192.246 62.8832 192.256 63.2032C192.266 63.6432 192.626 63.9931 193.066 63.9931H198.546C198.726 63.9931 198.896 63.9332 199.026 63.8332C199.156 63.9232 199.306 63.9831 199.476 63.9931C200.006 64.0131 200.226 64.0331 200.386 64.0431C200.646 64.0631 200.786 64.0731 201.776 64.0731C204.276 64.0731 206.136 63.9332 207.466 63.6532C209.846 63.2132 211.786 62.2531 213.226 60.7931C215.796 58.2131 216.466 56.9031 216.716 56.0631C217.336 55.0531 217.716 53.8131 217.846 52.3031V48.8731C217.846 48.7531 217.856 48.5231 217.896 48.1031C217.946 47.5931 217.966 47.2431 217.966 46.9831C217.976 46.0031 217.626 44.4632 215.046 40.6432ZM199.376 56.5132C199.396 51.4132 199.436 44.8032 199.506 42.3332C200.326 42.3632 200.966 42.3931 201.506 42.4231C202.856 42.4831 203.556 42.5132 204.776 42.5232C204.886 42.5532 205.076 42.6032 205.416 42.7032C206.926 43.1532 208.216 43.9431 209.276 45.0531C209.706 45.4931 209.846 45.7132 209.876 45.7732C210.236 46.3732 210.456 47.3332 210.526 48.5232C210.546 49.6632 210.586 50.8432 210.636 52.0232C210.036 53.5032 209.776 54.0031 209.706 54.1331C209.326 54.7731 208.906 55.2231 208.406 55.4831C207.076 56.1931 204.826 56.5531 201.726 56.5531C201.266 56.5531 200.556 56.5432 199.506 56.5132C199.466 56.5032 199.416 56.5032 199.376 56.5132Z" fill="black"/>
<path d="M194.166 72.1933C193.796 71.5733 193.236 70.9532 192.476 70.3032C190.916 68.9532 188.746 68.0333 185.996 67.5633C183.986 67.2733 181.986 66.9933 179.996 66.7033L179.746 66.6632C179.626 66.6432 179.516 66.6533 179.406 66.6833L179.166 66.7533C178.576 66.9333 177.876 67.0133 177.086 67.0133C176.576 67.0133 175.776 66.9632 174.716 66.8532C173.506 66.7332 172.616 66.6732 171.996 66.6732C171.106 66.6732 170.266 66.7433 169.496 66.8733L168.566 67.0432C168.176 67.1132 167.896 67.4532 167.896 67.8432V71.7932C167.896 72.8732 167.906 74.4832 167.936 76.6132V81.3933C167.936 82.3633 167.926 82.7133 167.916 83.3833L167.876 85.3133C167.876 85.5333 167.956 85.7433 168.106 85.8933C168.256 86.0533 168.466 86.1333 168.686 86.1333H171.936C172.016 86.1533 172.076 86.1432 172.176 86.1732H173.306L173.456 86.1933C173.556 86.2033 173.656 86.2033 173.756 86.1833L174.376 86.0932C174.486 86.0932 174.596 86.0633 174.686 86.0133C175.136 85.9633 175.666 85.9333 176.266 85.9333C176.746 85.9333 177.496 85.9633 178.486 86.0133C179.546 86.0733 180.366 86.1032 180.926 86.1032C181.136 86.1032 181.366 86.0933 181.626 86.0633L185.996 94.4033C186.686 95.6733 187.936 96.3733 189.516 96.3733C189.766 96.3733 190.096 96.3533 190.526 96.3233C190.836 96.3033 191.056 96.2832 191.186 96.2832C191.226 96.2832 191.326 96.2933 191.506 96.3333L192.856 96.6032C192.906 96.6132 192.966 96.6233 193.016 96.6233C193.206 96.6233 193.386 96.5633 193.526 96.4433C193.716 96.2933 193.826 96.0633 193.826 95.8133V93.9333C193.826 93.8232 193.806 93.7132 193.756 93.6032L193.656 93.3833C193.276 92.5233 192.356 90.8932 190.866 88.4132C190.256 87.4232 189.766 86.5133 189.376 85.7033C191.176 85.1233 192.726 83.7132 193.976 81.5332C194.456 80.7232 194.666 80.3033 194.746 79.9633C194.936 79.2833 195.026 78.3433 195.026 77.0033C195.056 74.7133 194.786 73.2333 194.166 72.1933ZM187.936 77.1632C187.936 77.5432 187.906 77.6833 187.906 77.6833C187.836 77.9433 187.106 78.4333 185.336 78.7033C184.866 78.7733 184.556 78.8232 184.396 78.8532H181.006C180.116 78.8832 179.446 78.8933 178.996 78.8933C177.576 78.8933 176.396 78.8233 175.466 78.6833L175.516 74.0233C175.726 74.0333 175.966 74.0432 176.236 74.0532C177.016 74.0832 177.516 74.0932 177.736 74.0932C184.396 74.2332 186.616 75.0433 187.336 75.5133C187.496 75.6033 187.936 75.8832 187.936 77.1632Z" fill="white"/>
<path d="M145.366 68.9533C145.256 68.6933 145.046 68.4833 144.776 68.3833L143.716 67.9833C143.036 67.7233 142.246 67.5933 141.386 67.5933H139.276C138.946 67.5933 138.636 67.7433 138.436 68.0133L138.106 68.4533C137.586 69.1433 137.106 70.1133 136.646 71.4233C136.576 71.6033 136.336 72.3533 135.976 73.4433C134.756 77.1433 131.916 85.8133 131.096 87.5333C131.076 87.5733 131.066 87.6033 131.046 87.6433C130.966 87.8833 130.866 88.1833 130.736 88.5333C130.606 88.4033 130.376 88.1233 130.096 87.5333C129.826 87.0233 129.606 86.5533 129.416 86.0633C128.916 84.9733 128.326 82.6233 127.756 80.3633C127.176 78.0633 126.636 75.8833 126.076 74.6533C125.796 74.1333 125.476 73.5333 125.126 72.8433C124.726 72.0733 124.566 71.3933 124.426 70.7433C124.256 69.9933 124.076 69.2133 123.526 68.5233L123.256 68.1933C123.096 67.9933 122.856 67.8533 122.606 67.8133L122.176 67.7433C121.546 67.6433 120.906 67.5933 120.276 67.5933C119.246 67.5933 118.346 67.8433 117.606 68.3233L116.806 68.8533C116.366 69.1433 116.206 69.7133 116.436 70.1933L116.856 71.0533C117.986 73.3833 120.316 81.3033 121.696 86.0333C122.586 89.0533 122.816 89.8533 122.946 90.1233C123.306 90.8833 123.666 91.6333 124.026 92.3633C124.396 93.1133 124.646 93.7533 124.766 94.2733L124.816 94.4733C124.846 94.6033 124.906 94.7233 124.976 94.8333L125.096 95.0033C125.996 96.2733 129.746 96.3733 129.786 96.3733C130.156 96.3733 130.606 96.3133 131.156 96.2033C131.426 96.1433 131.556 96.1333 131.586 96.1233H134.306C134.686 96.1233 135.046 95.9133 135.226 95.5833L135.546 95.0133C135.906 94.3533 136.416 93.3933 137.116 92.0233C137.126 92.0033 137.186 91.8733 137.186 91.8533C137.256 91.6633 144.226 72.5133 144.926 70.8333L145.356 69.8033C145.476 69.5133 145.476 69.2133 145.366 68.9533Z" fill="white"/>
<path d="M214.816 78.6531L214.636 78.5631C213.876 78.1731 212.086 77.2531 209.236 77.1131C205.956 76.9431 204.266 76.3331 203.726 75.1431C203.726 75.1431 203.766 74.9831 204.106 74.6931C205.306 73.7131 206.876 73.2431 208.926 73.2431C210.796 73.2431 215.856 73.4531 217.206 73.8031C217.446 73.8631 217.716 73.8131 217.916 73.6631C218.116 73.5031 218.236 73.2731 218.236 73.0131V67.0931C218.236 66.7131 217.976 66.3831 217.596 66.2931C216.406 66.0231 213.056 65.8531 209.626 65.7031L209.016 65.6731C205.956 65.5531 202.806 66.7731 199.736 69.3331C199.016 69.9331 198.566 70.3631 198.236 70.7231C197.316 71.8031 196.846 73.2131 196.846 74.9131C196.846 75.2731 196.896 76.0031 197.316 78.5431L197.356 78.8031C197.376 78.9331 197.426 79.0531 197.506 79.1531L197.666 79.3631C198.926 81.0931 200.896 82.4431 203.526 83.3831C204.726 83.8031 204.896 83.8431 205.056 83.8831L205.326 83.9231C206.336 83.9931 207.136 84.0231 207.786 84.0231C208.016 84.0231 208.216 84.0231 208.356 84.0131C209.136 84.0331 210.666 84.3631 211.706 84.6631C212.046 84.7631 212.246 85.3831 212.346 85.7531C212.406 85.9731 212.446 86.1231 212.466 86.2331C212.456 86.2531 212.446 86.2831 212.426 86.3131L212.356 86.4631C212.036 87.3031 211.146 88.0231 209.716 88.5831C208.626 89.0231 206.926 89.2531 204.936 89.2531C202.766 89.2531 200.986 89.0031 199.796 88.5431C199.546 88.4431 199.266 88.4731 199.036 88.6331C198.816 88.7831 198.676 89.0331 198.676 89.3031V94.9731C198.676 95.3231 198.906 95.6431 199.236 95.7531C200.286 96.0931 202.796 96.2231 204.796 96.2231C207.866 96.2231 210.676 95.9631 212.496 95.5131C214.206 95.1031 216.296 93.8331 217.586 92.4331C218.826 91.0731 219.616 89.5731 219.906 88.0531C219.986 87.8031 220.026 87.5331 220.026 87.2431C220.036 83.3231 218.286 80.4331 214.816 78.6531Z" fill="white"/>
<path d="M176.196 93.263C176.196 93.223 176.196 93.183 176.186 93.173C176.186 93.133 176.196 93.023 176.226 92.793C176.286 92.393 176.316 92.073 176.316 91.813C176.316 91.033 176.066 90.333 175.596 89.773L175.236 89.3429C175.076 89.1529 174.816 89.033 174.576 89.053L174.016 89.073C173.386 89.103 172.416 89.113 171.126 89.113C169.716 89.113 165.566 89.063 162.976 88.963C160.276 88.863 158.206 88.813 156.836 88.813C156.246 88.813 155.726 88.813 155.256 88.823L155.176 83.973C156.016 83.913 157.346 83.853 159.466 83.853C160.436 83.853 161.436 83.803 162.446 83.713L163.476 83.623C163.896 83.583 164.216 83.233 164.216 82.813V78.883C164.216 78.543 164.006 78.243 163.686 78.123L162.946 77.853C161.976 77.493 160.786 77.293 159.426 77.253C159.336 77.253 159.266 77.263 159.186 77.283C158.856 77.293 158.116 77.293 156.436 77.293C155.946 77.293 155.496 77.273 155.106 77.243C155.116 77.153 155.116 77.063 155.126 76.953V74.233C155.256 74.313 155.406 74.373 155.576 74.373H155.996C158.876 74.373 161.166 74.143 162.986 73.683C163.166 73.633 163.336 73.533 163.456 73.383L163.826 72.933C163.896 72.843 163.946 72.753 163.986 72.643L164.346 71.523C164.426 71.283 164.436 71.113 164.316 70.903C164.316 70.903 164.306 70.843 164.296 70.663C164.236 69.583 164.136 69.173 164.036 68.893L163.766 68.113C163.646 67.763 163.306 67.523 162.936 67.513L161.806 67.503C159.466 67.483 157.416 67.463 155.596 67.453C155.356 67.483 155.126 67.543 154.966 67.713C154.966 67.713 154.966 67.723 154.956 67.723C154.816 67.553 154.626 67.433 154.386 67.413C153.706 67.363 153.086 67.303 152.536 67.223L152.036 67.153C151.806 67.123 151.576 67.183 151.406 67.333L151.326 67.403C151.296 67.403 151.256 67.393 151.216 67.393C150.876 67.353 150.636 67.333 150.456 67.333C148.866 67.333 147.746 68.423 147.736 70.013C147.736 70.073 147.746 70.133 147.756 70.193L147.816 70.463C147.836 70.603 147.896 70.963 148.006 71.863C148.136 72.903 148.206 73.993 148.206 75.123C148.206 75.903 148.166 77.143 148.096 78.823C148.026 80.543 147.986 81.843 147.986 82.693C147.986 83.193 148.016 83.903 148.076 84.853C148.126 85.693 148.156 86.333 148.156 86.763C148.156 87.103 148.126 87.783 147.956 89.113C147.796 90.343 147.726 91.273 147.726 91.943C147.726 92.763 147.836 93.603 148.046 94.423L148.276 95.323C148.366 95.683 148.696 95.933 149.056 95.933C149.076 95.933 149.086 95.933 149.106 95.933L150.036 95.873C151.866 95.763 153.686 95.703 155.446 95.703C156.856 95.703 158.946 95.733 161.856 95.793C164.676 95.853 168.986 95.883 170.506 95.883H174.476C174.696 95.883 174.896 95.793 175.046 95.643L176.086 94.5929C176.286 94.3929 176.366 94.103 176.296 93.823L176.196 93.263Z" fill="white"/>
<path d="M176.326 125.033L175.856 124.153C174.546 121.713 171.286 113.503 169.346 108.603C168.306 105.993 167.846 104.823 167.716 104.563C167.306 103.783 166.906 103.013 166.496 102.263C166.076 101.483 165.786 100.803 165.636 100.263L165.576 100.053C165.546 99.9532 165.496 99.8532 165.436 99.7632L165.296 99.5833C164.406 98.4533 160.356 98.3232 160.316 98.3232C159.926 98.3232 159.446 98.3732 158.856 98.4932C158.486 98.5632 158.316 98.5833 158.276 98.5833H155.186C154.906 98.5833 154.646 98.7332 154.496 98.9732L154.136 99.5532C153.726 100.223 153.146 101.213 152.366 102.603L152.296 102.743C152.256 102.843 147.766 112.923 145.206 119.193C144.906 119.923 145.456 120.643 146.886 121.393C147.006 121.453 147.136 121.483 147.266 121.483H153.036C153.426 121.493 162.006 121.753 164.366 121.783L166.106 126.953C166.216 127.283 166.526 127.503 166.876 127.503H166.886L167.286 127.493C168.346 127.483 169.816 127.453 172.416 127.433L173.636 127.423C173.926 127.423 174.186 127.263 174.326 127.013C174.616 126.913 174.886 126.783 175.126 126.643L176.036 126.103C176.406 125.893 176.536 125.413 176.326 125.033ZM161.506 114.843C161.326 114.843 161.066 114.843 160.826 114.913C160.676 114.923 160.456 114.923 160.156 114.933C158.896 114.973 158.666 114.993 158.516 115.013C158.416 115.023 158.366 115.023 157.936 115.023C156.886 115.023 155.866 115.013 154.886 114.983C156.666 110.213 157.826 107.303 158.376 106.233C158.496 105.903 158.666 105.483 158.866 104.963C158.876 104.953 158.886 104.943 158.906 104.933C158.916 104.943 158.916 104.963 158.926 104.973C159.206 105.593 159.656 106.583 160.256 107.743C160.616 108.363 160.916 108.953 161.176 109.543C161.786 110.743 162.536 112.793 163.286 114.903C162.686 114.863 162.076 114.843 161.506 114.843Z" fill="white"/>
<path d="M145.466 120.693H145.516C145.506 120.683 145.486 120.683 145.476 120.673C145.476 120.673 145.476 120.683 145.466 120.693Z" fill="white"/>
</svg>
