<svg width="345" height="50" viewBox="0 0 345 50" fill="none" xmlns="http://www.w3.org/2000/svg">
<path d="M245.016 44.3829C242.836 40.3296 237.454 26.7414 234.232 18.6154C232.515 14.2919 231.744 12.3618 231.531 11.9371C230.856 10.6439 230.181 9.37005 229.506 8.13475C228.811 6.84155 228.329 5.72207 228.078 4.8342L227.982 4.48677C227.924 4.31306 227.847 4.13935 227.731 3.98494L227.5 3.69541C226.014 1.82317 219.282 1.59155 219.224 1.59155C218.568 1.59155 217.796 1.68806 216.793 1.86177C216.176 1.97758 215.906 1.99688 215.829 2.01619H210.716C210.234 2.01619 209.791 2.2671 209.54 2.67243L208.942 3.63751C208.267 4.75699 207.321 6.39762 206.009 8.7138L205.913 8.92611C205.836 9.09982 198.409 25.7956 194.165 36.1798C193.663 37.4151 194.57 38.6311 196.962 39.8857C197.155 39.9822 197.386 40.0401 197.599 40.0401H207.148C207.784 40.0594 221.925 40.484 225.879 40.5226L228.754 49.0539C228.946 49.6136 229.467 49.9996 230.065 49.9996H230.085H230.683C232.457 49.9803 234.888 49.9417 239.248 49.9031L241.254 49.8838C241.756 49.8838 242.18 49.6136 242.431 49.2083C242.913 49.0346 243.357 48.8416 243.762 48.5906L245.267 47.7028C245.903 47.3167 246.135 46.5061 245.768 45.8691L245.016 44.3829ZM223.294 28.1118C222.445 28.0539 221.577 28.0153 220.748 28.0153C220.497 28.0153 220.13 28.0153 219.764 28.1311C219.532 28.1504 219.224 28.1504 218.761 28.1697C216.909 28.2276 216.562 28.2662 216.349 28.2855C216.214 28.3048 216.137 28.3048 215.501 28.3048C213.977 28.3048 212.511 28.2855 211.083 28.2469C213.668 21.2791 215.366 17.0134 216.195 15.4307C216.369 14.9482 216.62 14.3305 216.909 13.5778C216.928 13.5585 216.909 13.5778 216.909 13.5778C217.333 14.4849 217.989 15.9518 218.877 17.6504C219.417 18.5575 219.841 19.4261 220.227 20.2947C221.114 22.0511 222.214 25.0428 223.294 28.1118Z" fill="white"/>
<path d="M344.749 39.4227C344.749 39.1331 344.749 38.8243 344.749 38.4962C344.749 37.1065 344.749 35.5817 344.749 33.941C344.749 33.5357 344.768 32.976 344.749 32.6478C345.077 28.2471 345.077 23.1901 344.614 18.4034C344.614 17.9208 344.614 17.419 344.633 16.9365C344.653 15.4502 344.691 13.9447 344.73 12.3813C344.73 11.8795 344.749 11.3776 344.788 10.8758C344.923 7.86476 345.212 4.83443 344.074 2.92358C343.071 1.39876 339.521 2.42174 336.956 2.26733C336.57 2.26733 336.184 2.26733 335.779 2.26733C333.946 2.42174 331.921 2.42174 330.049 2.26733C329.49 2.26733 329.162 2.26733 329.162 2.26733C329.394 4.95023 329.394 6.97689 329.162 9.52468C329.162 9.85281 329.162 10.1809 329.162 10.5284C329.162 11.1846 329.162 11.8602 329.162 12.555C329.162 12.9603 329.162 13.3271 329.162 13.7131C329.278 15.9328 329.336 18.2876 329.336 20.6616C329.336 21.1442 329.374 28.305 329.355 28.7876C328.776 29.4824 327.503 29.8298 321.33 29.6175C320.944 29.6175 320.539 29.6175 320.134 29.6175C318.243 29.7912 314.134 30.0615 314.192 29.2894C312.668 28.2857 313.691 25.2361 313.498 22.5532C313.498 22.2251 313.498 21.8583 313.498 21.4916C313.498 18.1331 313.498 14.2342 313.498 10.8372C313.498 10.4705 313.498 10.1423 313.498 9.81421C313.691 7.51733 313.44 5.27836 313.189 2.96218C312.186 1.43737 309.138 2.46034 306.688 2.30593C306.244 2.30593 305.801 2.28663 305.357 2.24803C302.695 2.11292 300.033 1.8234 298.509 2.96218C296.985 3.96586 298.007 7.01549 297.891 9.37027C297.891 9.6984 297.891 10.0458 297.891 10.4126C297.969 13.7131 298.007 17.1681 297.969 20.5651C297.969 21.0477 298.161 27.0504 298.142 27.533C298.026 31.6828 299.493 33.0532 304.007 36.5081C304.277 36.7784 304.547 37.0486 304.836 37.3381C306.129 38.6313 307.498 39.249 308.714 40.4649C308.964 40.7159 309.196 40.9475 309.427 41.1791C313.112 45.1745 313.228 45.0587 316.7 44.9429C317.028 44.9429 320.925 45.2517 321.272 45.2517C325.323 45.2517 330.32 45.2517 334.66 45.2517C334.988 45.2517 335.297 45.2517 335.605 45.2517C338.499 45.5219 342.319 45.4254 344.344 43.9006C345.347 43.3602 344.576 41.4107 344.749 39.4227Z" fill="white"/>
<path d="M33.2186 2.42172C32.2155 2.42172 31.1738 2.42172 30.1514 2.44102C27.9908 2.46032 25.9652 2.47962 24.3255 2.40242H21.2196C18.8276 2.49892 15.1623 2.44102 11.6127 2.38311C9.45215 2.34451 7.34943 2.30591 5.59395 2.30591C1.65859 2.30591 0.173182 2.30591 0.018854 3.75352C-0.0968919 4.71859 -0.116183 4.93091 11.1305 14.9098C13.0403 16.6083 14.9115 18.2682 16.3776 19.6C16.6284 19.8509 16.8792 20.2563 17.1493 20.6616C17.4772 21.1827 17.8244 21.7232 18.2681 22.1671L24.8078 28.7682C25.2708 29.2315 25.7144 29.6947 26.1581 30.1193C28.5502 32.1074 31.7332 35.9098 34.2796 38.9594C38.1378 43.5725 38.9866 44.4796 40.0284 44.4796C40.3949 44.4796 40.8193 44.2866 41.0701 44.0164C41.7453 43.2636 41.9767 41.43 42.0732 30.7949C42.0925 29.4245 42.0925 28.1506 42.1311 27.089C42.1118 26.1625 42.1118 25.2747 42.1311 24.4833V23.4024L42.0925 20.6616C42.0346 15.3923 42.2275 13.6359 42.787 8.94561C43.0378 6.86106 42.3433 4.8151 41.8996 3.94653C41.3016 2.76914 39.4303 2.42172 33.2186 2.42172Z" fill="white"/>
<path d="M281.204 41.314C281.05 39.7892 280.799 38.8628 280.355 38.1486L279.603 36.9326C279.275 36.3922 278.677 36.064 278.041 36.064L274.896 36.0447C270.035 36.0254 265.598 36.0061 261.566 35.9868C261.605 32.9179 261.624 30.3894 261.624 28.44V20.2947C261.624 16.9749 261.566 11.8793 261.45 5.18169L261.431 3.83059C261.412 3.15504 260.949 2.5953 260.293 2.46019L258.634 2.13206C258.132 2.03555 257.322 1.91974 255.123 1.86184C254.641 1.86184 254.409 1.82324 254.409 1.82324C254.178 1.74603 253.946 1.74603 253.715 1.78463L251.361 2.20927C251.245 2.22857 251.13 2.26717 251.033 2.32508L250.069 2.76901C249.76 2.90412 249.509 3.15504 249.374 3.48316C248.352 5.76074 247.85 8.61735 247.85 12.1881C247.85 14.292 247.908 17.3802 248.024 21.3756C248.14 25.4096 248.197 28.4593 248.197 30.4859C248.197 35.3306 248.062 39.5383 247.792 42.974L247.734 43.6688C247.734 43.7267 247.734 43.8039 247.734 43.8618L247.869 46.0043C247.889 46.4096 248.101 46.7957 248.429 47.0466C248.68 47.2396 248.988 47.3361 249.297 47.3361C249.393 47.3361 249.49 47.3361 249.586 47.3168L252.847 46.6413C252.982 46.6606 253.213 46.6992 253.599 46.7764C254.66 46.9887 255.47 47.1045 256.184 47.1045C256.242 47.1045 256.3 47.0852 256.377 47.0852C256.705 47.4519 257.187 47.6835 257.708 47.6835H258.865C266.755 47.6835 272.986 47.3361 277.905 46.6413C278.195 46.6026 278.465 46.4868 278.696 46.3324L279.719 45.6376C279.95 45.4832 280.124 45.2708 280.259 45.0392L281.262 43.3021C281.416 43.0126 281.513 42.7038 281.513 42.3756C281.513 42.0475 281.416 41.7194 281.262 41.4492C281.204 41.3719 281.204 41.3333 281.204 41.314Z" fill="white"/>
<path d="M192.041 42.0669C191.867 41.5458 191.655 40.5035 191.655 38.4576C191.655 37.3381 191.751 35.3307 191.925 32.5127C192.021 30.9686 192.06 28.5752 192.06 25.4098C192.06 22.9006 192.002 8.15425 191.886 3.38679L191.867 2.92356C191.848 2.248 191.288 1.68826 190.613 1.68826H182.241C181.546 1.68826 180.987 2.248 180.987 2.94286L180.929 7.30499C180.871 12.7287 180.794 20.237 180.678 24.7535C175.605 18.8473 171.611 14.2149 168.795 11.0109C168.12 10.1616 167.599 9.50536 167.213 8.98422L167.02 8.7526C166.364 8.05775 165.863 7.51731 165.593 7.20848L163.239 4.04304C161.734 2.248 160.519 1.22503 159.284 0.723188C158.59 0.452968 157.799 0.337158 156.95 0.337158C156.507 0.337158 155.889 0.375761 155.079 0.452967C154.385 0.510871 153.999 0.530174 153.806 0.530174H152.263C151.626 0.530174 151.086 0.993408 151.009 1.63036L150.816 3.15517C150.314 7.03477 150.044 11.8794 150.044 17.5348C150.044 19.3684 150.083 22.1092 150.141 25.6607C150.218 29.2894 150.237 31.8951 150.237 33.6129C150.237 34.2498 150.237 34.8675 150.218 35.4851C147.343 35.4658 142.443 35.3886 139.145 35.2535C134.939 35.0991 131.718 35.0219 129.596 35.0219C128.689 35.0219 127.859 35.0219 127.126 35.0412L126.991 27.475C128.303 27.3785 130.387 27.282 133.685 27.282C135.209 27.282 136.772 27.2048 138.334 27.0697L139.936 26.9153C140.591 26.8574 141.074 26.3169 141.074 25.6607V19.5228C141.074 19.0017 140.746 18.5191 140.244 18.3454L139.087 17.9208C137.563 17.3611 135.73 17.0522 133.608 16.9943C133.454 16.9943 133.357 17.0136 133.242 17.0522C132.74 17.0522 131.583 17.0715 128.959 17.0715C128.187 17.0715 127.493 17.0522 126.876 16.9943C126.876 16.8592 126.895 16.7048 126.914 16.5504V12.3234C127.126 12.4392 127.339 12.5357 127.609 12.5357H128.265C132.759 12.5357 136.309 12.1883 139.145 11.4548C139.434 11.3776 139.685 11.2232 139.878 10.9916L140.437 10.2967C140.553 10.1616 140.63 10.0072 140.669 9.85279L141.228 8.11565C141.344 7.74892 141.363 7.4787 141.17 7.15058C141.17 7.15058 141.151 7.05407 141.151 6.78385C141.132 5.06602 140.977 4.42907 140.823 3.98514L140.399 2.76914C140.206 2.2094 139.685 1.84267 139.106 1.84267L137.351 1.82337C133.705 1.78477 130.522 1.76547 127.686 1.74617C127.319 1.74617 126.972 1.88128 126.721 2.1515C126.721 2.1515 126.721 2.1515 126.721 2.1708C126.509 1.90058 126.2 1.70756 125.834 1.68826C124.773 1.61106 123.808 1.51455 122.96 1.39874L122.188 1.28293C121.841 1.24433 121.474 1.34084 121.204 1.57245L121.069 1.68826C121.011 1.68826 120.953 1.66896 120.895 1.66896C120.355 1.61106 119.989 1.57245 119.699 1.57245C117.23 1.57245 115.475 3.27098 115.475 5.74157C115.475 5.83808 115.494 5.93459 115.513 6.03109L115.61 6.43642C115.648 6.64874 115.725 7.18918 115.918 8.61749C116.131 10.2388 116.227 11.9373 116.227 13.6938C116.227 14.9291 116.169 16.8785 116.053 19.4649C115.938 22.1285 115.88 24.1552 115.88 25.487C115.88 26.259 115.918 27.3592 116.015 28.8454C116.092 30.1579 116.15 31.1616 116.15 31.8179C116.15 32.339 116.092 33.4006 115.841 35.4851C115.61 37.4153 115.475 38.8629 115.475 39.9052C115.475 41.1984 115.648 42.4916 115.976 43.7655L116.343 45.1745C116.497 45.7342 116.999 46.1203 117.558 46.1203C117.577 46.1203 117.616 46.1203 117.635 46.1203L119.082 46.0237C121.937 45.85 124.773 45.7535 127.493 45.7535C129.673 45.7535 132.952 45.7921 137.486 45.8886C141.903 45.9851 148.597 46.0237 150.951 46.0237H157.124C157.317 46.0237 157.51 45.9658 157.683 45.8693L159.362 45.9079C159.902 45.8886 160.423 45.5798 160.596 45.0394L161.001 43.8041C161.194 43.2057 161.291 42.7232 161.291 42.2407C161.291 41.8739 161.252 41.4879 161.136 41.044C161.059 38.5155 161.021 32.9759 161.021 24.5605C161.021 23.6919 161.117 22.3022 161.31 20.43C161.368 19.8702 161.426 19.3298 161.464 18.8473C163.953 21.7811 166.847 25.5063 170.068 29.9649C175.373 37.3574 179.27 42.4916 181.662 45.2517L182.144 45.8114C182.356 46.0623 182.665 46.2168 183.012 46.2361L183.745 46.294C185.096 46.3905 186.099 46.4291 186.793 46.4291C188.047 46.4291 189.185 46.2554 190.169 45.9465L191.848 45.3868C192.156 45.2903 192.426 45.0587 192.581 44.7498C192.735 44.441 192.754 44.0936 192.658 43.7848L192.041 42.0669Z" fill="white"/>
<path d="M103.593 20.1404L103.323 20.0053C102.146 19.4263 99.3683 18.0944 94.9506 17.8821C89.8192 17.6312 87.1764 16.7433 86.3469 15.0448C86.3661 14.9869 86.5012 14.7553 86.9256 14.4079C88.8161 12.9603 91.2854 12.2654 94.4684 12.2654C97.3813 12.2654 105.271 12.5742 107.393 13.0954C107.76 13.1919 108.146 13.0954 108.454 12.8638C108.744 12.6321 108.937 12.2654 108.937 11.8987V3.21302C108.937 2.63397 108.531 2.13213 107.953 1.99702C106.101 1.61099 100.892 1.36007 95.5487 1.14776L94.6034 1.10916C89.8385 0.935442 84.9772 2.73048 80.2123 6.45566C79.0935 7.34353 78.3797 7.96118 77.8781 8.50162C76.4313 10.1036 75.6982 12.1882 75.6982 14.7167C75.6982 15.2378 75.7754 16.338 76.4313 20.0632L76.4892 20.4492C76.5278 20.6422 76.6049 20.8353 76.7399 20.9897L76.9907 21.2985C78.9391 23.827 82.0064 25.815 86.0961 27.1854C87.9673 27.8031 88.2181 27.861 88.4689 27.9189L88.874 27.9768C90.4366 28.0733 91.6905 28.1312 92.6936 28.1312C93.0408 28.1312 93.3688 28.1312 93.581 28.1119C94.8156 28.1312 97.1498 28.6138 98.8281 29.077C99.349 29.2121 99.6576 30.0228 99.8313 30.679C99.9084 30.9685 99.9663 31.1808 100.005 31.3353C99.9856 31.3546 99.9663 31.3932 99.947 31.4318C99.9277 31.4511 99.8505 31.6248 99.8505 31.6441C99.349 32.8794 97.9793 33.9217 95.7416 34.7516C94.044 35.3886 91.3818 35.7553 88.2567 35.7553C84.8615 35.7553 82.0836 35.3886 80.2123 34.713C79.8265 34.5779 79.4021 34.6358 79.0742 34.8674C78.7462 35.099 78.5533 35.4851 78.5533 35.8711V44.19C78.5533 44.7305 78.9005 45.213 79.4214 45.3674C81.0418 45.8693 84.9386 46.043 88.0445 46.043C92.8093 46.043 97.1691 45.6569 100.005 45.0007C102.648 44.4024 105.908 42.5494 107.895 40.4842C109.843 38.4768 111.059 36.2571 111.522 34.0375C111.657 33.6514 111.715 33.2654 111.715 32.8215C111.734 27.0117 109.014 22.7461 103.593 20.1404Z" fill="white"/>
</svg>
