<svg width="38" height="40" viewBox="0 0 38 40" fill="none" xmlns="http://www.w3.org/2000/svg">
<path d="M36.5674 0C35.7255 0 35.2483 0.341704 26.6327 10.1953C25.1032 11.9467 23.6158 13.6411 22.4231 14.9796C22.1986 15.2075 21.8338 15.4353 21.455 15.6916C20.9919 15.9906 20.5008 16.3039 20.0939 16.7169L14.1723 22.6689C13.7373 23.096 13.3163 23.5232 12.9234 23.9362C11.1273 26.129 7.71764 29.0338 4.96738 31.3548C0.827941 34.8719 0.014032 35.6408 0 36.5948C0 36.9223 0.168439 37.3496 0.406982 37.5631C1.09455 38.1897 2.73628 38.389 12.3201 38.4886C13.5549 38.5029 14.6915 38.5172 15.6597 38.5314C16.4876 38.5029 17.3015 38.5172 18.0031 38.5314L18.9853 38.5456L21.455 38.5029C26.1837 38.4459 27.8255 38.6311 31.993 39.1294C32.2596 39.1579 32.5402 39.1721 32.8068 39.1721C34.4064 39.1721 35.8798 38.631 36.4972 38.3178C37.7601 37.6628 37.9284 35.4415 37.8723 27.5672C37.8583 25.5594 37.8443 23.6799 37.9004 22.2417V20.775V19.3939C37.8162 17.2152 37.8724 13.8547 37.9285 10.6082C38.0969 0.897003 38.0829 0.156632 36.5674 0Z" fill="white"/>
</svg>
