<svg width="183" height="97" viewBox="0 0 183 97" fill="none" xmlns="http://www.w3.org/2000/svg">
<path d="M52.8739 26.3586C52.2731 26.3586 51.9366 26.1328 45.8477 19.6817C44.7661 18.5376 43.7086 17.4235 42.8674 16.5428C42.7072 16.3923 42.4588 16.2417 42.1864 16.0836C41.858 15.8879 41.5134 15.6772 41.225 15.4137L37.0349 11.5145C36.7305 11.236 36.426 10.9499 36.1536 10.6864C34.8878 9.24869 32.4683 7.3518 30.5214 5.82373C27.5892 3.52033 27.0123 3.00846 27.0043 2.39121C26.9963 2.17292 27.1084 1.31479 27.2847 1.17177C27.7734 0.75776 28.9431 0.765284 35.721 0.697537C36.5942 0.690009 37.4035 0.712591 38.0845 0.697537C38.6693 0.712591 39.2461 0.705064 39.7428 0.697537H40.4398H42.1944C45.5352 0.735174 46.6969 1.02122 49.6532 0.697537C49.8455 0.674954 50.0378 0.697537 50.2301 0.697537C51.3597 0.697537 52.4012 1.05133 52.8419 1.2621C53.7392 1.69116 53.8593 3.15147 53.8112 8.30778C53.8032 9.61755 53.7872 10.8596 53.8353 11.8005V12.764V13.6673C53.7792 15.09 53.8193 17.2956 53.8513 19.4258C53.9635 25.7715 53.9475 26.2532 52.8739 26.3586Z" fill="#282827"/>
<path d="M53.899 29.0156C53.7948 30.1296 54.2194 34.616 53.8188 38.6883C53.8188 39.2077 53.8188 39.7347 53.8188 40.2917C53.8188 41.3531 53.8188 42.437 53.8188 43.5511C53.8268 44.1909 53.8268 44.7931 53.8268 45.4029C54.0191 48.9558 54.1232 52.7571 54.1232 56.5585C54.1232 57.3188 54.1713 68.8358 54.1633 69.5885C53.1779 70.695 51.0148 71.2521 40.4474 70.9058C39.7744 70.9058 39.1094 70.9058 38.4124 70.9058C35.1837 71.1918 28.1656 71.6209 28.2617 70.3789C25.666 68.753 27.3965 63.8752 27.068 59.562C27.068 59.02 27.068 58.4554 27.068 57.8683C27.068 52.4787 27.068 46.2233 27.068 40.7584C27.068 40.1788 27.068 39.6368 27.068 39.1023C27.3965 35.4214 26.9879 31.8308 26.5312 28.1047C24.8007 25.6659 19.6091 27.2918 15.4191 27.0434C14.666 27.0283 13.8969 26.9982 13.1358 26.9606C8.58514 26.7348 4.04247 26.2756 1.4467 28.1047C-1.14907 29.7307 0.581479 34.6085 0.381188 38.4023C0.381188 38.9443 0.381188 39.5013 0.381188 40.0583C0.525398 45.3501 0.565483 50.9205 0.509402 56.3553C0.50139 57.1306 0.821852 66.7733 0.805829 67.5411C0.605538 74.2029 3.11317 76.4009 10.8124 81.9411C11.277 82.3777 11.7497 82.8218 12.2224 83.2659C14.4416 85.351 16.789 86.3371 18.864 88.2867C19.2806 88.6781 19.6892 89.062 20.0898 89.4384C26.403 95.8518 26.6033 95.6636 32.5078 95.4829C33.0687 95.4829 39.7343 95.9647 40.3192 95.9647C47.2412 95.9647 55.7896 95.9647 63.2244 95.9647C63.7853 95.9647 64.322 95.9647 64.8428 95.9722C69.802 96.3938 76.3075 96.2582 79.7685 93.8194C81.499 93.0064 80.1851 89.89 80.4575 86.6909C80.4575 86.2167 80.4575 85.7274 80.4735 85.2005C80.4735 82.9874 80.4735 80.5108 80.4735 77.8762C80.4735 77.2138 80.5056 76.3406 80.4815 75.8137C81.0504 68.753 81.0503 60.6233 80.2572 52.9529C80.2652 52.17 80.2732 51.3796 80.2812 50.5892C80.3133 48.2106 80.3693 45.7867 80.4495 43.265C80.4655 42.4671 80.4976 41.6617 80.5377 40.8562C80.778 36.0236 81.2667 31.1458 79.3199 28.0972C77.5894 25.6583 71.5325 27.2843 67.1502 27.0434C66.4852 27.0434 65.8122 27.0434 65.1472 27.0434C62.0147 27.2918 59.1786 27.337 55.982 27.0886C55.0046 27.0961 53.9791 28.1349 53.899 29.0156Z" fill="#282827"/>
<path d="M182.717 52.1861L182.709 51.5312C182.701 51.2527 182.5 51.0119 182.22 50.9517L181.547 50.7936C181.339 50.7409 180.994 50.6882 180.065 50.6506C179.905 50.6506 179.833 50.6355 179.841 50.643C179.72 50.5979 179.584 50.5903 179.456 50.6129L178.495 50.8237C178.43 50.8387 178.374 50.8613 178.318 50.8914L177.926 51.1022C177.79 51.1775 177.693 51.2904 177.637 51.4259C177.229 52.5023 177.028 53.8573 177.028 55.5585C177.028 56.5596 177.052 58.05 177.101 59.9921C177.149 61.9342 177.173 63.4171 177.173 64.3957C177.173 66.7518 177.117 68.7842 177.004 70.4477L176.98 70.8542L177.037 71.893C177.045 72.0736 177.141 72.2468 177.301 72.3522C177.413 72.4275 177.549 72.4726 177.685 72.4726C177.742 72.4726 177.798 72.4651 177.846 72.4501L179.144 72.1414C179.2 72.1489 179.28 72.1715 179.4 72.2016C179.849 72.3145 180.201 72.3597 180.497 72.3597C181.09 72.3597 181.651 72.164 182.164 71.7801L182.5 71.5317C182.653 71.4188 182.741 71.2456 182.741 71.065L182.749 70.6661C182.797 67.4594 182.821 65.028 182.821 63.4321V59.5028C182.789 57.892 182.765 55.438 182.717 52.1861Z" fill="#282827"/>
<path d="M182.934 28.6775L182.926 28.0226C182.918 27.7441 182.718 27.5032 182.437 27.4354L181.756 27.2774C181.548 27.2247 181.203 27.172 180.274 27.1344C180.114 27.1344 180.034 27.1193 180.05 27.1268C179.93 27.0817 179.793 27.0666 179.665 27.0967L178.696 27.3075C178.632 27.3225 178.576 27.3451 178.52 27.3752L178.127 27.586C177.991 27.6613 177.895 27.7742 177.839 27.9097C177.43 28.9861 177.23 30.3411 177.23 32.0423C177.23 33.0434 177.254 34.5338 177.302 36.4759C177.35 38.4029 177.374 39.8859 177.374 40.8795C177.374 43.2205 177.318 45.2604 177.206 46.9315L177.182 47.338L177.238 48.3768C177.246 48.5575 177.342 48.7306 177.502 48.836C177.614 48.9113 177.75 48.9564 177.887 48.9564C177.943 48.9564 177.999 48.9489 178.047 48.9338L179.337 48.6177C179.393 48.6252 179.473 48.6478 179.585 48.6704C180.034 48.7833 180.386 48.8285 180.683 48.8285C181.276 48.8285 181.828 48.6327 182.341 48.2488L182.678 48.0004C182.83 47.8875 182.918 47.7144 182.918 47.5337L182.926 47.1273C182.974 43.8679 182.998 41.4967 182.998 39.8934V35.964C183.006 34.3757 182.982 31.9895 182.934 28.6775Z" fill="#EA5830"/>
<path d="M182.076 75.6035C181.595 75.6035 181.322 75.7842 176.403 80.9931C175.53 81.919 174.681 82.8148 174 83.5224C173.872 83.6428 173.663 83.7632 173.447 83.8987C173.183 84.0568 172.902 84.2224 172.67 84.4407L169.289 87.5872C169.041 87.813 168.8 88.0389 168.576 88.2572C167.55 89.4164 165.604 90.952 164.033 92.1789C161.67 94.0382 161.205 94.4447 161.197 94.949C161.197 95.1222 161.293 95.348 161.43 95.4609C161.822 95.7921 162.76 95.8975 168.232 95.9502C168.937 95.9577 169.585 95.9653 170.138 95.9728C170.611 95.9577 171.076 95.9653 171.476 95.9728L172.037 95.9803L173.447 95.9577C176.147 95.9276 177.084 96.0255 179.464 96.2889C179.616 96.304 179.776 96.3115 179.928 96.3115C180.842 96.3115 181.683 96.0255 182.036 95.8599C182.757 95.5136 182.853 94.3393 182.821 90.1766C182.813 89.1153 182.805 88.1217 182.837 87.3614V86.586V85.8559C182.789 84.7042 182.821 82.9277 182.853 81.2114C182.949 76.0777 182.941 75.6863 182.076 75.6035Z" fill="#EA5830"/>
<path d="M115.044 28.5571L114.964 28.0377C114.932 27.8119 114.763 27.6162 114.531 27.5484L114.002 27.3828C113.145 27.1119 112.344 27.157 110.894 27.5183L110.173 27.699C109.868 27.7743 109.668 28.0377 109.692 28.3313L109.748 29.0314C110.117 33.7435 110.197 35.1813 110.197 35.5501C110.197 35.8437 110.173 36.3631 110.133 37.0932L109.932 40.6989C109.788 41.8506 109.452 42.7087 108.923 43.2582C108.667 43.5367 108.474 43.6647 108.362 43.7249C108.058 43.883 107.264 44.154 105.422 44.154C104.468 44.154 103.523 43.9884 102.61 43.6572C101.648 43.3185 100.943 42.8818 100.503 42.3474C100.318 42.114 100.182 41.7302 100.126 41.2936L100.054 39.2762C100.054 39.2687 100.046 39.1783 100.046 39.1708C99.9739 38.6589 99.9178 38.26 99.8777 38.0643C99.8136 36.7319 99.7816 35.7233 99.7816 35.0533C99.7095 32.0724 99.5893 29.9045 99.4211 28.6173L99.341 27.9775C99.3089 27.7065 99.0846 27.4882 98.7962 27.4506L98.1152 27.3527C97.4342 27.2548 96.9215 27.2021 96.561 27.2021C95.7037 27.2021 94.9826 27.428 94.4218 27.8721L94.0453 28.1732C93.8771 28.3087 93.7889 28.5119 93.821 28.7152L93.885 29.1743C93.9892 29.9572 94.0453 30.9282 94.0453 32.0574C94.0453 32.6596 94.0292 33.5478 93.9972 34.692C93.9651 35.8738 93.9412 36.7695 93.9412 37.3717C93.9412 40.9398 94.59 43.8077 95.8799 45.9004C96.4007 46.7359 96.6731 47.0295 96.8494 47.1725C97.2339 47.5564 97.8108 47.9252 98.652 48.3392C99.4692 48.7382 100.126 48.9866 100.663 49.0995C101.047 49.1823 101.777 49.2651 104.244 49.2651C107.281 49.2651 109.748 48.806 111.583 47.8876C113.217 47.0671 114.371 45.5165 115.012 43.2733C115.252 42.4453 115.308 42.1517 115.332 41.971C115.356 41.7979 115.38 41.4818 115.38 39.8408C115.38 39.3063 115.388 38.5159 115.412 37.4621C115.436 36.3856 115.444 35.5877 115.444 35.0608C115.444 32.5015 115.308 30.311 115.044 28.5571Z" fill="#282827"/>
<path d="M149.437 28.6773L149.429 28.0224C149.421 27.7439 149.22 27.503 148.94 27.4352L148.259 27.2772C148.051 27.2245 147.706 27.1718 146.777 27.1341C146.616 27.1341 146.528 27.1191 146.544 27.1266C146.424 27.0814 146.288 27.0739 146.168 27.104L145.206 27.3148C145.142 27.3298 145.086 27.3524 145.03 27.3826L144.638 27.5933C144.501 27.6686 144.405 27.7815 144.349 27.917C143.941 28.9934 143.74 30.3483 143.74 32.0495C143.74 33.0507 143.764 34.5411 143.812 36.4832C143.861 38.4253 143.885 39.9007 143.885 40.8868C143.885 43.2278 143.828 45.2602 143.716 46.9389L143.692 47.2776C143.684 47.4357 143.732 47.5862 143.844 47.7067L144.766 48.7454C144.894 48.8884 145.078 48.9637 145.263 48.9637C145.391 48.9637 145.511 48.9336 145.623 48.8583L145.96 48.6476C146 48.6551 146.048 48.6702 146.104 48.6777C146.552 48.7906 146.897 48.8358 147.209 48.8358C147.802 48.8358 148.355 48.6401 148.868 48.2562L149.204 48.0077C149.357 47.8948 149.445 47.7217 149.453 47.541L149.461 47.1421C149.509 43.8827 149.533 41.5115 149.533 39.9082V35.9789C149.501 34.3755 149.477 31.9893 149.437 28.6773Z" fill="#282827"/>
<path d="M140.336 47.8878L140.048 47.0824C139.96 46.834 139.856 46.3221 139.856 45.336C139.856 44.7865 139.904 43.823 139.992 42.468C140.04 41.7228 140.064 40.5636 140.064 39.0355C140.064 37.801 140.032 34.1652 139.976 31.9145L139.968 31.6963C139.96 31.365 139.671 31.1016 139.319 31.1016H135.009C134.656 31.1016 134.368 31.3726 134.36 31.7038C134.328 33.9846 134.279 36.7998 134.215 38.7419C131.596 35.8815 129.537 33.6383 128.094 32.0877C127.75 31.6812 127.486 31.3575 127.285 31.1016L127.189 30.9887C126.853 30.6499 126.588 30.3865 126.452 30.2435L125.298 28.7831C125.29 28.7756 125.25 28.7229 125.242 28.7154C124.465 27.8422 123.848 27.3529 123.207 27.112C122.847 26.984 122.446 26.9238 122.006 26.9238C121.781 26.9238 121.461 26.9389 121.044 26.9765C120.676 27.0066 120.483 27.0217 120.379 27.0217H119.586C119.258 27.0217 118.985 27.2475 118.945 27.5562L118.841 28.2938C118.577 30.1682 118.448 32.5092 118.448 35.2417C118.448 36.1224 118.464 37.4472 118.504 39.1635C118.537 40.9174 118.553 42.1745 118.553 43.0025C118.553 44.5757 118.504 46.0134 118.416 47.2931L118.352 48.1738C118.344 48.3395 118.4 48.505 118.521 48.6255C118.641 48.7459 118.809 48.8212 118.985 48.8212L123.223 48.9266C123.488 48.9416 123.768 48.761 123.856 48.5125L124.065 47.9104C124.169 47.6168 124.209 47.391 124.209 47.1576C124.209 46.9845 124.185 46.8039 124.137 46.578C124.097 45.3736 124.073 42.6939 124.073 38.614C124.073 38.1924 124.121 37.515 124.217 36.6192C124.249 36.3482 124.273 36.0923 124.297 35.8514C125.587 37.2741 127.069 39.0731 128.727 41.2184C131.459 44.7865 133.47 47.2706 134.696 48.6029L134.944 48.8664C135.057 48.9868 135.217 49.062 135.385 49.0771L135.762 49.0997C136.459 49.1449 136.963 49.1675 137.324 49.1675C137.973 49.1675 138.558 49.0847 139.062 48.9266L139.92 48.6556C140.08 48.6029 140.216 48.4975 140.296 48.347C140.376 48.2115 140.392 48.0459 140.336 47.8878Z" fill="#282827"/>
<path d="M112.608 79.0434C111.029 76.8529 108.61 75.4905 105.421 74.9937C104.356 74.8206 103.514 74.7453 99.4605 74.7453C98.4911 74.7453 97.6257 74.7076 96.8807 74.6248L96.5362 74.5872C96.376 74.5721 96.2077 74.6098 96.0715 74.7077L96.0636 74.7151C95.0461 74.7453 94.5493 75.2571 94.333 75.5657L94.1568 75.8292C94.0767 75.9497 94.0446 76.0851 94.0606 76.2282L94.1006 76.5444C94.1808 77.1541 94.2208 77.8466 94.2208 78.6069C94.2208 78.9004 94.1968 79.3747 94.1568 80.022C94.1087 80.7296 94.0846 81.2791 94.0846 81.6555C94.0846 81.7157 94.0926 81.7759 94.1087 81.8286C94.1087 81.8888 94.1167 81.9942 94.1167 82.1372C94.1327 82.905 94.1728 84.7116 94.2529 85.7429C94.293 86.1945 94.317 90.3421 94.333 93.0821C94.341 94.5876 94.3491 95.7995 94.3571 96.0404C94.3651 96.3641 94.6454 96.6276 94.9979 96.6276H99.3883C99.5325 96.6276 99.6688 96.5824 99.7729 96.5071C99.8771 96.5749 99.9972 96.6201 100.133 96.6276C100.558 96.6426 100.734 96.6577 100.863 96.6652C101.071 96.6803 101.183 96.6878 101.976 96.6878C103.979 96.6878 105.469 96.5824 106.535 96.3716C108.441 96.0404 109.996 95.3178 111.141 94.2263C113.2 92.2842 113.737 91.3056 113.929 90.6658C114.426 89.9131 114.731 88.9721 114.835 87.843V85.2611C114.835 85.1708 114.843 84.9977 114.875 84.674C114.915 84.2976 114.931 84.0266 114.931 83.8309C114.955 83.0782 114.675 81.9264 112.608 79.0434ZM100.053 91.0046C100.069 87.158 100.109 82.1598 100.157 80.3081C100.822 80.3307 101.335 80.3532 101.776 80.3758C102.865 80.421 103.418 80.4436 104.396 80.4511C104.484 80.4737 104.636 80.5113 104.916 80.5866C106.126 80.9253 107.168 81.52 108.017 82.3555C108.361 82.6867 108.474 82.8524 108.506 82.8975C108.794 83.3567 108.97 84.0793 109.026 84.9751C109.042 85.8332 109.074 86.7214 109.114 87.6097C108.626 88.7237 108.425 89.1077 108.369 89.198C108.065 89.6873 107.72 90.0185 107.32 90.2217C106.254 90.7562 104.452 91.0272 101.96 91.0272C101.592 91.0272 101.023 91.0196 100.181 90.997C100.125 90.9895 100.093 90.997 100.053 91.0046Z" fill="#282827"/>
<path d="M160.197 79.0434C158.619 76.8529 156.2 75.4905 153.011 74.9937C151.945 74.8206 151.104 74.7453 147.05 74.7453C146.081 74.7453 145.216 74.7076 144.471 74.6248L144.126 74.5872C143.966 74.5721 143.798 74.6098 143.661 74.7077L143.653 74.7151C142.636 74.7453 142.139 75.2571 141.923 75.5657L141.747 75.8292C141.667 75.9497 141.634 76.0851 141.65 76.2282L141.691 76.5444C141.771 77.1541 141.811 77.8466 141.811 78.6069C141.811 78.9004 141.787 79.3747 141.747 80.022C141.699 80.7296 141.675 81.2791 141.675 81.6555C141.675 81.7157 141.683 81.7759 141.699 81.8286C141.699 81.8888 141.707 81.9942 141.707 82.1372C141.723 82.905 141.763 84.7116 141.843 85.7429C141.883 86.1945 141.907 90.3421 141.923 93.0821C141.931 94.5876 141.939 95.7995 141.947 96.0404C141.955 96.3641 142.235 96.6276 142.588 96.6276H146.978C147.122 96.6276 147.259 96.5824 147.363 96.5071C147.467 96.5749 147.587 96.6201 147.723 96.6276C148.148 96.6426 148.324 96.6577 148.452 96.6652C148.661 96.6803 148.773 96.6878 149.566 96.6878C151.569 96.6878 153.059 96.5824 154.125 96.3716C156.031 96.0404 157.586 95.3178 158.731 94.2263C160.79 92.2842 161.327 91.3056 161.519 90.6658C162.016 89.9131 162.321 88.9721 162.425 87.843V85.2611C162.425 85.1708 162.433 84.9977 162.465 84.674C162.505 84.2976 162.521 84.0266 162.521 83.8309C162.545 83.0782 162.264 81.9264 160.197 79.0434ZM147.643 91.0046C147.659 87.158 147.699 82.1598 147.747 80.3081C148.412 80.3307 148.925 80.3532 149.366 80.3758C150.455 80.421 151.008 80.4436 151.986 80.4511C152.074 80.4737 152.226 80.5113 152.506 80.5866C153.716 80.9253 154.758 81.52 155.607 82.3555C155.951 82.6867 156.063 82.8524 156.095 82.8975C156.384 83.3567 156.56 84.0793 156.616 84.9751C156.632 85.8332 156.664 86.7214 156.704 87.6097C156.216 88.7237 156.015 89.1077 155.959 89.198C155.655 89.6873 155.31 90.0185 154.91 90.2217C153.844 90.7562 152.042 91.0272 149.55 91.0272C149.181 91.0272 148.613 91.0196 147.771 90.997C147.715 90.9895 147.683 90.997 147.643 91.0046Z" fill="#282827"/>
<path d="M171.885 31.282C170.307 29.084 167.887 27.7215 164.691 27.2247C163.625 27.0516 162.784 26.9763 158.73 26.9763C157.761 26.9763 156.895 26.9386 156.158 26.8558L155.814 26.8182C155.646 26.7956 155.477 26.8408 155.341 26.9386H155.333C154.316 26.9687 153.811 27.4806 153.603 27.7968L153.426 28.0602C153.346 28.1807 153.314 28.3237 153.33 28.4667L153.37 28.7829C153.45 29.3926 153.49 30.0851 153.49 30.8379C153.49 31.1239 153.466 31.6057 153.426 32.253C153.378 32.9606 153.354 33.5101 153.354 33.8865C153.354 33.9467 153.362 34.0069 153.378 34.0596C153.378 34.1198 153.386 34.2252 153.386 34.3607C153.402 35.1285 153.442 36.9351 153.522 37.9664C153.563 38.418 153.587 42.5656 153.603 45.3056C153.611 46.8186 153.619 48.023 153.627 48.2639C153.635 48.5951 153.923 48.8586 154.275 48.8586H158.666C158.81 48.8586 158.946 48.8134 159.051 48.7381C159.155 48.8059 159.275 48.851 159.411 48.8586C159.836 48.8736 160.012 48.8887 160.14 48.8962C160.348 48.9112 160.461 48.9188 161.254 48.9188C163.257 48.9188 164.747 48.8134 165.812 48.6027C167.719 48.2714 169.273 47.5488 170.427 46.4498C172.486 44.5077 173.023 43.5216 173.223 42.8893C173.72 42.129 174.024 41.1956 174.128 40.059V37.4771C174.128 37.3867 174.136 37.2136 174.168 36.8974C174.209 36.5135 174.225 36.2501 174.225 36.0544C174.233 35.3167 173.952 34.1575 171.885 31.282ZM159.331 43.228C159.347 39.389 159.379 34.4134 159.435 32.5541C160.092 32.5767 160.605 32.5993 161.037 32.6219C162.119 32.667 162.68 32.6896 163.657 32.6972C163.745 32.7197 163.897 32.7574 164.17 32.8326C165.38 33.1714 166.413 33.766 167.262 34.6016C167.607 34.9328 167.719 35.0984 167.743 35.1436C168.032 35.5952 168.208 36.3179 168.264 37.2136C168.28 38.0718 168.312 38.96 168.352 39.8482C167.871 40.9623 167.663 41.3387 167.607 41.4365C167.302 41.9183 166.966 42.257 166.565 42.4527C165.5 42.9871 163.697 43.2581 161.214 43.2581C160.845 43.2581 160.276 43.2506 159.435 43.228C159.403 43.2205 159.363 43.2205 159.331 43.228Z" fill="#EA5830"/>
<path d="M155.156 55.0309C154.86 54.5642 154.411 54.0975 153.802 53.6082C152.553 52.592 150.814 51.8995 148.611 51.5457C147.001 51.3274 145.398 51.1166 143.804 50.8983L143.604 50.8682C143.507 50.8531 143.419 50.8607 143.331 50.8832L143.139 50.9359C142.666 51.0714 142.105 51.1317 141.472 51.1317C141.064 51.1317 140.423 51.094 139.574 51.0112C138.604 50.9209 137.891 50.8757 137.395 50.8757C136.682 50.8757 136.009 50.9284 135.392 51.0263L134.647 51.1542C134.334 51.2069 134.11 51.4628 134.11 51.7564V54.7298C134.11 55.5427 134.118 56.7547 134.142 58.358V61.9561C134.142 62.6863 134.134 62.9498 134.126 63.4541L134.094 64.9069C134.094 65.0725 134.158 65.2306 134.278 65.3435C134.398 65.4639 134.566 65.5241 134.743 65.5241H137.346C137.411 65.5392 137.459 65.5317 137.539 65.5542H138.444L138.564 65.5693C138.644 65.5768 138.724 65.5768 138.805 65.5618L139.301 65.494C139.389 65.494 139.478 65.4715 139.55 65.4338C139.91 65.3962 140.335 65.3736 140.816 65.3736C141.2 65.3736 141.801 65.3962 142.594 65.4338C143.443 65.479 144.1 65.5015 144.549 65.5015C144.717 65.5015 144.901 65.494 145.11 65.4714L148.611 71.7494C149.164 72.7053 150.165 73.2322 151.431 73.2322C151.631 73.2322 151.896 73.2172 152.24 73.1946C152.489 73.1796 152.665 73.1645 152.769 73.1645C152.801 73.1645 152.881 73.172 153.025 73.2022L154.107 73.4054C154.147 73.4129 154.195 73.4204 154.235 73.4204C154.387 73.4204 154.531 73.3753 154.644 73.2849C154.796 73.172 154.884 72.9989 154.884 72.8107V71.3955C154.884 71.3127 154.868 71.2299 154.828 71.1471L154.748 70.9815C154.443 70.3342 153.706 69.1072 152.513 67.2404C152.024 66.4952 151.631 65.8102 151.319 65.2005C152.761 64.7639 154.003 63.7025 155.004 62.0615C155.389 61.4518 155.557 61.1357 155.621 60.8797C155.773 60.3679 155.845 59.6603 155.845 58.6516C155.869 56.9278 155.653 55.8137 155.156 55.0309ZM150.165 58.772C150.165 59.058 150.141 59.1634 150.141 59.1634C150.085 59.3592 149.5 59.728 148.082 59.9313C147.706 59.9839 147.457 60.0216 147.329 60.0441H144.613C143.9 60.0667 143.363 60.0743 143.003 60.0743C141.865 60.0743 140.92 60.0216 140.175 59.9162L140.215 56.4084C140.383 56.4159 140.575 56.4234 140.791 56.431C141.416 56.4536 141.817 56.4611 141.993 56.4611C147.329 56.5665 149.108 57.1762 149.684 57.53C149.813 57.5977 150.165 57.8085 150.165 58.772Z" fill="#282827"/>
<path d="M116.06 52.5921C115.972 52.3964 115.804 52.2383 115.588 52.1631L114.739 51.8619C114.194 51.6662 113.561 51.5684 112.872 51.5684H111.181C110.917 51.5684 110.669 51.6813 110.508 51.8845L110.244 52.2158C109.827 52.7351 109.443 53.4653 109.074 54.4514C109.018 54.5869 108.826 55.1515 108.538 55.9719C107.56 58.7571 105.285 65.2834 104.628 66.5781C104.612 66.6082 104.604 66.6308 104.588 66.6609C104.524 66.8416 104.444 67.0674 104.339 67.3308C104.235 67.233 104.051 67.0222 103.827 66.5781C103.61 66.1942 103.434 65.8404 103.282 65.4716C102.881 64.6511 102.409 62.8821 101.952 61.1809C101.487 59.4496 101.055 57.8087 100.606 56.8828C100.382 56.4914 100.125 56.0397 99.8449 55.5203C99.5244 54.9407 99.3962 54.4288 99.284 53.9395C99.1478 53.375 99.0037 52.7878 98.5631 52.2685L98.3467 52.02C98.2186 51.8695 98.0263 51.7641 97.826 51.734L97.4814 51.6813C96.9767 51.606 96.464 51.5684 95.9593 51.5684C95.1341 51.5684 94.413 51.7566 93.8201 52.1179L93.1792 52.5168C92.8267 52.7351 92.6985 53.1642 92.8827 53.5255L93.2193 54.1729C94.1246 55.9268 95.9913 61.8885 97.0969 65.449C97.8099 67.7223 97.9942 68.3245 98.0983 68.5277C98.3868 69.0998 98.6752 69.6644 98.9637 70.2139C99.2601 70.7784 99.4604 71.2602 99.5565 71.6516L99.5965 71.8021C99.6205 71.9 99.6686 71.9904 99.7247 72.0732L99.8209 72.2011C100.542 73.1571 103.546 73.2324 103.578 73.2324C103.875 73.2324 104.235 73.1872 104.676 73.1044C104.892 73.0592 104.996 73.0517 105.02 73.0442H107.2C107.504 73.0442 107.792 72.8861 107.937 72.6377L108.193 72.2086C108.481 71.7118 108.89 70.9892 109.451 69.9579C109.459 69.9429 109.507 69.845 109.507 69.8299C109.563 69.6869 115.147 55.2719 115.708 54.0073L116.052 53.2319C116.149 53.0136 116.149 52.7878 116.06 52.5921Z" fill="#282827"/>
<path d="M171.702 59.8939L171.557 59.8261C170.949 59.5326 169.514 58.84 167.231 58.7347C164.603 58.6067 163.249 58.1475 162.817 57.2518C162.817 57.2518 162.849 57.1313 163.121 56.913C164.083 56.1753 165.34 55.8215 166.983 55.8215C168.481 55.8215 172.535 55.9796 173.616 56.2431C173.809 56.2882 174.025 56.2506 174.185 56.1377C174.345 56.0172 174.442 55.8441 174.442 55.6484V51.1921C174.442 50.9061 174.233 50.6577 173.929 50.59C172.975 50.3867 170.292 50.2588 167.544 50.1459L167.055 50.1233C164.603 50.0329 162.08 50.9513 159.62 52.8783C159.043 53.33 158.683 53.6536 158.418 53.9246C157.681 54.7376 157.305 55.7989 157.305 57.0786C157.305 57.3496 157.345 57.8991 157.681 59.8111L157.713 60.0068C157.729 60.1047 157.769 60.195 157.833 60.2703L157.962 60.4283C158.971 61.7306 160.549 62.7468 162.657 63.4544C163.618 63.7705 163.754 63.8006 163.882 63.8308L164.099 63.8608C164.908 63.9135 165.549 63.9361 166.069 63.9361C166.254 63.9361 166.414 63.9361 166.526 63.9286C167.151 63.9437 168.377 64.192 169.21 64.4179C169.482 64.4931 169.643 64.9599 169.723 65.2384C169.771 65.404 169.803 65.5169 169.819 65.5997C169.811 65.6147 169.803 65.6373 169.787 65.6599L169.731 65.7728C169.474 66.4052 168.761 66.9471 167.616 67.3687C166.742 67.6999 165.38 67.873 163.786 67.873C162.048 67.873 160.621 67.6848 159.668 67.3385C159.468 67.2632 159.244 67.2859 159.059 67.4063C158.883 67.5192 158.771 67.7074 158.771 67.9106V72.1787C158.771 72.4421 158.955 72.683 159.219 72.7658C160.061 73.0218 162.072 73.1196 163.674 73.1196C166.133 73.1196 168.385 72.9239 169.843 72.5852C171.213 72.2766 172.887 71.3206 173.921 70.2667C174.914 69.243 175.547 68.1139 175.78 66.9697C175.844 66.7815 175.876 66.5783 175.876 66.36C175.884 63.4092 174.482 61.2338 171.702 59.8939Z" fill="#282827"/>
<path d="M140.76 70.8912C140.76 70.8611 140.76 70.831 140.752 70.8235C140.752 70.7934 140.76 70.7106 140.784 70.5374C140.832 70.2363 140.856 69.9955 140.856 69.7998C140.856 69.2126 140.656 68.6857 140.28 68.2642L139.991 67.9405C139.863 67.7974 139.655 67.7071 139.462 67.7222L139.014 67.7372C138.509 67.7598 137.732 67.7673 136.698 67.7673C135.569 67.7673 132.244 67.7297 130.169 67.6545C128.006 67.5792 126.347 67.5415 125.25 67.5415C124.777 67.5415 124.36 67.5415 123.984 67.5491L123.92 63.8982C124.593 63.8531 125.658 63.8079 127.357 63.8079C128.134 63.8079 128.935 63.7703 129.744 63.7025L130.569 63.6348C130.906 63.6047 131.162 63.3412 131.162 63.0251V60.0668C131.162 59.8108 130.994 59.585 130.738 59.4947L130.145 59.2914C129.368 59.0204 128.414 58.8699 127.325 58.8398C127.253 58.8398 127.197 58.8473 127.132 58.8624C126.868 58.8699 126.275 58.8699 124.929 58.8699C124.537 58.8699 124.176 58.8548 123.864 58.8323C123.872 58.7645 123.872 58.6968 123.88 58.614V56.5665C123.984 56.6267 124.104 56.6719 124.24 56.6719H124.577C126.884 56.6719 128.719 56.4988 130.177 56.1525C130.321 56.1149 130.457 56.0396 130.553 55.9267L130.85 55.5879C130.906 55.5202 130.946 55.4525 130.978 55.3697L131.266 54.5266C131.331 54.3459 131.339 54.218 131.242 54.0599C131.242 54.0599 131.234 54.0147 131.226 53.8792C131.178 53.0662 131.098 52.7576 131.018 52.5469L130.802 51.9597C130.706 51.6962 130.433 51.5156 130.137 51.5081L129.232 51.5005C127.357 51.4855 125.714 51.4704 124.256 51.4629C124.064 51.4855 123.88 51.5307 123.752 51.6586C123.752 51.6586 123.752 51.6661 123.744 51.6661C123.631 51.5381 123.479 51.4478 123.287 51.4328C122.742 51.3951 122.245 51.35 121.805 51.2897L121.404 51.2371C121.22 51.2145 121.036 51.2597 120.899 51.3726L120.835 51.4253C120.811 51.4253 120.779 51.4177 120.747 51.4177C120.475 51.3876 120.283 51.3726 120.138 51.3726C118.864 51.3726 117.967 52.1931 117.959 53.3899C117.959 53.4351 117.967 53.4803 117.975 53.5254L118.023 53.7287C118.039 53.8341 118.087 54.105 118.176 54.7825C118.28 55.5653 118.336 56.3858 118.336 57.2364C118.336 57.8236 118.304 58.757 118.248 60.0216C118.192 61.3163 118.159 62.2949 118.159 62.9347C118.159 63.3111 118.183 63.8455 118.232 64.5606C118.272 65.1929 118.296 65.6747 118.296 65.9984C118.296 66.2543 118.272 66.7662 118.135 67.7673C118.007 68.6932 117.951 69.3933 117.951 69.8976C117.951 70.5149 118.039 71.1472 118.208 71.7644L118.392 72.4419C118.464 72.7129 118.728 72.9011 119.017 72.9011C119.033 72.9011 119.041 72.9011 119.057 72.9011L119.802 72.8559C121.268 72.7731 122.726 72.7279 124.136 72.7279C125.266 72.7279 126.94 72.7505 129.272 72.7957C131.531 72.8408 134.984 72.8634 136.202 72.8634H139.382C139.559 72.8634 139.719 72.7957 139.839 72.6828L140.672 71.8924C140.832 71.7418 140.896 71.5236 140.84 71.3128L140.76 70.8912Z" fill="#282827"/>
<path d="M140.865 94.806L140.488 94.1436C139.439 92.3069 136.827 86.1268 135.273 82.4384C134.44 80.4737 134.071 79.593 133.967 79.3973C133.638 78.8102 133.318 78.2306 132.989 77.666C132.653 77.0789 132.421 76.567 132.3 76.1605L132.252 76.0024C132.228 75.9272 132.188 75.8519 132.14 75.7842L132.028 75.6487C131.315 74.7981 128.07 74.7002 128.038 74.7002C127.726 74.7002 127.341 74.7378 126.869 74.8281C126.572 74.8808 126.436 74.8959 126.404 74.8959H123.928C123.704 74.8959 123.496 75.0088 123.375 75.1895L123.087 75.6261C122.759 76.1304 122.294 76.8756 121.669 77.9219L121.613 78.0273C121.581 78.1026 117.984 85.6903 115.933 90.41C115.692 90.9595 116.133 91.5015 117.279 92.066C117.375 92.1112 117.479 92.1338 117.583 92.1338H122.206C122.518 92.1413 129.392 92.337 131.283 92.3596L132.677 96.2513C132.765 96.4997 133.013 96.6653 133.294 96.6653H133.302L133.622 96.6578C134.472 96.6502 135.649 96.6276 137.732 96.6126L138.71 96.6051C138.942 96.6051 139.15 96.4846 139.263 96.2965C139.495 96.2212 139.711 96.1233 139.903 96.0179L140.633 95.6114C140.929 95.4534 141.033 95.092 140.865 94.806ZM128.992 87.1355C128.847 87.1355 128.639 87.1355 128.447 87.1882C128.327 87.1957 128.15 87.1958 127.91 87.2033C126.901 87.2334 126.716 87.2485 126.596 87.2635C126.516 87.271 126.476 87.271 126.131 87.271C125.29 87.271 124.473 87.2635 123.688 87.2409C125.114 83.6503 126.043 81.4598 126.484 80.6544C126.58 80.406 126.716 80.0899 126.877 79.6984C126.885 79.6909 126.893 79.6834 126.909 79.6758C126.917 79.6834 126.917 79.6984 126.925 79.7059C127.149 80.1726 127.509 80.9179 127.99 81.791C128.279 82.2577 128.519 82.7019 128.727 83.146C129.216 84.0493 129.817 85.5924 130.418 87.1807C129.937 87.1506 129.448 87.1355 128.992 87.1355Z" fill="#282827"/>
<path d="M116.141 91.5395H116.18C116.172 91.532 116.156 91.5319 116.149 91.5244C116.149 91.5244 116.149 91.532 116.141 91.5395Z" fill="white"/>
</svg>
