<svg width="26" height="26" viewBox="0 0 26 26" fill="none" xmlns="http://www.w3.org/2000/svg">
<path fill-rule="evenodd" clip-rule="evenodd" d="M9.80019 3.27495C6.26557 3.27495 3.4002 6.14033 3.4002 9.67495C3.4002 13.2096 6.26557 16.075 9.80019 16.075C13.3348 16.075 16.2002 13.2096 16.2002 9.67495C16.2002 6.14033 13.3348 3.27495 9.80019 3.27495ZM0.200195 9.67495C0.200195 4.37302 4.49826 0.0749512 9.80019 0.0749512C15.1021 0.0749512 19.4002 4.37302 19.4002 9.67495C19.4002 11.7483 18.7429 13.6681 17.6254 15.2374L25.3316 22.9436C25.9564 23.5684 25.9564 24.5815 25.3316 25.2063C24.7067 25.8312 23.6937 25.8312 23.0688 25.2063L15.3626 17.5001C13.7933 18.6177 11.8735 19.275 9.80019 19.275C4.49826 19.275 0.200195 14.9769 0.200195 9.67495Z" fill="#EC3E8D"/>
</svg>
