<svg width="184" height="97" viewBox="0 0 184 97" fill="none" xmlns="http://www.w3.org/2000/svg">
<path d="M53.3739 25.8586C52.7731 25.8586 52.4366 25.6328 46.3477 19.1817C45.2661 18.0376 44.2086 16.9235 43.3674 16.0428C43.2072 15.8923 42.9588 15.7417 42.6864 15.5836C42.358 15.3879 42.0134 15.1772 41.725 14.9137L37.5349 11.0145C37.2305 10.736 36.926 10.4499 36.6536 10.1864C35.3878 8.74869 32.9683 6.8518 31.0214 5.32373C28.0892 3.02033 27.5123 2.50846 27.5043 1.89121C27.4963 1.67292 27.6084 0.814791 27.7847 0.67177C28.2734 0.25776 29.4431 0.265284 36.221 0.197537C37.0942 0.190009 37.9035 0.212591 38.5845 0.197537C39.1693 0.212591 39.7461 0.205064 40.2428 0.197537H40.9398H42.6944C46.0352 0.235174 47.1969 0.521217 50.1532 0.197537C50.3455 0.174954 50.5378 0.197537 50.7301 0.197537C51.8597 0.197537 52.9012 0.551327 53.3419 0.762095C54.2392 1.19116 54.3593 2.65147 54.3112 7.80778C54.3032 9.11755 54.2872 10.3596 54.3353 11.3005V12.264V13.1673C54.2792 14.59 54.3193 16.7956 54.3513 18.9258C54.4635 25.2715 54.4475 25.7532 53.3739 25.8586Z" fill="#282827"/>
<path d="M54.399 28.5158C54.2948 29.6299 54.7194 34.1162 54.3188 38.1886C54.3188 38.708 54.3188 39.2349 54.3188 39.7919C54.3188 40.8533 54.3188 41.9373 54.3188 43.0513C54.3268 43.6912 54.3268 44.2934 54.3268 44.9031C54.5191 48.4561 54.6232 52.2574 54.6232 56.0587C54.6232 56.819 54.6713 68.336 54.6633 69.0887C53.6779 70.1953 51.5148 70.7523 40.9474 70.406C40.2744 70.406 39.6094 70.406 38.9124 70.406C35.6837 70.6921 28.6656 71.1212 28.7617 69.8792C26.166 68.2532 27.8965 63.3755 27.568 59.0622C27.568 58.5202 27.568 57.9557 27.568 57.3685C27.568 51.9789 27.568 45.7236 27.568 40.2586C27.568 39.679 27.568 39.137 27.568 38.6026C27.8965 34.9217 27.4879 31.3311 27.0312 27.605C25.3007 25.1661 20.1091 26.792 15.9191 26.5436C15.166 26.5286 14.3969 26.4985 13.6358 26.4608C9.08514 26.235 4.54247 25.7758 1.9467 27.605C-0.64907 29.2309 1.08148 34.1087 0.881188 37.9025C0.881188 38.4445 0.881188 39.0015 0.881188 39.5586C1.0254 44.8504 1.06548 50.4207 1.0094 55.8555C1.00139 56.6309 1.32185 66.2735 1.30583 67.0413C1.10554 73.7031 3.61317 75.9011 11.3124 81.4413C11.777 81.8779 12.2497 82.322 12.7224 82.7661C14.9416 84.8512 17.289 85.8373 19.364 87.7869C19.7806 88.1784 20.1892 88.5623 20.5898 88.9387C26.903 95.3521 27.1033 95.1638 33.0078 94.9832C33.5687 94.9832 40.2343 95.465 40.8192 95.465C47.7412 95.465 56.2896 95.465 63.7244 95.465C64.2853 95.465 64.822 95.465 65.3428 95.4725C70.302 95.894 76.8075 95.7585 80.2685 93.3196C81.999 92.5066 80.6851 89.3903 80.9575 86.1911C80.9575 85.7169 80.9575 85.2276 80.9735 84.7007C80.9735 82.4876 80.9735 80.0111 80.9735 77.3765C80.9735 76.7141 81.0056 75.8409 80.9815 75.314C81.5504 68.2532 81.5503 60.1236 80.7572 52.4531C80.7652 51.6702 80.7732 50.8799 80.7812 50.0895C80.8133 47.7108 80.8693 45.287 80.9495 42.7653C80.9655 41.9674 80.9976 41.1619 81.0377 40.3565C81.278 35.5239 81.7667 30.6461 79.8199 27.5975C78.0894 25.1586 72.0325 26.7845 67.6502 26.5436C66.9852 26.5436 66.3122 26.5436 65.6472 26.5436C62.5147 26.792 59.6786 26.8372 56.482 26.5888C55.5046 26.5963 54.4791 27.6351 54.399 28.5158Z" fill="#282827"/>
<path d="M183.218 51.6852L183.21 51.0303C183.202 50.7518 183.001 50.5109 182.721 50.4507L182.048 50.2926C181.84 50.2399 181.495 50.1872 180.566 50.1496C180.406 50.1496 180.334 50.1345 180.342 50.142C180.221 50.0969 180.085 50.0894 179.957 50.1119L178.996 50.3227C178.931 50.3377 178.875 50.3603 178.819 50.3905L178.427 50.6012C178.291 50.6765 178.194 50.7894 178.138 50.9249C177.73 52.0013 177.529 53.3563 177.529 55.0575C177.529 56.0586 177.553 57.549 177.602 59.4911C177.65 61.4332 177.674 62.9161 177.674 63.8947C177.674 66.2508 177.618 68.2832 177.505 69.9467L177.481 70.3533L177.537 71.392C177.545 71.5727 177.642 71.7458 177.802 71.8512C177.914 71.9265 178.05 71.9716 178.186 71.9716C178.243 71.9716 178.299 71.9641 178.347 71.9491L179.645 71.6404C179.701 71.648 179.781 71.6705 179.901 71.7007C180.35 71.8136 180.702 71.8587 180.998 71.8587C181.591 71.8587 182.152 71.663 182.665 71.2791L183.001 71.0307C183.154 70.9178 183.242 70.7447 183.242 70.564L183.25 70.1651C183.298 66.9584 183.322 64.527 183.322 62.9312V59.0019C183.29 57.391 183.266 54.937 183.218 51.6852Z" fill="#282827"/>
<path d="M183.435 28.177L183.427 27.5221C183.419 27.2436 183.219 27.0027 182.938 26.9349L182.257 26.7769C182.049 26.7242 181.704 26.6715 180.775 26.6339C180.615 26.6339 180.535 26.6188 180.551 26.6263C180.431 26.5812 180.294 26.5661 180.166 26.5962L179.197 26.807C179.133 26.822 179.077 26.8446 179.02 26.8747L178.628 27.0855C178.492 27.1608 178.396 27.2737 178.34 27.4092C177.931 28.4856 177.731 29.8406 177.731 31.5418C177.731 32.5429 177.755 34.0333 177.803 35.9754C177.851 37.9024 177.875 39.3854 177.875 40.379C177.875 42.72 177.819 44.76 177.707 46.431L177.683 46.8375L177.739 47.8763C177.747 48.057 177.843 48.2301 178.003 48.3355C178.115 48.4108 178.251 48.4559 178.388 48.4559C178.444 48.4559 178.5 48.4484 178.548 48.4333L179.838 48.1172C179.894 48.1247 179.974 48.1473 180.086 48.1699C180.535 48.2828 180.887 48.328 181.184 48.328C181.777 48.328 182.329 48.1322 182.842 47.7484L183.179 47.4999C183.331 47.387 183.419 47.2139 183.419 47.0332L183.427 46.6268C183.475 43.3674 183.499 40.9962 183.499 39.3929V35.4635C183.507 33.8753 183.483 31.4891 183.435 28.177Z" fill="#EC3E8D"/>
<path d="M182.578 75.103C182.097 75.103 181.824 75.2837 176.905 80.4927C176.032 81.4185 175.183 82.3143 174.502 83.0219C174.374 83.1423 174.165 83.2628 173.949 83.3982C173.685 83.5563 173.404 83.722 173.172 83.9402L169.791 87.0867C169.543 87.3125 169.302 87.5384 169.078 87.7567C168.052 88.9159 166.106 90.4515 164.535 91.6784C162.172 93.5377 161.707 93.9442 161.699 94.4485C161.699 94.6217 161.795 94.8475 161.932 94.9604C162.324 95.2917 163.262 95.397 168.733 95.4497C169.438 95.4572 170.087 95.4648 170.64 95.4723C171.113 95.4573 171.578 95.4648 171.978 95.4723L172.539 95.4798L173.949 95.4572C176.649 95.4271 177.586 95.525 179.966 95.7884C180.118 95.8035 180.278 95.811 180.43 95.811C181.344 95.811 182.185 95.525 182.537 95.3594C183.259 95.0131 183.355 93.8388 183.323 89.6762C183.315 88.6148 183.307 87.6212 183.339 86.8609V86.0856V85.3554C183.291 84.2037 183.323 82.4272 183.355 80.7109C183.451 75.5772 183.443 75.1858 182.578 75.103Z" fill="#EC3E8D"/>
<path d="M115.544 28.0566L115.464 27.5372C115.432 27.3114 115.263 27.1157 115.031 27.0479L114.502 26.8824C113.645 26.6114 112.844 26.6565 111.394 27.0178L110.673 27.1985C110.368 27.2738 110.168 27.5372 110.192 27.8308L110.248 28.5309C110.617 33.2431 110.697 34.6808 110.697 35.0496C110.697 35.3432 110.673 35.8626 110.633 36.5927L110.432 40.1984C110.288 41.3501 109.952 42.2082 109.423 42.7577C109.167 43.0362 108.974 43.1642 108.862 43.2244C108.558 43.3825 107.764 43.6535 105.922 43.6535C104.968 43.6535 104.023 43.4879 103.11 43.1567C102.148 42.818 101.443 42.3813 101.003 41.8469C100.818 41.6135 100.682 41.2297 100.626 40.7931L100.554 38.7757C100.554 38.7682 100.546 38.6779 100.546 38.6703C100.474 38.1585 100.418 37.7595 100.378 37.5638C100.314 36.2315 100.282 35.2228 100.282 34.5528C100.209 31.572 100.089 29.404 99.9211 28.1168L99.841 27.477C99.8089 27.206 99.5846 26.9877 99.2962 26.9501L98.6152 26.8522C97.9342 26.7544 97.4215 26.7017 97.061 26.7017C96.2037 26.7017 95.4826 26.9275 94.9218 27.3716L94.5453 27.6727C94.3771 27.8082 94.2889 28.0114 94.321 28.2147L94.385 28.6738C94.4892 29.4567 94.5453 30.4278 94.5453 31.5569C94.5453 32.1591 94.5292 33.0473 94.4972 34.1915C94.4651 35.3733 94.4412 36.2691 94.4412 36.8713C94.4412 40.4393 95.09 43.3072 96.3799 45.3999C96.9007 46.2354 97.1731 46.529 97.3494 46.672C97.7339 47.0559 98.3108 47.4247 99.152 47.8388C99.9692 48.2377 100.626 48.4861 101.163 48.599C101.547 48.6818 102.277 48.7646 104.744 48.7646C107.781 48.7646 110.248 48.3055 112.083 47.3871C113.717 46.5666 114.871 45.016 115.512 42.7728C115.752 41.9448 115.808 41.6512 115.832 41.4705C115.856 41.2974 115.88 40.9813 115.88 39.3403C115.88 38.8058 115.888 38.0154 115.912 36.9616C115.936 35.8852 115.944 35.0872 115.944 34.5603C115.944 32.001 115.808 29.8105 115.544 28.0566Z" fill="#282827"/>
<path d="M149.938 28.177L149.93 27.5221C149.922 27.2436 149.721 27.0027 149.441 26.935L148.76 26.7769C148.552 26.7242 148.207 26.6715 147.278 26.6339C147.117 26.6339 147.029 26.6188 147.045 26.6264C146.925 26.5812 146.789 26.5736 146.669 26.6038L145.707 26.8145C145.643 26.8296 145.587 26.8522 145.531 26.8823L145.139 27.0931C145.002 27.1683 144.906 27.2812 144.85 27.4167C144.442 28.4932 144.241 29.8481 144.241 31.5493C144.241 32.5504 144.265 34.0409 144.313 35.983C144.362 37.9251 144.386 39.4005 144.386 40.3866C144.386 42.7276 144.329 44.76 144.217 46.4386L144.193 46.7774C144.185 46.9354 144.233 47.086 144.345 47.2064L145.267 48.2452C145.395 48.3882 145.579 48.4635 145.763 48.4635C145.892 48.4635 146.012 48.4334 146.124 48.3581L146.461 48.1474C146.501 48.1549 146.549 48.1699 146.605 48.1774C147.053 48.2904 147.398 48.3355 147.71 48.3355C148.303 48.3355 148.856 48.1398 149.369 47.7559L149.705 47.5075C149.857 47.3946 149.946 47.2215 149.954 47.0408L149.962 46.6419C150.01 43.3825 150.034 41.0113 150.034 39.408V35.4786C150.002 33.8753 149.978 31.4891 149.938 28.177Z" fill="#282827"/>
<path d="M140.836 47.3871L140.548 46.5816C140.46 46.3332 140.356 45.8213 140.356 44.8353C140.356 44.2857 140.404 43.3222 140.492 41.9673C140.54 41.2221 140.564 40.0629 140.564 38.5348C140.564 37.3003 140.532 33.6645 140.476 31.4138L140.468 31.1955C140.46 30.8643 140.171 30.6009 139.819 30.6009H135.509C135.156 30.6009 134.868 30.8718 134.86 31.2031C134.828 33.4839 134.779 36.2991 134.715 38.2412C132.096 35.3808 130.037 33.1376 128.594 31.587C128.25 31.1805 127.986 30.8568 127.785 30.6009L127.689 30.4879C127.353 30.1492 127.088 29.8857 126.952 29.7427L125.798 28.2824C125.79 28.2749 125.75 28.2222 125.742 28.2146C124.965 27.3414 124.348 26.8522 123.707 26.6113C123.347 26.4833 122.946 26.4231 122.506 26.4231C122.281 26.4231 121.961 26.4382 121.544 26.4758C121.176 26.5059 120.983 26.521 120.879 26.521H120.086C119.758 26.521 119.485 26.7468 119.445 27.0554L119.341 27.7931C119.077 29.6674 118.948 32.0085 118.948 34.741C118.948 35.6217 118.964 36.9465 119.004 38.6627C119.037 40.4166 119.053 41.6737 119.053 42.5018C119.053 44.075 119.004 45.5127 118.916 46.7924L118.852 47.6731C118.844 47.8387 118.9 48.0043 119.021 48.1247C119.141 48.2452 119.309 48.3205 119.485 48.3205L123.723 48.4259C123.988 48.4409 124.268 48.2602 124.356 48.0118L124.565 47.4096C124.669 47.1161 124.709 46.8902 124.709 46.6569C124.709 46.4837 124.685 46.3031 124.637 46.0773C124.597 44.8729 124.573 42.1931 124.573 38.1132C124.573 37.6917 124.621 37.0142 124.717 36.1185C124.749 35.8475 124.773 35.5916 124.797 35.3507C126.087 36.7734 127.569 38.5724 129.227 40.7177C131.959 44.2857 133.97 46.7698 135.196 48.1022L135.444 48.3656C135.557 48.4861 135.717 48.5613 135.885 48.5764L136.262 48.599C136.959 48.6441 137.463 48.6667 137.824 48.6667C138.473 48.6667 139.058 48.5839 139.562 48.4259L140.42 48.1548C140.58 48.1021 140.716 47.9968 140.796 47.8462C140.876 47.7107 140.892 47.5451 140.836 47.3871Z" fill="#282827"/>
<path d="M113.108 78.5432C111.53 76.3527 109.111 74.9903 105.922 74.4935C104.857 74.3203 104.015 74.245 99.9615 74.245C98.992 74.245 98.1267 74.2074 97.3816 74.1246L97.0372 74.0869C96.877 74.0719 96.7087 74.1096 96.5725 74.2074L96.5645 74.2149C95.5471 74.245 95.0503 74.7569 94.834 75.0655L94.6578 75.329C94.5776 75.4494 94.5456 75.5849 94.5616 75.7279L94.6016 76.0441C94.6817 76.6538 94.7218 77.3463 94.7218 78.1066C94.7218 78.4002 94.6978 78.8744 94.6578 79.5218C94.6097 80.2294 94.5856 80.7789 94.5856 81.1552C94.5856 81.2154 94.5936 81.2757 94.6096 81.3283C94.6096 81.3886 94.6177 81.494 94.6177 81.637C94.6337 82.4048 94.6738 84.2114 94.7539 85.2426C94.794 85.6943 94.818 89.8419 94.834 92.5819C94.842 94.0874 94.85 95.2993 94.858 95.5402C94.8661 95.8639 95.1464 96.1273 95.4989 96.1273H99.8893C100.033 96.1273 100.17 96.0821 100.274 96.0069C100.378 96.0746 100.498 96.1198 100.634 96.1273C101.059 96.1424 101.235 96.1574 101.363 96.165C101.572 96.18 101.684 96.1875 102.477 96.1875C104.48 96.1875 105.97 96.0822 107.036 95.8714C108.942 95.5402 110.497 94.8176 111.642 93.7261C113.701 91.784 114.238 90.8054 114.43 90.1656C114.927 89.4128 115.232 88.4719 115.336 87.3428V84.7609C115.336 84.6705 115.344 84.4974 115.376 84.1737C115.416 83.7974 115.432 83.5264 115.432 83.3307C115.456 82.5779 115.175 81.4262 113.108 78.5432ZM100.554 90.5043C100.57 86.6578 100.61 81.6596 100.658 79.8078C101.323 79.8304 101.836 79.853 102.277 79.8756C103.366 79.9207 103.919 79.9433 104.897 79.9509C104.985 79.9734 105.137 80.0111 105.417 80.0863C106.627 80.4251 107.669 81.0197 108.518 81.8553C108.862 82.1865 108.974 82.3521 109.007 82.3973C109.295 82.8565 109.471 83.579 109.527 84.4748C109.543 85.3329 109.575 86.2212 109.615 87.1094C109.127 88.2235 108.926 88.6074 108.87 88.6977C108.566 89.187 108.221 89.5182 107.821 89.7215C106.755 90.2559 104.953 90.5269 102.461 90.5269C102.093 90.5269 101.524 90.5194 100.682 90.4968C100.626 90.4892 100.594 90.4968 100.554 90.5043Z" fill="#282827"/>
<path d="M160.697 78.5432C159.119 76.3527 156.7 74.9903 153.511 74.4935C152.445 74.3203 151.604 74.245 147.55 74.245C146.581 74.245 145.716 74.2074 144.971 74.1246L144.626 74.0869C144.466 74.0719 144.298 74.1096 144.161 74.2074L144.153 74.2149C143.136 74.245 142.639 74.7569 142.423 75.0655L142.247 75.329C142.167 75.4494 142.134 75.5849 142.15 75.7279L142.191 76.0441C142.271 76.6538 142.311 77.3463 142.311 78.1066C142.311 78.4002 142.287 78.8744 142.247 79.5218C142.199 80.2294 142.175 80.7789 142.175 81.1552C142.175 81.2154 142.183 81.2757 142.199 81.3283C142.199 81.3886 142.207 81.494 142.207 81.637C142.223 82.4048 142.263 84.2114 142.343 85.2426C142.383 85.6943 142.407 89.8419 142.423 92.5819C142.431 94.0874 142.439 95.2993 142.447 95.5402C142.455 95.8639 142.735 96.1273 143.088 96.1273H147.478C147.622 96.1273 147.759 96.0821 147.863 96.0069C147.967 96.0746 148.087 96.1198 148.223 96.1273C148.648 96.1424 148.824 96.1574 148.952 96.165C149.161 96.18 149.273 96.1875 150.066 96.1875C152.069 96.1875 153.559 96.0822 154.625 95.8714C156.531 95.5402 158.086 94.8176 159.231 93.7261C161.29 91.784 161.827 90.8054 162.019 90.1656C162.516 89.4128 162.821 88.4719 162.925 87.3428V84.7609C162.925 84.6705 162.933 84.4974 162.965 84.1737C163.005 83.7974 163.021 83.5264 163.021 83.3307C163.045 82.5779 162.764 81.4262 160.697 78.5432ZM148.143 90.5043C148.159 86.6578 148.199 81.6596 148.247 79.8078C148.912 79.8304 149.425 79.853 149.866 79.8756C150.955 79.9207 151.508 79.9433 152.486 79.9509C152.574 79.9734 152.726 80.0111 153.006 80.0863C154.216 80.4251 155.258 81.0197 156.107 81.8553C156.451 82.1865 156.563 82.3521 156.595 82.3973C156.884 82.8565 157.06 83.579 157.116 84.4748C157.132 85.3329 157.164 86.2212 157.204 87.1094C156.716 88.2235 156.515 88.6074 156.459 88.6977C156.155 89.187 155.81 89.5182 155.41 89.7215C154.344 90.2559 152.542 90.5269 150.05 90.5269C149.681 90.5269 149.113 90.5194 148.271 90.4968C148.215 90.4892 148.183 90.4968 148.143 90.5043Z" fill="#282827"/>
<path d="M172.386 30.7815C170.808 28.5835 168.388 27.221 165.192 26.7242C164.126 26.5511 163.285 26.4758 159.231 26.4758C158.262 26.4758 157.396 26.4382 156.659 26.3554L156.315 26.3177C156.147 26.2951 155.978 26.3403 155.842 26.4381H155.834C154.817 26.4683 154.312 26.9801 154.104 27.2963L153.927 27.5597C153.847 27.6802 153.815 27.8232 153.831 27.9662L153.871 28.2824C153.951 28.8921 153.991 29.5846 153.991 30.3374C153.991 30.6234 153.967 31.1052 153.927 31.7525C153.879 32.4601 153.855 33.0096 153.855 33.386C153.855 33.4462 153.863 33.5064 153.879 33.5591C153.879 33.6194 153.887 33.7247 153.887 33.8602C153.903 34.628 153.943 36.4346 154.023 37.4659C154.063 37.9175 154.087 42.0652 154.104 44.8051C154.112 46.3182 154.12 47.5225 154.128 47.7634C154.136 48.0946 154.424 48.3581 154.776 48.3581H159.167C159.311 48.3581 159.447 48.3129 159.551 48.2377C159.656 48.3054 159.776 48.3505 159.912 48.3581C160.337 48.3731 160.513 48.3882 160.641 48.3957C160.849 48.4108 160.962 48.4183 161.755 48.4183C163.758 48.4183 165.248 48.3129 166.313 48.1022C168.22 47.771 169.774 47.0483 170.928 45.9493C172.987 44.0072 173.524 43.0211 173.724 42.3888C174.221 41.6285 174.525 40.6951 174.629 39.5585V36.9766C174.629 36.8862 174.637 36.7131 174.669 36.3969C174.71 36.013 174.726 35.7496 174.726 35.5539C174.734 34.8162 174.453 33.657 172.386 30.7815ZM159.832 42.7276C159.848 38.8886 159.88 33.9129 159.936 32.0536C160.593 32.0762 161.106 32.0988 161.538 32.1214C162.62 32.1665 163.181 32.1891 164.158 32.1967C164.246 32.2192 164.398 32.2569 164.671 32.3322C165.881 32.6709 166.914 33.2655 167.763 34.1011C168.108 34.4323 168.22 34.5979 168.244 34.6431C168.533 35.0947 168.709 35.8174 168.765 36.7131C168.781 37.5713 168.813 38.4595 168.853 39.3477C168.372 40.4618 168.164 40.8382 168.108 40.936C167.803 41.4178 167.467 41.7565 167.066 41.9522C166.001 42.4867 164.198 42.7577 161.715 42.7577C161.346 42.7577 160.777 42.7501 159.936 42.7276C159.904 42.72 159.864 42.72 159.832 42.7276Z" fill="#EC3E8D"/>
<path d="M155.658 54.5306C155.362 54.0639 154.913 53.5972 154.304 53.1079C153.055 52.0917 151.316 51.3992 149.113 51.0454C147.502 50.8271 145.9 50.6164 144.306 50.3981L144.106 50.3679C144.009 50.3529 143.921 50.3604 143.833 50.383L143.641 50.4357C143.168 50.5712 142.607 50.6314 141.974 50.6314C141.566 50.6314 140.925 50.5938 140.076 50.511C139.106 50.4206 138.393 50.3755 137.896 50.3755C137.183 50.3755 136.51 50.4282 135.894 50.526L135.148 50.654C134.836 50.7067 134.612 50.9626 134.612 51.2562V54.2295C134.612 55.0425 134.62 56.2544 134.644 57.8578V61.4559C134.644 62.1861 134.636 62.4495 134.628 62.9539L134.596 64.4066C134.596 64.5722 134.66 64.7303 134.78 64.8432C134.9 64.9637 135.068 65.0239 135.245 65.0239H137.848C137.912 65.039 137.961 65.0314 138.041 65.054H138.946L139.066 65.0691C139.146 65.0766 139.226 65.0766 139.307 65.0615L139.803 64.9938C139.891 64.9938 139.979 64.9712 140.052 64.9336C140.412 64.8959 140.837 64.8733 141.317 64.8733C141.702 64.8733 142.303 64.8959 143.096 64.9336C143.945 64.9787 144.602 65.0013 145.051 65.0013C145.219 65.0013 145.403 64.9938 145.612 64.9712L149.113 71.2491C149.666 72.2051 150.667 72.732 151.933 72.732C152.133 72.732 152.398 72.717 152.742 72.6944C152.99 72.6793 153.167 72.6642 153.271 72.6642C153.303 72.6642 153.383 72.6718 153.527 72.7019L154.609 72.9051C154.649 72.9126 154.697 72.9202 154.737 72.9202C154.889 72.9202 155.033 72.875 155.146 72.7847C155.298 72.6718 155.386 72.4986 155.386 72.3105V70.8953C155.386 70.8125 155.37 70.7297 155.33 70.6469L155.25 70.4813C154.945 69.8339 154.208 68.6069 153.014 66.7401C152.526 65.9949 152.133 65.3099 151.821 64.7002C153.263 64.2636 154.505 63.2022 155.506 61.5612C155.891 60.9515 156.059 60.6354 156.123 60.3795C156.275 59.8676 156.347 59.16 156.347 58.1513C156.371 56.4276 156.155 55.3135 155.658 54.5306ZM150.667 58.2718C150.667 58.5578 150.643 58.6632 150.643 58.6632C150.587 58.8589 150.002 59.2278 148.584 59.431C148.207 59.4837 147.959 59.5213 147.831 59.5439H145.115C144.402 59.5665 143.865 59.574 143.505 59.574C142.367 59.574 141.422 59.5213 140.677 59.4159L140.717 55.9082C140.885 55.9157 141.077 55.9232 141.293 55.9307C141.918 55.9533 142.319 55.9608 142.495 55.9608C147.831 56.0662 149.609 56.676 150.186 57.0298C150.315 57.0975 150.667 57.3082 150.667 58.2718Z" fill="#282827"/>
<path d="M116.561 52.0916C116.473 51.8959 116.305 51.7378 116.089 51.6626L115.24 51.3615C114.695 51.1657 114.062 51.0679 113.373 51.0679H111.682C111.418 51.0679 111.17 51.1808 111.009 51.3841L110.745 51.7153C110.328 52.2347 109.944 52.9648 109.575 53.9509C109.519 54.0864 109.327 54.651 109.038 55.4715C108.061 58.2566 105.786 64.7829 105.129 66.0776C105.113 66.1077 105.105 66.1303 105.089 66.1604C105.025 66.3411 104.945 66.5669 104.84 66.8303C104.736 66.7325 104.552 66.5217 104.328 66.0776C104.111 65.6937 103.935 65.3399 103.783 64.9711C103.382 64.1506 102.91 62.3816 102.453 60.6804C101.988 58.9491 101.556 57.3082 101.107 56.3823C100.883 55.9909 100.626 55.5392 100.346 55.0198C100.025 54.4402 99.8972 53.9283 99.785 53.439C99.6488 52.8745 99.5047 52.2874 99.064 51.768L98.8477 51.5195C98.7195 51.369 98.5272 51.2636 98.3269 51.2335L97.9824 51.1808C97.4777 51.1055 96.965 51.0679 96.4603 51.0679C95.6351 51.0679 94.914 51.2561 94.3211 51.6174L93.6801 52.0163C93.3276 52.2346 93.1995 52.6637 93.3837 53.025L93.7202 53.6724C94.6256 55.4263 96.4922 61.388 97.5979 64.9485C98.3109 67.2218 98.4952 67.824 98.5993 68.0272C98.8877 68.5993 99.1762 69.1639 99.4646 69.7134C99.7611 70.2779 99.9613 70.7597 100.057 71.1511L100.097 71.3016C100.122 71.3995 100.17 71.4899 100.226 71.5727L100.322 71.7006C101.043 72.6566 104.047 72.7319 104.079 72.7319C104.376 72.7319 104.736 72.6867 105.177 72.6039C105.393 72.5588 105.497 72.5512 105.521 72.5437H107.701C108.005 72.5437 108.293 72.3856 108.438 72.1372L108.694 71.7082C108.982 71.2113 109.391 70.4887 109.952 69.4575C109.96 69.4424 110.008 69.3445 110.008 69.3295C110.064 69.1864 115.648 54.7714 116.209 53.5068L116.553 52.7315C116.65 52.5132 116.65 52.2874 116.561 52.0916Z" fill="#282827"/>
<path d="M172.203 59.3934L172.058 59.3257C171.45 59.0321 170.015 58.3396 167.732 58.2342C165.104 58.1062 163.75 57.647 163.318 56.7513C163.318 56.7513 163.35 56.6308 163.622 56.4125C164.584 55.6748 165.841 55.321 167.484 55.321C168.982 55.321 173.036 55.4791 174.117 55.7426C174.31 55.7877 174.526 55.7501 174.686 55.6372C174.846 55.5168 174.943 55.3436 174.943 55.1479V50.6917C174.943 50.4056 174.734 50.1572 174.43 50.0895C173.476 49.8862 170.793 49.7583 168.045 49.6454L167.556 49.6228C165.104 49.5324 162.581 50.4508 160.121 52.3778C159.544 52.8295 159.184 53.1531 158.919 53.4241C158.182 54.2371 157.806 55.2985 157.806 56.5781C157.806 56.8491 157.846 57.3986 158.182 59.3106L158.214 59.5063C158.23 59.6042 158.27 59.6945 158.334 59.7698L158.463 59.9278C159.472 61.2301 161.05 62.2463 163.157 62.9539C164.119 63.27 164.255 63.3002 164.383 63.3303L164.6 63.3604C165.409 63.413 166.05 63.4357 166.57 63.4357C166.755 63.4357 166.915 63.4357 167.027 63.4281C167.652 63.4432 168.878 63.6916 169.711 63.9174C169.983 63.9927 170.144 64.4594 170.224 64.7379C170.272 64.9035 170.304 65.0164 170.32 65.0992C170.312 65.1143 170.304 65.1368 170.288 65.1594L170.232 65.2724C169.975 65.9047 169.262 66.4466 168.117 66.8682C167.243 67.1994 165.881 67.3725 164.287 67.3725C162.549 67.3725 161.122 67.1843 160.169 66.838C159.969 66.7628 159.745 66.7854 159.56 66.9058C159.384 67.0187 159.272 67.2069 159.272 67.4101V71.6782C159.272 71.9416 159.456 72.1825 159.72 72.2653C160.562 72.5213 162.573 72.6191 164.175 72.6191C166.634 72.6191 168.886 72.4234 170.344 72.0847C171.714 71.7761 173.388 70.8201 174.422 69.7662C175.415 68.7425 176.048 67.6134 176.281 66.4692C176.345 66.281 176.377 66.0778 176.377 65.8595C176.385 62.9087 174.983 60.7333 172.203 59.3934Z" fill="#282827"/>
<path d="M141.261 70.391C141.261 70.3609 141.261 70.3308 141.253 70.3232C141.253 70.2931 141.261 70.2103 141.285 70.0372C141.333 69.7361 141.357 69.4952 141.357 69.2995C141.357 68.7124 141.157 68.1855 140.781 67.7639L140.492 67.4402C140.364 67.2972 140.156 67.2069 139.963 67.2219L139.515 67.237C139.01 67.2596 138.233 67.2671 137.199 67.2671C136.07 67.2671 132.745 67.2295 130.67 67.1542C128.507 67.0789 126.848 67.0413 125.751 67.0413C125.278 67.0413 124.861 67.0413 124.485 67.0488L124.421 63.398C125.094 63.3528 126.159 63.3076 127.858 63.3076C128.635 63.3076 129.436 63.27 130.245 63.2023L131.07 63.1345C131.407 63.1044 131.663 62.841 131.663 62.5248V59.5665C131.663 59.3106 131.495 59.0848 131.239 58.9944L130.646 58.7912C129.869 58.5202 128.915 58.3697 127.826 58.3396C127.754 58.3396 127.698 58.3471 127.633 58.3621C127.369 58.3696 126.776 58.3696 125.43 58.3696C125.038 58.3696 124.677 58.3546 124.365 58.332C124.373 58.2643 124.373 58.1965 124.381 58.1137V56.0662C124.485 56.1265 124.605 56.1716 124.741 56.1716H125.078C127.385 56.1716 129.22 55.9985 130.678 55.6522C130.822 55.6146 130.958 55.5393 131.054 55.4264L131.351 55.0877C131.407 55.0199 131.447 54.9522 131.479 54.8694L131.767 54.0263C131.832 53.8457 131.84 53.7177 131.743 53.5596C131.743 53.5596 131.735 53.5144 131.727 53.3789C131.679 52.566 131.599 52.2574 131.519 52.0466L131.303 51.4595C131.207 51.196 130.934 51.0154 130.638 51.0078L129.732 51.0003C127.858 50.9852 126.215 50.9702 124.757 50.9627C124.565 50.9852 124.381 51.0304 124.253 51.1584C124.253 51.1584 124.253 51.1659 124.245 51.1659C124.132 51.0379 123.98 50.9476 123.788 50.9325C123.243 50.8949 122.746 50.8497 122.306 50.7895L121.905 50.7368C121.721 50.7143 121.537 50.7594 121.4 50.8723L121.336 50.925C121.312 50.925 121.28 50.9175 121.248 50.9175C120.976 50.8874 120.784 50.8723 120.639 50.8723C119.365 50.8723 118.468 51.6928 118.46 52.8897C118.46 52.9349 118.468 52.98 118.476 53.0252L118.524 53.2284C118.54 53.3338 118.588 53.6048 118.676 54.2822C118.781 55.0651 118.837 55.8856 118.837 56.7362C118.837 57.3233 118.805 58.2568 118.749 59.5214C118.692 60.8161 118.66 61.7947 118.66 62.4345C118.66 62.8109 118.684 63.3453 118.733 64.0604C118.773 64.6927 118.797 65.1745 118.797 65.4982C118.797 65.7541 118.773 66.2659 118.636 67.2671C118.508 68.193 118.452 68.893 118.452 69.3974C118.452 70.0146 118.54 70.6469 118.708 71.2642L118.893 71.9417C118.965 72.2126 119.229 72.4008 119.518 72.4008C119.534 72.4008 119.542 72.4008 119.558 72.4008L120.303 72.3557C121.769 72.2729 123.227 72.2277 124.637 72.2277C125.767 72.2277 127.441 72.2503 129.773 72.2954C132.032 72.3406 135.485 72.3632 136.703 72.3632H139.883C140.06 72.3632 140.22 72.2955 140.34 72.1825L141.173 71.3921C141.333 71.2416 141.397 71.0233 141.341 70.8125L141.261 70.391Z" fill="#282827"/>
<path d="M141.366 94.3055L140.989 93.6431C139.94 91.8064 137.328 85.6264 135.774 81.9379C134.94 79.9732 134.572 79.0925 134.468 78.8968C134.139 78.3097 133.819 77.7301 133.49 77.1655C133.154 76.5784 132.922 76.0665 132.801 75.66L132.753 75.5019C132.729 75.4267 132.689 75.3514 132.641 75.2837L132.529 75.1482C131.816 74.2976 128.571 74.1997 128.539 74.1997C128.227 74.1997 127.842 74.2373 127.37 74.3277C127.073 74.3804 126.937 74.3954 126.905 74.3954H124.429C124.205 74.3954 123.997 74.5083 123.876 74.689L123.588 75.1256C123.26 75.6299 122.795 76.3751 122.17 77.4214L122.114 77.5268C122.082 77.6021 118.485 85.1898 116.434 89.9095C116.193 90.459 116.634 91.001 117.78 91.5655C117.876 91.6107 117.98 91.6333 118.084 91.6333H122.707C123.019 91.6408 129.893 91.8365 131.784 91.8591L133.178 95.7508C133.266 95.9992 133.514 96.1648 133.795 96.1648H133.803L134.123 96.1573C134.973 96.1497 136.15 96.1272 138.233 96.1121L139.211 96.1046C139.443 96.1046 139.651 95.9842 139.763 95.796C139.996 95.7207 140.212 95.6228 140.404 95.5175L141.134 95.1109C141.43 94.9529 141.534 94.5915 141.366 94.3055ZM129.493 86.635C129.348 86.635 129.14 86.635 128.948 86.6877C128.828 86.6952 128.651 86.6953 128.411 86.7028C127.402 86.7329 127.217 86.748 127.097 86.763C127.017 86.7706 126.977 86.7706 126.632 86.7706C125.791 86.7706 124.974 86.763 124.189 86.7404C125.615 83.1498 126.544 80.9593 126.985 80.1539C127.081 79.9055 127.217 79.5894 127.378 79.1979C127.386 79.1904 127.394 79.1829 127.41 79.1753C127.418 79.1829 127.418 79.1979 127.426 79.2054C127.65 79.6721 128.01 80.4174 128.491 81.2906C128.78 81.7573 129.02 82.2014 129.228 82.6455C129.717 83.5488 130.318 85.0919 130.919 86.6802C130.438 86.6501 129.949 86.635 129.493 86.635Z" fill="#282827"/>
<path d="M116.642 91.0388H116.681C116.673 91.0312 116.657 91.0312 116.65 91.0237C116.65 91.0237 116.65 91.0312 116.642 91.0388Z" fill="white"/>
</svg>
