<svg width="35" height="35" viewBox="0 0 35 35" fill="none" xmlns="http://www.w3.org/2000/svg">
<path d="M24.9999 22H23.4199L22.8599 21.46C24.8199 19.18 25.9999 16.22 25.9999 13C25.9999 5.82 20.1799 0 12.9999 0C5.81988 0 -0.00012207 5.82 -0.00012207 13C-0.00012207 20.18 5.81988 26 12.9999 26C16.2199 26 19.1799 24.82 21.4599 22.86L21.9999 23.42V25L31.9999 34.98L34.9799 32L24.9999 22ZM12.9999 22C8.01988 22 3.99988 17.98 3.99988 13C3.99988 8.02 8.01988 4 12.9999 4C17.9799 4 21.9999 8.02 21.9999 13C21.9999 17.98 17.9799 22 12.9999 22Z" fill="#5F6974"/>
</svg>
