<svg width="26" height="26" viewBox="0 0 26 26" fill="none" xmlns="http://www.w3.org/2000/svg">
<path fill-rule="evenodd" clip-rule="evenodd" d="M13 25.8002C20.0692 25.8002 25.7999 20.0694 25.7999 13.0002C25.7999 5.93095 20.0692 0.200195 13 0.200195C5.93071 0.200195 0.199951 5.93095 0.199951 13.0002C0.199951 20.0694 5.93071 25.8002 13 25.8002ZM18.9313 11.8688L14.1313 7.06882C13.5065 6.44399 12.4934 6.44399 11.8686 7.06882C11.2437 7.69366 11.2437 8.70673 11.8686 9.33156L13.9372 11.4002L8.19995 11.4002C7.3163 11.4002 6.59995 12.1165 6.59995 13.0002C6.59995 13.8838 7.3163 14.6002 8.19995 14.6002H13.9372L11.8686 16.6688C11.2437 17.2937 11.2437 18.3067 11.8686 18.9316C12.4934 19.5564 13.5065 19.5564 14.1313 18.9316L18.9313 14.1316C19.5562 13.5067 19.5562 12.4937 18.9313 11.8688Z" fill="white"/>
</svg>
