<svg width="341" height="32" viewBox="0 0 341 32" fill="none" xmlns="http://www.w3.org/2000/svg">
<path d="M126.965 28.0161C125.558 25.3929 122.088 16.5717 120.013 11.3131C118.909 8.50685 118.412 7.25013 118.266 6.98171C117.83 6.13985 117.393 5.32239 116.956 4.50493C116.507 3.66306 116.192 2.94324 116.034 2.35759L115.973 2.13795C115.937 2.01594 115.888 1.91836 115.816 1.82075L115.67 1.62553C114.712 0.405438 110.368 0.259033 110.332 0.259033C109.919 0.259033 109.398 0.32003 108.767 0.442039C108.366 0.515245 108.197 0.53963 108.148 0.53963H104.848C104.533 0.53963 104.253 0.69825 104.084 0.96667L103.696 1.58893C103.259 2.30878 102.64 3.37027 101.803 4.87098C101.803 4.88318 101.742 5.00518 101.73 5.01738C101.681 5.12719 96.8892 15.9494 94.1473 22.6965C93.8198 23.5018 94.4142 24.2826 95.955 25.1001C96.0885 25.1733 96.222 25.1977 96.3676 25.1977H102.531C102.943 25.2099 112.067 25.4783 114.615 25.5149L116.471 31.0419C116.592 31.4079 116.932 31.652 117.32 31.652H117.332H117.708C118.849 31.6398 120.426 31.6154 123.24 31.5788L124.539 31.5666C124.854 31.5666 125.145 31.3958 125.303 31.1273C125.606 31.0175 125.898 30.8833 126.152 30.7247L127.123 30.1391C127.535 29.895 127.681 29.3704 127.45 28.9434L126.965 28.0161ZM112.952 17.4745C112.406 17.4379 111.848 17.4135 111.314 17.4135C111.157 17.4135 110.914 17.4135 110.672 17.4867C110.526 17.4989 110.32 17.4989 110.029 17.5111C108.827 17.5477 108.609 17.5721 108.476 17.5843C108.379 17.5965 108.342 17.5965 107.93 17.5965C106.947 17.5965 106.001 17.5843 105.079 17.5599C106.753 13.0456 107.845 10.276 108.378 9.2511C108.5 8.93388 108.646 8.53123 108.84 8.0554C109.107 8.65324 109.531 9.59273 110.113 10.703C110.453 11.2887 110.744 11.8499 110.987 12.4111C111.545 13.5336 112.249 15.4736 112.952 17.4745Z" fill="white"/>
<path d="M81.0928 12.8503C81.0928 12.5208 81.0928 12.1914 81.105 11.862C81.1171 10.8737 81.1414 9.86105 81.1657 8.81177C81.1657 8.48234 81.19 8.14071 81.2021 7.81128C81.2992 5.79813 81.481 3.7606 80.7288 2.4917C80.0494 1.47903 77.6958 2.15009 75.9852 2.05249C75.7304 2.05249 75.4633 2.05249 75.2085 2.05249C73.9832 2.15009 72.6366 2.15009 71.3991 2.05249C71.023 2.05249 70.8047 2.05249 70.8047 2.05249C70.9624 3.84602 70.9624 5.2003 70.8047 6.90843C70.8047 7.12804 70.8047 7.34768 70.8047 7.5795C70.8047 8.01873 70.8047 8.47015 70.8047 8.93378C70.8047 9.2022 70.8047 9.44623 70.8047 9.70245C70.8775 11.1788 70.914 12.7649 70.914 14.351C70.914 14.6682 70.9382 19.4754 70.9261 19.7804C70.5379 20.244 69.7006 20.4758 65.5877 20.3294C65.3208 20.3294 65.0662 20.3294 64.7992 20.3294C63.5375 20.4514 60.8077 20.6223 60.8441 20.1098C59.8371 19.4266 60.5043 17.4012 60.3829 15.5955C60.3829 15.3759 60.3829 15.1319 60.3829 14.8878C60.3829 12.6429 60.3829 10.0319 60.3829 7.75029C60.3829 7.50627 60.3829 7.28665 60.3829 7.05483C60.5164 5.51752 60.3466 4.02903 60.1768 2.46731C59.4974 1.45464 57.4833 2.12567 55.8455 2.02806C55.5543 2.02806 55.251 2.00366 54.9598 1.99146C53.1885 1.89385 51.4172 1.71086 50.3981 2.46731C49.3911 3.15056 50.0586 5.1759 49.9858 6.76202C49.9858 6.99384 49.9858 7.21346 49.9858 7.45748C50.0464 9.66585 50.0583 11.984 50.0341 14.2534C50.0341 14.5828 50.1555 18.5969 50.1434 18.9141C50.0706 21.6959 51.0411 22.611 54.0378 24.917C54.2198 25.1 54.4017 25.283 54.5837 25.466C55.4451 26.3323 56.3673 26.7471 57.168 27.5646C57.3257 27.7232 57.4833 27.8818 57.641 28.0404C60.1039 30.7124 60.1767 30.6392 62.4818 30.566C62.7002 30.566 65.2965 30.7734 65.527 30.7734C68.2204 30.7734 71.5569 30.7734 74.4443 30.7734C74.6627 30.7734 74.869 30.7734 75.0753 30.7734C77.0043 30.9442 79.54 30.8954 80.8867 29.8706C81.5661 29.5289 81.0443 28.2356 81.1535 26.8935C81.1535 26.6983 81.1535 26.4909 81.1535 26.2713C81.1535 25.344 81.1535 24.3191 81.1535 23.221C81.1535 22.9404 81.1657 22.5866 81.1535 22.367C81.4083 19.4388 81.4083 16.0469 81.0928 12.8503Z" fill="white"/>
<path d="M284.078 3.05291C284.078 2.68688 283.823 2.35747 283.459 2.27207L282.61 2.06463C282.343 2.00363 281.919 1.91822 280.754 1.86942C280.56 1.86942 280.451 1.84504 280.463 1.85724C280.305 1.79624 280.147 1.78404 279.977 1.82064L278.764 2.10124C278.679 2.12564 278.606 2.15005 278.534 2.18665L278.048 2.46729C277.879 2.56489 277.757 2.72347 277.697 2.89429C277.187 4.3462 276.932 6.15194 276.932 8.43351C276.932 9.77561 276.956 11.7766 277.017 14.3876C277.078 16.9864 277.102 18.9751 277.102 20.2928C277.102 23.4406 277.029 26.1736 276.896 28.4064L276.872 28.8578C276.86 29.0653 276.92 29.2727 277.054 29.4313L278.218 30.8222C278.376 31.0174 278.606 31.115 278.837 31.115C278.995 31.115 279.153 31.0662 279.286 30.9808L279.71 30.7002C279.759 30.7124 279.82 30.7246 279.893 30.749C280.451 30.8954 280.887 30.9686 281.276 30.9686C282.016 30.9686 282.719 30.7124 283.362 30.1878L283.787 29.8461C283.981 29.6875 284.09 29.4679 284.09 29.2117L284.102 28.6748C284.163 24.2947 284.187 21.1225 284.187 18.9629V13.6799C284.187 11.5326 284.163 8.32373 284.102 3.8826L284.078 3.05291Z" fill="white"/>
<path d="M270.599 22.7453C270.599 21.635 270.623 19.9391 270.66 17.5965C270.708 15.2905 270.72 13.5092 270.72 12.3257C270.72 8.65322 270.551 5.5176 270.223 3.00422L270.09 2.01591C270.041 1.61328 269.689 1.30827 269.277 1.30827H268.282C268.16 1.30827 267.918 1.29608 267.445 1.24728C266.923 1.19848 266.523 1.17408 266.244 1.17408C265.698 1.17408 265.188 1.25947 264.715 1.43029C263.939 1.74751 263.15 2.40637 262.119 3.65086C261.33 4.67574 260.032 6.31066 259.704 6.66449L259.583 6.8109C259.353 7.11592 255.713 14.0582 252.935 19.634C250.144 14.0582 246.504 7.10371 246.25 6.76208L246.128 6.61568C245.837 6.29845 244.539 4.66353 243.69 3.56545C242.719 2.39416 241.943 1.7353 241.142 1.41807C240.693 1.24726 240.183 1.16187 239.637 1.16187C239.346 1.16187 238.958 1.18626 238.436 1.23507C237.975 1.28387 237.733 1.29606 237.611 1.29606H236.616C236.204 1.29606 235.864 1.6011 235.804 2.00373L235.67 2.992C235.343 5.50539 235.173 8.64101 235.173 12.3135C235.173 13.497 235.197 15.2783 235.234 17.5843C235.27 19.9391 235.294 21.6228 235.294 22.7331C235.294 23.1601 235.294 23.5749 235.282 23.9898C233.875 23.9898 229.701 23.941 227.093 23.8434C224.375 23.7458 222.3 23.6847 220.93 23.6847C220.335 23.6847 219.813 23.6848 219.34 23.697L219.255 18.7922C220.105 18.7312 221.439 18.6702 223.574 18.6702C224.557 18.6702 225.564 18.6214 226.571 18.536L227.602 18.4384C228.027 18.4018 228.342 18.0479 228.342 17.6209V13.6434C228.342 13.3018 228.136 12.9968 227.808 12.8748L227.069 12.5941C226.086 12.2281 224.897 12.0329 223.538 11.9963C223.441 11.9963 223.38 12.0085 223.295 12.0329C222.968 12.0329 222.215 12.0451 220.529 12.0451C220.032 12.0451 219.583 12.0329 219.195 11.9963C219.195 11.9109 219.207 11.8132 219.219 11.7034V8.95823C219.352 9.04364 219.498 9.09246 219.668 9.09246H220.092C222.992 9.09246 225.285 8.86063 227.117 8.397C227.299 8.3482 227.469 8.23839 227.59 8.09198L227.954 7.64055C228.027 7.55514 228.075 7.45755 228.112 7.34774L228.476 6.22524C228.549 5.99342 228.561 5.81042 228.439 5.5908C228.439 5.5908 228.427 5.52978 228.427 5.34677C228.367 4.24869 228.27 3.83386 228.172 3.55323L227.893 2.76018C227.772 2.40636 227.432 2.16235 227.056 2.16235L225.916 2.15014C223.574 2.12573 221.5 2.11352 219.68 2.10132H219.668C219.437 2.10132 219.207 2.19896 219.037 2.35757C219.037 2.35757 219.037 2.35754 219.037 2.36974C218.903 2.19893 218.697 2.07695 218.467 2.05255C217.775 2.00374 217.156 1.94273 216.61 1.85733L216.113 1.78412C215.883 1.74752 215.652 1.82072 215.47 1.96713L215.385 2.04033C215.349 2.04033 215.312 2.02812 215.276 2.02812C214.936 1.99152 214.693 1.96713 214.511 1.96713C212.91 1.96713 211.794 3.06521 211.782 4.67574C211.782 4.73674 211.794 4.79774 211.806 4.85874L211.867 5.12716C211.891 5.26137 211.939 5.62741 212.061 6.54247C212.194 7.59175 212.267 8.70201 212.267 9.8367C212.267 10.642 212.231 11.8987 212.158 13.5702C212.085 15.2905 212.049 16.596 212.049 17.4745C212.049 17.9747 212.073 18.6946 212.146 19.6585C212.194 20.5125 212.231 21.1592 212.231 21.5862C212.231 21.9278 212.194 22.6233 212.024 23.9654C211.867 25.2221 211.794 26.1616 211.794 26.8326C211.794 27.6623 211.903 28.5041 212.121 29.3338L212.352 30.2488C212.449 30.6149 212.777 30.8589 213.141 30.8589C213.153 30.8589 213.177 30.8589 213.189 30.8589L214.123 30.7979C215.967 30.6881 217.787 30.6271 219.559 30.6271C220.966 30.6271 223.077 30.6515 226.001 30.7125C228.852 30.7735 233.171 30.7979 234.7 30.7979H238.691C238.849 30.7979 239.007 30.7369 239.14 30.6515L241.19 30.7003C241.554 30.6759 241.87 30.4807 241.979 30.139L242.246 29.3338C242.379 28.9433 242.428 28.6261 242.428 28.3211C242.428 28.0893 242.391 27.8331 242.331 27.5402C242.282 25.9175 242.258 22.3304 242.258 16.8522C242.258 16.291 242.319 15.3881 242.44 14.168C242.452 14.0582 242.464 13.9606 242.476 13.8508C243.447 15.925 244.672 19.0118 245.728 21.6716C247.608 26.4178 248.797 29.3704 249.562 30.2488L249.865 30.6027C250.011 30.7613 250.205 30.8711 250.423 30.8833L250.896 30.9199C251.77 30.9809 252.413 31.0175 252.862 31.0175C252.898 31.0175 252.934 31.0053 252.971 31.0053C253.007 31.0053 253.044 31.0175 253.08 31.0175C253.529 31.0175 254.172 30.9931 255.046 30.9199L255.519 30.8833C255.737 30.8711 255.931 30.7613 256.077 30.6027L256.392 30.2488C257.156 29.3704 258.346 26.4178 260.214 21.6716C261.269 19.0118 262.483 15.925 263.465 13.8508C263.477 13.9484 263.49 14.0582 263.502 14.168C263.623 15.3759 263.684 16.2788 263.684 16.8522C263.684 22.3426 263.659 25.9297 263.611 27.5402C263.55 27.8453 263.514 28.0893 263.514 28.3211C263.514 28.6261 263.574 28.9433 263.696 29.3338L263.963 30.139C264.072 30.4807 264.4 30.6759 264.751 30.7003L270.065 30.5539C270.284 30.5539 270.49 30.4563 270.648 30.2854C270.793 30.1268 270.878 29.9072 270.854 29.6754L270.781 28.4919C270.66 26.8204 270.599 24.8805 270.599 22.7453Z" fill="white"/>
<path d="M198.739 1.07626C197.393 0.832243 196.35 0.734637 191.254 0.734637C190.041 0.734637 188.961 0.673652 188.027 0.563843L187.59 0.515029C187.372 0.490628 187.153 0.551613 186.983 0.685823C185.709 0.734627 185.079 1.43011 184.812 1.85714L184.581 2.22315C184.484 2.38176 184.435 2.57698 184.46 2.75999L184.508 3.18703C184.605 4.0289 184.666 4.98058 184.666 6.01766C184.666 6.42029 184.642 7.06693 184.581 7.9576C184.521 8.93367 184.496 9.67792 184.496 10.2026C184.496 10.288 184.508 10.3612 184.533 10.4344L184.545 10.8004C184.569 11.8619 184.605 14.3509 184.714 15.8028C184.763 16.425 184.8 22.1716 184.824 25.9661C184.836 27.296 184.836 28.4429 184.848 29.175C184.836 29.1018 184.824 29.0286 184.775 28.9554L184.266 28.0159C182.858 25.3927 179.389 16.5714 177.314 11.3128C176.21 8.50664 175.713 7.24995 175.567 6.96933C175.13 6.12746 174.693 5.30998 174.257 4.50472C173.808 3.66285 173.492 2.94302 173.335 2.35738L173.274 2.13774C173.237 2.02793 173.189 1.91814 173.116 1.82054L172.971 1.63749C172.012 0.417401 167.669 0.270996 167.62 0.270996C167.208 0.270996 166.698 0.331993 166.055 0.454002C165.655 0.527208 165.485 0.551631 165.436 0.551631H162.136C161.821 0.551631 161.542 0.71025 161.372 0.97867L160.996 1.6131C160.559 2.33296 159.941 3.39444 159.103 4.89515L159.031 5.04156C158.982 5.15137 154.19 15.9736 151.448 22.7207C151.424 22.7817 151.411 22.8305 151.399 22.8915C148.439 23.1477 147.614 23.2819 147.214 23.3552C147.044 23.3796 146.971 23.404 146.765 23.404C146.365 23.404 145.673 23.3673 144.69 23.3063L139.874 23.0135C138.309 22.8061 137.69 22.4279 136.926 21.647C136.61 21.342 136.38 21.037 136.234 20.7441C135.967 20.2073 135.712 19.7071 135.712 17.2425C135.712 16.8154 135.688 16.3762 135.664 15.9492C135.603 14.9121 135.543 13.936 135.846 13.0576C136.319 11.6057 136.962 10.5198 137.678 9.89754C138.127 9.51931 138.855 9.04346 139.401 8.97026L142.082 8.87267C142.094 8.87267 142.203 8.86045 142.215 8.86045C142.895 8.76285 143.416 8.67744 143.708 8.62863C145.479 8.53102 146.825 8.49443 147.735 8.48223C148.463 8.45783 148.936 8.45784 149.24 8.45784C149.531 8.57985 149.847 8.49443 150.016 8.40903H150.028L150.878 8.28701C151.157 8.25041 151.375 8.03079 151.411 7.75016L151.545 6.79849C151.678 5.84682 151.739 5.15137 151.739 4.66333C151.739 3.66286 151.594 2.00355 151.581 1.93034C151.557 1.63752 151.326 1.4057 151.035 1.3569L149.47 1.16168C149.41 1.16168 149.361 1.16168 149.3 1.16168C148.864 1.22268 148.366 1.27148 147.845 1.30808C146.34 1.25928 145.175 1.23488 144.399 1.23488C139.655 1.23488 134.645 2.14995 131.879 3.94348C130.787 4.66334 130.411 5.04156 130.216 5.27338C129.731 5.79802 129.246 6.57888 128.712 7.75016C128.19 8.87265 127.863 9.77553 127.717 10.5076C127.608 11.0322 127.499 12.0327 127.499 15.4855C127.499 19.7071 128.105 23.1355 129.294 25.6855C130.362 27.9183 133.601 29.5044 136.537 30.4073C137.641 30.7367 138.03 30.8221 138.26 30.8587C138.479 30.8953 138.903 30.9197 141.087 30.9197C141.803 30.9197 142.858 30.9319 144.254 30.9685C145.685 31.0051 146.753 31.0173 147.456 31.0173C149.859 31.0173 150.259 30.9197 151.06 30.7367C151.399 30.6635 151.8 30.5659 152.504 30.4561L153.195 30.3463C153.438 30.3096 153.632 30.1389 153.705 29.907L153.923 29.1628C154.068 28.6747 154.141 28.1867 154.141 27.6987C154.141 27.0642 154.02 26.259 153.801 25.2463H159.795C160.208 25.2585 169.331 25.5269 171.879 25.5635L173.735 31.0905C173.856 31.4566 174.196 31.7006 174.584 31.7006H174.596H174.985C176.125 31.6884 177.702 31.664 180.505 31.6274L181.803 31.6152C182.118 31.6152 182.41 31.4444 182.567 31.1759C182.871 31.0661 183.162 30.9319 183.417 30.7733L184.387 30.1877C184.593 30.0657 184.727 29.8704 184.787 29.663C184.787 29.7972 184.787 29.9192 184.787 29.968C184.799 30.4195 185.163 30.7733 185.612 30.7733H191.12C191.302 30.7733 191.472 30.7123 191.606 30.6147C191.727 30.7123 191.885 30.7611 192.055 30.7733C192.588 30.7977 192.807 30.8099 192.964 30.8221C193.231 30.8465 193.365 30.8587 194.36 30.8587C196.871 30.8587 198.752 30.7123 200.086 30.4195C202.488 29.9559 204.43 28.9676 205.886 27.4669C208.47 24.8071 209.137 23.4528 209.379 22.5865C210.01 21.5494 210.386 20.2683 210.52 18.7188V15.1805C210.52 15.0585 210.532 14.8145 210.568 14.3753C210.617 13.8506 210.641 13.4846 210.641 13.2162C210.641 12.1913 210.29 10.6052 207.705 6.65209C205.788 3.62626 202.755 1.75951 198.739 1.07626ZM170.265 17.4743C169.719 17.4377 169.161 17.4133 168.627 17.4133C168.469 17.4133 168.227 17.4133 167.984 17.4865C167.839 17.4987 167.632 17.4987 167.341 17.5109C166.14 17.5475 165.922 17.5719 165.788 17.5841C165.691 17.5963 165.655 17.5963 165.242 17.5963C164.26 17.5963 163.301 17.5841 162.391 17.5597C164.065 13.0454 165.157 10.2758 165.691 9.25089C165.812 8.93367 165.958 8.53102 166.152 8.05519C166.419 8.65303 166.844 9.59252 167.414 10.7028C167.754 11.2884 168.045 11.8497 168.288 12.4109C168.858 13.5334 169.561 15.4733 170.265 17.4743ZM192.03 23.0257C192.055 17.7549 192.091 10.9102 192.152 8.37242C192.977 8.40903 193.62 8.43344 194.166 8.45784C195.512 8.51884 196.228 8.55543 197.441 8.55543C197.55 8.57983 197.745 8.64083 198.084 8.73844C199.601 9.20207 200.899 10.0073 201.955 11.1542C202.391 11.6179 202.525 11.8375 202.561 11.8985C202.925 12.5207 203.143 13.5212 203.216 14.7535C203.24 15.937 203.277 17.1449 203.326 18.365C202.719 19.8901 202.464 20.4147 202.391 20.5489C202.015 21.22 201.578 21.6714 201.081 21.9398C199.758 22.6597 197.441 23.0501 194.384 23.0501C193.923 23.0501 193.207 23.0379 192.152 23.0013C192.103 23.0135 192.067 23.0135 192.03 23.0257Z" fill="white"/>
<path d="M23.2826 1.96701C22.579 1.96701 21.851 1.97918 21.1352 1.97918C19.6187 1.99138 18.1991 2.0036 17.0586 1.95479H14.8748C13.2005 2.0158 10.6287 1.97921 8.14159 1.93041C6.62506 1.906 5.14494 1.88159 3.91958 1.88159C1.15342 1.88159 0.121921 1.88159 0.0127302 2.90646C-0.0600635 3.58972 -0.0841151 3.73614 7.814 10.7761C9.16068 11.9718 10.4589 13.143 11.4901 14.0703C11.66 14.2411 11.8419 14.5217 12.036 14.8267C12.2665 15.1928 12.509 15.571 12.8245 15.8883L17.4348 20.5612C17.7502 20.8784 18.0536 21.2078 18.369 21.4885C20.0433 22.8916 22.2755 25.5636 24.059 27.7109C26.7645 30.9564 27.359 31.603 28.087 31.603C28.3418 31.603 28.6449 31.4688 28.8147 31.2736C29.3 30.7367 29.4457 29.4557 29.5307 21.9765C29.5428 21.0126 29.555 20.1098 29.5671 19.3533C29.555 18.7067 29.555 18.0722 29.5671 17.511V16.7423L29.5307 14.8024C29.4821 11.0933 29.6276 9.86097 30.0158 6.55452C30.1857 5.07821 29.7007 3.65074 29.3974 3.04069C28.9485 2.19883 27.6381 1.96701 23.2826 1.96701Z" fill="white"/>
<path d="M312.504 24.8437L312.261 23.831C312.225 23.6602 312.116 23.526 311.97 23.4284L310.939 22.8306C310.829 22.7696 310.696 22.733 310.575 22.7452C307.238 23.0136 306.365 23.1722 305.952 23.2454C305.783 23.2698 305.71 23.2942 305.491 23.2942C305.091 23.2942 304.399 23.2576 303.417 23.1966L298.6 22.916C297.047 22.7085 296.344 22.4035 295.555 21.6349C295.24 21.3299 295.009 21.0248 294.863 20.732C294.596 20.1952 294.342 19.6949 294.342 17.2425C294.342 16.8765 294.33 16.5105 294.317 16.1323C294.281 15.0464 294.232 13.9361 294.56 12.9844C295.033 11.5447 295.676 10.4466 296.392 9.83658C296.841 9.45835 297.569 8.98254 298.115 8.90933L300.796 8.8117C300.808 8.8117 300.917 8.79953 300.929 8.79953C301.609 8.70192 302.131 8.61651 302.422 8.56771C304.193 8.4701 305.54 8.43348 306.45 8.43348C307.178 8.40908 307.651 8.40909 307.966 8.40909C308.257 8.5311 308.573 8.44568 308.743 8.36028H308.755L309.616 8.23826C309.895 8.20166 310.114 7.98204 310.15 7.70142L310.283 6.74975C310.417 5.81028 310.478 5.11484 310.478 4.6268C310.478 3.62632 310.332 1.97919 310.32 1.90598C310.296 1.61316 310.065 1.38135 309.774 1.34475L308.209 1.14953C308.148 1.13733 308.1 1.13733 308.039 1.14953C307.602 1.21054 307.105 1.25933 306.583 1.29594C305.079 1.24713 303.914 1.22273 303.138 1.22273C298.394 1.22273 294.584 2.12563 291.83 3.91916C290.738 4.62682 290.362 5.00504 290.168 5.24906C289.683 5.7737 289.198 6.55454 288.664 7.71363C288.142 8.83611 287.815 9.73898 287.669 10.4588C287.56 10.9835 287.451 11.9717 287.451 15.4124C287.451 19.6217 288.057 23.038 289.258 25.5636C290.326 27.7963 292.352 29.3703 295.288 30.2609C296.392 30.5904 296.78 30.6757 297.011 30.7001C297.229 30.7368 297.654 30.7612 299.838 30.7612C300.553 30.7612 301.609 30.7733 303.004 30.81C304.436 30.8466 305.503 30.8588 306.207 30.8588C308.609 30.8588 309.01 30.7612 309.81 30.5903C310.15 30.5171 310.562 30.4195 311.254 30.3097L311.946 30.1999C312.188 30.1633 312.382 29.9925 312.443 29.7607L312.674 29.0164C312.819 28.5406 312.892 28.0404 312.892 27.5523C312.904 26.8569 312.783 25.9784 312.504 24.8437Z" fill="white"/>
<path d="M340.845 10.9213C340.639 9.57917 340.287 7.90763 339.377 6.78514C338.782 5.96768 338.127 5.22344 337.399 4.55239C333.857 1.33135 328.725 0.0990346 322.974 1.06291C322.926 1.07511 322.889 1.08731 322.841 1.09951C322.028 1.38013 321.227 1.75837 320.463 2.22201C319.723 2.66124 319.007 3.18589 318.327 3.79594C317.442 4.6012 316.653 5.47967 315.949 6.46794C311.946 12.6416 311.861 20.4014 315.707 25.7698C316.338 26.6482 317.065 27.4779 317.878 28.2466C317.915 28.271 317.951 28.3076 317.988 28.332L318.182 28.454C318.776 28.8566 319.359 29.247 319.929 29.6253C319.977 29.6619 320.026 29.6863 320.074 29.6985C322.197 30.5159 324.6 30.943 327.026 30.943C332.583 30.943 339.037 28.4784 340.444 21.5605C340.59 20.8406 340.748 20.0231 340.905 18.9983C341.051 16.4483 341.027 13.8983 340.845 10.9213ZM333.917 17.6684C333.845 18.193 333.759 18.6445 333.687 19.0471C332.728 24.0739 327.038 24.7693 323.471 23.3052C323.132 23.0734 322.792 22.8294 322.452 22.5853C322.04 22.1705 321.676 21.7191 321.36 21.2555C319.468 18.437 319.468 14.2155 321.494 10.8602C321.846 10.3478 322.246 9.872 322.683 9.44497C323.011 9.12775 323.374 8.8471 323.75 8.61528C324.127 8.37126 324.515 8.17606 324.927 8.01745C327.827 7.49281 330.399 8.11504 332.207 9.87197C332.571 10.2258 332.898 10.6162 333.202 11.0555C333.602 11.5801 333.784 12.361 333.905 13.1906C333.99 14.9232 333.99 16.3263 333.917 17.6684Z" fill="white"/>
</svg>
