<svg width="340" height="50" viewBox="0 0 340 50" fill="none" xmlns="http://www.w3.org/2000/svg">
<path d="M227.142 5.31568L223.183 0.483243C222.965 0.218237 222.637 0.0623202 222.279 0.0623202H221.546C220.159 0.0623202 218.865 0.0467011 217.649 0.0311125C216.558 0.0155239 215.529 0 214.562 0C212.364 0 210.852 0.0779164 209.512 0.26498C209.215 0.311746 208.935 0.467582 208.748 0.701412L207.984 1.71471L207.345 2.80593C207.126 3.18006 207.142 3.64767 207.36 4.02179C207.345 4.00621 207.345 4.00624 207.345 4.053C207.438 5.00391 207.61 5.59632 207.89 6.04839L208.374 6.81222C208.592 7.15517 208.95 7.35778 209.356 7.35778L211.351 7.37338C213.985 7.38897 218.101 7.40459 221.562 7.40459L226.379 7.4201C226.394 7.4201 226.394 7.4201 226.409 7.4201C227.049 7.4201 227.579 6.90568 227.579 6.25095C227.579 5.84565 227.407 5.51833 227.142 5.31568Z" fill="#282827"/>
<path d="M326.52 11.442C326.723 13.7335 326.723 15.4639 326.52 17.6308C326.52 17.9113 326.52 18.1919 326.52 18.4881C326.52 19.0493 326.52 19.6261 326.52 20.2184C326.52 20.5614 326.52 20.8731 326.52 21.2005C326.614 23.0867 326.66 25.1132 326.66 27.1242C326.66 27.5295 326.691 33.6558 326.676 34.0455C326.177 34.6379 325.101 34.9341 319.817 34.747C319.49 34.747 319.146 34.747 318.803 34.747C317.198 34.9029 313.69 35.1212 313.737 34.4664C312.443 33.6091 313.301 31.0058 313.145 28.7142C313.145 28.4336 313.145 28.1218 313.145 27.8101C313.145 24.9418 313.145 21.6214 313.145 18.7064C313.145 18.3946 313.145 18.114 313.145 17.8334C313.301 15.8692 313.098 13.9674 312.88 11.9877C312.023 10.6938 309.419 11.5511 307.33 11.4264C306.956 11.4264 306.567 11.3953 306.193 11.3797C303.917 11.255 301.641 11.0212 300.347 11.9877C299.053 12.8451 299.91 15.4483 299.817 17.4592C299.817 17.7398 299.817 18.036 299.817 18.3478C299.895 21.1537 299.91 24.1156 299.879 27.015C299.879 27.4203 300.035 32.549 300.019 32.9699C299.926 36.5085 301.173 37.6777 305.023 40.624C305.257 40.8578 305.491 41.0915 305.725 41.3254C306.832 42.4322 308.001 42.9622 309.045 43.9911C309.248 44.1937 309.45 44.3964 309.653 44.599C312.802 48.0129 312.911 47.9038 315.857 47.8103C316.138 47.8103 319.474 48.0753 319.755 48.0753C323.215 48.0753 327.487 48.0753 331.197 48.0753C331.477 48.0753 331.742 48.0753 332.007 48.0753C334.486 48.2935 337.728 48.2312 339.458 46.9373C340.316 46.5008 339.661 44.8485 339.801 43.1493C339.801 42.8999 339.801 42.6349 339.801 42.3543C339.801 41.1695 339.801 39.8601 339.801 38.4571C339.801 38.1142 339.817 37.6465 339.801 37.3659C340.082 33.609 340.082 29.291 339.692 25.2068C339.692 24.7859 339.692 24.365 339.708 23.9441C339.724 22.6814 339.755 21.3876 339.786 20.047C339.786 19.6261 339.817 19.1896 339.832 18.7687C339.957 16.1966 340.191 13.6089 339.225 11.9877C338.367 10.6938 335.328 11.5511 333.145 11.4264C332.818 11.4264 332.475 11.4264 332.147 11.4264C330.589 11.5511 328.858 11.5511 327.253 11.4264C326.801 11.442 326.52 11.442 326.52 11.442Z" fill="#282827"/>
<path d="M140.968 12.6734L140.952 11.5198C140.952 11.0365 140.609 10.6001 140.126 10.491L139.004 10.2104C138.645 10.1169 138.084 10.0233 136.541 9.96093C136.276 9.96093 136.135 9.92983 136.166 9.94542C135.964 9.86747 135.746 9.85184 135.527 9.89861L133.922 10.2727C133.813 10.3039 133.719 10.3351 133.626 10.3975L132.986 10.7716C132.768 10.8963 132.596 11.0989 132.519 11.3327C131.833 13.2345 131.505 15.6196 131.505 18.6282C131.505 20.4053 131.537 23.0398 131.615 26.4693C131.693 29.8988 131.724 32.5177 131.724 34.248C131.724 38.3946 131.63 41.98 131.443 44.9263L131.396 45.5186C131.381 45.7992 131.474 46.0642 131.646 46.2825L133.189 48.1219C133.407 48.3713 133.704 48.5116 134.015 48.5116C134.218 48.5116 134.436 48.4493 134.608 48.3246L135.169 47.9504C135.231 47.966 135.309 47.9816 135.403 48.0128C136.135 48.1999 136.727 48.2934 137.226 48.2934C138.208 48.2934 139.128 47.9505 139.986 47.2646L140.547 46.828C140.796 46.6254 140.952 46.3292 140.952 46.0018L140.968 45.2848C141.046 39.517 141.077 35.3392 141.077 32.5021V25.5495C141.092 22.728 141.046 18.5192 140.968 12.6734Z" fill="#282827"/>
<path d="M192.146 13.0164L192.13 11.8317C192.13 11.3328 191.787 10.912 191.304 10.7873L190.181 10.5067C189.823 10.4131 189.262 10.3196 187.719 10.2572C187.469 10.2572 187.329 10.2261 187.36 10.2417C187.158 10.1638 186.923 10.1481 186.705 10.1949L185.1 10.569C184.99 10.6002 184.897 10.6314 184.803 10.6937L184.149 11.0835C183.931 11.2082 183.759 11.4264 183.681 11.6602C182.995 13.6088 182.668 16.0406 182.668 19.1115C182.668 20.9198 182.699 23.6167 182.777 27.1241C182.855 30.6315 182.886 33.2973 182.886 35.0744C182.886 36.337 182.87 37.5373 182.855 38.7064C177.898 38.8156 170.992 38.878 170.54 38.878C170.026 38.878 169.121 38.8312 167.843 38.7532L161.514 38.3947C159.612 38.1453 158.194 37.5996 157.305 36.7579C156.838 36.3214 156.651 36.0252 156.573 35.9005C156.354 35.4952 155.855 34.1858 155.855 30.881V30.4601C155.855 28.8077 155.84 25.3938 156.339 24.022C156.744 22.8528 159.597 20.7016 160.532 20.3898L163.962 20.2652C163.993 20.2652 164.164 20.2496 164.195 20.2496C165.053 20.1404 165.723 20.0313 166.206 19.9534C168.467 19.8443 170.213 19.7819 171.413 19.7819L172.036 19.7663C173.237 19.7663 174.468 19.8442 175.902 20.0157C176.354 20.0625 176.822 19.9222 177.165 19.626C177.508 19.3142 177.711 18.8778 177.711 18.4101V11.8317C177.711 10.9431 176.994 10.2105 176.105 10.2105C175.076 10.1949 173.751 10.1793 172.068 10.117C169.979 10.0546 168.373 10.0234 167.313 10.0234C160.891 10.0234 155.715 11.2082 151.943 13.5465C150.727 14.3103 149.994 14.8715 149.589 15.3391C148.872 16.0562 148.201 17.1162 147.438 18.6751C146.705 20.1872 146.269 21.3407 146.066 22.3384C145.91 23.0711 145.754 24.3649 145.754 28.7765C145.754 34.2169 146.58 38.6597 148.233 41.9801C149.745 45.0043 152.597 47.1399 156.713 48.3247C158.194 48.7456 158.739 48.8547 159.113 48.9014C159.456 48.9482 160.018 48.995 162.948 48.995C163.884 48.995 165.287 49.0105 167.126 49.0573C169.028 49.1041 170.447 49.1196 171.382 49.1196C172.286 49.1196 179.691 49.1041 184.18 49.0573L184.32 49.2287C184.538 49.4938 184.85 49.6341 185.162 49.6341C185.38 49.6341 185.583 49.5717 185.77 49.447L186.316 49.0729C186.378 49.0885 186.456 49.104 186.534 49.1352C187.282 49.3379 187.859 49.4314 188.373 49.4314C189.355 49.4314 190.291 49.0729 191.148 48.387L191.709 47.935C191.959 47.7323 192.099 47.4205 192.114 47.1087L192.13 46.3761C192.208 40.4836 192.239 36.2123 192.239 33.3128V26.2044C192.255 23.3049 192.224 18.9869 192.146 13.0164Z" fill="#282827"/>
<path d="M274.344 12.4237C274.36 12.1276 274.266 11.8469 274.064 11.6287C273.861 11.4105 273.596 11.2858 273.3 11.2702L266.254 11.0831C265.786 11.052 265.35 11.3637 265.209 11.8158L264.851 12.8758C264.679 13.3902 264.601 13.7956 264.601 14.2009C264.601 14.5126 264.648 14.8244 264.726 15.2297C264.788 17.3497 264.835 22.0731 264.835 29.3062C264.835 30.0545 264.757 31.2392 264.586 32.8293C264.539 33.3125 264.492 33.7646 264.461 34.1855C262.326 31.6757 259.863 28.4956 257.103 24.692C252.567 18.3786 249.231 13.9982 247.205 11.6443L246.799 11.1767C246.612 10.9584 246.347 10.8337 246.067 10.8026L245.443 10.7557C244.29 10.6778 243.448 10.6311 242.84 10.6311C241.764 10.6311 240.798 10.7713 239.956 11.0519L238.537 11.5352C238.272 11.6287 238.038 11.8158 237.914 12.0808C237.789 12.3303 237.773 12.6264 237.851 12.907L238.335 14.3256C238.475 14.7777 238.662 15.6662 238.662 17.4121C238.662 18.363 238.584 20.0778 238.444 22.4784C238.366 23.7879 238.319 25.83 238.319 28.5424C238.319 30.3351 238.366 36.9135 238.46 41.1224V41.5121C238.475 42.1045 238.958 42.5722 239.535 42.5722H246.69C247.282 42.5722 247.766 42.1045 247.766 41.5121C247.813 37.4747 247.89 32.5019 248 29.088C252.349 34.1387 255.763 38.0982 258.163 40.8418C258.74 41.5588 259.177 42.1357 259.504 42.5722L259.675 42.7748C260.237 43.3672 260.673 43.8348 260.891 44.0842L262.902 46.781C264.181 48.3243 265.225 49.1817 266.269 49.6181C266.862 49.8364 267.532 49.9611 268.265 49.9611C268.639 49.9611 269.169 49.93 269.87 49.8676C270.478 49.8053 270.806 49.7897 270.977 49.7897H272.302C272.848 49.7897 273.3 49.3843 273.378 48.8543L273.549 47.5449C273.986 44.2401 274.204 40.1092 274.204 35.2767C274.204 33.7178 274.173 31.3795 274.11 28.3397C274.048 25.2376 274.032 23.024 274.032 21.5586C274.032 18.7683 274.111 16.2274 274.251 13.9826L274.344 12.4237Z" fill="#282827"/>
<path d="M123.822 18.1136C121.203 14.232 117.181 11.8313 111.881 10.9584C110.104 10.6466 108.717 10.5219 101.982 10.5219C100.377 10.5219 98.9427 10.444 97.7112 10.3037L97.1342 10.2414C96.8537 10.2102 96.5731 10.288 96.3548 10.4595L96.3392 10.4751C94.6556 10.5219 93.8141 11.4417 93.4712 11.9873L93.1747 12.4549C93.0344 12.6731 92.9878 12.9225 93.019 13.1719L93.0814 13.7332C93.2217 14.8088 93.2839 16.0246 93.2839 17.3653C93.2839 17.8797 93.2526 18.7215 93.1747 19.8751C93.0967 21.1222 93.0502 22.1042 93.0502 22.759C93.0502 22.8681 93.0659 22.9772 93.097 23.0708L93.1123 23.5228C93.1434 24.8946 93.206 28.1059 93.3463 29.9765C93.4087 30.7715 93.4556 38.0358 93.4868 42.8527C93.5023 45.5651 93.5176 47.7319 93.5332 48.1684C93.5488 48.7452 94.0323 49.2129 94.6091 49.2129H101.889C102.123 49.2129 102.356 49.1349 102.528 49.0102C102.699 49.1349 102.902 49.2129 103.12 49.2129C103.822 49.2441 104.118 49.2596 104.321 49.2752C104.664 49.3064 104.851 49.3219 106.16 49.3219C109.48 49.3219 111.959 49.1349 113.736 48.7608C116.901 48.1684 119.488 46.8901 121.39 44.9571C124.804 41.5276 125.693 39.7818 126.02 38.675C126.846 37.3344 127.361 35.6819 127.532 33.671V29.1191C127.532 28.9633 127.548 28.6514 127.594 28.0902C127.657 27.4199 127.688 26.9367 127.688 26.5938C127.719 25.2376 127.252 23.1955 123.822 18.1136ZM102.98 39.2205C103.011 32.4395 103.058 23.632 103.152 20.3583C104.258 20.4051 105.131 20.4362 105.848 20.483C107.61 20.5609 108.561 20.6077 110.151 20.6077C110.291 20.6389 110.541 20.7169 111.008 20.8416C113.019 21.434 114.734 22.4784 116.137 23.9593C116.698 24.5517 116.885 24.8323 116.932 24.9102C117.415 25.7208 117.711 26.999 117.789 28.5735C117.82 30.0856 117.867 31.6601 117.93 33.219C117.119 35.1831 116.792 35.8534 116.698 36.0249C116.199 36.8823 115.622 37.4746 114.968 37.8175C113.222 38.7528 110.151 39.2361 106.082 39.2361C105.474 39.2361 104.523 39.2206 103.136 39.1738C103.089 39.205 103.042 39.2049 102.98 39.2205Z" fill="#282827"/>
<path d="M35.8702 12.7514C35.3402 11.6602 33.7349 11.3484 28.4036 11.3484C27.5462 11.3484 26.6574 11.364 25.7844 11.364C23.945 11.3796 22.2147 11.3951 20.8274 11.3328H18.1618C16.1197 11.4107 12.9863 11.364 9.96214 11.3017C8.12268 11.2705 6.31433 11.2393 4.81782 11.2393C1.52862 11.2393 0.156703 11.2393 0.0164054 12.5331C-0.0771262 13.3593 -0.0925779 13.562 9.51001 22.5722C11.1468 24.1155 12.737 25.5964 13.9841 26.7968C14.2024 27.015 14.4205 27.4047 14.6387 27.7632C14.9193 28.2309 15.2153 28.7141 15.5894 29.1194L21.2015 35.121C21.5756 35.5263 21.9653 35.9473 22.3394 36.3214C24.3815 38.1141 27.0939 41.5591 29.2763 44.3027C32.6278 48.5428 33.2984 49.3067 34.2337 49.3067C34.5611 49.3067 34.9506 49.1196 35.1688 48.8858C35.7456 48.2155 35.9327 46.5631 36.0263 37.0073C36.0418 35.7602 36.0575 34.6066 36.0731 33.6401C36.0575 32.7983 36.0575 31.9878 36.0731 31.2707V30.2886L36.0419 27.81C35.9951 23.0398 36.1664 21.4654 36.634 17.2253C36.8211 15.3391 36.2443 13.5308 35.8702 12.7514Z" fill="#282827"/>
<path d="M233.722 23.2737C233.457 21.5589 232.989 19.3764 231.773 17.9423C230.994 16.8823 230.105 15.9314 229.154 15.074C224.477 10.9431 217.696 9.35303 210.105 10.6001C210.042 10.6157 209.996 10.6312 209.933 10.6468C208.858 11.0054 207.798 11.5042 206.8 12.0966C205.833 12.6578 204.882 13.3437 203.978 14.1076C202.809 15.1364 201.765 16.2743 200.829 17.5526C195.623 25.3781 195.483 35.6042 200.518 42.4008C201.36 43.5388 202.311 44.5989 203.386 45.581C203.433 45.6122 203.479 45.6589 203.526 45.6901L203.838 45.8928C204.602 46.3916 205.35 46.8749 206.099 47.3581C206.161 47.3893 206.223 47.436 206.301 47.4516C209.107 48.4961 212.272 49.0416 215.467 49.0416C222.81 49.0416 231.336 45.8615 233.191 36.976C233.394 36.0407 233.597 34.9963 233.799 33.6713C234.002 30.3821 233.971 27.1085 233.722 23.2737ZM208.78 36.0719C206.457 32.7203 206.55 27.6229 208.967 23.7257C209.388 23.1178 209.871 22.5566 210.401 22.0577C210.806 21.6836 211.227 21.3562 211.663 21.0912C212.069 20.8418 212.505 20.6236 212.926 20.4521C216.449 19.8598 219.552 20.6236 221.656 22.6034C222.077 23.0087 222.482 23.4763 222.872 24.0375C223.277 24.5519 223.464 25.5652 223.558 26.1575C223.682 28.2776 223.698 30.1171 223.605 31.8318C223.495 32.5021 223.402 33.0945 223.292 33.6089C222.279 38.7376 217.011 39.1273 215.421 39.1273C213.971 39.1273 212.474 38.8623 211.196 38.379C210.806 38.1296 210.432 37.849 210.027 37.5684C209.574 37.1163 209.154 36.6019 208.78 36.0719Z" fill="#282827"/>
<path d="M89.2922 45.5341C89.2922 45.4873 89.2922 45.4406 89.2766 45.4095C89.2766 45.3627 89.2923 45.2224 89.3391 44.9106C89.417 44.3806 89.4483 43.9441 89.4483 43.6011C89.4483 42.5567 89.1208 41.6214 88.4972 40.8887L88.0143 40.3276C87.796 40.0781 87.4997 39.9223 87.1412 39.9534L86.4086 39.9846C85.6759 40.0157 84.6002 40.0314 83.1972 40.0314C82.7763 39.8911 82.1528 39.8599 81.2955 39.8287C77.6789 39.6884 74.9353 39.626 73.1427 39.626C72.3632 39.626 71.6616 39.6261 71.038 39.6417L70.9288 33.1879C72.0512 33.0944 73.8285 33.0321 76.6345 33.0321C77.9283 33.0321 79.2535 32.9697 80.6097 32.845L81.9813 32.7203C82.5425 32.6735 82.9636 32.2059 82.9636 31.6447V26.4069C82.9636 25.9549 82.6827 25.5495 82.2618 25.3936L81.2799 25.0351C79.986 24.5519 78.4116 24.2869 76.6033 24.2401C76.4942 24.2401 76.3851 24.2556 76.2916 24.2868C75.8551 24.3024 74.8573 24.3024 72.6437 24.3024C71.989 24.3024 71.3968 24.2713 70.8668 24.2245C70.8668 24.1154 70.882 23.9751 70.8976 23.8348V20.2182C71.0691 20.3273 71.2719 20.4053 71.4902 20.4053H72.0515C75.8863 20.4053 78.926 20.1091 81.3423 19.4856C81.5917 19.4232 81.8098 19.2829 81.9657 19.0803L82.449 18.4879C82.5425 18.3788 82.6047 18.2541 82.6515 18.1138L83.1348 16.6328C83.2439 16.3211 83.2595 16.0872 83.088 15.8066C83.088 15.8066 83.0724 15.7287 83.0724 15.4949C82.9945 14.0452 82.8542 13.4995 82.7295 13.141L82.371 12.0965C82.2151 11.6288 81.7631 11.3016 81.2643 11.3016L79.7522 11.286C76.6501 11.2548 73.9064 11.2391 71.4902 11.2235H71.4746C71.1628 11.2235 70.8666 11.3483 70.6483 11.5665C70.6483 11.5665 70.6483 11.5666 70.6483 11.5821C70.4613 11.3483 70.1963 11.1924 69.8845 11.1768C68.9804 11.1145 68.154 11.0209 67.4214 10.9274L66.7512 10.8338C66.4394 10.8026 66.1432 10.8806 65.9093 11.0677L65.8005 11.1612C65.7537 11.1612 65.7068 11.1456 65.66 11.1456C65.208 11.0989 64.8808 11.0677 64.6469 11.0677C62.5269 11.0677 61.0459 12.5175 61.0303 14.6219C61.0303 14.6999 61.0459 14.7778 61.0615 14.8557L61.1395 15.2142C61.1707 15.4013 61.2485 15.8845 61.3888 17.0693C61.5603 18.4411 61.6537 19.9064 61.6537 21.403C61.6537 22.463 61.6071 24.1153 61.5136 26.3289C61.4201 28.5893 61.3732 30.3197 61.3732 31.4732C61.3732 32.1435 61.4045 33.0788 61.498 34.3415C61.576 35.4639 61.6069 36.3212 61.6069 36.8824C61.6069 37.3345 61.5602 38.2387 61.342 40.0158C61.1393 41.6682 61.0303 42.8996 61.0303 43.7882C61.0303 44.8794 61.1706 45.9862 61.4512 47.0774L61.7629 48.2777C61.8876 48.761 62.324 49.0883 62.8072 49.0883C62.8228 49.0883 62.854 49.0883 62.8696 49.0883L64.1012 49.0104C66.533 48.8545 68.949 48.7922 71.2873 48.7922C73.158 48.7922 75.9487 48.8233 79.8146 48.9013C80.2355 48.9169 80.5471 48.9169 80.7965 48.9169C81.1083 49.0104 81.467 49.0104 81.7632 49.0104H87.0476C87.3282 49.0104 87.6088 48.9013 87.8114 48.6986L89.199 47.3112C89.464 47.0462 89.573 46.6565 89.4795 46.2979L89.2922 45.5341Z" fill="#282827"/>
</svg>
