<svg width="21" height="21" viewBox="0 0 21 21" fill="none" xmlns="http://www.w3.org/2000/svg">
<path fill-rule="evenodd" clip-rule="evenodd" d="M11.0426 15.8741C10.8551 15.6865 10.7498 15.4322 10.7498 15.1671C10.7498 14.9019 10.8551 14.6476 11.0426 14.4601L15.3356 10.1671L11.0426 5.87407C10.9471 5.78183 10.8709 5.67148 10.8185 5.54948C10.7661 5.42747 10.7385 5.29625 10.7373 5.16347C10.7362 5.0307 10.7615 4.89902 10.8118 4.77612C10.8621 4.65322 10.9363 4.54157 11.0302 4.44768C11.1241 4.35379 11.2357 4.27953 11.3586 4.22925C11.4815 4.17897 11.6132 4.15367 11.746 4.15482C11.8788 4.15598 12.01 4.18356 12.132 4.23597C12.254 4.28838 12.3643 4.36456 12.4566 4.46007L17.4566 9.46007C17.6441 9.6476 17.7494 9.90191 17.7494 10.1671C17.7494 10.4322 17.6441 10.6865 17.4566 10.8741L12.4566 15.8741C12.2691 16.0615 12.0148 16.1669 11.7496 16.1669C11.4844 16.1669 11.2301 16.0615 11.0426 15.8741Z" fill="#47CCE2"/>
<path fill-rule="evenodd" clip-rule="evenodd" d="M5.04279 15.8739C4.85532 15.6864 4.75 15.4321 4.75 15.1669C4.75 14.9017 4.85532 14.6474 5.04279 14.4599L9.33579 10.1669L5.04279 5.87391C4.86063 5.68531 4.75983 5.43271 4.76211 5.17051C4.76439 4.90831 4.86956 4.6575 5.05497 4.47209C5.24038 4.28668 5.49119 4.18152 5.75339 4.17924C6.01558 4.17696 6.26818 4.27775 6.45679 4.45991L11.4568 9.45991C11.6443 9.64744 11.7496 9.90175 11.7496 10.1669C11.7496 10.4321 11.6443 10.6864 11.4568 10.8739L6.45679 15.8739C6.26926 16.0614 6.01495 16.1667 5.74979 16.1667C5.48462 16.1667 5.23031 16.0614 5.04279 15.8739Z" fill="#47CCE2"/>
</svg>
