<svg width="21" height="21" viewBox="0 0 21 21" fill="none" xmlns="http://www.w3.org/2000/svg">
<path fill-rule="evenodd" clip-rule="evenodd" d="M16.4568 15.8741C16.2693 16.0615 16.015 16.1669 15.7498 16.1669C15.4846 16.1669 15.2303 16.0615 15.0428 15.8741L10.0428 10.8741C9.85532 10.6865 9.75 10.4322 9.75 10.1671C9.75 9.90191 9.85532 9.6476 10.0428 9.46007L15.0428 4.46007C15.135 4.36456 15.2454 4.28838 15.3674 4.23597C15.4894 4.18356 15.6206 4.15598 15.7534 4.15482C15.8862 4.15367 16.0178 4.17897 16.1407 4.22925C16.2636 4.27953 16.3753 4.35379 16.4692 4.44768C16.5631 4.54157 16.6373 4.65322 16.6876 4.77612C16.7379 4.89902 16.7632 5.0307 16.762 5.16347C16.7609 5.29625 16.7333 5.42747 16.6809 5.54948C16.6285 5.67148 16.5523 5.78183 16.4568 5.87407L12.1638 10.1671L16.4568 14.4601C16.6443 14.6476 16.7496 14.9019 16.7496 15.1671C16.7496 15.4322 16.6443 15.6865 16.4568 15.8741ZM10.4568 15.8741C10.2693 16.0615 10.015 16.1669 9.74979 16.1669C9.48462 16.1669 9.23031 16.0615 9.04279 15.8741L4.04279 10.8741C3.85532 10.6865 3.75 10.4322 3.75 10.1671C3.75 9.90191 3.85532 9.6476 4.04279 9.46007L9.04279 4.46007C9.23139 4.27792 9.48399 4.17712 9.74619 4.1794C10.0084 4.18168 10.2592 4.28685 10.4446 4.47225C10.63 4.65766 10.7352 4.90848 10.7375 5.17067C10.7397 5.43287 10.6389 5.68547 10.4568 5.87407L6.16379 10.1671L10.4568 14.4601C10.6443 14.6476 10.7496 14.9019 10.7496 15.1671C10.7496 15.4322 10.6443 15.6865 10.4568 15.8741Z" fill="#A1A1AA"/>
</svg>
