<svg width="183" height="97" viewBox="0 0 183 97" fill="none" xmlns="http://www.w3.org/2000/svg">
<path d="M52.8737 26.3586C52.2728 26.3586 51.9363 26.1328 45.8475 19.6817C44.7659 18.5376 43.7084 17.4235 42.8672 16.5428C42.7069 16.3923 42.4586 16.2417 42.1862 16.0836C41.8577 15.8879 41.5131 15.6772 41.2247 15.4137L37.0347 11.5145C36.7302 11.236 36.4258 10.9499 36.1534 10.6864C34.8876 9.24869 32.468 7.3518 30.5212 5.82373C27.5889 3.52033 27.0121 3.00846 27.0041 2.39121C26.9961 2.17292 27.1082 1.31479 27.2845 1.17177C27.7732 0.75776 28.9429 0.765284 35.7207 0.697537C36.594 0.690009 37.4032 0.712591 38.0842 0.697537C38.6691 0.712591 39.2459 0.705064 39.7426 0.697537H40.4396H42.1941C45.535 0.735174 46.6967 1.02122 49.653 0.697537C49.8453 0.674954 50.0375 0.697537 50.2298 0.697537C51.3594 0.697537 52.401 1.05133 52.8416 1.2621C53.7389 1.69116 53.8591 3.15147 53.811 8.30778C53.803 9.61755 53.787 10.8596 53.835 11.8005V12.764V13.6673C53.779 15.09 53.819 17.2956 53.8511 19.4258C53.9632 25.7715 53.9472 26.2532 52.8737 26.3586Z" fill="#282827"/>
<path d="M53.899 29.0156C53.7948 30.1296 54.2194 34.616 53.8188 38.6883C53.8188 39.2077 53.8188 39.7347 53.8188 40.2917C53.8188 41.3531 53.8188 42.437 53.8188 43.5511C53.8268 44.1909 53.8268 44.7931 53.8268 45.4029C54.0191 48.9558 54.1232 52.7571 54.1232 56.5585C54.1232 57.3188 54.1713 68.8358 54.1633 69.5885C53.1779 70.695 51.0148 71.2521 40.4474 70.9058C39.7744 70.9058 39.1094 70.9058 38.4124 70.9058C35.1837 71.1918 28.1656 71.6209 28.2617 70.3789C25.666 68.753 27.3965 63.8752 27.068 59.562C27.068 59.02 27.068 58.4554 27.068 57.8683C27.068 52.4787 27.068 46.2233 27.068 40.7584C27.068 40.1788 27.068 39.6368 27.068 39.1023C27.3965 35.4214 26.9879 31.8308 26.5312 28.1047C24.8007 25.6659 19.6091 27.2918 15.4191 27.0434C14.666 27.0283 13.8969 26.9982 13.1358 26.9606C8.58514 26.7348 4.04247 26.2756 1.4467 28.1047C-1.14907 29.7307 0.581479 34.6085 0.381188 38.4023C0.381188 38.9443 0.381188 39.5013 0.381188 40.0583C0.525398 45.3501 0.565483 50.9205 0.509402 56.3553C0.50139 57.1306 0.821852 66.7733 0.805829 67.5411C0.605538 74.2029 3.11317 76.4009 10.8124 81.9411C11.277 82.3777 11.7497 82.8218 12.2224 83.2659C14.4416 85.351 16.789 86.3371 18.864 88.2867C19.2806 88.6781 19.6892 89.062 20.0898 89.4384C26.403 95.8518 26.6033 95.6636 32.5078 95.4829C33.0687 95.4829 39.7343 95.9647 40.3192 95.9647C47.2412 95.9647 55.7896 95.9647 63.2244 95.9647C63.7853 95.9647 64.322 95.9647 64.8428 95.9722C69.802 96.3938 76.3075 96.2582 79.7685 93.8194C81.499 93.0064 80.1851 89.89 80.4575 86.6909C80.4575 86.2167 80.4575 85.7274 80.4735 85.2005C80.4735 82.9874 80.4735 80.5108 80.4735 77.8762C80.4735 77.2138 80.5056 76.3406 80.4815 75.8137C81.0504 68.753 81.0503 60.6233 80.2572 52.9529C80.2652 52.17 80.2732 51.3796 80.2812 50.5892C80.3133 48.2106 80.3693 45.7867 80.4495 43.265C80.4655 42.4671 80.4976 41.6617 80.5377 40.8562C80.778 36.0236 81.2667 31.1458 79.3199 28.0972C77.5894 25.6583 71.5325 27.2843 67.1502 27.0434C66.4852 27.0434 65.8122 27.0434 65.1472 27.0434C62.0147 27.2918 59.1786 27.337 55.982 27.0886C55.0046 27.0961 53.9791 28.1349 53.899 29.0156Z" fill="#282827"/>
<path d="M182.718 52.1861L182.71 51.5312C182.702 51.2527 182.502 51.0119 182.221 50.9517L181.548 50.7936C181.34 50.7409 180.995 50.6882 180.066 50.6506C179.906 50.6506 179.834 50.6355 179.842 50.643C179.722 50.5979 179.585 50.5903 179.457 50.6129L178.496 50.8237C178.432 50.8387 178.376 50.8613 178.32 50.8914L177.927 51.1022C177.791 51.1775 177.695 51.2904 177.639 51.4259C177.23 52.5023 177.03 53.8573 177.03 55.5585C177.03 56.5596 177.054 58.05 177.102 59.9921C177.15 61.9342 177.174 63.4171 177.174 64.3957C177.174 66.7518 177.118 68.7842 177.006 70.4477L176.982 70.8542L177.038 71.893C177.046 72.0736 177.142 72.2468 177.302 72.3522C177.414 72.4275 177.551 72.4726 177.687 72.4726C177.743 72.4726 177.799 72.4651 177.847 72.4501L179.145 72.1414C179.201 72.1489 179.281 72.1715 179.401 72.2016C179.85 72.3145 180.202 72.3597 180.499 72.3597C181.092 72.3597 181.652 72.164 182.165 71.7801L182.502 71.5317C182.654 71.4188 182.742 71.2456 182.742 71.065L182.75 70.6661C182.798 67.4594 182.822 65.028 182.822 63.4321V59.5028C182.79 57.892 182.766 55.438 182.718 52.1861Z" fill="#282827"/>
<path d="M182.934 28.6775L182.926 28.0226C182.918 27.7441 182.718 27.5032 182.437 27.4354L181.756 27.2774C181.548 27.2247 181.204 27.172 180.274 27.1344C180.114 27.1344 180.034 27.1193 180.05 27.1268C179.93 27.0817 179.794 27.0666 179.665 27.0967L178.696 27.3075C178.632 27.3225 178.576 27.3451 178.52 27.3752L178.127 27.586C177.991 27.6613 177.895 27.7742 177.839 27.9097C177.43 28.9861 177.23 30.3411 177.23 32.0423C177.23 33.0434 177.254 34.5338 177.302 36.4759C177.35 38.4029 177.374 39.8859 177.374 40.8795C177.374 43.2205 177.318 45.2604 177.206 46.9315L177.182 47.338L177.238 48.3768C177.246 48.5575 177.342 48.7306 177.502 48.836C177.614 48.9113 177.751 48.9564 177.887 48.9564C177.943 48.9564 177.999 48.9489 178.047 48.9338L179.337 48.6177C179.393 48.6252 179.473 48.6478 179.585 48.6704C180.034 48.7833 180.387 48.8285 180.683 48.8285C181.276 48.8285 181.829 48.6327 182.341 48.2488L182.678 48.0004C182.83 47.8875 182.918 47.7144 182.918 47.5337L182.926 47.1273C182.974 43.8679 182.998 41.4967 182.998 39.8934V35.964C183.006 34.3757 182.982 31.9895 182.934 28.6775Z" fill="#EEC632"/>
<path d="M182.077 75.6035C181.596 75.6035 181.324 75.7842 176.405 80.9931C175.532 81.919 174.682 82.8148 174.001 83.5224C173.873 83.6428 173.665 83.7632 173.449 83.8987C173.184 84.0568 172.904 84.2224 172.671 84.4407L169.29 87.5872C169.042 87.813 168.802 88.0389 168.577 88.2572C167.552 89.4164 165.605 90.952 164.035 92.1789C161.671 94.0382 161.207 94.4447 161.199 94.949C161.199 95.1222 161.295 95.348 161.431 95.4609C161.824 95.7921 162.761 95.8975 168.233 95.9502C168.938 95.9577 169.587 95.9653 170.14 95.9728C170.612 95.9577 171.077 95.9653 171.478 95.9728L172.038 95.9803L173.449 95.9577C176.148 95.9276 177.086 96.0255 179.465 96.2889C179.618 96.304 179.778 96.3115 179.93 96.3115C180.843 96.3115 181.684 96.0255 182.037 95.8599C182.758 95.5136 182.854 94.3393 182.822 90.1766C182.814 89.1153 182.806 88.1217 182.838 87.3614V86.586V85.8559C182.79 84.7042 182.822 82.9277 182.854 81.2114C182.95 76.0777 182.942 75.6863 182.077 75.6035Z" fill="#EEC632"/>
<path d="M115.044 28.5571L114.963 28.0377C114.931 27.8119 114.763 27.6162 114.531 27.5484L114.002 27.3828C113.145 27.1119 112.344 27.157 110.893 27.5183L110.173 27.699C109.868 27.7743 109.668 28.0377 109.692 28.3313L109.748 29.0314C110.116 33.7435 110.196 35.1813 110.196 35.5501C110.196 35.8437 110.172 36.3631 110.132 37.0932L109.932 40.6989C109.788 41.8506 109.451 42.7087 108.923 43.2582C108.666 43.5367 108.474 43.6647 108.362 43.7249C108.057 43.883 107.264 44.154 105.422 44.154C104.468 44.154 103.523 43.9884 102.609 43.6572C101.648 43.3185 100.943 42.8818 100.502 42.3474C100.318 42.114 100.182 41.7302 100.126 41.2936L100.054 39.2762C100.054 39.2687 100.046 39.1783 100.046 39.1708C99.9737 38.6589 99.9175 38.26 99.8775 38.0643C99.8134 36.7319 99.7813 35.7233 99.7813 35.0533C99.7092 32.0724 99.5891 29.9045 99.4208 28.6173L99.3408 27.9775C99.3087 27.7065 99.0843 27.4882 98.7959 27.4506L98.1149 27.3527C97.434 27.2548 96.9213 27.2021 96.5607 27.2021C95.7035 27.2021 94.9824 27.428 94.4216 27.8721L94.0451 28.1732C93.8768 28.3087 93.7887 28.5119 93.8207 28.7152L93.8848 29.1743C93.9889 29.9572 94.0451 30.9282 94.0451 32.0574C94.0451 32.6596 94.029 33.5478 93.9969 34.692C93.9649 35.8738 93.9409 36.7695 93.9409 37.3717C93.9409 40.9398 94.5898 43.8077 95.8797 45.9004C96.4004 46.7359 96.6729 47.0295 96.8491 47.1725C97.2337 47.5564 97.8105 47.9252 98.6518 48.3392C99.4689 48.7382 100.126 48.9866 100.663 49.0995C101.047 49.1823 101.776 49.2651 104.244 49.2651C107.28 49.2651 109.748 48.806 111.583 47.8876C113.217 47.0671 114.371 45.5165 115.011 43.2733C115.252 42.4453 115.308 42.1517 115.332 41.971C115.356 41.7979 115.38 41.4818 115.38 39.8408C115.38 39.3063 115.388 38.5159 115.412 37.4621C115.436 36.3856 115.444 35.5877 115.444 35.0608C115.444 32.5015 115.308 30.311 115.044 28.5571Z" fill="#282827"/>
<path d="M149.438 28.6773L149.43 28.0224C149.422 27.7439 149.221 27.503 148.941 27.4352L148.26 27.2772C148.052 27.2245 147.707 27.1718 146.778 27.1341C146.617 27.1341 146.529 27.1191 146.545 27.1266C146.425 27.0814 146.289 27.0739 146.169 27.104L145.207 27.3148C145.143 27.3298 145.087 27.3524 145.031 27.3826L144.639 27.5933C144.502 27.6686 144.406 27.7815 144.35 27.917C143.942 28.9934 143.741 30.3483 143.741 32.0495C143.741 33.0507 143.765 34.5411 143.813 36.4832C143.862 38.4253 143.886 39.9007 143.886 40.8868C143.886 43.2278 143.829 45.2602 143.717 46.9389L143.693 47.2776C143.685 47.4357 143.733 47.5862 143.845 47.7067L144.767 48.7454C144.895 48.8884 145.079 48.9637 145.263 48.9637C145.392 48.9637 145.512 48.9336 145.624 48.8583L145.961 48.6476C146.001 48.6551 146.049 48.6702 146.105 48.6777C146.553 48.7906 146.898 48.8358 147.21 48.8358C147.803 48.8358 148.356 48.6401 148.869 48.2562L149.205 48.0077C149.357 47.8948 149.446 47.7217 149.454 47.541L149.462 47.1421C149.51 43.8827 149.534 41.5115 149.534 39.9082V35.9789C149.502 34.3755 149.478 31.9893 149.438 28.6773Z" fill="#282827"/>
<path d="M140.336 47.8878L140.048 47.0824C139.96 46.834 139.856 46.3221 139.856 45.336C139.856 44.7865 139.904 43.823 139.992 42.468C140.04 41.7228 140.064 40.5636 140.064 39.0355C140.064 37.801 140.032 34.1652 139.976 31.9145L139.968 31.6963C139.96 31.365 139.672 31.1016 139.319 31.1016H135.009C134.656 31.1016 134.368 31.3726 134.36 31.7038C134.328 33.9846 134.28 36.7998 134.216 38.7419C131.596 35.8815 129.537 33.6383 128.095 32.0877C127.75 31.6812 127.486 31.3575 127.286 31.1016L127.189 30.9887C126.853 30.6499 126.589 30.3865 126.452 30.2435L125.299 28.7831C125.291 28.7756 125.251 28.7229 125.243 28.7154C124.465 27.8422 123.849 27.3529 123.208 27.112C122.847 26.984 122.447 26.9238 122.006 26.9238C121.782 26.9238 121.461 26.9389 121.044 26.9765C120.676 27.0066 120.484 27.0217 120.38 27.0217H119.586C119.258 27.0217 118.985 27.2475 118.945 27.5562L118.841 28.2938C118.577 30.1682 118.449 32.5092 118.449 35.2417C118.449 36.1224 118.465 37.4472 118.505 39.1635C118.537 40.9174 118.553 42.1745 118.553 43.0025C118.553 44.5757 118.505 46.0134 118.417 47.2931L118.353 48.1738C118.345 48.3395 118.401 48.505 118.521 48.6255C118.641 48.7459 118.809 48.8212 118.986 48.8212L123.224 48.9266C123.488 48.9416 123.768 48.761 123.857 48.5125L124.065 47.9104C124.169 47.6168 124.209 47.391 124.209 47.1576C124.209 46.9845 124.185 46.8039 124.137 46.578C124.097 45.3736 124.073 42.6939 124.073 38.614C124.073 38.1924 124.121 37.515 124.217 36.6192C124.249 36.3482 124.273 36.0923 124.297 35.8514C125.587 37.2741 127.069 39.0731 128.728 41.2184C131.46 44.7865 133.471 47.2706 134.696 48.6029L134.945 48.8664C135.057 48.9868 135.217 49.062 135.385 49.0771L135.762 49.0997C136.459 49.1449 136.964 49.1675 137.324 49.1675C137.973 49.1675 138.558 49.0847 139.063 48.9266L139.92 48.6556C140.08 48.6029 140.216 48.4975 140.296 48.347C140.377 48.2115 140.393 48.0459 140.336 47.8878Z" fill="#282827"/>
<path d="M112.608 79.0434C111.03 76.8529 108.61 75.4905 105.422 74.9937C104.356 74.8206 103.515 74.7453 99.4612 74.7453C98.4918 74.7453 97.6265 74.7076 96.8814 74.6248L96.5369 74.5872C96.3767 74.5721 96.2084 74.6098 96.0722 74.7077L96.0643 74.7151C95.0468 74.7453 94.5501 75.2571 94.3337 75.5657L94.1575 75.8292C94.0774 75.9497 94.0454 76.0851 94.0614 76.2282L94.1014 76.5444C94.1815 77.1541 94.2216 77.8466 94.2216 78.6069C94.2216 78.9004 94.1976 79.3747 94.1575 80.022C94.1094 80.7296 94.0853 81.2791 94.0853 81.6555C94.0853 81.7157 94.0934 81.7759 94.1094 81.8286C94.1094 81.8888 94.1174 81.9942 94.1174 82.1372C94.1334 82.905 94.1735 84.7116 94.2537 85.7429C94.2937 86.1945 94.3177 90.3421 94.3337 93.0821C94.3418 94.5876 94.3498 95.7995 94.3578 96.0404C94.3658 96.3641 94.6462 96.6276 94.9987 96.6276H99.389C99.5332 96.6276 99.6695 96.5824 99.7737 96.5071C99.8778 96.5749 99.998 96.6201 100.134 96.6276C100.559 96.6426 100.735 96.6577 100.863 96.6652C101.072 96.6803 101.184 96.6878 101.977 96.6878C103.98 96.6878 105.47 96.5824 106.535 96.3716C108.442 96.0404 109.996 95.3178 111.142 94.2263C113.201 92.2842 113.738 91.3056 113.93 90.6658C114.427 89.9131 114.731 88.9721 114.835 87.843V85.2611C114.835 85.1708 114.844 84.9977 114.876 84.674C114.916 84.2976 114.932 84.0266 114.932 83.8309C114.956 83.0782 114.675 81.9264 112.608 79.0434ZM100.054 91.0046C100.07 87.158 100.11 82.1598 100.158 80.3081C100.823 80.3307 101.336 80.3532 101.777 80.3758C102.866 80.421 103.419 80.4436 104.396 80.4511C104.484 80.4737 104.637 80.5113 104.917 80.5866C106.127 80.9253 107.168 81.52 108.018 82.3555C108.362 82.6867 108.474 82.8524 108.506 82.8975C108.795 83.3567 108.971 84.0793 109.027 84.9751C109.043 85.8332 109.075 86.7214 109.115 87.6097C108.626 88.7237 108.426 89.1077 108.37 89.198C108.066 89.6873 107.721 90.0185 107.321 90.2217C106.255 90.7562 104.452 91.0272 101.961 91.0272C101.592 91.0272 101.023 91.0196 100.182 90.997C100.126 90.9895 100.094 90.997 100.054 91.0046Z" fill="#282827"/>
<path d="M160.197 79.0434C158.619 76.8529 156.199 75.4905 153.011 74.9937C151.945 74.8206 151.104 74.7453 147.05 74.7453C146.081 74.7453 145.215 74.7076 144.47 74.6248L144.126 74.5872C143.966 74.5721 143.797 74.6098 143.661 74.7077L143.653 74.7151C142.636 74.7453 142.139 75.2571 141.923 75.5657L141.746 75.8292C141.666 75.9497 141.634 76.0851 141.65 76.2282L141.69 76.5444C141.77 77.1541 141.811 77.8466 141.811 78.6069C141.811 78.9004 141.786 79.3747 141.746 80.022C141.698 80.7296 141.674 81.2791 141.674 81.6555C141.674 81.7157 141.682 81.7759 141.698 81.8286C141.698 81.8888 141.706 81.9942 141.706 82.1372C141.722 82.905 141.762 84.7116 141.843 85.7429C141.883 86.1945 141.907 90.3421 141.923 93.0821C141.931 94.5876 141.939 95.7995 141.947 96.0404C141.955 96.3641 142.235 96.6276 142.588 96.6276H146.978C147.122 96.6276 147.258 96.5824 147.363 96.5071C147.467 96.5749 147.587 96.6201 147.723 96.6276C148.148 96.6426 148.324 96.6577 148.452 96.6652C148.66 96.6803 148.773 96.6878 149.566 96.6878C151.569 96.6878 153.059 96.5824 154.124 96.3716C156.031 96.0404 157.585 95.3178 158.731 94.2263C160.79 92.2842 161.327 91.3056 161.519 90.6658C162.016 89.9131 162.32 88.9721 162.424 87.843V85.2611C162.424 85.1708 162.433 84.9977 162.465 84.674C162.505 84.2976 162.521 84.0266 162.521 83.8309C162.545 83.0782 162.264 81.9264 160.197 79.0434ZM147.643 91.0046C147.659 87.158 147.699 82.1598 147.747 80.3081C148.412 80.3307 148.925 80.3532 149.365 80.3758C150.455 80.421 151.008 80.4436 151.985 80.4511C152.073 80.4737 152.226 80.5113 152.506 80.5866C153.716 80.9253 154.757 81.52 155.607 82.3555C155.951 82.6867 156.063 82.8524 156.095 82.8975C156.384 83.3567 156.56 84.0793 156.616 84.9751C156.632 85.8332 156.664 86.7214 156.704 87.6097C156.215 88.7237 156.015 89.1077 155.959 89.198C155.655 89.6873 155.31 90.0185 154.91 90.2217C153.844 90.7562 152.041 91.0272 149.55 91.0272C149.181 91.0272 148.612 91.0196 147.771 90.997C147.715 90.9895 147.683 90.997 147.643 91.0046Z" fill="#282827"/>
<path d="M171.886 31.282C170.308 29.084 167.889 27.7215 164.692 27.2247C163.626 27.0516 162.785 26.9763 158.731 26.9763C157.762 26.9763 156.897 26.9386 156.159 26.8558L155.815 26.8182C155.647 26.7956 155.479 26.8408 155.342 26.9386H155.334C154.317 26.9687 153.812 27.4806 153.604 27.7968L153.428 28.0602C153.347 28.1807 153.315 28.3237 153.331 28.4667L153.371 28.7829C153.452 29.3926 153.492 30.0851 153.492 30.8379C153.492 31.1239 153.468 31.6057 153.428 32.253C153.379 32.9606 153.355 33.5101 153.355 33.8865C153.355 33.9467 153.363 34.0069 153.379 34.0596C153.379 34.1198 153.387 34.2252 153.387 34.3607C153.403 35.1285 153.444 36.9351 153.524 37.9664C153.564 38.418 153.588 42.5656 153.604 45.3056C153.612 46.8186 153.62 48.023 153.628 48.2639C153.636 48.5951 153.924 48.8586 154.277 48.8586H158.667C158.811 48.8586 158.948 48.8134 159.052 48.7381C159.156 48.8059 159.276 48.851 159.412 48.8586C159.837 48.8736 160.013 48.8887 160.141 48.8962C160.35 48.9112 160.462 48.9188 161.255 48.9188C163.258 48.9188 164.748 48.8134 165.814 48.6027C167.72 48.2714 169.275 47.5488 170.428 46.4498C172.487 44.5077 173.024 43.5216 173.224 42.8893C173.721 42.129 174.025 41.1956 174.13 40.059V37.4771C174.13 37.3867 174.138 37.2136 174.17 36.8974C174.21 36.5135 174.226 36.2501 174.226 36.0544C174.234 35.3167 173.953 34.1575 171.886 31.282ZM159.332 43.228C159.348 39.389 159.38 34.4134 159.436 32.5541C160.093 32.5767 160.606 32.5993 161.039 32.6219C162.12 32.667 162.681 32.6896 163.658 32.6972C163.747 32.7197 163.899 32.7574 164.171 32.8326C165.381 33.1714 166.414 33.766 167.264 34.6016C167.608 34.9328 167.72 35.0984 167.744 35.1436C168.033 35.5952 168.209 36.3179 168.265 37.2136C168.281 38.0718 168.313 38.96 168.353 39.8482C167.873 40.9623 167.664 41.3387 167.608 41.4365C167.304 41.9183 166.967 42.257 166.567 42.4527C165.501 42.9871 163.698 43.2581 161.215 43.2581C160.846 43.2581 160.277 43.2506 159.436 43.228C159.404 43.2205 159.364 43.2205 159.332 43.228Z" fill="#EEC632"/>
<path d="M155.158 55.0309C154.862 54.5642 154.413 54.0975 153.804 53.6082C152.554 52.592 150.816 51.8995 148.613 51.5457C147.002 51.3274 145.4 51.1166 143.806 50.8983L143.605 50.8682C143.509 50.8531 143.421 50.8607 143.333 50.8832L143.141 50.9359C142.668 51.0714 142.107 51.1317 141.474 51.1317C141.066 51.1317 140.425 51.094 139.575 51.0112C138.606 50.9209 137.893 50.8757 137.396 50.8757C136.683 50.8757 136.01 50.9284 135.393 51.0263L134.648 51.1542C134.336 51.2069 134.111 51.4628 134.111 51.7564V54.7298C134.111 55.5427 134.119 56.7547 134.143 58.358V61.9561C134.143 62.6863 134.135 62.9498 134.127 63.4541L134.095 64.9069C134.095 65.0725 134.16 65.2306 134.28 65.3435C134.4 65.4639 134.568 65.5241 134.744 65.5241H137.348C137.412 65.5392 137.46 65.5317 137.54 65.5542H138.446L138.566 65.5693C138.646 65.5768 138.726 65.5768 138.806 65.5618L139.303 65.494C139.391 65.494 139.479 65.4715 139.551 65.4338C139.912 65.3962 140.337 65.3736 140.817 65.3736C141.202 65.3736 141.803 65.3962 142.596 65.4338C143.445 65.479 144.102 65.5015 144.551 65.5015C144.719 65.5015 144.903 65.494 145.111 65.4714L148.613 71.7494C149.165 72.7053 150.167 73.2322 151.433 73.2322C151.633 73.2322 151.897 73.2172 152.242 73.1946C152.49 73.1796 152.666 73.1645 152.771 73.1645C152.803 73.1645 152.883 73.172 153.027 73.2022L154.109 73.4054C154.149 73.4129 154.197 73.4204 154.237 73.4204C154.389 73.4204 154.533 73.3753 154.645 73.2849C154.798 73.172 154.886 72.9989 154.886 72.8107V71.3955C154.886 71.3127 154.87 71.2299 154.83 71.1471L154.75 70.9815C154.445 70.3342 153.708 69.1072 152.514 67.2404C152.026 66.4952 151.633 65.8102 151.32 65.2005C152.763 64.7639 154.004 63.7025 155.006 62.0615C155.39 61.4518 155.559 61.1357 155.623 60.8797C155.775 60.3679 155.847 59.6603 155.847 58.6516C155.871 56.9278 155.655 55.8137 155.158 55.0309ZM150.167 58.772C150.167 59.058 150.143 59.1634 150.143 59.1634C150.087 59.3592 149.502 59.728 148.084 59.9313C147.707 59.9839 147.459 60.0216 147.331 60.0441H144.615C143.902 60.0667 143.365 60.0743 143.004 60.0743C141.867 60.0743 140.921 60.0216 140.176 59.9162L140.216 56.4084C140.385 56.4159 140.577 56.4234 140.793 56.431C141.418 56.4536 141.819 56.4611 141.995 56.4611C147.331 56.5665 149.109 57.1762 149.686 57.53C149.814 57.5977 150.167 57.8085 150.167 58.772Z" fill="#282827"/>
<path d="M116.061 52.5921C115.973 52.3964 115.805 52.2383 115.589 52.1631L114.739 51.8619C114.194 51.6662 113.562 51.5684 112.873 51.5684H111.182C110.918 51.5684 110.669 51.6813 110.509 51.8845L110.245 52.2158C109.828 52.7351 109.444 53.4653 109.075 54.4514C109.019 54.5869 108.827 55.1515 108.538 55.9719C107.561 58.7571 105.286 65.2834 104.629 66.5781C104.613 66.6082 104.604 66.6308 104.588 66.6609C104.524 66.8416 104.444 67.0674 104.34 67.3308C104.236 67.233 104.052 67.0222 103.827 66.5781C103.611 66.1942 103.435 65.8404 103.283 65.4716C102.882 64.6511 102.409 62.8821 101.953 61.1809C101.488 59.4496 101.055 57.8087 100.607 56.8828C100.382 56.4914 100.126 56.0397 99.8456 55.5203C99.5252 54.9407 99.3969 54.4288 99.2848 53.9395C99.1486 53.375 99.0044 52.7878 98.5638 52.2685L98.3475 52.02C98.2193 51.8695 98.027 51.7641 97.8267 51.734L97.4822 51.6813C96.9774 51.606 96.4648 51.5684 95.96 51.5684C95.1348 51.5684 94.4137 51.7566 93.8209 52.1179L93.1799 52.5168C92.8274 52.7351 92.6992 53.1642 92.8835 53.5255L93.22 54.1729C94.1253 55.9268 95.992 61.8885 97.0976 65.449C97.8106 67.7223 97.9949 68.3245 98.0991 68.5277C98.3875 69.0998 98.676 69.6644 98.9644 70.2139C99.2608 70.7784 99.4611 71.2602 99.5572 71.6516L99.5972 71.8021C99.6213 71.9 99.6694 71.9904 99.7254 72.0732L99.8216 72.2011C100.543 73.1571 103.547 73.2324 103.579 73.2324C103.876 73.2324 104.236 73.1872 104.677 73.1044C104.893 73.0592 104.997 73.0517 105.021 73.0442H107.2C107.505 73.0442 107.793 72.8861 107.937 72.6377L108.194 72.2086C108.482 71.7118 108.891 70.9892 109.452 69.9579C109.46 69.9429 109.508 69.845 109.508 69.8299C109.564 69.6869 115.148 55.2719 115.709 54.0073L116.053 53.2319C116.149 53.0136 116.149 52.7878 116.061 52.5921Z" fill="#282827"/>
<path d="M171.702 59.8939L171.558 59.8261C170.949 59.5326 169.515 58.84 167.232 58.7347C164.604 58.6067 163.25 58.1475 162.817 57.2518C162.817 57.2518 162.849 57.1313 163.122 56.913C164.083 56.1753 165.341 55.8215 166.983 55.8215C168.481 55.8215 172.535 55.9796 173.617 56.2431C173.809 56.2882 174.025 56.2506 174.186 56.1377C174.346 56.0172 174.442 55.8441 174.442 55.6484V51.1921C174.442 50.9061 174.234 50.6577 173.929 50.59C172.976 50.3867 170.292 50.2588 167.544 50.1459L167.055 50.1233C164.604 50.0329 162.08 50.9513 159.621 52.8783C159.044 53.33 158.683 53.6536 158.419 53.9246C157.682 54.7376 157.305 55.7989 157.305 57.0786C157.305 57.3496 157.345 57.8991 157.682 59.8111L157.714 60.0068C157.73 60.1047 157.77 60.195 157.834 60.2703L157.962 60.4283C158.972 61.7306 160.55 62.7468 162.657 63.4544C163.618 63.7705 163.755 63.8006 163.883 63.8308L164.099 63.8608C164.908 63.9135 165.549 63.9361 166.07 63.9361C166.254 63.9361 166.414 63.9361 166.527 63.9286C167.151 63.9437 168.377 64.192 169.21 64.4179C169.483 64.4931 169.643 64.9599 169.723 65.2384C169.771 65.404 169.803 65.5169 169.819 65.5997C169.811 65.6147 169.803 65.6373 169.787 65.6599L169.731 65.7728C169.475 66.4052 168.762 66.9471 167.616 67.3687C166.743 67.6999 165.381 67.873 163.787 67.873C162.048 67.873 160.622 67.6848 159.669 67.3385C159.468 67.2632 159.244 67.2859 159.06 67.4063C158.884 67.5192 158.771 67.7074 158.771 67.9106V72.1787C158.771 72.4421 158.956 72.683 159.22 72.7658C160.061 73.0218 162.072 73.1196 163.674 73.1196C166.134 73.1196 168.385 72.9239 169.843 72.5852C171.213 72.2766 172.888 71.3206 173.921 70.2667C174.915 69.243 175.548 68.1139 175.78 66.9697C175.844 66.7815 175.876 66.5783 175.876 66.36C175.884 63.4092 174.482 61.2338 171.702 59.8939Z" fill="#282827"/>
<path d="M140.761 70.8912C140.761 70.8611 140.761 70.831 140.753 70.8235C140.753 70.7934 140.761 70.7106 140.785 70.5374C140.833 70.2363 140.857 69.9955 140.857 69.7998C140.857 69.2126 140.657 68.6857 140.28 68.2642L139.992 67.9405C139.864 67.7974 139.655 67.7071 139.463 67.7222L139.015 67.7372C138.51 67.7598 137.733 67.7673 136.699 67.7673C135.569 67.7673 132.245 67.7297 130.17 67.6545C128.007 67.5792 126.348 67.5415 125.25 67.5415C124.778 67.5415 124.361 67.5415 123.985 67.5491L123.921 63.8982C124.594 63.8531 125.659 63.8079 127.358 63.8079C128.135 63.8079 128.936 63.7703 129.745 63.7025L130.57 63.6348C130.907 63.6047 131.163 63.3412 131.163 63.0251V60.0668C131.163 59.8108 130.995 59.585 130.738 59.4947L130.146 59.2914C129.368 59.0204 128.415 58.8699 127.325 58.8398C127.253 58.8398 127.197 58.8473 127.133 58.8624C126.869 58.8699 126.276 58.8699 124.93 58.8699C124.537 58.8699 124.177 58.8548 123.864 58.8323C123.873 58.7645 123.873 58.6968 123.881 58.614V56.5665C123.985 56.6267 124.105 56.6719 124.241 56.6719H124.578C126.885 56.6719 128.72 56.4988 130.178 56.1525C130.322 56.1149 130.458 56.0396 130.554 55.9267L130.851 55.5879C130.907 55.5202 130.947 55.4525 130.979 55.3697L131.267 54.5266C131.331 54.3459 131.339 54.218 131.243 54.0599C131.243 54.0599 131.235 54.0147 131.227 53.8792C131.179 53.0662 131.099 52.7576 131.019 52.5469L130.803 51.9597C130.706 51.6962 130.434 51.5156 130.138 51.5081L129.232 51.5005C127.358 51.4855 125.715 51.4704 124.257 51.4629C124.065 51.4855 123.881 51.5307 123.752 51.6586C123.752 51.6586 123.752 51.6661 123.744 51.6661C123.632 51.5381 123.48 51.4478 123.288 51.4328C122.743 51.3951 122.246 51.35 121.806 51.2897L121.405 51.2371C121.221 51.2145 121.036 51.2597 120.9 51.3726L120.836 51.4253C120.812 51.4253 120.78 51.4177 120.748 51.4177C120.476 51.3876 120.283 51.3726 120.139 51.3726C118.865 51.3726 117.968 52.1931 117.96 53.3899C117.96 53.4351 117.968 53.4803 117.976 53.5254L118.024 53.7287C118.04 53.8341 118.088 54.105 118.176 54.7825C118.28 55.5653 118.336 56.3858 118.336 57.2364C118.336 57.8236 118.304 58.757 118.248 60.0216C118.192 61.3163 118.16 62.2949 118.16 62.9347C118.16 63.3111 118.184 63.8455 118.232 64.5606C118.272 65.1929 118.296 65.6747 118.296 65.9984C118.296 66.2543 118.272 66.7662 118.136 67.7673C118.008 68.6932 117.952 69.3933 117.952 69.8976C117.952 70.5149 118.04 71.1472 118.208 71.7644L118.393 72.4419C118.465 72.7129 118.729 72.9011 119.017 72.9011C119.033 72.9011 119.041 72.9011 119.058 72.9011L119.803 72.8559C121.269 72.7731 122.727 72.7279 124.137 72.7279C125.266 72.7279 126.941 72.7505 129.272 72.7957C131.532 72.8408 134.985 72.8634 136.202 72.8634H139.383C139.559 72.8634 139.719 72.7957 139.84 72.6828L140.673 71.8924C140.833 71.7418 140.897 71.5236 140.841 71.3128L140.761 70.8912Z" fill="#282827"/>
<path d="M140.865 94.806L140.489 94.1436C139.439 92.3069 136.827 86.1268 135.273 82.4384C134.44 80.4737 134.071 79.593 133.967 79.3973C133.639 78.8102 133.318 78.2306 132.99 77.666C132.653 77.0789 132.421 76.567 132.301 76.1605L132.253 76.0024C132.229 75.9272 132.188 75.8519 132.14 75.7842L132.028 75.6487C131.315 74.7981 128.07 74.7002 128.038 74.7002C127.726 74.7002 127.341 74.7378 126.869 74.8281C126.572 74.8808 126.436 74.8959 126.404 74.8959H123.928C123.704 74.8959 123.496 75.0088 123.376 75.1895L123.087 75.6261C122.759 76.1304 122.294 76.8756 121.669 77.9219L121.613 78.0273C121.581 78.1026 117.984 85.6903 115.933 90.41C115.693 90.9595 116.133 91.5015 117.279 92.066C117.375 92.1112 117.479 92.1338 117.583 92.1338H122.206C122.518 92.1413 129.392 92.337 131.283 92.3596L132.677 96.2513C132.765 96.4997 133.014 96.6653 133.294 96.6653H133.302L133.623 96.6578C134.472 96.6502 135.649 96.6276 137.733 96.6126L138.71 96.6051C138.942 96.6051 139.151 96.4846 139.263 96.2965C139.495 96.2212 139.711 96.1233 139.904 96.0179L140.633 95.6114C140.929 95.4534 141.033 95.092 140.865 94.806ZM128.992 87.1355C128.848 87.1355 128.639 87.1355 128.447 87.1882C128.327 87.1957 128.151 87.1958 127.91 87.2033C126.901 87.2334 126.717 87.2485 126.596 87.2635C126.516 87.271 126.476 87.271 126.132 87.271C125.29 87.271 124.473 87.2635 123.688 87.2409C125.114 83.6503 126.044 81.4598 126.484 80.6544C126.58 80.406 126.717 80.0899 126.877 79.6984C126.885 79.6909 126.893 79.6834 126.909 79.6758C126.917 79.6834 126.917 79.6984 126.925 79.7059C127.149 80.1726 127.51 80.9179 127.99 81.791C128.279 82.2577 128.519 82.7019 128.727 83.146C129.216 84.0493 129.817 85.5924 130.418 87.1807C129.937 87.1506 129.449 87.1355 128.992 87.1355Z" fill="#282827"/>
<path d="M116.141 91.5395H116.181C116.173 91.532 116.157 91.5319 116.149 91.5244C116.149 91.5244 116.149 91.532 116.141 91.5395Z" fill="white"/>
</svg>
