<svg width="26" height="26" viewBox="0 0 26 26" fill="none" xmlns="http://www.w3.org/2000/svg">
<path fill-rule="evenodd" clip-rule="evenodd" d="M9.79995 3.2752C6.26533 3.2752 3.39995 6.14057 3.39995 9.67519C3.39995 13.2098 6.26533 16.0752 9.79995 16.0752C13.3346 16.0752 16.2 13.2098 16.2 9.67519C16.2 6.14057 13.3346 3.2752 9.79995 3.2752ZM0.199951 9.67519C0.199951 4.37326 4.49802 0.0751953 9.79995 0.0751953C15.1019 0.0751953 19.4 4.37326 19.4 9.67519C19.4 11.7485 18.7427 13.6683 17.6251 15.2376L25.3313 22.9438C25.9562 23.5687 25.9562 24.5817 25.3313 25.2066C24.7065 25.8314 23.6934 25.8314 23.0686 25.2066L15.3624 17.5004C13.7931 18.6179 11.8733 19.2752 9.79995 19.2752C4.49802 19.2752 0.199951 14.9771 0.199951 9.67519Z" fill="#EEC632"/>
</svg>
