<svg width="32" height="33" viewBox="0 0 32 33" fill="none" xmlns="http://www.w3.org/2000/svg">
<path d="M27.5 4.0332H4.5C3.94687 4.0332 3.5 4.48008 3.5 5.0332V28.0332C3.5 28.5863 3.94687 29.0332 4.5 29.0332H27.5C28.0531 29.0332 28.5 28.5863 28.5 28.0332V5.0332C28.5 4.48008 28.0531 4.0332 27.5 4.0332ZM24.6125 11.3301H22.6156C21.05 11.3301 20.7469 12.0738 20.7469 13.1676V15.577H24.4844L23.9969 19.3488H20.7469V29.0332H16.85V19.352H13.5906V15.577H16.85V12.7957C16.85 9.56758 18.8219 7.8082 21.7031 7.8082C23.0844 7.8082 24.2688 7.91133 24.6156 7.9582V11.3301H24.6125Z" fill="#282827"/>
</svg>
