<svg width="33" height="33" viewBox="0 0 33 33" fill="none" xmlns="http://www.w3.org/2000/svg">
<g clip-path="url(#clip0)">
<path d="M28.4292 11.6065C28.4158 10.5966 28.2267 9.59685 27.8705 8.65181C27.5617 7.85468 27.0899 7.13074 26.4854 6.52625C25.881 5.92176 25.157 5.45001 24.3599 5.14115C23.427 4.79096 22.4415 4.6016 21.4452 4.58115C20.1625 4.52381 19.7559 4.50781 16.4999 4.50781C13.2439 4.50781 12.8265 4.50781 11.5532 4.58115C10.5574 4.60175 9.57234 4.7911 8.63988 5.14115C7.84262 5.4498 7.11858 5.92147 6.51406 6.52599C5.90954 7.13051 5.43787 7.85456 5.12921 8.65181C4.77832 9.58399 4.58938 10.5693 4.57055 11.5651C4.51321 12.8491 4.49588 13.2558 4.49588 16.5118C4.49588 19.7678 4.49588 20.1838 4.57055 21.4585C4.59055 22.4558 4.77855 23.4398 5.12921 24.3745C5.43838 25.1715 5.91041 25.8953 6.51513 26.4995C7.11985 27.1038 7.84397 27.5753 8.64121 27.8838C9.57113 28.2481 10.5564 28.451 11.5545 28.4838C12.8385 28.5412 13.2452 28.5585 16.5012 28.5585C19.7572 28.5585 20.1745 28.5585 21.4479 28.4838C22.4441 28.4642 23.4297 28.2753 24.3625 27.9252C25.1595 27.6159 25.8832 27.1441 26.4877 26.5396C27.0921 25.9352 27.564 25.2114 27.8732 24.4145C28.2239 23.4812 28.4119 22.4972 28.4319 21.4985C28.4892 20.2158 28.5065 19.8092 28.5065 16.5518C28.5039 13.2958 28.5039 12.8825 28.4292 11.6065ZM16.4919 22.6692C13.0865 22.6692 10.3279 19.9105 10.3279 16.5051C10.3279 13.0998 13.0865 10.3411 16.4919 10.3411C18.1267 10.3411 19.6945 10.9906 20.8505 12.1465C22.0065 13.3025 22.6559 14.8704 22.6559 16.5051C22.6559 18.1399 22.0065 19.7078 20.8505 20.8638C19.6945 22.0197 18.1267 22.6691 16.4919 22.6692ZM22.9012 11.5505C22.1052 11.5505 21.4639 10.9078 21.4639 10.1131C21.4639 9.92448 21.501 9.73766 21.5732 9.56336C21.6454 9.38905 21.7513 9.23068 21.8847 9.09727C22.0181 8.96386 22.1765 8.85804 22.3508 8.78584C22.5251 8.71364 22.7119 8.67648 22.9005 8.67648C23.0892 8.67648 23.276 8.71364 23.4503 8.78584C23.6246 8.85804 23.783 8.96386 23.9164 9.09727C24.0498 9.23068 24.1557 9.38905 24.2279 9.56336C24.3001 9.73766 24.3372 9.92448 24.3372 10.1131C24.3372 10.9078 23.6945 11.5505 22.9012 11.5505Z" fill="#282827"/>
<path d="M16.4921 20.509C18.7034 20.509 20.4961 18.7163 20.4961 16.505C20.4961 14.2936 18.7034 12.501 16.4921 12.501C14.2807 12.501 12.4881 14.2936 12.4881 16.505C12.4881 18.7163 14.2807 20.509 16.4921 20.509Z" fill="#282827"/>
</g>
<defs>
<clipPath id="clip0">
<rect width="32" height="32" fill="white" transform="translate(0.5 0.533203)"/>
</clipPath>
</defs>
</svg>
