<svg width="33" height="33" viewBox="0 0 33 33" fill="none" xmlns="http://www.w3.org/2000/svg">
<path d="M7.16667 4.5332H25.8333C26.5406 4.5332 27.2189 4.81415 27.719 5.31425C28.219 5.81435 28.5 6.49263 28.5 7.19987V25.8665C28.5 26.5738 28.219 27.2521 27.719 27.7522C27.2189 28.2523 26.5406 28.5332 25.8333 28.5332H7.16667C6.45942 28.5332 5.78115 28.2523 5.28105 27.7522C4.78095 27.2521 4.5 26.5738 4.5 25.8665V7.19987C4.5 6.49263 4.78095 5.81435 5.28105 5.31425C5.78115 4.81415 6.45942 4.5332 7.16667 4.5332ZM10.5 20.5332C9.96957 20.5332 9.46086 20.7439 9.08579 21.119C8.71071 21.4941 8.5 22.0028 8.5 22.5332C8.5 23.0636 8.71071 23.5723 9.08579 23.9474C9.46086 24.3225 9.96957 24.5332 10.5 24.5332C11.0304 24.5332 11.5391 24.3225 11.9142 23.9474C12.2893 23.5723 12.5 23.0636 12.5 22.5332C12.5 22.0028 12.2893 21.4941 11.9142 21.119C11.5391 20.7439 11.0304 20.5332 10.5 20.5332ZM8.5 13.8665V16.5332C10.6217 16.5332 12.6566 17.3761 14.1569 18.8763C15.6571 20.3766 16.5 22.4115 16.5 24.5332H19.1667C19.1667 21.7042 18.0429 18.9911 16.0425 16.9907C14.0421 14.9903 11.329 13.8665 8.5 13.8665ZM8.5 8.5332V11.1999C12.0362 11.1999 15.4276 12.6046 17.9281 15.1051C20.4286 17.6056 21.8333 20.997 21.8333 24.5332H24.5C24.5 20.2897 22.8143 16.2201 19.8137 13.2195C16.8131 10.2189 12.7435 8.5332 8.5 8.5332Z" fill="#282827"/>
</svg>
