<svg width="33" height="33" viewBox="0 0 33 33" fill="none" xmlns="http://www.w3.org/2000/svg">
<path d="M28 4.0332H5C4.44687 4.0332 4 4.48008 4 5.0332V28.0332C4 28.5863 4.44687 29.0332 5 29.0332H28C28.5531 29.0332 29 28.5863 29 28.0332V5.0332C29 4.48008 28.5531 4.0332 28 4.0332ZM23.2281 13.0863C23.2375 13.2332 23.2375 13.3863 23.2375 13.5363C23.2375 18.1238 19.7437 23.4082 13.3594 23.4082C11.3906 23.4082 9.56562 22.8363 8.02812 21.852C8.30937 21.8832 8.57813 21.8957 8.86563 21.8957C10.4906 21.8957 11.9844 21.3457 13.175 20.4145C11.65 20.3832 10.3687 19.3832 9.93125 18.0082C10.4656 18.0863 10.9469 18.0863 11.4969 17.9457C10.7116 17.7862 10.0059 17.3597 9.49943 16.7388C8.99299 16.1178 8.71715 15.3407 8.71875 14.5395V14.4957C9.17812 14.7551 9.71875 14.9145 10.2844 14.9363C9.80888 14.6194 9.41893 14.1901 9.1491 13.6864C8.87926 13.1827 8.73789 12.6202 8.7375 12.0488C8.7375 11.402 8.90625 10.8113 9.20938 10.2988C10.0809 11.3718 11.1685 12.2493 12.4015 12.8743C13.6344 13.4994 14.985 13.8581 16.3656 13.927C15.875 11.5676 17.6375 9.6582 19.7563 9.6582C20.7563 9.6582 21.6562 10.077 22.2906 10.752C23.075 10.6051 23.825 10.3113 24.4937 9.91758C24.2344 10.7207 23.6906 11.3988 22.9688 11.827C23.6688 11.752 24.3438 11.5582 24.9688 11.2863C24.4969 11.9801 23.9062 12.5957 23.2281 13.0863Z" fill="#282827"/>
</svg>
