<svg width="32" height="33" viewBox="0 0 32 33" fill="none" xmlns="http://www.w3.org/2000/svg">
<path d="M29.4156 9.78633C29.2562 9.1927 28.9437 8.65134 28.5094 8.21644C28.075 7.78154 27.5341 7.46834 26.9406 7.3082C24.7562 6.7207 16 6.7207 16 6.7207C16 6.7207 7.24375 6.7207 5.05937 7.30508C4.46569 7.4647 3.92445 7.77772 3.49002 8.2127C3.05558 8.64768 2.74325 9.18932 2.58437 9.7832C2 11.9707 2 16.5332 2 16.5332C2 16.5332 2 21.0957 2.58437 23.2801C2.90625 24.4863 3.85625 25.4363 5.05937 25.7582C7.24375 26.3457 16 26.3457 16 26.3457C16 26.3457 24.7562 26.3457 26.9406 25.7582C28.1469 25.4363 29.0938 24.4863 29.4156 23.2801C30 21.0957 30 16.5332 30 16.5332C30 16.5332 30 11.9707 29.4156 9.78633ZM13.2188 20.7207V12.3457L20.4688 16.502L13.2188 20.7207Z" fill="#282827"/>
</svg>
