<svg width="183" height="97" viewBox="0 0 183 97" fill="none" xmlns="http://www.w3.org/2000/svg">
<path d="M52.8734 26.3586C52.2726 26.3586 51.9361 26.1328 45.8472 19.6817C44.7656 18.5376 43.7081 17.4235 42.8669 16.5428C42.7067 16.3923 42.4583 16.2417 42.1859 16.0836C41.8575 15.8879 41.5129 15.6772 41.2245 15.4137L37.0344 11.5145C36.73 11.236 36.4255 10.9499 36.1532 10.6864C34.8873 9.24869 32.4678 7.3518 30.5209 5.82373C27.5887 3.52033 27.0118 3.00846 27.0038 2.39121C26.9958 2.17292 27.108 1.31479 27.2842 1.17177C27.7729 0.75776 28.9426 0.765284 35.7205 0.697537C36.5938 0.690009 37.403 0.712591 38.084 0.697537C38.6688 0.712591 39.2456 0.705064 39.7424 0.697537H40.4394H42.1939C45.5347 0.735174 46.6965 1.02122 49.6527 0.697537C49.845 0.674954 50.0373 0.697537 50.2296 0.697537C51.3592 0.697537 52.4007 1.05133 52.8414 1.2621C53.7387 1.69116 53.8588 3.15147 53.8107 8.30778C53.8027 9.61755 53.7867 10.8596 53.8348 11.8005V12.764V13.6673C53.7787 15.09 53.8188 17.2956 53.8508 19.4258C53.963 25.7715 53.947 26.2532 52.8734 26.3586Z" fill="#282827"/>
<path d="M53.899 29.0158C53.7948 30.1299 54.2194 34.6162 53.8188 38.6886C53.8188 39.208 53.8188 39.7349 53.8188 40.2919C53.8188 41.3533 53.8188 42.4373 53.8188 43.5513C53.8268 44.1912 53.8268 44.7934 53.8268 45.4031C54.0191 48.9561 54.1232 52.7574 54.1232 56.5587C54.1232 57.319 54.1713 68.836 54.1633 69.5887C53.1779 70.6953 51.0148 71.2523 40.4474 70.906C39.7744 70.906 39.1094 70.906 38.4124 70.906C35.1837 71.1921 28.1656 71.6212 28.2617 70.3792C25.666 68.7532 27.3965 63.8755 27.068 59.5622C27.068 59.0202 27.068 58.4557 27.068 57.8685C27.068 52.4789 27.068 46.2236 27.068 40.7586C27.068 40.179 27.068 39.637 27.068 39.1026C27.3965 35.4217 26.9879 31.8311 26.5312 28.105C24.8007 25.6661 19.6091 27.292 15.4191 27.0436C14.666 27.0286 13.8969 26.9985 13.1358 26.9608C8.58514 26.735 4.04247 26.2758 1.4467 28.105C-1.14907 29.7309 0.581479 34.6087 0.381188 38.4025C0.381188 38.9445 0.381188 39.5015 0.381188 40.0586C0.525398 45.3504 0.565483 50.9207 0.509402 56.3555C0.50139 57.1309 0.821852 66.7735 0.805829 67.5413C0.605538 74.2031 3.11317 76.4011 10.8124 81.9413C11.277 82.3779 11.7497 82.822 12.2224 83.2661C14.4416 85.3512 16.789 86.3373 18.864 88.2869C19.2806 88.6784 19.6892 89.0623 20.0898 89.4387C26.403 95.8521 26.6033 95.6638 32.5078 95.4832C33.0687 95.4832 39.7343 95.965 40.3192 95.965C47.2412 95.965 55.7896 95.965 63.2244 95.965C63.7853 95.965 64.322 95.965 64.8428 95.9725C69.802 96.394 76.3075 96.2585 79.7685 93.8196C81.499 93.0066 80.1851 89.8903 80.4575 86.6911C80.4575 86.2169 80.4575 85.7276 80.4735 85.2007C80.4735 82.9876 80.4735 80.5111 80.4735 77.8765C80.4735 77.2141 80.5056 76.3409 80.4815 75.814C81.0504 68.7532 81.0503 60.6236 80.2572 52.9531C80.2652 52.1702 80.2732 51.3799 80.2812 50.5895C80.3133 48.2108 80.3693 45.787 80.4495 43.2653C80.4655 42.4674 80.4976 41.6619 80.5377 40.8565C80.778 36.0239 81.2667 31.1461 79.3199 28.0975C77.5894 25.6586 71.5325 27.2845 67.1502 27.0436C66.4852 27.0436 65.8122 27.0436 65.1472 27.0436C62.0147 27.292 59.1786 27.3372 55.982 27.0888C55.0046 27.0963 53.9791 28.1351 53.899 29.0158Z" fill="#282827"/>
<path d="M182.718 52.1852L182.71 51.5303C182.702 51.2518 182.502 51.0109 182.221 50.9507L181.549 50.7926C181.34 50.7399 180.996 50.6872 180.066 50.6496C179.906 50.6496 179.834 50.6345 179.842 50.642C179.722 50.5969 179.586 50.5894 179.457 50.6119L178.496 50.8227C178.432 50.8377 178.376 50.8603 178.32 50.8905L177.927 51.1012C177.791 51.1765 177.695 51.2894 177.639 51.4249C177.23 52.5013 177.03 53.8563 177.03 55.5575C177.03 56.5586 177.054 58.049 177.102 59.9911C177.15 61.9332 177.174 63.4161 177.174 64.3947C177.174 66.7508 177.118 68.7832 177.006 70.4467L176.982 70.8533L177.038 71.892C177.046 72.0727 177.142 72.2458 177.302 72.3512C177.414 72.4265 177.551 72.4716 177.687 72.4716C177.743 72.4716 177.799 72.4641 177.847 72.4491L179.145 72.1404C179.201 72.148 179.281 72.1705 179.401 72.2007C179.85 72.3136 180.203 72.3587 180.499 72.3587C181.092 72.3587 181.653 72.163 182.165 71.7791L182.502 71.5307C182.654 71.4178 182.742 71.2447 182.742 71.064L182.75 70.6651C182.798 67.4584 182.822 65.027 182.822 63.4312V59.5019C182.79 57.891 182.766 55.437 182.718 52.1852Z" fill="#282827"/>
<path d="M182.934 28.677L182.926 28.0221C182.918 27.7436 182.718 27.5027 182.438 27.4349L181.757 27.2769C181.548 27.2242 181.204 27.1715 180.275 27.1339C180.114 27.1339 180.034 27.1188 180.05 27.1263C179.93 27.0812 179.794 27.0661 179.666 27.0962L178.696 27.307C178.632 27.322 178.576 27.3446 178.52 27.3747L178.127 27.5855C177.991 27.6608 177.895 27.7737 177.839 27.9092C177.43 28.9856 177.23 30.3406 177.23 32.0418C177.23 33.0429 177.254 34.5333 177.302 36.4754C177.35 38.4024 177.374 39.8854 177.374 40.879C177.374 43.22 177.318 45.26 177.206 46.931L177.182 47.3375L177.238 48.3763C177.246 48.557 177.342 48.7301 177.503 48.8355C177.615 48.9108 177.751 48.9559 177.887 48.9559C177.943 48.9559 177.999 48.9484 178.047 48.9333L179.337 48.6172C179.393 48.6247 179.473 48.6473 179.586 48.6699C180.034 48.7828 180.387 48.828 180.683 48.828C181.276 48.828 181.829 48.6322 182.342 48.2484L182.678 47.9999C182.83 47.887 182.918 47.7139 182.918 47.5332L182.926 47.1268C182.974 43.8674 182.998 41.4962 182.998 39.8929V35.9635C183.006 34.3753 182.982 31.9891 182.934 28.677Z" fill="#47CCE2"/>
<path d="M182.077 75.603C181.596 75.603 181.324 75.7837 176.405 80.9927C175.532 81.9185 174.682 82.8143 174.001 83.5219C173.873 83.6423 173.665 83.7628 173.449 83.8982C173.184 84.0563 172.904 84.222 172.671 84.4402L169.29 87.5867C169.042 87.8125 168.802 88.0384 168.577 88.2567C167.552 89.4159 165.605 90.9515 164.035 92.1784C161.671 94.0377 161.207 94.4442 161.199 94.9485C161.199 95.1217 161.295 95.3475 161.431 95.4604C161.824 95.7917 162.761 95.897 168.233 95.9497C168.938 95.9572 169.587 95.9648 170.14 95.9723C170.612 95.9573 171.077 95.9648 171.478 95.9723L172.038 95.9798L173.449 95.9572C176.148 95.9271 177.086 96.025 179.465 96.2884C179.618 96.3035 179.778 96.311 179.93 96.311C180.843 96.311 181.684 96.025 182.037 95.8594C182.758 95.5131 182.854 94.3388 182.822 90.1762C182.814 89.1148 182.806 88.1212 182.838 87.3609V86.5856V85.8554C182.79 84.7037 182.822 82.9272 182.854 81.2109C182.95 76.0772 182.942 75.6858 182.077 75.603Z" fill="#47CCE2"/>
<path d="M115.044 28.5566L114.964 28.0372C114.932 27.8114 114.763 27.6157 114.531 27.5479L114.002 27.3824C113.145 27.1114 112.344 27.1565 110.894 27.5178L110.173 27.6985C109.868 27.7738 109.668 28.0372 109.692 28.3308L109.748 29.0309C110.117 33.7431 110.197 35.1808 110.197 35.5496C110.197 35.8432 110.173 36.3626 110.133 37.0927L109.932 40.6984C109.788 41.8501 109.452 42.7082 108.923 43.2577C108.667 43.5362 108.474 43.6642 108.362 43.7244C108.058 43.8825 107.264 44.1535 105.422 44.1535C104.468 44.1535 103.523 43.9879 102.61 43.6567C101.648 43.318 100.943 42.8813 100.503 42.3469C100.318 42.1135 100.182 41.7297 100.126 41.2931L100.054 39.2757C100.054 39.2682 100.046 39.1779 100.046 39.1703C99.9739 38.6585 99.9178 38.2595 99.8777 38.0638C99.8136 36.7315 99.7816 35.7228 99.7816 35.0528C99.7095 32.072 99.5893 29.904 99.4211 28.6168L99.341 27.977C99.3089 27.706 99.0846 27.4877 98.7962 27.4501L98.1152 27.3522C97.4342 27.2544 96.9215 27.2017 96.561 27.2017C95.7037 27.2017 94.9826 27.4275 94.4218 27.8716L94.0453 28.1727C93.8771 28.3082 93.7889 28.5114 93.821 28.7147L93.885 29.1738C93.9892 29.9567 94.0453 30.9278 94.0453 32.0569C94.0453 32.6591 94.0292 33.5473 93.9972 34.6915C93.9651 35.8733 93.9412 36.7691 93.9412 37.3713C93.9412 40.9393 94.59 43.8072 95.8799 45.8999C96.4007 46.7354 96.6731 47.029 96.8494 47.172C97.2339 47.5559 97.8108 47.9247 98.652 48.3388C99.4692 48.7377 100.126 48.9861 100.663 49.099C101.047 49.1818 101.777 49.2646 104.244 49.2646C107.281 49.2646 109.748 48.8055 111.583 47.8871C113.217 47.0666 114.371 45.516 115.012 43.2728C115.252 42.4448 115.308 42.1512 115.332 41.9705C115.356 41.7974 115.38 41.4813 115.38 39.8403C115.38 39.3058 115.388 38.5154 115.412 37.4616C115.436 36.3852 115.444 35.5872 115.444 35.0603C115.444 32.501 115.308 30.3105 115.044 28.5566Z" fill="#282827"/>
<path d="M149.438 28.677L149.43 28.0221C149.422 27.7436 149.222 27.5027 148.941 27.435L148.26 27.2769C148.052 27.2242 147.708 27.1715 146.778 27.1339C146.618 27.1339 146.53 27.1188 146.546 27.1264C146.426 27.0812 146.289 27.0736 146.169 27.1038L145.208 27.3145C145.144 27.3296 145.088 27.3522 145.032 27.3823L144.639 27.5931C144.503 27.6683 144.407 27.7812 144.351 27.9167C143.942 28.9932 143.742 30.3481 143.742 32.0493C143.742 33.0504 143.766 34.5409 143.814 36.483C143.862 38.4251 143.886 39.9005 143.886 40.8866C143.886 43.2276 143.83 45.26 143.718 46.9386L143.694 47.2774C143.686 47.4354 143.734 47.586 143.846 47.7064L144.767 48.7452C144.895 48.8882 145.08 48.9635 145.264 48.9635C145.392 48.9635 145.512 48.9334 145.625 48.8581L145.961 48.6474C146.001 48.6549 146.049 48.6699 146.105 48.6774C146.554 48.7904 146.898 48.8355 147.211 48.8355C147.804 48.8355 148.356 48.6398 148.869 48.2559L149.206 48.0075C149.358 47.8946 149.446 47.7215 149.454 47.5408L149.462 47.1419C149.51 43.8825 149.534 41.5113 149.534 39.908V35.9786C149.502 34.3753 149.478 31.9891 149.438 28.677Z" fill="#282827"/>
<path d="M140.337 47.8871L140.048 47.0816C139.96 46.8332 139.856 46.3213 139.856 45.3353C139.856 44.7857 139.904 43.8222 139.992 42.4673C140.04 41.7221 140.064 40.5629 140.064 39.0348C140.064 37.8003 140.032 34.1645 139.976 31.9138L139.968 31.6955C139.96 31.3643 139.672 31.1009 139.319 31.1009H135.009C134.657 31.1009 134.368 31.3718 134.36 31.7031C134.328 33.9839 134.28 36.7991 134.216 38.7412C131.596 35.8808 129.537 33.6376 128.095 32.087C127.75 31.6805 127.486 31.3568 127.286 31.1009L127.19 30.9879C126.853 30.6492 126.589 30.3857 126.453 30.2427L125.299 28.7824C125.291 28.7749 125.251 28.7222 125.243 28.7146C124.466 27.8414 123.849 27.3522 123.208 27.1113C122.847 26.9833 122.447 26.9231 122.006 26.9231C121.782 26.9231 121.461 26.9382 121.045 26.9758C120.676 27.0059 120.484 27.021 120.38 27.021H119.587C119.258 27.021 118.986 27.2468 118.946 27.5554L118.842 28.2931C118.577 30.1674 118.449 32.5085 118.449 35.241C118.449 36.1217 118.465 37.4465 118.505 39.1627C118.537 40.9166 118.553 42.1737 118.553 43.0018C118.553 44.575 118.505 46.0127 118.417 47.2924L118.353 48.1731C118.345 48.3387 118.401 48.5043 118.521 48.6247C118.641 48.7452 118.809 48.8205 118.986 48.8205L123.224 48.9259C123.488 48.9409 123.769 48.7602 123.857 48.5118L124.065 47.9096C124.169 47.6161 124.209 47.3902 124.209 47.1569C124.209 46.9837 124.185 46.8031 124.137 46.5773C124.097 45.3729 124.073 42.6931 124.073 38.6132C124.073 38.1917 124.121 37.5142 124.217 36.6185C124.249 36.3475 124.273 36.0916 124.297 35.8507C125.587 37.2734 127.069 39.0724 128.728 41.2177C131.46 44.7857 133.471 47.2698 134.697 48.6022L134.945 48.8656C135.057 48.9861 135.217 49.0613 135.386 49.0764L135.762 49.099C136.459 49.1441 136.964 49.1667 137.324 49.1667C137.973 49.1667 138.558 49.0839 139.063 48.9259L139.92 48.6548C140.08 48.6021 140.217 48.4968 140.297 48.3462C140.377 48.2107 140.393 48.0451 140.337 47.8871Z" fill="#282827"/>
<path d="M112.608 79.0432C111.03 76.8527 108.611 75.4903 105.422 74.9935C104.357 74.8203 103.515 74.745 99.4615 74.745C98.492 74.745 97.6267 74.7074 96.8816 74.6246L96.5372 74.5869C96.377 74.5719 96.2087 74.6096 96.0725 74.7074L96.0645 74.7149C95.0471 74.745 94.5503 75.2569 94.334 75.5655L94.1578 75.829C94.0776 75.9494 94.0456 76.0849 94.0616 76.2279L94.1016 76.5441C94.1817 77.1538 94.2218 77.8463 94.2218 78.6066C94.2218 78.9002 94.1978 79.3744 94.1578 80.0218C94.1097 80.7294 94.0856 81.2789 94.0856 81.6552C94.0856 81.7154 94.0936 81.7757 94.1096 81.8283C94.1096 81.8886 94.1177 81.994 94.1177 82.137C94.1337 82.9048 94.1738 84.7114 94.2539 85.7426C94.294 86.1943 94.318 90.3419 94.334 93.0819C94.342 94.5874 94.35 95.7993 94.358 96.0402C94.3661 96.3639 94.6464 96.6273 94.9989 96.6273H99.3893C99.5335 96.6273 99.6698 96.5821 99.7739 96.5069C99.8781 96.5746 99.9982 96.6198 100.134 96.6273C100.559 96.6424 100.735 96.6574 100.863 96.665C101.072 96.68 101.184 96.6875 101.977 96.6875C103.98 96.6875 105.47 96.5822 106.536 96.3714C108.442 96.0402 109.997 95.3176 111.142 94.2261C113.201 92.284 113.738 91.3054 113.93 90.6656C114.427 89.9128 114.732 88.9719 114.836 87.8428V85.2609C114.836 85.1705 114.844 84.9974 114.876 84.6737C114.916 84.2974 114.932 84.0264 114.932 83.8307C114.956 83.0779 114.675 81.9262 112.608 79.0432ZM100.054 91.0043C100.07 87.1578 100.11 82.1596 100.158 80.3078C100.823 80.3304 101.336 80.353 101.777 80.3756C102.866 80.4207 103.419 80.4433 104.397 80.4509C104.485 80.4734 104.637 80.5111 104.917 80.5863C106.127 80.9251 107.169 81.5197 108.018 82.3553C108.362 82.6865 108.474 82.8521 108.507 82.8973C108.795 83.3565 108.971 84.079 109.027 84.9748C109.043 85.8329 109.075 86.7212 109.115 87.6094C108.627 88.7235 108.426 89.1074 108.37 89.1977C108.066 89.687 107.721 90.0182 107.321 90.2215C106.255 90.7559 104.453 91.0269 101.961 91.0269C101.593 91.0269 101.024 91.0194 100.182 90.9968C100.126 90.9892 100.094 90.9968 100.054 91.0043Z" fill="#282827"/>
<path d="M160.197 79.0432C158.619 76.8527 156.2 75.4903 153.011 74.9935C151.945 74.8203 151.104 74.745 147.05 74.745C146.081 74.745 145.216 74.7074 144.471 74.6246L144.126 74.5869C143.966 74.5719 143.798 74.6096 143.661 74.7074L143.653 74.7149C142.636 74.745 142.139 75.2569 141.923 75.5655L141.747 75.829C141.667 75.9494 141.634 76.0849 141.65 76.2279L141.691 76.5441C141.771 77.1538 141.811 77.8463 141.811 78.6066C141.811 78.9002 141.787 79.3744 141.747 80.0218C141.699 80.7294 141.675 81.2789 141.675 81.6552C141.675 81.7154 141.683 81.7757 141.699 81.8283C141.699 81.8886 141.707 81.994 141.707 82.137C141.723 82.9048 141.763 84.7114 141.843 85.7426C141.883 86.1943 141.907 90.3419 141.923 93.0819C141.931 94.5874 141.939 95.7993 141.947 96.0402C141.955 96.3639 142.235 96.6273 142.588 96.6273H146.978C147.122 96.6273 147.259 96.5821 147.363 96.5069C147.467 96.5746 147.587 96.6198 147.723 96.6273C148.148 96.6424 148.324 96.6574 148.452 96.665C148.661 96.68 148.773 96.6875 149.566 96.6875C151.569 96.6875 153.059 96.5822 154.125 96.3714C156.031 96.0402 157.586 95.3176 158.731 94.2261C160.79 92.284 161.327 91.3054 161.519 90.6656C162.016 89.9128 162.321 88.9719 162.425 87.8428V85.2609C162.425 85.1705 162.433 84.9974 162.465 84.6737C162.505 84.2974 162.521 84.0264 162.521 83.8307C162.545 83.0779 162.264 81.9262 160.197 79.0432ZM147.643 91.0043C147.659 87.1578 147.699 82.1596 147.747 80.3078C148.412 80.3304 148.925 80.353 149.366 80.3756C150.455 80.4207 151.008 80.4433 151.986 80.4509C152.074 80.4734 152.226 80.5111 152.506 80.5863C153.716 80.9251 154.758 81.5197 155.607 82.3553C155.951 82.6865 156.063 82.8521 156.095 82.8973C156.384 83.3565 156.56 84.079 156.616 84.9748C156.632 85.8329 156.664 86.7212 156.704 87.6094C156.216 88.7235 156.015 89.1074 155.959 89.1977C155.655 89.687 155.31 90.0182 154.91 90.2215C153.844 90.7559 152.042 91.0269 149.55 91.0269C149.181 91.0269 148.613 91.0194 147.771 90.9968C147.715 90.9892 147.683 90.9968 147.643 91.0043Z" fill="#282827"/>
<path d="M171.887 31.2815C170.308 29.0835 167.889 27.721 164.692 27.2242C163.627 27.0511 162.785 26.9758 158.731 26.9758C157.762 26.9758 156.897 26.9382 156.16 26.8554L155.815 26.8177C155.647 26.7951 155.479 26.8403 155.343 26.9381H155.335C154.317 26.9683 153.812 27.4801 153.604 27.7963L153.428 28.0597C153.348 28.1802 153.316 28.3232 153.332 28.4662L153.372 28.7824C153.452 29.3921 153.492 30.0846 153.492 30.8374C153.492 31.1234 153.468 31.6052 153.428 32.2525C153.38 32.9601 153.356 33.5096 153.356 33.886C153.356 33.9462 153.364 34.0064 153.38 34.0591C153.38 34.1194 153.388 34.2247 153.388 34.3602C153.404 35.128 153.444 36.9346 153.524 37.9659C153.564 38.4175 153.588 42.5652 153.604 45.3051C153.612 46.8182 153.62 48.0225 153.628 48.2634C153.636 48.5946 153.924 48.8581 154.277 48.8581H158.667C158.812 48.8581 158.948 48.8129 159.052 48.7377C159.156 48.8054 159.276 48.8505 159.412 48.8581C159.837 48.8731 160.013 48.8882 160.142 48.8957C160.35 48.9108 160.462 48.9183 161.255 48.9183C163.258 48.9183 164.748 48.8129 165.814 48.6022C167.721 48.271 169.275 47.5483 170.428 46.4493C172.487 44.5072 173.024 43.5211 173.225 42.8888C173.721 42.1285 174.026 41.1951 174.13 40.0585V37.4766C174.13 37.3862 174.138 37.2131 174.17 36.8969C174.21 36.513 174.226 36.2496 174.226 36.0539C174.234 35.3162 173.954 34.157 171.887 31.2815ZM159.332 43.2276C159.348 39.3886 159.38 34.4129 159.437 32.5536C160.093 32.5762 160.606 32.5988 161.039 32.6214C162.12 32.6665 162.681 32.6891 163.659 32.6967C163.747 32.7192 163.899 32.7569 164.171 32.8322C165.381 33.1709 166.415 33.7655 167.264 34.6011C167.608 34.9323 167.721 35.0979 167.745 35.1431C168.033 35.5947 168.209 36.3174 168.265 37.2131C168.281 38.0713 168.313 38.9595 168.353 39.8477C167.873 40.9618 167.664 41.3382 167.608 41.436C167.304 41.9178 166.967 42.2565 166.567 42.4522C165.501 42.9867 163.699 43.2577 161.215 43.2577C160.847 43.2577 160.278 43.2501 159.437 43.2276C159.404 43.22 159.364 43.22 159.332 43.2276Z" fill="#47CCE2"/>
<path d="M155.158 55.0306C154.862 54.5639 154.413 54.0972 153.804 53.6079C152.555 52.5917 150.816 51.8992 148.613 51.5454C147.002 51.3271 145.4 51.1164 143.806 50.8981L143.606 50.8679C143.509 50.8529 143.421 50.8604 143.333 50.883L143.141 50.9357C142.668 51.0712 142.107 51.1314 141.474 51.1314C141.066 51.1314 140.425 51.0938 139.576 51.011C138.606 50.9206 137.893 50.8755 137.396 50.8755C136.683 50.8755 136.01 50.9282 135.394 51.026L134.648 51.154C134.336 51.2067 134.112 51.4626 134.112 51.7562V54.7295C134.112 55.5425 134.12 56.7544 134.144 58.3578V61.9559C134.144 62.6861 134.136 62.9495 134.128 63.4539L134.096 64.9066C134.096 65.0722 134.16 65.2303 134.28 65.3432C134.4 65.4637 134.568 65.5239 134.745 65.5239H137.348C137.412 65.539 137.461 65.5314 137.541 65.554H138.446L138.566 65.5691C138.646 65.5766 138.726 65.5766 138.807 65.5615L139.303 65.4938C139.391 65.4938 139.479 65.4712 139.552 65.4336C139.912 65.3959 140.337 65.3733 140.817 65.3733C141.202 65.3733 141.803 65.3959 142.596 65.4336C143.445 65.4787 144.102 65.5013 144.551 65.5013C144.719 65.5013 144.903 65.4938 145.112 65.4712L148.613 71.7491C149.166 72.7051 150.167 73.232 151.433 73.232C151.633 73.232 151.898 73.217 152.242 73.1944C152.49 73.1793 152.667 73.1642 152.771 73.1642C152.803 73.1642 152.883 73.1718 153.027 73.2019L154.109 73.4051C154.149 73.4126 154.197 73.4202 154.237 73.4202C154.389 73.4202 154.533 73.375 154.646 73.2847C154.798 73.1718 154.886 72.9986 154.886 72.8105V71.3953C154.886 71.3125 154.87 71.2297 154.83 71.1469L154.75 70.9813C154.445 70.3339 153.708 69.1069 152.514 67.2401C152.026 66.4949 151.633 65.8099 151.321 65.2002C152.763 64.7636 154.005 63.7022 155.006 62.0612C155.391 61.4515 155.559 61.1354 155.623 60.8795C155.775 60.3676 155.847 59.66 155.847 58.6513C155.871 56.9276 155.655 55.8135 155.158 55.0306ZM150.167 58.7718C150.167 59.0578 150.143 59.1632 150.143 59.1632C150.087 59.3589 149.502 59.7278 148.084 59.931C147.707 59.9837 147.459 60.0213 147.331 60.0439H144.615C143.902 60.0665 143.365 60.074 143.005 60.074C141.867 60.074 140.922 60.0213 140.177 59.9159L140.217 56.4082C140.385 56.4157 140.577 56.4232 140.793 56.4307C141.418 56.4533 141.819 56.4608 141.995 56.4608C147.331 56.5662 149.109 57.176 149.686 57.5298C149.815 57.5975 150.167 57.8082 150.167 58.7718Z" fill="#282827"/>
<path d="M116.061 52.5916C115.973 52.3959 115.805 52.2378 115.589 52.1626L114.74 51.8615C114.195 51.6657 113.562 51.5679 112.873 51.5679H111.182C110.918 51.5679 110.67 51.6808 110.509 51.8841L110.245 52.2153C109.828 52.7347 109.444 53.4648 109.075 54.4509C109.019 54.5864 108.827 55.151 108.538 55.9715C107.561 58.7566 105.286 65.2829 104.629 66.5776C104.613 66.6077 104.605 66.6303 104.589 66.6604C104.525 66.8411 104.445 67.0669 104.34 67.3303C104.236 67.2325 104.052 67.0217 103.828 66.5776C103.611 66.1937 103.435 65.8399 103.283 65.4711C102.882 64.6506 102.41 62.8816 101.953 61.1804C101.488 59.4491 101.056 57.8082 100.607 56.8823C100.383 56.4909 100.126 56.0392 99.8459 55.5198C99.5254 54.9402 99.3972 54.4283 99.285 53.939C99.1488 53.3745 99.0047 52.7874 98.564 52.268L98.3477 52.0195C98.2195 51.869 98.0272 51.7636 97.8269 51.7335L97.4824 51.6808C96.9777 51.6055 96.465 51.5679 95.9603 51.5679C95.1351 51.5679 94.414 51.7561 93.8211 52.1174L93.1801 52.5163C92.8276 52.7346 92.6995 53.1637 92.8837 53.525L93.2202 54.1724C94.1256 55.9263 95.9922 61.888 97.0979 65.4485C97.8109 67.7218 97.9952 68.324 98.0993 68.5272C98.3877 69.0993 98.6762 69.6639 98.9646 70.2134C99.2611 70.7779 99.4613 71.2597 99.5575 71.6511L99.5975 71.8016C99.6215 71.8995 99.6696 71.9899 99.7257 72.0727L99.8218 72.2006C100.543 73.1566 103.547 73.2319 103.579 73.2319C103.876 73.2319 104.236 73.1867 104.677 73.1039C104.893 73.0588 104.997 73.0512 105.021 73.0437H107.201C107.505 73.0437 107.793 72.8856 107.938 72.6372L108.194 72.2082C108.482 71.7113 108.891 70.9887 109.452 69.9575C109.46 69.9424 109.508 69.8445 109.508 69.8295C109.564 69.6864 115.148 55.2714 115.709 54.0068L116.053 53.2315C116.15 53.0132 116.15 52.7874 116.061 52.5916Z" fill="#282827"/>
<path d="M171.702 59.8934L171.558 59.8257C170.949 59.5321 169.515 58.8396 167.232 58.7342C164.604 58.6062 163.25 58.147 162.817 57.2513C162.817 57.2513 162.849 57.1308 163.122 56.9125C164.083 56.1748 165.341 55.821 166.983 55.821C168.481 55.821 172.535 55.9791 173.617 56.2426C173.809 56.2877 174.025 56.2501 174.186 56.1372C174.346 56.0168 174.442 55.8436 174.442 55.6479V51.1917C174.442 50.9056 174.234 50.6572 173.929 50.5895C172.976 50.3862 170.292 50.2583 167.544 50.1454L167.055 50.1228C164.604 50.0324 162.08 50.9508 159.621 52.8778C159.044 53.3295 158.683 53.6531 158.419 53.9241C157.682 54.7371 157.305 55.7985 157.305 57.0781C157.305 57.3491 157.345 57.8986 157.682 59.8106L157.714 60.0063C157.73 60.1042 157.77 60.1945 157.834 60.2698L157.962 60.4278C158.972 61.7301 160.55 62.7463 162.657 63.4539C163.618 63.77 163.755 63.8002 163.883 63.8303L164.099 63.8604C164.908 63.913 165.549 63.9357 166.07 63.9357C166.254 63.9357 166.414 63.9357 166.527 63.9281C167.151 63.9432 168.377 64.1916 169.21 64.4174C169.483 64.4927 169.643 64.9594 169.723 65.2379C169.771 65.4035 169.803 65.5164 169.819 65.5992C169.811 65.6143 169.803 65.6368 169.787 65.6594L169.731 65.7724C169.475 66.4047 168.762 66.9466 167.616 67.3682C166.743 67.6994 165.381 67.8725 163.787 67.8725C162.048 67.8725 160.622 67.6843 159.669 67.338C159.468 67.2628 159.244 67.2854 159.06 67.4058C158.884 67.5187 158.771 67.7069 158.771 67.9101V72.1782C158.771 72.4416 158.956 72.6825 159.22 72.7653C160.061 73.0213 162.072 73.1191 163.674 73.1191C166.134 73.1191 168.385 72.9234 169.843 72.5847C171.213 72.2761 172.888 71.3201 173.921 70.2662C174.915 69.2425 175.548 68.1134 175.78 66.9692C175.844 66.781 175.876 66.5778 175.876 66.3595C175.884 63.4087 174.482 61.2333 171.702 59.8934Z" fill="#282827"/>
<path d="M140.761 70.891C140.761 70.8609 140.761 70.8308 140.753 70.8232C140.753 70.7931 140.761 70.7103 140.785 70.5372C140.833 70.2361 140.857 69.9952 140.857 69.7995C140.857 69.2124 140.657 68.6855 140.281 68.2639L139.992 67.9402C139.864 67.7972 139.656 67.7069 139.463 67.7219L139.015 67.737C138.51 67.7596 137.733 67.7671 136.699 67.7671C135.57 67.7671 132.245 67.7295 130.17 67.6542C128.007 67.5789 126.348 67.5413 125.251 67.5413C124.778 67.5413 124.361 67.5413 123.985 67.5488L123.921 63.898C124.594 63.8528 125.659 63.8076 127.358 63.8076C128.135 63.8076 128.936 63.77 129.745 63.7023L130.57 63.6345C130.907 63.6044 131.163 63.341 131.163 63.0248V60.0665C131.163 59.8106 130.995 59.5848 130.739 59.4944L130.146 59.2912C129.369 59.0202 128.415 58.8697 127.326 58.8396C127.254 58.8396 127.198 58.8471 127.133 58.8621C126.869 58.8696 126.276 58.8696 124.93 58.8696C124.538 58.8696 124.177 58.8546 123.865 58.832C123.873 58.7643 123.873 58.6965 123.881 58.6137V56.5662C123.985 56.6265 124.105 56.6716 124.241 56.6716H124.578C126.885 56.6716 128.72 56.4985 130.178 56.1522C130.322 56.1146 130.458 56.0393 130.554 55.9264L130.851 55.5877C130.907 55.5199 130.947 55.4522 130.979 55.3694L131.267 54.5263C131.332 54.3457 131.34 54.2177 131.243 54.0596C131.243 54.0596 131.235 54.0144 131.227 53.8789C131.179 53.066 131.099 52.7574 131.019 52.5466L130.803 51.9595C130.707 51.696 130.434 51.5154 130.138 51.5078L129.232 51.5003C127.358 51.4852 125.715 51.4702 124.257 51.4627C124.065 51.4852 123.881 51.5304 123.753 51.6584C123.753 51.6584 123.753 51.6659 123.745 51.6659C123.632 51.5379 123.48 51.4476 123.288 51.4325C122.743 51.3949 122.246 51.3497 121.806 51.2895L121.405 51.2368C121.221 51.2143 121.037 51.2594 120.9 51.3723L120.836 51.425C120.812 51.425 120.78 51.4175 120.748 51.4175C120.476 51.3874 120.284 51.3723 120.139 51.3723C118.865 51.3723 117.968 52.1928 117.96 53.3897C117.96 53.4349 117.968 53.48 117.976 53.5252L118.024 53.7284C118.04 53.8338 118.088 54.1048 118.176 54.7822C118.281 55.5651 118.337 56.3856 118.337 57.2362C118.337 57.8233 118.305 58.7568 118.249 60.0214C118.192 61.3161 118.16 62.2947 118.16 62.9345C118.16 63.3109 118.184 63.8453 118.233 64.5604C118.273 65.1927 118.297 65.6745 118.297 65.9982C118.297 66.2541 118.273 66.7659 118.136 67.7671C118.008 68.693 117.952 69.393 117.952 69.8974C117.952 70.5146 118.04 71.1469 118.208 71.7642L118.393 72.4417C118.465 72.7126 118.729 72.9008 119.018 72.9008C119.034 72.9008 119.042 72.9008 119.058 72.9008L119.803 72.8557C121.269 72.7729 122.727 72.7277 124.137 72.7277C125.267 72.7277 126.941 72.7503 129.273 72.7954C131.532 72.8406 134.985 72.8632 136.203 72.8632H139.383C139.56 72.8632 139.72 72.7955 139.84 72.6825L140.673 71.8921C140.833 71.7416 140.897 71.5233 140.841 71.3125L140.761 70.891Z" fill="#282827"/>
<path d="M140.865 94.8055L140.489 94.1431C139.439 92.3064 136.827 86.1264 135.273 82.4379C134.44 80.4732 134.071 79.5925 133.967 79.3968C133.639 78.8097 133.318 78.2301 132.99 77.6655C132.653 77.0784 132.421 76.5665 132.301 76.16L132.253 76.0019C132.229 75.9267 132.189 75.8514 132.141 75.7837L132.028 75.6482C131.315 74.7976 128.071 74.6997 128.039 74.6997C127.726 74.6997 127.342 74.7373 126.869 74.8277C126.573 74.8804 126.436 74.8954 126.404 74.8954H123.929C123.704 74.8954 123.496 75.0083 123.376 75.189L123.088 75.6256C122.759 76.1299 122.294 76.8751 121.669 77.9214L121.613 78.0268C121.581 78.1021 117.984 85.6898 115.933 90.4095C115.693 90.959 116.133 91.501 117.279 92.0655C117.375 92.1107 117.479 92.1333 117.584 92.1333H122.206C122.519 92.1408 129.393 92.3365 131.283 92.3591L132.677 96.2508C132.766 96.4992 133.014 96.6648 133.294 96.6648H133.302L133.623 96.6573C134.472 96.6497 135.65 96.6272 137.733 96.6121L138.71 96.6046C138.943 96.6046 139.151 96.4842 139.263 96.296C139.495 96.2207 139.712 96.1228 139.904 96.0175L140.633 95.6109C140.929 95.4529 141.034 95.0915 140.865 94.8055ZM128.992 87.135C128.848 87.135 128.64 87.135 128.447 87.1877C128.327 87.1952 128.151 87.1953 127.911 87.2028C126.901 87.2329 126.717 87.248 126.597 87.263C126.517 87.2706 126.476 87.2706 126.132 87.2706C125.291 87.2706 124.474 87.263 123.688 87.2404C125.114 83.6498 126.044 81.4593 126.484 80.6539C126.581 80.4055 126.717 80.0894 126.877 79.6979C126.885 79.6904 126.893 79.6829 126.909 79.6753C126.917 79.6829 126.917 79.6979 126.925 79.7054C127.149 80.1721 127.51 80.9174 127.991 81.7906C128.279 82.2573 128.519 82.7014 128.728 83.1455C129.216 84.0488 129.817 85.5919 130.418 87.1802C129.938 87.1501 129.449 87.135 128.992 87.135Z" fill="#282827"/>
<path d="M116.142 91.5388H116.181C116.173 91.5312 116.157 91.5312 116.15 91.5237C116.15 91.5237 116.15 91.5312 116.142 91.5388Z" fill="white"/>
</svg>
