<svg width="33" height="32" viewBox="0 0 33 32" fill="none" xmlns="http://www.w3.org/2000/svg">
<path d="M30.7852 0.375H2.03516C1.34375 0.375 0.785156 0.933594 0.785156 1.625V30.375C0.785156 31.0664 1.34375 31.625 2.03516 31.625H30.7852C31.4766 31.625 32.0352 31.0664 32.0352 30.375V1.625C32.0352 0.933594 31.4766 0.375 30.7852 0.375ZM29.5352 29.125H22.3438V19.5234H26.4062L27.0156 14.8086H22.3438V11.7969C22.3438 10.4297 22.7227 9.5 24.6797 9.5H27.1758V5.28125C26.7422 5.22266 25.2617 5.09375 23.5352 5.09375C19.9336 5.09375 17.4688 7.29297 17.4688 11.3281V14.8047H13.3984V19.5195H17.4727V29.125H3.28516V2.875H29.5352V29.125Z" fill="black"/>
</svg>
