<svg width="36" height="28" viewBox="0 0 36 28" fill="none" xmlns="http://www.w3.org/2000/svg">
<path d="M34.6602 0.25H2.16016C1.46875 0.25 0.910156 0.808594 0.910156 1.5V26.5C0.910156 27.1914 1.46875 27.75 2.16016 27.75H34.6602C35.3516 27.75 35.9102 27.1914 35.9102 26.5V1.5C35.9102 0.808594 35.3516 0.25 34.6602 0.25ZM33.0977 4.57812V24.9375H3.72266V4.57812L2.64453 3.73828L4.17969 1.76563L5.85156 3.06641H30.9727L32.6445 1.76563L34.1797 3.73828L33.0977 4.57812ZM30.9727 3.0625L18.4102 12.8281L5.84766 3.0625L4.17578 1.76172L2.64063 3.73438L3.71875 4.57422L17.0625 14.9492C17.4462 15.2473 17.9184 15.4092 18.4043 15.4092C18.8902 15.4092 19.3623 15.2473 19.7461 14.9492L33.0977 4.57812L34.1758 3.73828L32.6406 1.76563L30.9727 3.0625Z" fill="black"/>
</svg>
