<svg width="33" height="28" viewBox="0 0 33 28" fill="none" xmlns="http://www.w3.org/2000/svg">
<path d="M32.6599 3.93361C31.4646 4.44923 30.1638 4.82033 28.824 4.96486C30.215 4.13844 31.2568 2.83283 31.7537 1.29298C30.4483 2.0695 29.0183 2.61401 27.5271 2.90236C26.9038 2.23606 26.15 1.70525 25.3127 1.34301C24.4753 0.980778 23.5723 0.794876 22.6599 0.796891C18.9685 0.796891 15.9998 3.78908 15.9998 7.46095C15.9998 7.97658 16.0623 8.4922 16.1638 8.9883C10.6365 8.69923 5.70679 6.05861 2.42944 2.01564C1.83228 3.03562 1.51934 4.19699 1.52319 5.37892C1.52319 7.69142 2.69897 9.73048 4.49194 10.9297C3.43532 10.8881 2.40344 10.5977 1.48022 10.082V10.1641C1.48022 13.4024 3.76929 16.086 6.82007 16.7031C6.24725 16.8519 5.65799 16.928 5.06616 16.9297C4.63257 16.9297 4.22241 16.8867 3.80835 16.8281C4.6521 19.4688 7.10913 21.3867 10.0349 21.4492C7.74585 23.2422 4.87866 24.2969 1.76538 24.2969C1.20679 24.2969 0.691162 24.2774 0.156006 24.2149C3.10913 26.1094 6.61304 27.2031 10.3865 27.2031C22.6365 27.2031 29.3396 17.0547 29.3396 8.24611C29.3396 7.95705 29.3396 7.66798 29.3201 7.37892C30.6169 6.4297 31.7537 5.25392 32.6599 3.93361Z" fill="black"/>
</svg>
