<svg width="41" height="40" viewBox="0 0 41 40" fill="none" xmlns="http://www.w3.org/2000/svg">
<path d="M28.2815 23.4336C27.8557 23.2148 25.7346 22.1758 25.3401 22.0352C24.9456 21.8867 24.6565 21.8164 24.3713 22.2539C24.0823 22.6875 23.262 23.6523 23.0042 23.9453C22.7542 24.2344 22.5002 24.2695 22.0745 24.0547C19.5432 22.7891 17.8831 21.7969 16.2151 18.9336C15.7737 18.1719 16.6565 18.2266 17.4807 16.582C17.6213 16.293 17.551 16.0469 17.4417 15.8281C17.3323 15.6094 16.4729 13.4922 16.1135 12.6289C15.7659 11.7891 15.4065 11.9062 15.1448 11.8906C14.8948 11.875 14.6096 11.875 14.3206 11.875C14.0315 11.875 13.5667 11.9844 13.1721 12.4102C12.7776 12.8438 11.6643 13.8867 11.6643 16.0039C11.6643 18.1211 13.2073 20.1719 13.4182 20.4609C13.637 20.75 16.4534 25.0937 20.7776 26.9648C23.512 28.1445 24.5823 28.2461 25.9495 28.043C26.7815 27.918 28.4963 27.0039 28.8518 25.9922C29.2073 24.9844 29.2073 24.1211 29.1018 23.9414C28.9963 23.75 28.7073 23.6406 28.2815 23.4336Z" fill="black"/>
<path d="M36.5508 13.2188C35.6679 11.1211 34.4023 9.23828 32.789 7.62109C31.1758 6.00781 29.2929 4.73828 27.1914 3.85938C25.0429 2.95703 22.7617 2.5 20.4101 2.5H20.332C17.9648 2.51172 15.6719 2.98047 13.5156 3.90234C11.4336 4.79297 9.56638 6.05859 7.96873 7.67188C6.37107 9.28516 5.11717 11.1602 4.24998 13.25C3.35154 15.4141 2.89841 17.7148 2.91013 20.082C2.92185 22.793 3.57029 25.4844 4.78513 27.8906V33.8281C4.78513 34.8203 5.58982 35.625 6.58201 35.625H12.5234C14.9297 36.8398 17.6211 37.4883 20.332 37.5H20.414C22.7539 37.5 25.0234 37.0469 27.1601 36.1602C29.25 35.2891 31.1289 34.0391 32.7383 32.4414C34.3515 30.8438 35.6211 28.9766 36.5078 26.8945C37.4297 24.7383 37.8984 22.4453 37.9101 20.0781C37.9219 17.6992 37.4609 15.3906 36.5508 13.2188ZM30.6484 30.3281C27.9101 33.0391 24.2773 34.5312 20.4101 34.5312H20.3437C17.9883 34.5195 15.6484 33.9336 13.582 32.832L13.2539 32.6562H7.75388V27.1562L7.5781 26.8281C6.47654 24.7617 5.8906 22.4219 5.87888 20.0664C5.86326 16.1719 7.35154 12.5156 10.082 9.76172C12.8086 7.00781 16.4531 5.48438 20.3476 5.46875H20.414C22.3672 5.46875 24.2617 5.84766 26.0469 6.59766C27.789 7.32812 29.3515 8.37891 30.6953 9.72266C32.0351 11.0625 33.0898 12.6289 33.8203 14.3711C34.5781 16.1758 34.957 18.0898 34.9492 20.0664C34.9258 23.957 33.3984 27.6016 30.6484 30.3281Z" fill="black"/>
</svg>
