<svg width="1922" height="192" viewBox="0 0 1922 192" fill="none" xmlns="http://www.w3.org/2000/svg">
<path fill-rule="evenodd" clip-rule="evenodd" d="M0 120L160.167 90C320.333 60 640.667 0 961 0C1281.33 0 1601.67 60 1761.83 90L1922 120V192H1761.83C1601.67 192 1281.33 192 961 192C640.667 192 320.333 192 160.167 192H0V120Z" fill="white"/>
<path fill-rule="evenodd" clip-rule="evenodd" d="M913.47 77.1231C912.709 76.7949 911.826 77.1454 911.498 77.9061C911.17 78.6667 911.52 79.5494 912.281 79.8776L959.311 100.172C960.196 100.554 961.199 100.554 962.084 100.172L1009.11 79.8776C1009.87 79.5494 1010.23 78.6667 1009.9 77.9061C1009.57 77.1454 1008.69 76.7949 1007.93 77.1231L960.896 97.4176C960.769 97.4721 960.626 97.4721 960.499 97.4176L913.47 77.1231ZM913.47 92.6368C912.709 92.3086 911.826 92.6591 911.498 93.4198C911.17 94.1804 911.52 95.0631 912.281 95.3913L959.311 115.686C960.196 116.068 961.199 116.068 962.084 115.686L1009.11 95.3913C1009.87 95.0631 1010.23 94.1804 1009.9 93.4198C1009.57 92.6591 1008.69 92.3086 1007.93 92.6368L960.896 112.931C960.769 112.986 960.626 112.986 960.499 112.931L913.47 92.6368Z" fill="#10AAB2"/>
</svg>
