<svg width="100" height="40" viewBox="0 0 100 40" fill="none" xmlns="http://www.w3.org/2000/svg">
<path fill-rule="evenodd" clip-rule="evenodd" d="M2.64743 0.401462C1.8868 0.0732326 1.0041 0.423762 0.675876 1.18439C0.347647 1.94502 0.698176 2.82772 1.45881 3.15594L48.4886 23.4504C49.3736 23.8323 50.377 23.8323 51.262 23.4504L98.2918 3.15594C99.0524 2.82772 99.403 1.94502 99.0747 1.18439C98.7465 0.423762 97.8638 0.0732326 97.1032 0.401462L50.0734 20.6959C49.947 20.7505 49.8036 20.7505 49.6772 20.6959L2.64743 0.401462ZM2.64743 15.9152C1.8868 15.5869 1.0041 15.9375 0.675876 16.6981C0.347647 17.4587 0.698176 18.3414 1.45881 18.6696L48.4886 38.9641C49.3736 39.346 50.377 39.346 51.262 38.9641L98.2918 18.6696C99.0524 18.3414 99.403 17.4587 99.0747 16.6981C98.7465 15.9375 97.8638 15.5869 97.1032 15.9152L50.0734 36.2096C49.947 36.2642 49.8036 36.2642 49.6772 36.2096L2.64743 15.9152Z" fill="#10AAB2"/>
</svg>
