<svg width="26" height="26" viewBox="0 0 26 26" fill="none" xmlns="http://www.w3.org/2000/svg">
<path fill-rule="evenodd" clip-rule="evenodd" d="M9.79995 3.27495C6.26533 3.27495 3.39995 6.14033 3.39995 9.67495C3.39995 13.2096 6.26533 16.075 9.79995 16.075C13.3346 16.075 16.2 13.2096 16.2 9.67495C16.2 6.14033 13.3346 3.27495 9.79995 3.27495ZM0.199951 9.67495C0.199951 4.37302 4.49802 0.0749512 9.79995 0.0749512C15.1019 0.0749512 19.4 4.37302 19.4 9.67495C19.4 11.7483 18.7427 13.6681 17.6251 15.2374L25.3313 22.9436C25.9562 23.5684 25.9562 24.5815 25.3313 25.2063C24.7065 25.8312 23.6934 25.8312 23.0686 25.2063L15.3624 17.5001C13.7931 18.6177 11.8733 19.275 9.79995 19.275C4.49802 19.275 0.199951 14.9769 0.199951 9.67495Z" fill="#0B4D8C"/>
</svg>
