<svg width="14" height="17" viewBox="0 0 14 17" fill="none" xmlns="http://www.w3.org/2000/svg">
<path fill-rule="evenodd" clip-rule="evenodd" d="M0 15.5C-2.41411e-08 14.9477 0.447715 14.5 1 14.5H13C13.5523 14.5 14 14.9477 14 15.5C14 16.0523 13.5523 16.5 13 16.5H1C0.447715 16.5 2.41411e-08 16.0523 0 15.5ZM3.29289 7.79289C3.68342 7.40237 4.31658 7.40237 4.70711 7.79289L6 9.08579L6 1.5C6 0.947716 6.44771 0.5 7 0.5C7.55228 0.5 8 0.947715 8 1.5L8 9.08579L9.29289 7.79289C9.68342 7.40237 10.3166 7.40237 10.7071 7.79289C11.0976 8.18342 11.0976 8.81658 10.7071 9.20711L7.70711 12.2071C7.51957 12.3946 7.26522 12.5 7 12.5C6.73478 12.5 6.48043 12.3946 6.29289 12.2071L3.29289 9.20711C2.90237 8.81658 2.90237 8.18342 3.29289 7.79289Z" fill="white"/>
</svg>
