<svg width="346" height="64" viewBox="0 0 346 64" fill="none" xmlns="http://www.w3.org/2000/svg">
<g clip-path="url(#clip0)">
<rect width="345" height="63" transform="translate(0.410156 0.5)" fill="white"/>
<path d="M245.426 57.8822C243.246 53.8289 237.864 40.2406 234.642 32.1147C232.925 27.7912 232.154 25.861 231.942 25.4364C231.266 24.1432 230.591 22.8693 229.916 21.634C229.222 20.3408 228.739 19.2213 228.489 18.3335L228.392 17.986C228.334 17.8123 228.257 17.6386 228.141 17.4842L227.91 17.1947C226.424 15.3224 219.692 15.0908 219.634 15.0908C218.978 15.0908 218.206 15.1873 217.203 15.361C216.586 15.4768 216.316 15.4962 216.239 15.5155H211.127C210.644 15.5155 210.201 15.7664 209.95 16.1717L209.352 17.1368C208.677 18.2563 207.731 19.8969 206.42 22.2131L206.323 22.4254C206.246 22.5991 198.819 39.2949 194.575 49.6791C194.073 50.9143 194.98 52.1303 197.372 53.3849C197.565 53.4814 197.797 53.5393 198.009 53.5393H207.558C208.194 53.5587 222.335 53.9833 226.289 54.0219L229.164 62.5531C229.357 63.1129 229.877 63.4989 230.475 63.4989H230.495H231.093C232.868 63.4796 235.298 63.441 239.658 63.4024L241.664 63.3831C242.166 63.3831 242.59 63.1129 242.841 62.7076C243.323 62.5338 243.767 62.3408 244.172 62.0899L245.677 61.202C246.313 60.816 246.545 60.0053 246.178 59.3684L245.426 57.8822ZM223.704 41.611C222.856 41.5531 221.987 41.5145 221.158 41.5145C220.907 41.5145 220.541 41.5145 220.174 41.6303C219.943 41.6496 219.634 41.6496 219.171 41.6689C217.319 41.7269 216.972 41.7655 216.76 41.7848C216.625 41.8041 216.547 41.8041 215.911 41.8041C214.387 41.8041 212.921 41.7848 211.493 41.7462C214.078 34.7783 215.776 30.5127 216.605 28.93C216.779 28.4474 217.03 27.8298 217.319 27.077C217.338 27.0577 217.319 27.077 217.319 27.077C217.743 27.9842 218.399 29.4511 219.287 31.1496C219.827 32.0568 220.251 32.9254 220.637 33.7939C221.524 35.5504 222.624 38.5421 223.704 41.611Z" fill="#EA5830"/>
<path d="M345.159 52.9227C345.159 52.6331 345.159 52.3243 345.159 51.9962C345.159 50.6065 345.159 49.0817 345.159 47.441C345.159 47.0357 345.179 46.476 345.159 46.1478C345.487 41.7471 345.487 36.6901 345.024 31.9034C345.024 31.4208 345.024 30.919 345.044 30.4365C345.063 28.9502 345.101 27.4447 345.14 25.8813C345.14 25.3795 345.159 24.8776 345.198 24.3758C345.333 21.3648 345.622 18.3344 344.484 16.4236C343.481 14.8988 339.931 15.9217 337.366 15.7673C336.98 15.7673 336.594 15.7673 336.189 15.7673C334.356 15.9217 332.331 15.9217 330.46 15.7673C329.9 15.7673 329.572 15.7673 329.572 15.7673C329.804 18.4502 329.804 20.4769 329.572 23.0247C329.572 23.3528 329.572 23.6809 329.572 24.0284C329.572 24.6846 329.572 25.3602 329.572 26.055C329.572 26.4603 329.572 26.8271 329.572 27.2131C329.688 29.4328 329.746 31.7876 329.746 34.1616C329.746 34.6442 329.784 41.805 329.765 42.2876C329.186 42.9824 327.913 43.3298 321.74 43.1175C321.354 43.1175 320.949 43.1175 320.544 43.1175C318.654 43.2912 314.545 43.5615 314.602 42.7894C313.078 41.7857 314.101 38.7361 313.908 36.0532C313.908 35.7251 313.908 35.3583 313.908 34.9916C313.908 31.6331 313.908 27.7342 313.908 24.3372C313.908 23.9705 313.908 23.6423 313.908 23.3142C314.101 21.0173 313.85 18.7784 313.599 16.4622C312.596 14.9374 309.548 15.9603 307.098 15.8059C306.655 15.8059 306.211 15.7866 305.767 15.748C303.105 15.6129 300.443 15.3234 298.919 16.4622C297.395 17.4659 298.417 20.5155 298.302 22.8703C298.302 23.1984 298.302 23.5458 298.302 23.9126C298.379 27.2131 298.417 30.6681 298.379 34.0651C298.379 34.5477 298.572 40.5504 298.552 41.033C298.437 45.1828 299.903 46.5532 304.417 50.0081C304.687 50.2784 304.957 50.5486 305.246 50.8381C306.539 52.1313 307.908 52.749 309.124 53.9649C309.375 54.2159 309.606 54.4475 309.838 54.6791C313.522 58.6745 313.638 58.5587 317.11 58.4429C317.438 58.4429 321.335 58.7517 321.682 58.7517C325.733 58.7517 330.73 58.7517 335.07 58.7517C335.398 58.7517 335.707 58.7517 336.015 58.7517C338.909 59.0219 342.729 58.9254 344.754 57.4006C345.757 56.8602 344.986 54.9107 345.159 52.9227Z" fill="#EA5830"/>
<path d="M33.6288 15.9215C32.6257 15.9215 31.584 15.9215 30.5615 15.9408C28.4009 15.9601 26.3754 15.9794 24.7357 15.9022H21.6298C19.2377 15.9987 15.5724 15.9408 12.0229 15.8829C9.8623 15.8443 7.75958 15.8057 6.00411 15.8057C2.06874 15.8057 0.583338 15.8057 0.42901 17.2533C0.313264 18.2183 0.293973 18.4307 11.5406 28.4095C13.4504 30.1081 15.3217 31.768 16.7878 33.0998C17.0385 33.3507 17.2893 33.756 17.5594 34.1614C17.8874 34.6825 18.2346 35.2229 18.6783 35.6669L25.2179 42.268C25.6809 42.7312 26.1246 43.1945 26.5683 43.6191C28.9604 45.6071 32.1434 49.4095 34.6898 52.4592C38.548 57.0722 39.3968 57.9794 40.4385 57.9794C40.805 57.9794 41.2294 57.7864 41.4802 57.5161C42.1554 56.7634 42.3869 54.9297 42.4834 44.2946C42.5027 42.9242 42.5027 41.6503 42.5412 40.5888C42.5219 39.6623 42.5219 38.7744 42.5412 37.9831V36.9022L42.5027 34.1614C42.4448 28.8921 42.6377 27.1356 43.1971 22.4454C43.4479 20.3608 42.7534 18.3149 42.3097 17.4463C41.7117 16.2689 39.8405 15.9215 33.6288 15.9215Z" fill="#EA5830"/>
<path d="M281.614 54.8136C281.46 53.2887 281.209 52.3623 280.766 51.6481L280.013 50.4321C279.685 49.8917 279.087 49.5636 278.451 49.5636L275.306 49.5443C270.445 49.525 266.008 49.5057 261.976 49.4864C262.015 46.4174 262.034 43.8889 262.034 41.9395V33.7943C262.034 30.4744 261.976 25.3788 261.86 18.6812L261.841 17.3301C261.822 16.6546 261.359 16.0948 260.703 15.9597L259.044 15.6316C258.542 15.5351 257.732 15.4193 255.533 15.3614C255.051 15.3614 254.819 15.3227 254.819 15.3227C254.588 15.2455 254.356 15.2455 254.125 15.2841L251.771 15.7088C251.656 15.7281 251.54 15.7667 251.443 15.8246L250.479 16.2685C250.17 16.4036 249.919 16.6546 249.784 16.9827C248.762 19.2602 248.26 22.1169 248.26 25.6876C248.26 27.7915 248.318 30.8797 248.434 34.8751C248.55 38.9091 248.608 41.9588 248.608 43.9854C248.608 48.8301 248.472 53.0378 248.202 56.4735L248.145 57.1683C248.145 57.2262 248.145 57.3034 248.145 57.3614L248.28 59.5038C248.299 59.9091 248.511 60.2952 248.839 60.5461C249.09 60.7391 249.398 60.8356 249.707 60.8356C249.804 60.8356 249.9 60.8356 249.996 60.8163L253.257 60.1408C253.392 60.1601 253.623 60.1987 254.009 60.2759C255.07 60.4882 255.88 60.604 256.594 60.604C256.652 60.604 256.71 60.5847 256.787 60.5847C257.115 60.9514 257.597 61.183 258.118 61.183H259.275C267.165 61.183 273.396 60.8356 278.316 60.1408C278.605 60.1022 278.875 59.9864 279.107 59.8319L280.129 59.1371C280.36 58.9827 280.534 58.7704 280.669 58.5387L281.672 56.8016C281.827 56.5121 281.923 56.2033 281.923 55.8751C281.923 55.547 281.827 55.2189 281.672 54.9487C281.614 54.8715 281.614 54.8329 281.614 54.8136Z" fill="#EA5830"/>
<path d="M192.451 55.5667C192.277 55.0456 192.065 54.0033 192.065 51.9573C192.065 50.8378 192.161 48.8305 192.335 46.0125C192.431 44.4684 192.47 42.075 192.47 38.9095C192.47 36.4003 192.412 21.654 192.296 16.8865L192.277 16.4233C192.258 15.7478 191.698 15.188 191.023 15.188H182.651C181.956 15.188 181.397 15.7478 181.397 16.4426L181.339 20.8047C181.281 26.2285 181.204 33.7367 181.088 38.2533C176.015 32.347 172.022 27.7147 169.205 24.5106C168.53 23.6614 168.009 23.0051 167.623 22.484L167.43 22.2524C166.774 21.5575 166.273 21.0171 166.003 20.7082L163.649 17.5428C162.145 15.7478 160.929 14.7248 159.695 14.2229C159 13.9527 158.209 13.8369 157.36 13.8369C156.917 13.8369 156.299 13.8755 155.489 13.9527C154.795 14.0106 154.409 14.0299 154.216 14.0299H152.673C152.036 14.0299 151.496 14.4932 151.419 15.1301L151.226 16.6549C150.724 20.5345 150.454 25.3792 150.454 31.0345C150.454 32.8682 150.493 35.609 150.551 39.1604C150.628 42.7891 150.647 45.3948 150.647 47.1127C150.647 47.7496 150.647 48.3673 150.628 48.9849C147.753 48.9656 142.854 48.8884 139.555 48.7533C135.349 48.5989 132.128 48.5217 130.006 48.5217C129.099 48.5217 128.27 48.5217 127.537 48.541L127.401 40.9748C128.713 40.8783 130.797 40.7818 134.095 40.7818C135.619 40.7818 137.182 40.7046 138.745 40.5695L140.346 40.415C141.002 40.3571 141.484 39.8167 141.484 39.1604V33.0226C141.484 32.5014 141.156 32.0189 140.654 31.8452L139.497 31.4206C137.973 30.8608 136.14 30.552 134.018 30.4941C133.864 30.4941 133.768 30.5134 133.652 30.552C133.15 30.552 131.993 30.5713 129.369 30.5713C128.598 30.5713 127.903 30.552 127.286 30.4941C127.286 30.359 127.305 30.2046 127.324 30.0502V25.8231C127.537 25.9389 127.749 26.0354 128.019 26.0354H128.675C133.169 26.0354 136.719 25.688 139.555 24.9546C139.844 24.8774 140.095 24.7229 140.288 24.4913L140.847 23.7965C140.963 23.6614 141.04 23.507 141.079 23.3525L141.638 21.6154C141.754 21.2487 141.773 20.9785 141.58 20.6503C141.58 20.6503 141.561 20.5538 141.561 20.2836C141.542 18.5658 141.387 17.9288 141.233 17.4849L140.809 16.2689C140.616 15.7092 140.095 15.3424 139.516 15.3424L137.761 15.3231C134.115 15.2845 130.932 15.2652 128.096 15.2459C127.729 15.2459 127.382 15.381 127.131 15.6513C127.131 15.6513 127.131 15.6513 127.131 15.6706C126.919 15.4003 126.611 15.2073 126.244 15.188C125.183 15.1108 124.218 15.0143 123.37 14.8985L122.598 14.7827C122.251 14.7441 121.884 14.8406 121.614 15.0722L121.479 15.188C121.421 15.188 121.363 15.1687 121.306 15.1687C120.765 15.1108 120.399 15.0722 120.109 15.0722C117.64 15.0722 115.885 16.7707 115.885 19.2413C115.885 19.3378 115.904 19.4343 115.923 19.5308L116.02 19.9362C116.058 20.1485 116.136 20.6889 116.328 22.1172C116.541 23.7386 116.637 25.4371 116.637 27.1935C116.637 28.4288 116.579 30.3783 116.463 32.9647C116.348 35.6283 116.29 37.6549 116.29 38.9867C116.29 39.7588 116.328 40.859 116.425 42.3452C116.502 43.6577 116.56 44.6614 116.56 45.3176C116.56 45.8388 116.502 46.9003 116.251 48.9849C116.02 50.915 115.885 52.3627 115.885 53.4049C115.885 54.6981 116.058 55.9913 116.386 57.2652L116.753 58.6742C116.907 59.234 117.409 59.62 117.968 59.62C117.987 59.62 118.026 59.62 118.045 59.62L119.492 59.5235C122.347 59.3498 125.183 59.2533 127.903 59.2533C130.083 59.2533 133.362 59.2919 137.896 59.3884C142.313 59.4849 149.007 59.5235 151.361 59.5235H157.534C157.727 59.5235 157.92 59.4656 158.093 59.3691L159.772 59.4077C160.312 59.3884 160.833 59.0796 161.006 58.5391L161.411 57.3038C161.604 56.7055 161.701 56.2229 161.701 55.7404C161.701 55.3737 161.662 54.9877 161.547 54.5437C161.469 52.0152 161.431 46.4757 161.431 38.0603C161.431 37.1917 161.527 35.802 161.72 33.9297C161.778 33.37 161.836 32.8296 161.874 32.347C164.363 35.2809 167.257 39.006 170.478 43.4647C175.783 50.8571 179.68 55.9913 182.072 58.7514L182.554 59.3112C182.767 59.5621 183.075 59.7165 183.423 59.7358L184.156 59.7937C185.506 59.8902 186.509 59.9288 187.204 59.9288C188.457 59.9288 189.596 59.7551 190.579 59.4463L192.258 58.8866C192.566 58.79 192.837 58.5584 192.991 58.2496C193.145 57.9408 193.164 57.5934 193.068 57.2845L192.451 55.5667Z" fill="#EA5830"/>
<path d="M104.004 33.6404L103.734 33.5053C102.557 32.9263 99.7794 31.5944 95.3618 31.3821C90.2304 31.1312 87.5875 30.2433 86.758 28.5448C86.7773 28.4869 86.9123 28.2553 87.3367 27.9079C89.2272 26.4603 91.6965 25.7654 94.8795 25.7654C97.7924 25.7654 105.682 26.0742 107.804 26.5954C108.171 26.6919 108.557 26.5954 108.865 26.3638C109.155 26.1321 109.348 25.7654 109.348 25.3987V16.713C109.348 16.134 108.943 15.6321 108.364 15.497C106.512 15.111 101.303 14.8601 95.9598 14.6478L95.0145 14.6092C90.2497 14.4354 85.3883 16.2305 80.6235 19.9557C79.5046 20.8435 78.7908 21.4612 78.2893 22.0016C76.8424 23.6036 76.1094 25.6882 76.1094 28.2167C76.1094 28.7378 76.1865 29.838 76.8424 33.5632L76.9003 33.9492C76.9389 34.1422 77.016 34.3353 77.1511 34.4897L77.4019 34.7985C79.3503 37.327 82.4175 39.315 86.5072 40.6854C88.3784 41.3031 88.6292 41.361 88.88 41.4189L89.2851 41.4768C90.8477 41.5733 92.1016 41.6312 93.1047 41.6312C93.452 41.6312 93.7799 41.6312 93.9921 41.6119C95.2267 41.6312 97.5609 42.1138 99.2393 42.577C99.7601 42.7121 100.069 43.5228 100.242 44.179C100.32 44.4685 100.377 44.6808 100.416 44.8353C100.397 44.8546 100.377 44.8932 100.358 44.9318C100.339 44.9511 100.262 45.1248 100.262 45.1441C99.7601 46.3794 98.3905 47.4217 96.1527 48.2516C94.4551 48.8886 91.7929 49.2553 88.6678 49.2553C85.2726 49.2553 82.4947 48.8886 80.6235 48.213C80.2376 48.0779 79.8132 48.1358 79.4853 48.3674C79.1574 48.599 78.9644 48.9851 78.9644 49.3711V57.69C78.9644 58.2305 79.3117 58.713 79.8325 58.8674C81.453 59.3693 85.3498 59.543 88.4556 59.543C93.2205 59.543 97.5802 59.1569 100.416 58.5007C103.059 57.9024 106.319 56.0494 108.306 53.9842C110.254 51.9768 111.47 49.7571 111.933 47.5375C112.068 47.1514 112.126 46.7654 112.126 46.3215C112.145 40.5117 109.425 36.2461 104.004 33.6404Z" fill="#EA5830"/>
<path d="M169.495 9.35938C169.784 9.6682 170.189 9.84191 170.614 9.84191H171.713C173.758 9.84191 175.687 9.86121 177.481 9.88052C179.083 9.89982 180.607 9.91912 182.034 9.91912C185.256 9.91912 187.474 9.82261 189.423 9.59099C189.789 9.55239 190.136 9.35938 190.406 9.08915L191.41 7.98897C191.448 7.93107 191.506 7.89246 191.545 7.83456L192.49 6.48346C192.856 5.94301 192.856 5.26746 192.528 4.74632C192.374 3.51103 192.123 2.73897 191.68 2.15993L190.966 1.21415C190.676 0.828125 190.214 0.596507 189.712 0.577206L186.76 0.557904C183.037 0.538603 177.308 0.519301 172.35 0.519301L164.576 0.5C163.939 0.5 163.38 0.886029 163.129 1.46507C162.878 2.04412 163.013 2.71967 163.457 3.1829L169.495 9.35938Z" fill="#EA5830"/>
</g>
<defs>
<clipPath id="clip0">
<rect width="345" height="63" fill="white" transform="translate(0.410156 0.5)"/>
</clipPath>
</defs>
</svg>
