<svg width="345" height="63" viewBox="0 0 345 63" fill="none" xmlns="http://www.w3.org/2000/svg">
<path d="M245.018 57.3822C242.838 53.3289 237.456 39.7406 234.234 31.6147C232.517 27.2912 231.746 25.361 231.533 24.9364C230.858 23.6432 230.183 22.3693 229.508 21.134C228.813 19.8408 228.331 18.7213 228.08 17.8335L227.984 17.486C227.926 17.3123 227.849 17.1386 227.733 16.9842L227.502 16.6947C226.016 14.8224 219.284 14.5908 219.226 14.5908C218.57 14.5908 217.798 14.6873 216.795 14.861C216.178 14.9768 215.908 14.9962 215.831 15.0155H210.718C210.236 15.0155 209.792 15.2664 209.542 15.6717L208.944 16.6368C208.268 17.7563 207.323 19.3969 206.011 21.7131L205.915 21.9254C205.838 22.0991 198.411 38.7949 194.167 49.1791C193.665 50.4143 194.572 51.6303 196.964 52.8849C197.157 52.9814 197.388 53.0393 197.601 53.0393H207.15C207.786 53.0587 221.926 53.4833 225.881 53.5219L228.755 62.0531C228.948 62.6129 229.469 62.9989 230.067 62.9989H230.087H230.685C232.459 62.9796 234.89 62.941 239.25 62.9024L241.256 62.8831C241.758 62.8831 242.182 62.6129 242.433 62.2076C242.915 62.0338 243.359 61.8408 243.764 61.5899L245.269 60.702C245.905 60.316 246.137 59.5053 245.77 58.8684L245.018 57.3822ZM223.296 41.111C222.447 41.0531 221.579 41.0145 220.75 41.0145C220.499 41.0145 220.132 41.0145 219.766 41.1303C219.534 41.1496 219.226 41.1496 218.763 41.1689C216.911 41.2269 216.564 41.2655 216.351 41.2848C216.216 41.3041 216.139 41.3041 215.503 41.3041C213.979 41.3041 212.512 41.2848 211.085 41.2462C213.67 34.2783 215.368 30.0127 216.197 28.43C216.371 27.9474 216.621 27.3298 216.911 26.577C216.93 26.5577 216.911 26.577 216.911 26.577C217.335 27.4842 217.991 28.9511 218.879 30.6496C219.419 31.5568 219.843 32.4254 220.229 33.2939C221.116 35.0504 222.216 38.0421 223.296 41.111Z" fill="white"/>
<path d="M344.751 52.4227C344.751 52.1331 344.751 51.8243 344.751 51.4962C344.751 50.1065 344.751 48.5817 344.751 46.941C344.751 46.5357 344.77 45.976 344.751 45.6478C345.079 41.2471 345.079 36.1901 344.616 31.4034C344.616 30.9208 344.616 30.419 344.635 29.9365C344.655 28.4502 344.693 26.9447 344.732 25.3813C344.732 24.8795 344.751 24.3776 344.79 23.8758C344.925 20.8648 345.214 17.8344 344.076 15.9236C343.073 14.3988 339.523 15.4217 336.958 15.2673C336.572 15.2673 336.186 15.2673 335.781 15.2673C333.948 15.4217 331.923 15.4217 330.051 15.2673C329.492 15.2673 329.164 15.2673 329.164 15.2673C329.396 17.9502 329.396 19.9769 329.164 22.5247C329.164 22.8528 329.164 23.1809 329.164 23.5284C329.164 24.1846 329.164 24.8602 329.164 25.555C329.164 25.9603 329.164 26.3271 329.164 26.7131C329.28 28.9328 329.338 31.2876 329.338 33.6616C329.338 34.1442 329.376 41.305 329.357 41.7876C328.778 42.4824 327.505 42.8298 321.332 42.6175C320.946 42.6175 320.541 42.6175 320.136 42.6175C318.245 42.7912 314.136 43.0615 314.194 42.2894C312.67 41.2857 313.693 38.2361 313.5 35.5532C313.5 35.2251 313.5 34.8583 313.5 34.4916C313.5 31.1331 313.5 27.2342 313.5 23.8372C313.5 23.4705 313.5 23.1423 313.5 22.8142C313.693 20.5173 313.442 18.2784 313.191 15.9622C312.188 14.4374 309.14 15.4603 306.69 15.3059C306.246 15.3059 305.803 15.2866 305.359 15.248C302.697 15.1129 300.035 14.8234 298.511 15.9622C296.987 16.9659 298.009 20.0155 297.893 22.3703C297.893 22.6984 297.893 23.0458 297.893 23.4126C297.97 26.7131 298.009 30.1681 297.971 33.5651C297.971 34.0477 298.163 40.0504 298.144 40.533C298.028 44.6828 299.494 46.0532 304.009 49.5081C304.279 49.7784 304.549 50.0486 304.838 50.3381C306.131 51.6313 307.5 52.249 308.716 53.4649C308.966 53.7159 309.198 53.9475 309.429 54.1791C313.114 58.1745 313.23 58.0587 316.702 57.9429C317.03 57.9429 320.927 58.2517 321.274 58.2517C325.325 58.2517 330.321 58.2517 334.662 58.2517C334.99 58.2517 335.299 58.2517 335.607 58.2517C338.501 58.5219 342.32 58.4254 344.346 56.9006C345.349 56.3602 344.578 54.4107 344.751 52.4227Z" fill="white"/>
<path d="M33.2206 15.4215C32.2175 15.4215 31.1757 15.4215 30.1533 15.4408C27.9927 15.4601 25.9672 15.4794 24.3274 15.4022H21.2216C18.8295 15.4987 15.1642 15.4408 11.6147 15.3829C9.4541 15.3443 7.35138 15.3057 5.5959 15.3057C1.66054 15.3057 0.175135 15.3057 0.0208071 16.7533C-0.0949388 17.7183 -0.11423 17.9307 11.1324 27.9095C13.0422 29.6081 14.9134 31.268 16.3796 32.5998C16.6303 32.8507 16.8811 33.256 17.1512 33.6614C17.4792 34.1825 17.8264 34.7229 18.2701 35.1669L24.8097 41.768C25.2727 42.2312 25.7164 42.6945 26.1601 43.1191C28.5522 45.1071 31.7352 48.9095 34.2816 51.9592C38.1398 56.5722 38.9886 57.4794 40.0303 57.4794C40.3968 57.4794 40.8212 57.2864 41.072 57.0161C41.7472 56.2634 41.9787 54.4297 42.0752 43.7946C42.0944 42.4242 42.0944 41.1503 42.133 40.0888C42.1137 39.1623 42.1137 38.2744 42.133 37.4831V36.4022L42.0944 33.6614C42.0366 28.3921 42.2295 26.6356 42.7889 21.9454C43.0397 19.8608 42.3452 17.8149 41.9015 16.9463C41.3035 15.7689 39.4323 15.4215 33.2206 15.4215Z" fill="white"/>
<path d="M281.206 54.3136C281.052 52.7887 280.801 51.8623 280.357 51.1481L279.605 49.9321C279.277 49.3917 278.679 49.0636 278.042 49.0636L274.898 49.0443C270.037 49.025 265.6 49.0057 261.568 48.9864C261.607 45.9174 261.626 43.3889 261.626 41.4395V33.2943C261.626 29.9744 261.568 24.8788 261.452 18.1812L261.433 16.8301C261.414 16.1546 260.951 15.5948 260.295 15.4597L258.636 15.1316C258.134 15.0351 257.324 14.9193 255.125 14.8614C254.643 14.8614 254.411 14.8227 254.411 14.8227C254.18 14.7455 253.948 14.7455 253.717 14.7841L251.363 15.2088C251.247 15.2281 251.132 15.2667 251.035 15.3246L250.071 15.7685C249.762 15.9036 249.511 16.1546 249.376 16.4827C248.354 18.7602 247.852 21.6169 247.852 25.1876C247.852 27.2915 247.91 30.3797 248.026 34.3751C248.141 38.4091 248.199 41.4588 248.199 43.4854C248.199 48.3301 248.064 52.5378 247.794 55.9735L247.736 56.6683C247.736 56.7262 247.736 56.8034 247.736 56.8614L247.871 59.0038C247.891 59.4091 248.103 59.7952 248.431 60.0461C248.682 60.2391 248.99 60.3356 249.299 60.3356C249.395 60.3356 249.492 60.3356 249.588 60.3163L252.848 59.6408C252.983 59.6601 253.215 59.6987 253.601 59.7759C254.662 59.9882 255.472 60.104 256.186 60.104C256.244 60.104 256.302 60.0847 256.379 60.0847C256.707 60.4514 257.189 60.683 257.71 60.683H258.867C266.757 60.683 272.988 60.3356 277.907 59.6408C278.197 59.6022 278.467 59.4864 278.698 59.3319L279.721 58.6371C279.952 58.4827 280.126 58.2704 280.261 58.0387L281.264 56.3016C281.418 56.0121 281.515 55.7033 281.515 55.3751C281.515 55.047 281.418 54.7189 281.264 54.4487C281.206 54.3715 281.206 54.3329 281.206 54.3136Z" fill="white"/>
<path d="M192.042 55.0667C191.869 54.5456 191.657 53.5033 191.657 51.4573C191.657 50.3378 191.753 48.3305 191.927 45.5125C192.023 43.9684 192.062 41.575 192.062 38.4095C192.062 35.9003 192.004 21.154 191.888 16.3865L191.869 15.9233C191.85 15.2478 191.29 14.688 190.615 14.688H182.243C181.548 14.688 180.989 15.2478 180.989 15.9426L180.931 20.3047C180.873 25.7285 180.796 33.2367 180.68 37.7533C175.607 31.847 171.613 27.2147 168.797 24.0106C168.122 23.1614 167.601 22.5051 167.215 21.984L167.022 21.7524C166.366 21.0575 165.865 20.5171 165.595 20.2082L163.241 17.0428C161.736 15.2478 160.521 14.2248 159.286 13.7229C158.592 13.4527 157.801 13.3369 156.952 13.3369C156.508 13.3369 155.891 13.3755 155.081 13.4527C154.386 13.5106 154.001 13.5299 153.808 13.5299H152.264C151.628 13.5299 151.088 13.9932 151.011 14.6301L150.818 16.1549C150.316 20.0345 150.046 24.8792 150.046 30.5345C150.046 32.3682 150.085 35.109 150.142 38.6604C150.22 42.2891 150.239 44.8948 150.239 46.6127C150.239 47.2496 150.239 47.8673 150.22 48.4849C147.345 48.4656 142.445 48.3884 139.147 48.2533C134.941 48.0989 131.72 48.0217 129.598 48.0217C128.691 48.0217 127.861 48.0217 127.128 48.041L126.993 40.4748C128.305 40.3783 130.388 40.2818 133.687 40.2818C135.211 40.2818 136.774 40.2046 138.336 40.0695L139.938 39.915C140.593 39.8571 141.076 39.3167 141.076 38.6604V32.5226C141.076 32.0014 140.748 31.5189 140.246 31.3452L139.089 30.9206C137.565 30.3608 135.732 30.052 133.61 29.9941C133.456 29.9941 133.359 30.0134 133.244 30.052C132.742 30.052 131.585 30.0713 128.961 30.0713C128.189 30.0713 127.495 30.052 126.878 29.9941C126.878 29.859 126.897 29.7046 126.916 29.5502V25.3231C127.128 25.4389 127.341 25.5354 127.611 25.5354H128.266C132.761 25.5354 136.311 25.188 139.147 24.4546C139.436 24.3774 139.687 24.2229 139.88 23.9913L140.439 23.2965C140.555 23.1614 140.632 23.007 140.671 22.8525L141.23 21.1154C141.346 20.7487 141.365 20.4785 141.172 20.1503C141.172 20.1503 141.153 20.0538 141.153 19.7836C141.134 18.0658 140.979 17.4288 140.825 16.9849L140.401 15.7689C140.208 15.2092 139.687 14.8424 139.108 14.8424L137.353 14.8231C133.707 14.7845 130.524 14.7652 127.688 14.7459C127.321 14.7459 126.974 14.881 126.723 15.1513C126.723 15.1513 126.723 15.1513 126.723 15.1706C126.511 14.9003 126.202 14.7073 125.836 14.688C124.775 14.6108 123.81 14.5143 122.961 14.3985L122.19 14.2827C121.843 14.2441 121.476 14.3406 121.206 14.5722L121.071 14.688C121.013 14.688 120.955 14.6687 120.897 14.6687C120.357 14.6108 119.991 14.5722 119.701 14.5722C117.232 14.5722 115.477 16.2707 115.477 18.7413C115.477 18.8378 115.496 18.9343 115.515 19.0308L115.612 19.4362C115.65 19.6485 115.727 20.1889 115.92 21.6172C116.132 23.2386 116.229 24.9371 116.229 26.6935C116.229 27.9288 116.171 29.8783 116.055 32.4647C115.94 35.1283 115.882 37.1549 115.882 38.4867C115.882 39.2588 115.92 40.359 116.017 41.8452C116.094 43.1577 116.152 44.1614 116.152 44.8176C116.152 45.3388 116.094 46.4003 115.843 48.4849C115.612 50.415 115.477 51.8627 115.477 52.9049C115.477 54.1981 115.65 55.4913 115.978 56.7652L116.345 58.1742C116.499 58.734 117.001 59.12 117.56 59.12C117.579 59.12 117.618 59.12 117.637 59.12L119.084 59.0235C121.939 58.8498 124.775 58.7533 127.495 58.7533C129.675 58.7533 132.954 58.7919 137.488 58.8884C141.905 58.9849 148.599 59.0235 150.953 59.0235H157.126C157.319 59.0235 157.512 58.9656 157.685 58.8691L159.364 58.9077C159.904 58.8884 160.425 58.5796 160.598 58.0391L161.003 56.8038C161.196 56.2055 161.293 55.7229 161.293 55.2404C161.293 54.8737 161.254 54.4877 161.138 54.0437C161.061 51.5152 161.023 45.9757 161.023 37.5603C161.023 36.6917 161.119 35.302 161.312 33.4297C161.37 32.87 161.428 32.3296 161.466 31.847C163.955 34.7809 166.848 38.506 170.07 42.9647C175.375 50.3571 179.272 55.4913 181.664 58.2514L182.146 58.8112C182.358 59.0621 182.667 59.2165 183.014 59.2358L183.747 59.2937C185.098 59.3902 186.101 59.4288 186.795 59.4288C188.049 59.4288 189.187 59.2551 190.171 58.9463L191.85 58.3866C192.158 58.29 192.428 58.0584 192.583 57.7496C192.737 57.4408 192.756 57.0934 192.66 56.7845L192.042 55.0667Z" fill="white"/>
<path d="M103.595 33.1404L103.325 33.0053C102.148 32.4263 99.3702 31.0944 94.9526 30.8821C89.8212 30.6312 87.1783 29.7433 86.3488 28.0448C86.3681 27.9869 86.5031 27.7553 86.9275 27.4079C88.8181 25.9603 91.2873 25.2654 94.4703 25.2654C97.3833 25.2654 105.273 25.5742 107.395 26.0954C107.762 26.1919 108.148 26.0954 108.456 25.8638C108.746 25.6321 108.939 25.2654 108.939 24.8987V16.213C108.939 15.634 108.533 15.1321 107.955 14.997C106.103 14.611 100.894 14.3601 95.5506 14.1478L94.6054 14.1092C89.8405 13.9354 84.9792 15.7305 80.2143 19.4557C79.0954 20.3435 78.3816 20.9612 77.8801 21.5016C76.4332 23.1036 75.7002 25.1882 75.7002 27.7167C75.7002 28.2378 75.7774 29.338 76.4332 33.0632L76.4911 33.4492C76.5297 33.6422 76.6069 33.8353 76.7419 33.9897L76.9927 34.2985C78.9411 36.827 82.0083 38.815 86.098 40.1854C87.9693 40.8031 88.22 40.861 88.4708 40.9189L88.8759 40.9768C90.4385 41.0733 91.6924 41.1312 92.6955 41.1312C93.0428 41.1312 93.3707 41.1312 93.5829 41.1119C94.8176 41.1312 97.1518 41.6138 98.8301 42.077C99.3509 42.2121 99.6596 43.0228 99.8332 43.679C99.9104 43.9685 99.9683 44.1808 100.007 44.3353C99.9875 44.3546 99.9683 44.3932 99.949 44.4318C99.9297 44.4511 99.8525 44.6248 99.8525 44.6441C99.3509 45.8794 97.9813 46.9217 95.7435 47.7516C94.0459 48.3886 91.3838 48.7553 88.2586 48.7553C84.8634 48.7553 82.0855 48.3886 80.2143 47.713C79.8285 47.5779 79.4041 47.6358 79.0761 47.8674C78.7482 48.099 78.5553 48.4851 78.5553 48.8711V57.19C78.5553 57.7305 78.9025 58.213 79.4233 58.3674C81.0438 58.8693 84.9406 59.043 88.0464 59.043C92.8113 59.043 97.1711 58.6569 100.007 58.0007C102.65 57.4024 105.91 55.5494 107.897 53.4842C109.845 51.4768 111.061 49.2571 111.524 47.0375C111.659 46.6514 111.716 46.2654 111.716 45.8215C111.736 40.0117 109.016 35.7461 103.595 33.1404Z" fill="white"/>
<path d="M169.088 8.85938C169.377 9.1682 169.782 9.34191 170.207 9.34191H171.306C173.351 9.34191 175.28 9.36121 177.074 9.38052C178.675 9.39982 180.199 9.41912 181.627 9.41912C184.848 9.41912 187.067 9.32261 189.015 9.09099C189.382 9.05239 189.729 8.85938 189.999 8.58915L191.002 7.48897C191.041 7.43107 191.099 7.39246 191.137 7.33456L192.083 5.98346C192.449 5.44301 192.449 4.76746 192.121 4.24632C191.967 3.01103 191.716 2.23897 191.272 1.65993L190.559 0.714154C190.269 0.328125 189.806 0.0965073 189.305 0.0772059L186.353 0.0579044C182.63 0.0386029 176.901 0.0193015 171.943 0.0193015L164.169 0C163.532 0 162.973 0.386029 162.722 0.965074C162.471 1.54412 162.606 2.21967 163.05 2.6829L169.088 8.85938Z" fill="white"/>
</svg>
