<svg width="365" height="83" viewBox="0 0 365 83" fill="none" xmlns="http://www.w3.org/2000/svg">
<g clip-path="url(#clip0)">
<rect width="345" height="63" transform="translate(10 10)" fill="white"/>
<path d="M255.016 67.3822C252.836 63.3289 247.454 49.7406 244.232 41.6147C242.515 37.2912 241.744 35.361 241.531 34.9364C240.856 33.6432 240.181 32.3693 239.506 31.134C238.811 29.8408 238.329 28.7213 238.078 27.8335L237.982 27.486C237.924 27.3123 237.847 27.1386 237.731 26.9842L237.5 26.6947C236.014 24.8224 229.282 24.5908 229.224 24.5908C228.568 24.5908 227.796 24.6873 226.793 24.861C226.176 24.9768 225.906 24.9962 225.829 25.0155H220.716C220.234 25.0155 219.791 25.2664 219.54 25.6717L218.942 26.6368C218.267 27.7563 217.321 29.3969 216.009 31.7131L215.913 31.9254C215.836 32.0991 208.409 48.7949 204.165 59.1791C203.663 60.4143 204.57 61.6303 206.962 62.8849C207.155 62.9814 207.386 63.0393 207.599 63.0393H217.148C217.784 63.0587 231.925 63.4833 235.879 63.5219L238.754 72.0531C238.946 72.6129 239.467 72.9989 240.065 72.9989H240.085H240.683C242.457 72.9796 244.888 72.941 249.248 72.9024L251.254 72.8831C251.756 72.8831 252.18 72.6129 252.431 72.2076C252.913 72.0338 253.357 71.8408 253.762 71.5899L255.267 70.702C255.903 70.316 256.135 69.5053 255.768 68.8684L255.016 67.3822ZM233.294 51.111C232.445 51.0531 231.577 51.0145 230.748 51.0145C230.497 51.0145 230.13 51.0145 229.764 51.1303C229.532 51.1496 229.224 51.1496 228.761 51.1689C226.909 51.2269 226.562 51.2655 226.349 51.2848C226.214 51.3041 226.137 51.3041 225.501 51.3041C223.977 51.3041 222.511 51.2848 221.083 51.2462C223.668 44.2783 225.366 40.0127 226.195 38.43C226.369 37.9474 226.62 37.3298 226.909 36.577C226.928 36.5577 226.909 36.577 226.909 36.577C227.333 37.4842 227.989 38.9511 228.877 40.6496C229.417 41.5568 229.841 42.4254 230.227 43.2939C231.114 45.0504 232.214 48.0421 233.294 51.111Z" fill="#282827"/>
<path d="M354.749 62.4227C354.749 62.1331 354.749 61.8243 354.749 61.4962C354.749 60.1065 354.749 58.5817 354.749 56.941C354.749 56.5357 354.768 55.976 354.749 55.6478C355.077 51.2471 355.077 46.1901 354.614 41.4034C354.614 40.9208 354.614 40.419 354.633 39.9365C354.653 38.4502 354.691 36.9447 354.73 35.3813C354.73 34.8795 354.749 34.3776 354.788 33.8758C354.923 30.8648 355.212 27.8344 354.074 25.9236C353.071 24.3988 349.521 25.4217 346.956 25.2673C346.57 25.2673 346.184 25.2673 345.779 25.2673C343.946 25.4217 341.921 25.4217 340.049 25.2673C339.49 25.2673 339.162 25.2673 339.162 25.2673C339.394 27.9502 339.394 29.9769 339.162 32.5247C339.162 32.8528 339.162 33.1809 339.162 33.5284C339.162 34.1846 339.162 34.8602 339.162 35.555C339.162 35.9603 339.162 36.3271 339.162 36.7131C339.278 38.9328 339.336 41.2876 339.336 43.6616C339.336 44.1442 339.374 51.305 339.355 51.7876C338.776 52.4824 337.503 52.8298 331.33 52.6175C330.944 52.6175 330.539 52.6175 330.134 52.6175C328.243 52.7912 324.134 53.0615 324.192 52.2894C322.668 51.2857 323.691 48.2361 323.498 45.5532C323.498 45.2251 323.498 44.8583 323.498 44.4916C323.498 41.1331 323.498 37.2342 323.498 33.8372C323.498 33.4705 323.498 33.1423 323.498 32.8142C323.691 30.5173 323.44 28.2784 323.189 25.9622C322.186 24.4374 319.138 25.4603 316.688 25.3059C316.244 25.3059 315.801 25.2866 315.357 25.248C312.695 25.1129 310.033 24.8234 308.509 25.9622C306.985 26.9659 308.007 30.0155 307.891 32.3703C307.891 32.6984 307.891 33.0458 307.891 33.4126C307.969 36.7131 308.007 40.1681 307.969 43.5651C307.969 44.0477 308.161 50.0504 308.142 50.533C308.026 54.6828 309.493 56.0532 314.007 59.5081C314.277 59.7784 314.547 60.0486 314.836 60.3381C316.129 61.6313 317.498 62.249 318.714 63.4649C318.964 63.7159 319.196 63.9475 319.427 64.1791C323.112 68.1745 323.228 68.0587 326.7 67.9429C327.028 67.9429 330.925 68.2517 331.272 68.2517C335.323 68.2517 340.32 68.2517 344.66 68.2517C344.988 68.2517 345.297 68.2517 345.605 68.2517C348.499 68.5219 352.319 68.4254 354.344 66.9006C355.347 66.3602 354.576 64.4107 354.749 62.4227Z" fill="#282827"/>
<path d="M43.2186 25.4215C42.2155 25.4215 41.1738 25.4215 40.1514 25.4408C37.9908 25.4601 35.9652 25.4794 34.3255 25.4022H31.2196C28.8276 25.4987 25.1623 25.4408 21.6127 25.3829C19.4521 25.3443 17.3494 25.3057 15.5939 25.3057C11.6586 25.3057 10.1732 25.3057 10.0189 26.7533C9.90311 27.7183 9.88382 27.9307 21.1305 37.9095C23.0403 39.6081 24.9115 41.268 26.3776 42.5998C26.6284 42.8507 26.8792 43.256 27.1493 43.6614C27.4772 44.1825 27.8244 44.7229 28.2681 45.1669L34.8078 51.768C35.2708 52.2312 35.7144 52.6945 36.1581 53.1191C38.5502 55.1071 41.7332 58.9095 44.2796 61.9592C48.1378 66.5722 48.9866 67.4794 50.0284 67.4794C50.3949 67.4794 50.8193 67.2864 51.0701 67.0161C51.7453 66.2634 51.9767 64.4297 52.0732 53.7946C52.0925 52.4242 52.0925 51.1503 52.1311 50.0888C52.1118 49.1623 52.1118 48.2744 52.1311 47.4831V46.4022L52.0925 43.6614C52.0346 38.3921 52.2275 36.6356 52.787 31.9454C53.0378 29.8608 52.3433 27.8149 51.8996 26.9463C51.3016 25.7689 49.4303 25.4215 43.2186 25.4215Z" fill="#282827"/>
<path d="M291.204 64.3136C291.05 62.7887 290.799 61.8623 290.355 61.1481L289.603 59.9321C289.275 59.3917 288.677 59.0636 288.041 59.0636L284.896 59.0443C280.035 59.025 275.598 59.0057 271.566 58.9864C271.605 55.9174 271.624 53.3889 271.624 51.4395V43.2943C271.624 39.9744 271.566 34.8788 271.45 28.1812L271.431 26.8301C271.412 26.1546 270.949 25.5948 270.293 25.4597L268.634 25.1316C268.132 25.0351 267.322 24.9193 265.123 24.8614C264.641 24.8614 264.409 24.8227 264.409 24.8227C264.178 24.7455 263.946 24.7455 263.715 24.7841L261.361 25.2088C261.245 25.2281 261.13 25.2667 261.033 25.3246L260.069 25.7685C259.76 25.9036 259.509 26.1546 259.374 26.4827C258.352 28.7602 257.85 31.6169 257.85 35.1876C257.85 37.2915 257.908 40.3797 258.024 44.3751C258.14 48.4091 258.197 51.4588 258.197 53.4854C258.197 58.3301 258.062 62.5378 257.792 65.9735L257.734 66.6683C257.734 66.7262 257.734 66.8034 257.734 66.8614L257.869 69.0038C257.889 69.4091 258.101 69.7952 258.429 70.0461C258.68 70.2391 258.988 70.3356 259.297 70.3356C259.393 70.3356 259.49 70.3356 259.586 70.3163L262.847 69.6408C262.982 69.6601 263.213 69.6987 263.599 69.7759C264.66 69.9882 265.47 70.104 266.184 70.104C266.242 70.104 266.3 70.0847 266.377 70.0847C266.705 70.4514 267.187 70.683 267.708 70.683H268.865C276.755 70.683 282.986 70.3356 287.905 69.6408C288.195 69.6022 288.465 69.4864 288.696 69.3319L289.719 68.6371C289.95 68.4827 290.124 68.2704 290.259 68.0387L291.262 66.3016C291.416 66.0121 291.513 65.7033 291.513 65.3751C291.513 65.047 291.416 64.7189 291.262 64.4487C291.204 64.3715 291.204 64.3329 291.204 64.3136Z" fill="#282827"/>
<path d="M202.041 65.0667C201.867 64.5456 201.655 63.5033 201.655 61.4573C201.655 60.3378 201.751 58.3305 201.925 55.5125C202.021 53.9684 202.06 51.575 202.06 48.4095C202.06 45.9003 202.002 31.154 201.886 26.3865L201.867 25.9233C201.848 25.2478 201.288 24.688 200.613 24.688H192.241C191.546 24.688 190.987 25.2478 190.987 25.9426L190.929 30.3047C190.871 35.7285 190.794 43.2367 190.678 47.7533C185.605 41.847 181.611 37.2147 178.795 34.0106C178.12 33.1614 177.599 32.5051 177.213 31.984L177.02 31.7524C176.364 31.0575 175.863 30.5171 175.593 30.2082L173.239 27.0428C171.734 25.2478 170.519 24.2248 169.284 23.7229C168.59 23.4527 167.799 23.3369 166.95 23.3369C166.507 23.3369 165.889 23.3755 165.079 23.4527C164.385 23.5106 163.999 23.5299 163.806 23.5299H162.263C161.626 23.5299 161.086 23.9932 161.009 24.6301L160.816 26.1549C160.314 30.0345 160.044 34.8792 160.044 40.5345C160.044 42.3682 160.083 45.109 160.141 48.6604C160.218 52.2891 160.237 54.8948 160.237 56.6127C160.237 57.2496 160.237 57.8673 160.218 58.4849C157.343 58.4656 152.443 58.3884 149.145 58.2533C144.939 58.0989 141.718 58.0217 139.596 58.0217C138.689 58.0217 137.859 58.0217 137.126 58.041L136.991 50.4748C138.303 50.3783 140.387 50.2818 143.685 50.2818C145.209 50.2818 146.772 50.2046 148.334 50.0695L149.936 49.915C150.591 49.8571 151.074 49.3167 151.074 48.6604V42.5226C151.074 42.0014 150.746 41.5189 150.244 41.3452L149.087 40.9206C147.563 40.3608 145.73 40.052 143.608 39.9941C143.454 39.9941 143.357 40.0134 143.242 40.052C142.74 40.052 141.583 40.0713 138.959 40.0713C138.187 40.0713 137.493 40.052 136.876 39.9941C136.876 39.859 136.895 39.7046 136.914 39.5502V35.3231C137.126 35.4389 137.339 35.5354 137.609 35.5354H138.265C142.759 35.5354 146.309 35.188 149.145 34.4546C149.434 34.3774 149.685 34.2229 149.878 33.9913L150.437 33.2965C150.553 33.1614 150.63 33.007 150.669 32.8525L151.228 31.1154C151.344 30.7487 151.363 30.4785 151.17 30.1503C151.17 30.1503 151.151 30.0538 151.151 29.7836C151.132 28.0658 150.977 27.4288 150.823 26.9849L150.399 25.7689C150.206 25.2092 149.685 24.8424 149.106 24.8424L147.351 24.8231C143.705 24.7845 140.522 24.7652 137.686 24.7459C137.319 24.7459 136.972 24.881 136.721 25.1513C136.721 25.1513 136.721 25.1513 136.721 25.1706C136.509 24.9003 136.2 24.7073 135.834 24.688C134.773 24.6108 133.808 24.5143 132.96 24.3985L132.188 24.2827C131.841 24.2441 131.474 24.3406 131.204 24.5722L131.069 24.688C131.011 24.688 130.953 24.6687 130.895 24.6687C130.355 24.6108 129.989 24.5722 129.699 24.5722C127.23 24.5722 125.475 26.2707 125.475 28.7413C125.475 28.8378 125.494 28.9343 125.513 29.0308L125.61 29.4362C125.648 29.6485 125.725 30.1889 125.918 31.6172C126.131 33.2386 126.227 34.9371 126.227 36.6935C126.227 37.9288 126.169 39.8783 126.053 42.4647C125.938 45.1283 125.88 47.1549 125.88 48.4867C125.88 49.2588 125.918 50.359 126.015 51.8452C126.092 53.1577 126.15 54.1614 126.15 54.8176C126.15 55.3388 126.092 56.4003 125.841 58.4849C125.61 60.415 125.475 61.8627 125.475 62.9049C125.475 64.1981 125.648 65.4913 125.976 66.7652L126.343 68.1742C126.497 68.734 126.999 69.12 127.558 69.12C127.577 69.12 127.616 69.12 127.635 69.12L129.082 69.0235C131.937 68.8498 134.773 68.7533 137.493 68.7533C139.673 68.7533 142.952 68.7919 147.486 68.8884C151.903 68.9849 158.597 69.0235 160.951 69.0235H167.124C167.317 69.0235 167.51 68.9656 167.683 68.8691L169.362 68.9077C169.902 68.8884 170.423 68.5796 170.596 68.0391L171.001 66.8038C171.194 66.2055 171.291 65.7229 171.291 65.2404C171.291 64.8737 171.252 64.4877 171.136 64.0437C171.059 61.5152 171.021 55.9757 171.021 47.5603C171.021 46.6917 171.117 45.302 171.31 43.4297C171.368 42.87 171.426 42.3296 171.464 41.847C173.953 44.7809 176.847 48.506 180.068 52.9647C185.373 60.3571 189.27 65.4913 191.662 68.2514L192.144 68.8112C192.356 69.0621 192.665 69.2165 193.012 69.2358L193.745 69.2937C195.096 69.3902 196.099 69.4288 196.793 69.4288C198.047 69.4288 199.185 69.2551 200.169 68.9463L201.848 68.3866C202.156 68.29 202.426 68.0584 202.581 67.7496C202.735 67.4408 202.754 67.0934 202.658 66.7845L202.041 65.0667Z" fill="#282827"/>
<path d="M113.593 43.1404L113.323 43.0053C112.146 42.4263 109.368 41.0944 104.951 40.8821C99.8192 40.6312 97.1764 39.7433 96.3469 38.0448C96.3661 37.9869 96.5012 37.7553 96.9256 37.4079C98.8161 35.9603 101.285 35.2654 104.468 35.2654C107.381 35.2654 115.271 35.5742 117.393 36.0954C117.76 36.1919 118.146 36.0954 118.454 35.8638C118.744 35.6321 118.937 35.2654 118.937 34.8987V26.213C118.937 25.634 118.531 25.1321 117.953 24.997C116.101 24.611 110.892 24.3601 105.549 24.1478L104.603 24.1092C99.8385 23.9354 94.9772 25.7305 90.2123 29.4557C89.0935 30.3435 88.3797 30.9612 87.8781 31.5016C86.4313 33.1036 85.6982 35.1882 85.6982 37.7167C85.6982 38.2378 85.7754 39.338 86.4313 43.0632L86.4892 43.4492C86.5278 43.6422 86.6049 43.8353 86.7399 43.9897L86.9907 44.2985C88.9391 46.827 92.0064 48.815 96.0961 50.1854C97.9673 50.8031 98.2181 50.861 98.4689 50.9189L98.874 50.9768C100.437 51.0733 101.69 51.1312 102.694 51.1312C103.041 51.1312 103.369 51.1312 103.581 51.1119C104.816 51.1312 107.15 51.6138 108.828 52.077C109.349 52.2121 109.658 53.0228 109.831 53.679C109.908 53.9685 109.966 54.1808 110.005 54.3353C109.986 54.3546 109.966 54.3932 109.947 54.4318C109.928 54.4511 109.851 54.6248 109.851 54.6441C109.349 55.8794 107.979 56.9217 105.742 57.7516C104.044 58.3886 101.382 58.7553 98.2567 58.7553C94.8615 58.7553 92.0836 58.3886 90.2123 57.713C89.8265 57.5779 89.4021 57.6358 89.0742 57.8674C88.7462 58.099 88.5533 58.4851 88.5533 58.8711V67.19C88.5533 67.7305 88.9005 68.213 89.4214 68.3674C91.0418 68.8693 94.9386 69.043 98.0445 69.043C102.809 69.043 107.169 68.6569 110.005 68.0007C112.648 67.4024 115.908 65.5494 117.895 63.4842C119.843 61.4768 121.059 59.2571 121.522 57.0375C121.657 56.6514 121.715 56.2654 121.715 55.8215C121.734 50.0117 119.014 45.7461 113.593 43.1404Z" fill="#282827"/>
<path d="M179.086 18.8594C179.375 19.1682 179.78 19.3419 180.205 19.3419H181.304C183.349 19.3419 185.278 19.3612 187.072 19.3805C188.673 19.3998 190.197 19.4191 191.625 19.4191C194.847 19.4191 197.065 19.3226 199.013 19.091C199.38 19.0524 199.727 18.8594 199.997 18.5892L201 17.489C201.039 17.4311 201.097 17.3925 201.135 17.3346L202.081 15.9835C202.447 15.443 202.447 14.7675 202.119 14.2463C201.965 13.011 201.714 12.239 201.27 11.6599L200.557 10.7142C200.267 10.3281 199.804 10.0965 199.303 10.0772L196.351 10.0579C192.628 10.0386 186.899 10.0193 181.941 10.0193L174.167 10C173.53 10 172.971 10.386 172.72 10.9651C172.469 11.5441 172.604 12.2197 173.048 12.6829L179.086 18.8594Z" fill="#282827"/>
</g>
<defs>
<clipPath id="clip0">
<rect width="345" height="63" fill="white" transform="translate(10 10)"/>
</clipPath>
</defs>
</svg>
