<svg width="32" height="29" viewBox="0 0 32 29" fill="none" xmlns="http://www.w3.org/2000/svg">
<path d="M26 3.5C26 2.70435 26.3161 1.94129 26.8787 1.37868C27.4413 0.816071 28.2044 0.5 29 0.5C29.7956 0.5 30.5587 0.816071 31.1213 1.37868C31.6839 1.94129 32 2.70435 32 3.5V25.5C32 26.2956 31.6839 27.0587 31.1213 27.6213C30.5587 28.1839 29.7956 28.5 29 28.5C28.2044 28.5 27.4413 28.1839 26.8787 27.6213C26.3161 27.0587 26 26.2956 26 25.5V25.072C21.676 22.59 17.02 21.386 12.176 20.906L12.986 26.33C13.0404 26.619 13.0304 26.9164 12.9567 27.201C12.8831 27.4857 12.7476 27.7506 12.5598 27.9769C12.3721 28.2032 12.1368 28.3854 11.8706 28.5103C11.6045 28.6353 11.314 28.7001 11.02 28.7H9.924C9.53524 28.7 9.15492 28.5866 8.82956 28.3739C8.50419 28.1611 8.24789 27.8581 8.092 27.502L4.392 20.522C4.25734 20.5198 4.12267 20.5178 3.988 20.516C2.92873 20.5055 1.91624 20.0781 1.16981 19.3264C0.423381 18.5748 0.00310369 17.5593 0 16.5L0 12.5C0.00356957 11.4406 0.42314 10.425 1.16833 9.67192C1.91351 8.91888 2.92468 8.48868 3.984 8.474C5.64005 8.45154 7.29561 8.40154 8.95 8.324C15.036 8.016 21.246 6.626 26 3.926V3.5ZM28 3.5V25.5C28 25.7652 28.1054 26.0196 28.2929 26.2071C28.4804 26.3946 28.7348 26.5 29 26.5C29.2652 26.5 29.5196 26.3946 29.7071 26.2071C29.8946 26.0196 30 25.7652 30 25.5V3.5C30 3.23478 29.8946 2.98043 29.7071 2.79289C29.5196 2.60536 29.2652 2.5 29 2.5C28.7348 2.5 28.4804 2.60536 28.2929 2.79289C28.1054 2.98043 28 3.23478 28 3.5ZM26 6.2C21.312 8.61 15.582 9.884 10 10.266V18.732C10.36 18.752 10.718 18.776 11.074 18.804C16.21 19.182 21.26 20.292 26 22.79V6.2ZM8 18.63V10.37C6.6724 10.4186 5.34433 10.4532 4.016 10.474C3.48154 10.4803 2.9709 10.6961 2.59389 11.0749C2.21688 11.4538 2.00363 11.9655 2 12.5V16.5C2 17.6 2.896 18.504 4.012 18.518C5.34186 18.5334 6.67137 18.5707 8 18.63ZM6.686 20.58L9.904 26.654L9.924 26.702H11.02L11.016 26.674L10.13 20.742C8.98274 20.6728 7.83465 20.6181 6.686 20.578V20.58Z" fill="#009F95"/>
</svg>
