<svg width="171" height="113" viewBox="0 0 171 113" fill="none" xmlns="http://www.w3.org/2000/svg">
<path d="M34.9258 10.2959C34.2862 10.2945 33.663 10.4975 33.1469 10.8752C32.6309 11.253 32.249 11.7859 32.0572 12.396C31.8653 13.0061 31.8735 13.6615 32.0804 14.2667C32.2874 14.8719 32.6823 15.395 33.2076 15.7599V18.1654C31.6612 18.3888 30.2178 18.8871 28.912 19.6431L27.0047 16.9111C27.3312 16.0176 27.2453 14.9867 26.6611 14.1619C26.0597 13.32 25.1319 12.8733 24.1868 12.8733C23.5855 12.8733 22.9841 13.0451 22.4686 13.4231C21.1112 14.3681 20.7676 16.241 21.7298 17.5984C22.314 18.4403 23.2418 18.8871 24.1868 18.8871L26.2144 21.7737C25.4755 22.5126 24.8913 23.3373 24.393 24.248C24.0494 24.1105 23.6886 24.0418 23.3277 24.0418C22.5545 24.0418 21.7813 24.3339 21.1799 24.9009C20.0287 26.1037 20.0287 27.9937 21.1799 29.1965C21.6782 29.6604 22.2796 29.9181 22.8982 30.0556C22.8982 30.9834 23.0184 31.8769 23.2074 32.736L20.9566 33.3374C20.4239 32.8907 19.7366 32.633 19.0321 32.633C18.7744 32.633 18.4995 32.633 18.2418 32.736C17.4717 32.9459 16.8166 33.4529 16.4203 34.1456C16.024 34.8384 15.9189 35.6601 16.1283 36.4303C16.4892 37.7877 17.7435 38.6468 19.0321 38.6468C19.2899 38.6468 19.5476 38.6468 19.8225 38.5437C20.8019 38.2688 21.5408 37.5471 21.85 36.6536L24.4446 35.9491C25.2178 37.3066 26.2487 38.5093 27.4515 39.5059L25.5614 42.9424C24.6164 43.0798 23.7573 43.6125 23.259 44.5231C23.0717 44.8706 22.9547 45.2516 22.9147 45.6443C22.8746 46.037 22.9123 46.4338 23.0256 46.8119C23.1389 47.19 23.3255 47.5422 23.5749 47.8482C23.8243 48.1542 24.1315 48.4081 24.4789 48.5953C24.8264 48.7826 25.2074 48.8996 25.6001 48.9397C25.9928 48.9797 26.3896 48.942 26.7677 48.8288C27.1459 48.7155 27.498 48.5288 27.804 48.2795C28.11 48.0301 28.3639 47.7229 28.5512 47.3754C29.0323 46.4819 29.0151 45.451 28.5855 44.609L30.424 41.2241C31.8158 41.774 33.3279 42.0832 34.9258 42.0832H35.2351C35.0117 42.53 34.9258 43.0454 34.9258 43.5953C35.0633 45.1761 36.3691 46.3788 37.9327 46.3788H38.1561C39.8228 46.2414 41.0599 44.798 40.9396 43.1485C40.8709 42.2894 40.4413 41.5334 39.8228 41.0351C40.6303 40.6743 41.4036 40.2104 42.1252 39.6777L46.1459 43.6984C45.9741 44.6606 46.249 45.64 46.9534 46.3788C47.5548 46.9458 48.328 47.2379 49.1012 47.2379C49.8744 47.2379 50.6477 46.9458 51.249 46.3788C52.4002 45.1761 52.4002 43.286 51.249 42.0832C50.6477 41.5162 49.8744 41.2241 49.1012 41.2241C48.9294 41.2241 48.7576 41.2241 48.5686 41.2757L44.5479 37.255C45.3899 36.1382 46.0428 34.8667 46.4552 33.4921H48.3624C48.7273 34.0173 49.2504 34.4123 49.8556 34.6192C50.4608 34.8262 51.1162 34.8343 51.7263 34.6425C52.3364 34.4506 52.8693 34.0688 53.247 33.5527C53.6248 33.0367 53.8278 32.4134 53.8264 31.7738C53.8278 31.1343 53.6248 30.511 53.247 29.9949C52.8693 29.4789 52.3364 29.0971 51.7263 28.9052C51.1162 28.7133 50.4608 28.7215 49.8556 28.9284C49.2504 29.1354 48.7273 29.5303 48.3624 30.0556H46.9534C46.9534 27.358 46.0943 24.9009 44.5479 22.8562L46.8504 20.5538C47.0394 20.6053 47.2112 20.6053 47.383 20.6053C48.1562 20.6053 48.9294 20.3132 49.5308 19.7462C50.682 18.5606 50.682 16.6534 49.5308 15.4506C48.9294 14.8836 48.1562 14.5915 47.383 14.5915C46.6098 14.5915 45.8366 14.8836 45.2352 15.4506C44.5307 16.1894 44.2558 17.1688 44.4276 18.1311L42.1252 20.4335C40.5444 19.2479 38.6887 18.4575 36.644 18.1654V15.7599C37.1693 15.395 37.5643 14.8719 37.7712 14.2667C37.9782 13.6615 37.9863 13.0061 37.7944 12.396C37.6026 11.7859 37.2208 11.253 36.7047 10.8752C36.1887 10.4975 35.5654 10.2945 34.9258 10.2959ZM34.9258 38.6468C30.1835 38.6468 26.3346 34.7979 26.3346 30.0556C26.3346 25.3133 30.1835 21.4644 34.9258 21.4644C39.6681 21.4644 43.517 25.3133 43.517 30.0556C43.517 34.7979 39.6681 38.6468 34.9258 38.6468ZM32.3485 24.9009C30.9223 24.9009 29.7711 26.0521 29.7711 27.4783C29.7711 28.9044 30.9223 30.0556 32.3485 30.0556C33.7746 30.0556 34.9258 28.9044 34.9258 27.4783C34.9258 26.0521 33.7746 24.9009 32.3485 24.9009ZM38.3623 31.7738C37.4172 31.7738 36.644 32.547 36.644 33.4921C36.644 34.4371 37.4172 35.2103 38.3623 35.2103C39.3073 35.2103 40.0805 34.4371 40.0805 33.4921C40.0805 32.547 39.3073 31.7738 38.3623 31.7738Z" fill="white"/>
<g clip-path="url(#clip0)">
<path d="M53.2275 67.7944C52.7184 68.1815 52.3463 68.7212 52.1656 69.3347C51.9849 69.9481 52.0049 70.6033 52.2228 71.2046C52.4407 71.8059 52.8451 72.3219 53.3769 72.6771C53.9087 73.0324 54.5402 73.2084 55.1791 73.1795L56.6394 75.091C55.5461 76.2073 54.7016 77.4794 54.1229 78.8729L50.9488 77.8597C50.6658 76.9515 49.9717 76.1845 49.0068 75.8837C48.0178 75.5797 47.0093 75.788 46.2583 76.3617C45.7804 76.7267 45.4068 77.2283 45.2267 77.8417C44.7217 79.4167 45.5856 81.1136 47.1742 81.6081C48.1496 81.9225 49.1581 81.7143 49.909 81.1406L53.2726 82.2037C53.134 83.2393 53.1704 84.2493 53.3273 85.2755C52.9707 85.3749 52.6423 85.5393 52.3555 85.7584C51.7411 86.2277 51.304 86.9292 51.1703 87.7449C50.9856 89.3995 52.133 90.9015 53.778 91.1584C54.4556 91.2246 55.0899 91.0643 55.6649 90.7981C56.2282 91.5354 56.8661 92.1724 57.5379 92.7403L56.1143 94.5847C55.4198 94.553 54.7172 94.7654 54.1573 95.1931C53.9525 95.3495 53.7341 95.5164 53.5918 95.7548C53.1073 96.389 52.8945 97.1896 53.0001 97.9807C53.1057 98.7718 53.5211 99.4885 54.155 99.9734C55.2657 100.833 56.784 100.754 57.8081 99.972C58.0129 99.8155 58.2177 99.6591 58.3736 99.4103C58.985 98.5973 59.134 97.5753 58.8374 96.6775L60.4715 94.5427C61.91 95.1519 63.4593 95.4819 65.0201 95.5437L65.6043 99.4219C64.9368 100.105 64.5774 101.05 64.7343 102.076C64.7964 102.466 64.9347 102.839 65.1412 103.176C65.3478 103.512 65.6186 103.805 65.9382 104.036C66.2578 104.268 66.6199 104.434 67.0038 104.526C67.3877 104.618 67.7859 104.633 68.1758 104.571C68.5656 104.509 68.9394 104.371 69.2757 104.164C69.6121 103.958 69.9045 103.687 70.1363 103.367C70.368 103.048 70.5345 102.686 70.6263 102.302C70.7181 101.918 70.7333 101.52 70.6712 101.13C70.5111 100.128 69.8716 99.3188 69.0192 98.9105L68.4253 95.1046C69.8651 94.6966 71.2544 94.0245 72.5242 93.0545L72.77 92.8667C72.8637 93.3573 73.1084 93.8191 73.4421 94.256C74.511 95.4288 76.2789 95.5918 77.5214 94.6426L77.6989 94.507C78.9399 93.386 79.0468 91.4881 77.9499 90.2503C77.3737 89.6093 76.5734 89.2693 75.7794 89.2488C76.2021 88.4718 76.5349 87.6338 76.785 86.7724L82.4208 87.5267C82.8684 88.3957 83.6814 89.0071 84.6898 89.1665C85.5119 89.252 86.3036 89.0148 86.9181 88.5454C87.5325 88.076 87.9696 87.3745 88.1033 86.5589C88.288 84.9042 87.1406 83.4023 85.4956 83.1453C84.6735 83.0598 83.8818 83.2971 83.2673 83.7665C83.1308 83.8708 82.9943 83.9751 82.8754 84.1308L77.2395 83.3765C77.2306 81.9779 76.9776 80.5711 76.4708 79.2284L77.9864 78.0706C78.5952 78.2666 79.2507 78.2628 79.8572 78.0599C80.4638 77.857 80.9896 77.4656 81.3579 76.9427C81.7263 76.4199 81.9179 75.793 81.9049 75.1536C81.8918 74.5142 81.6747 73.8956 81.2854 73.3883C80.8982 72.8792 80.3586 72.5071 79.7451 72.3264C79.1316 72.1456 78.4764 72.1657 77.8751 72.3836C77.2738 72.6015 76.7579 73.0058 76.4026 73.5377C76.0474 74.0695 75.8714 74.7009 75.9003 75.3398L74.7807 76.1951C73.143 74.0514 70.9687 72.6204 68.4986 71.9344L68.9306 68.707C69.1121 68.6332 69.2486 68.5289 69.3851 68.4246C69.9996 67.9552 70.4367 67.2537 70.5704 66.4381C70.7655 64.7971 69.6077 63.2815 67.9627 63.0246C67.1406 62.939 66.3488 63.1763 65.7344 63.6457C65.12 64.1151 64.6829 64.8166 64.5492 65.6322C64.4379 66.647 64.814 67.5922 65.5346 68.2525L65.1027 71.4799C63.1268 71.4973 61.1723 71.9958 59.3702 73.0049L57.9099 71.0933C58.1058 70.4845 58.102 69.829 57.8991 69.2225C57.6962 68.616 57.3048 68.0902 56.782 67.7218C56.2591 67.3534 55.6323 67.1618 54.9928 67.1749C54.3534 67.1879 53.7349 67.405 53.2275 67.7944ZM70.4381 90.3236C66.6696 93.2025 61.2746 92.4805 58.3957 88.7119C55.5169 84.9434 56.2389 79.5484 60.0075 76.6695C63.776 73.7907 69.171 74.5127 72.0498 78.2813C74.9287 82.0498 74.2066 87.4448 70.4381 90.3236ZM60.0455 80.965C58.9122 81.8307 58.6962 83.4444 59.562 84.5777C60.4277 85.711 62.0414 85.9269 63.1747 85.0612C64.308 84.1955 64.5239 82.5818 63.6582 81.4485C62.7924 80.3152 61.1788 80.0992 60.0455 80.965ZM68.9967 82.7759C68.2457 83.3496 68.1006 84.4334 68.6743 85.1844C69.248 85.9353 70.3318 86.0804 71.0828 85.5067C71.8338 84.933 71.9788 83.8492 71.4051 83.0982C70.8315 82.3472 69.7476 82.2022 68.9967 82.7759Z" fill="white"/>
</g>
<g clip-path="url(#clip1)">
<path d="M109.443 19.7071C108.655 20.2652 108.066 21.0606 107.761 21.9772C107.457 22.8939 107.453 23.8838 107.751 24.8026C108.049 25.7213 108.633 26.5208 109.417 27.0844C110.202 27.648 111.146 27.9461 112.112 27.9353L114.217 30.8957C112.51 32.5242 111.17 34.4008 110.225 36.4743L105.486 34.7817C105.106 33.3964 104.097 32.2029 102.657 31.6993C101.179 31.1896 99.6465 31.4521 98.4835 32.2793C97.7435 32.8057 97.1538 33.5436 96.8503 34.46C96.0071 36.8112 97.2236 39.4169 99.596 40.2451C101.052 40.7698 102.585 40.5074 103.748 39.6801L108.77 41.4577C108.507 43.0137 108.51 44.5401 108.694 46.0969C108.151 46.2286 107.647 46.4599 107.203 46.7757C106.251 47.4526 105.555 48.4889 105.312 49.7131C104.948 52.201 106.602 54.5269 109.072 54.9994C110.091 55.1341 111.057 54.9249 111.938 54.5526C112.751 55.6944 113.681 56.6887 114.665 57.5805L112.422 60.2909C111.375 60.2074 110.304 60.4918 109.437 61.1085C109.12 61.3341 108.781 61.5748 108.554 61.9272C107.79 62.8595 107.428 64.057 107.547 65.2564C107.665 66.4558 108.255 67.559 109.187 68.3235C110.82 69.6781 113.115 69.6374 114.701 68.5093C115.018 68.2837 115.335 68.0581 115.583 67.6906C116.548 66.4949 116.826 64.9601 116.424 63.5898L119 60.4517C121.14 61.4453 123.462 62.0231 125.814 62.1966L126.496 68.0802C125.454 69.0766 124.863 70.4841 125.047 72.041C125.12 72.6325 125.31 73.2038 125.604 73.7221C125.899 74.2405 126.293 74.6957 126.763 75.0619C127.233 75.4281 127.771 75.6981 128.346 75.8564C128.921 76.0146 129.521 76.0582 130.113 75.9845C130.704 75.9108 131.275 75.7213 131.794 75.4268C132.312 75.1323 132.767 74.7387 133.134 74.2682C133.5 73.7978 133.77 73.2599 133.928 72.6851C134.086 72.1104 134.13 71.5101 134.056 70.9185C133.866 69.3978 132.943 68.1442 131.677 67.4841L130.976 61.7091C133.17 61.1675 135.302 60.2245 137.268 58.8257L137.649 58.555C137.765 59.3003 138.111 60.0098 138.592 60.6865C140.145 62.5115 142.805 62.8486 144.729 61.4799L145.004 61.2844C146.935 59.6562 147.194 56.7971 145.602 54.8725C144.765 53.8754 143.575 53.321 142.377 53.2492C143.055 52.0983 143.601 50.8505 144.023 49.5633L152.49 50.9918C153.121 52.3263 154.317 53.2909 155.83 53.5835C157.067 53.7549 158.274 53.4375 159.225 52.7607C160.177 52.0839 160.873 51.0476 161.117 49.8233C161.48 47.3355 159.826 45.0095 157.356 44.537C156.12 44.3657 154.913 44.683 153.961 45.3599C153.75 45.5103 153.538 45.6607 153.351 45.8896L144.883 44.4611C144.942 42.3497 144.632 40.2134 143.937 38.1608L146.284 36.4913C147.193 36.8183 148.182 36.8464 149.108 36.5713C150.034 36.2963 150.848 35.7325 151.43 34.9624C152.013 34.1922 152.335 33.2559 152.348 32.2901C152.361 31.3243 152.065 30.3796 151.504 29.5938C150.946 28.8055 150.15 28.2161 149.234 27.9118C148.317 27.6074 147.327 27.6039 146.408 27.9019C145.49 28.1998 144.69 28.7836 144.126 29.568C143.563 30.3524 143.265 31.2964 143.276 32.2622L141.542 33.4956C139.18 30.1758 135.972 27.904 132.279 26.7414L133.097 21.8925C133.375 21.7905 133.586 21.6401 133.798 21.4897C134.749 20.8129 135.445 19.7766 135.689 18.5523C136.068 16.0856 134.398 13.7385 131.929 13.266C130.692 13.0947 129.485 13.412 128.534 14.0889C127.582 14.7657 126.886 15.802 126.643 17.0262C126.422 18.5521 126.941 19.9981 127.995 21.0318L127.177 25.8807C124.194 25.8054 121.218 26.4571 118.446 27.8875L116.341 24.9272C116.668 24.0184 116.696 23.0288 116.421 22.1029C116.146 21.1771 115.582 20.3633 114.812 19.7804C114.042 19.1975 113.105 18.8761 112.14 18.8629C111.174 18.8497 110.229 19.1455 109.443 19.7071ZM134.26 54.5967C128.424 58.7479 120.319 57.3805 116.167 51.5444C112.016 45.7083 113.384 37.6027 119.22 33.4515C125.056 29.3002 133.161 30.6676 137.313 36.5037C141.464 42.3398 140.096 50.4454 134.26 54.5967ZM119.056 39.9366C117.301 41.185 116.892 43.6094 118.14 45.3645C119.389 47.1195 121.813 47.5286 123.568 46.2802C125.323 45.0318 125.732 42.6073 124.484 40.8523C123.236 39.0972 120.811 38.6882 119.056 39.9366ZM132.473 43.1304C131.31 43.9577 131.035 45.5861 131.863 46.749C132.69 47.912 134.318 48.1867 135.481 47.3595C136.644 46.5322 136.919 44.9039 136.092 43.7409C135.264 42.5779 133.636 42.3032 132.473 43.1304Z" fill="white"/>
</g>
<defs>
<clipPath id="clip0">
<rect width="41.2376" height="41.2376" fill="white" transform="translate(36.3211 79.6289) rotate(-37.377)"/>
</clipPath>
<clipPath id="clip1">
<rect width="62.2772" height="62.2772" fill="white" transform="translate(83.3168 36.6982) rotate(-35.4245)"/>
</clipPath>
</defs>
</svg>
