<svg width="195" height="97" viewBox="0 0 195 97" fill="none" xmlns="http://www.w3.org/2000/svg">
<g clip-path="url(#clip0)">
<path d="M89.448 50.314C88.7529 50.2383 88.0518 50.3866 87.4469 50.7374C86.842 51.0882 86.3651 51.6232 86.0857 52.2642C85.8063 52.9051 85.7391 53.6187 85.8939 54.3006C86.0486 54.9825 86.4172 55.5971 86.9459 56.0547L86.6667 58.6698C84.9597 58.7331 83.3328 59.1073 81.8254 59.7777L80.069 56.5863C80.5277 55.6528 80.5539 54.5221 80.0145 53.5577C79.4585 52.5726 78.5016 51.9792 77.4743 51.8696C76.8205 51.7998 76.1468 51.9168 75.5425 52.2679C73.9572 53.1377 73.3662 55.1339 74.2547 56.7212C74.7921 57.7043 75.7489 58.2977 76.7763 58.4074L78.6454 61.7808C77.7565 62.4983 77.0256 63.3271 76.3782 64.2593C76.0206 64.0699 75.6363 63.9533 75.2441 63.9115C74.4035 63.8217 73.529 64.0495 72.8094 64.5961C71.4183 65.7701 71.1989 67.8248 72.3109 69.266C72.7987 69.8282 73.4226 70.1782 74.0791 70.3994C73.9714 71.4081 73.9985 72.3934 74.1042 73.3493L71.5874 73.7418C71.0602 73.1943 70.3429 72.8344 69.5771 72.7526C69.2969 72.7227 68.998 72.6908 68.7059 72.7729C67.8444 72.9117 67.0733 73.3868 66.5621 74.0939C66.0508 74.801 65.8413 75.6822 65.9796 76.5437C66.2143 78.0613 67.4782 79.1408 68.8791 79.2904C69.1593 79.3203 69.4395 79.3502 69.7503 79.27C70.847 79.0848 71.7339 78.3861 72.1739 77.4506L75.0762 76.9859C75.7592 78.5513 76.7404 79.9785 77.9323 81.2015L75.4787 84.718C74.4354 84.7578 73.4396 85.2371 72.7922 86.1693C72.5483 86.5253 72.3769 86.9259 72.2878 87.3482C72.1986 87.7705 72.1936 88.2062 72.2728 88.6304C72.3521 89.0546 72.5141 89.4591 72.7497 89.8207C72.9853 90.1823 73.2898 90.494 73.6458 90.7379C74.0019 90.9819 74.4024 91.1533 74.8247 91.2424C75.247 91.3315 75.6827 91.3366 76.1069 91.2573C76.5312 91.178 76.9356 91.016 77.2972 90.7804C77.6588 90.5448 77.9705 90.2403 78.2144 89.8843C78.8412 88.9688 78.9421 87.8461 78.5729 86.8809L80.9644 83.4145C82.4136 84.1737 84.0215 84.6855 85.7587 84.8709L86.0949 84.9068C85.8003 85.3666 85.647 85.917 85.5832 86.5147C85.5492 88.2492 86.8292 89.7083 88.529 89.8898L88.7719 89.9157C90.5997 89.9597 92.1122 88.5342 92.1729 86.727C92.1978 85.7851 91.8186 84.9133 91.204 84.2998C92.1238 84.0013 93.0182 83.5867 93.8646 83.0914L97.7689 87.929C97.4704 88.9551 97.6556 90.0517 98.3357 90.9367C98.9237 91.6229 99.7304 92.0302 100.571 92.12C101.412 92.2097 102.286 91.9819 103.006 91.4353C104.397 90.2613 104.616 88.2066 103.504 86.7654C102.916 86.0792 102.109 85.6719 101.269 85.5822C101.082 85.5622 100.895 85.5423 100.684 85.5764L96.7795 80.7388C97.8245 79.6223 98.6818 78.3158 99.2897 76.8694L101.363 77.0907C101.699 77.7041 102.222 78.1942 102.856 78.4894C103.489 78.7846 104.201 78.8695 104.887 78.7318C105.572 78.594 106.196 78.2408 106.666 77.7236C107.137 77.2064 107.43 76.5524 107.503 75.8569C107.578 75.1618 107.43 74.4607 107.079 73.8558C106.728 73.2509 106.193 72.774 105.552 72.4946C104.911 72.2152 104.198 72.148 103.516 72.3028C102.834 72.4575 102.22 72.8261 101.762 73.3548L100.23 73.1913C100.543 70.2586 99.8945 67.4878 98.4507 65.0854L101.221 62.8496C101.42 62.9276 101.607 62.9476 101.794 62.9675C102.635 63.0572 103.509 62.8294 104.229 62.2828C105.618 61.1275 105.839 59.0541 104.727 57.613C104.139 56.9267 103.333 56.5194 102.492 56.4297C101.651 56.34 100.777 56.5678 100.057 57.1144C99.2058 57.8359 98.7932 58.8687 98.8684 59.9347L96.0981 62.1705C94.5172 60.6981 92.5916 59.6235 90.4026 59.0686L90.6818 56.4535C91.2952 56.1178 91.7853 55.5949 92.0805 54.961C92.3757 54.3272 92.4606 53.6156 92.3228 52.93C92.1851 52.2445 91.8318 51.6209 91.3147 51.1503C90.7975 50.6797 90.1435 50.3867 89.448 50.314ZM86.1576 81.135C81.002 80.5846 77.2646 75.9537 77.815 70.7982C78.3654 65.6427 82.9963 61.9052 88.1518 62.4557C93.3073 63.0061 97.0448 67.6369 96.4944 72.7925C95.944 77.948 91.3131 81.6854 86.1576 81.135ZM84.951 65.8924C83.4006 65.7269 82.0155 66.8448 81.85 68.3952C81.6845 69.9456 82.8024 71.3307 84.3528 71.4962C85.9031 71.6617 87.2883 70.5438 87.4538 68.9934C87.6193 67.443 86.5014 66.0579 84.951 65.8924ZM90.6911 74.0621C89.6638 73.9525 88.7334 74.7033 88.6238 75.7306C88.5141 76.758 89.2649 77.6883 90.2923 77.798C91.3196 77.9077 92.25 77.1569 92.3596 76.1295C92.4693 75.1021 91.7185 74.1718 90.6911 74.0621Z" fill="white"/>
</g>
<g clip-path="url(#clip1)">
<path d="M173.511 26.9993C173.126 26.1894 172.493 25.5236 171.703 25.0992C170.913 24.6747 170.008 24.5138 169.12 24.64C168.232 24.7661 167.408 25.1727 166.768 25.8004C166.127 26.428 165.704 27.2439 165.56 28.129L162.517 29.5833C161.299 27.7621 159.796 26.2374 158.051 25.0425L160.354 20.9781C161.681 20.8509 162.934 20.1189 163.624 18.8813C164.325 17.6115 164.33 16.1676 163.758 14.9721C163.395 14.2113 162.814 13.5544 162.024 13.1308C160.008 11.9849 157.431 12.6825 156.295 14.7204C155.583 15.9685 155.579 17.4123 156.15 18.6078L153.724 22.918C152.343 22.43 150.946 22.1895 149.493 22.1097C149.459 21.5919 149.328 21.0939 149.11 20.6374C148.642 19.6592 147.805 18.8577 146.725 18.4397C144.507 17.7105 142.116 18.8532 141.29 21.0367C141.005 21.9475 141.042 22.8641 141.242 23.7298C140.069 24.2907 139.011 24.983 138.038 25.7415L135.917 23.2576C136.16 22.3137 136.07 21.2884 135.645 20.3972C135.489 20.0711 135.323 19.7233 135.036 19.4596C134.305 18.6124 133.268 18.0901 132.152 18.0075C131.036 17.925 129.933 18.2889 129.085 19.0194C127.586 20.2965 127.258 22.4027 128.037 24.033C128.193 24.359 128.348 24.6851 128.645 24.9705C129.585 26.0433 130.944 26.5417 132.262 26.3928L134.722 29.2491C133.472 31.0479 132.574 33.0793 132.04 35.2034L126.55 34.8899C125.805 33.7775 124.611 33.0127 123.158 32.9329C122.605 32.906 122.053 32.9883 121.532 33.1751C121.011 33.3618 120.531 33.6494 120.122 34.0213C119.712 34.3932 119.379 34.8422 119.143 35.3427C118.906 35.8432 118.771 36.3853 118.744 36.9381C118.717 37.4909 118.8 38.0436 118.986 38.5646C119.173 39.0857 119.461 39.5648 119.833 39.9747C120.204 40.3845 120.653 40.7172 121.154 40.9535C121.654 41.1899 122.197 41.3253 122.749 41.3522C124.171 41.4206 125.464 40.7756 126.27 39.7232L131.663 40.0026C131.809 42.0957 132.332 44.1955 133.298 46.217L133.485 46.6083C132.785 46.5958 132.081 46.7987 131.385 47.1312C129.469 48.2607 128.737 50.6399 129.682 52.6179L129.817 52.9005C130.998 54.9259 133.572 55.6183 135.586 54.4689C136.632 53.8626 137.328 52.8621 137.585 51.7783C138.529 52.5818 139.584 53.2795 140.694 53.8704L138.038 61.3876C136.717 61.7519 135.644 62.6918 135.136 64.0297C134.782 65.1333 134.88 66.2881 135.347 67.2662C135.815 68.2444 136.652 69.0459 137.733 69.4639C139.95 70.1931 142.341 69.0504 143.167 66.8669C143.52 65.7633 143.423 64.6086 142.955 63.6304C142.851 63.4131 142.747 63.1957 142.568 62.9878L145.223 55.4706C147.145 55.8605 149.149 55.9178 151.137 55.6084L152.29 58.0212C151.846 58.8003 151.663 59.7009 151.767 60.5916C151.871 61.4823 152.257 62.3164 152.868 62.9722C153.48 63.6281 154.285 64.0713 155.166 64.2372C156.048 64.4032 156.959 64.2832 157.767 63.8947C158.577 63.5098 159.243 62.8762 159.667 62.0863C160.092 61.2964 160.252 60.3915 160.126 59.5037C160 58.6158 159.594 57.7916 158.966 57.1511C158.338 56.5107 157.522 56.0876 156.637 55.9436L155.785 54.1612C159.198 52.5303 161.787 49.958 163.439 46.7655L167.744 48.2862C167.793 48.5565 167.896 48.7739 168 48.9912C168.468 49.9694 169.305 50.7709 170.386 51.1889C172.582 51.9285 174.994 50.7755 175.82 48.5919C176.174 47.4884 176.076 46.3336 175.608 45.3555C175.141 44.3773 174.304 43.5757 173.223 43.1578C171.862 42.7132 170.457 42.9576 169.344 43.7566L165.039 42.2359C165.583 39.5194 165.461 36.694 164.595 33.9307L167.638 32.4764C168.417 32.9203 169.317 33.1036 170.208 32.9996C171.099 32.8955 171.933 32.5095 172.589 31.898C173.245 31.2864 173.688 30.4813 173.854 29.6C174.02 28.7188 173.9 27.8075 173.511 26.9993ZM137.646 44.1394C134.778 38.1401 137.321 30.9442 143.32 28.0771C149.319 25.21 156.515 27.7522 159.382 33.7515C162.249 39.7508 159.707 46.9468 153.708 49.8138C147.709 52.6809 140.513 50.1388 137.646 44.1394ZM153.477 32.5686C152.615 30.7644 150.462 30.0041 148.658 30.8663C146.854 31.7285 146.094 33.8808 146.956 35.685C147.818 37.4891 149.97 38.2495 151.774 37.3873C153.579 36.5251 154.339 34.3727 153.477 32.5686ZM148.418 44.3316C147.846 43.1361 146.401 42.6254 145.205 43.1967C144.01 43.7681 143.499 45.2137 144.07 46.4092C144.642 47.6047 146.087 48.1154 147.283 47.5441C148.478 46.9727 148.989 45.5271 148.418 44.3316Z" fill="white"/>
</g>
<g clip-path="url(#clip2)">
<path d="M11.2568 35.566C10.9467 36.0689 10.8054 36.6578 10.8536 37.2468C10.9018 37.8357 11.1369 38.3938 11.5247 38.8396C11.9125 39.2855 12.4326 39.5957 13.0091 39.7251C13.5857 39.8545 14.1885 39.7962 14.7296 39.5588L16.624 40.721C16.0528 42.0467 15.7479 43.4241 15.7124 44.8177L12.6395 44.9998C12.0936 44.311 11.2402 43.8806 10.3085 43.9422C9.35491 44.0091 8.55484 44.5239 8.09828 45.2681C7.80774 45.7417 7.65252 46.2983 7.70117 46.8869C7.78961 48.4124 9.09849 49.5879 10.6323 49.4859C11.5776 49.4326 12.3776 48.9177 12.8342 48.1735L16.087 47.9714C16.3119 48.9102 16.6791 49.7687 17.1555 50.6011C16.8813 50.8053 16.6528 51.0562 16.4785 51.3404C16.105 51.9493 15.9614 52.6993 16.1174 53.4468C16.5084 54.9345 17.9969 55.8476 19.5002 55.5221C20.1063 55.3538 20.5998 55.0048 21.0069 54.584C21.7376 55.0323 22.4993 55.3692 23.2672 55.6354L22.6533 57.6986C22.0442 57.9022 21.5092 58.3189 21.1688 58.8737C21.0443 59.0767 20.9115 59.2932 20.8682 59.546C20.6614 60.2537 20.7442 61.0146 21.0982 61.6614C21.4523 62.3082 22.0487 62.7879 22.7564 62.995C23.9996 63.3667 25.2822 62.7939 25.9048 61.7791C26.0293 61.5761 26.1538 61.3732 26.2054 61.1069C26.4621 60.2028 26.2507 59.2723 25.6965 58.5971L26.3952 56.2135C27.8377 56.2604 29.283 56.0296 30.6488 55.5639L32.442 58.7125C32.0937 59.5231 32.0981 60.457 32.5745 61.2894C32.7577 61.6047 33.0012 61.8809 33.2911 62.1022C33.581 62.3235 33.9116 62.4855 34.2641 62.5789C34.6167 62.6724 34.9841 62.6955 35.3456 62.647C35.707 62.5985 36.0554 62.4792 36.3708 62.296C36.6861 62.1129 36.9623 61.8694 37.1836 61.5794C37.4049 61.2895 37.5668 60.9589 37.6603 60.6064C37.7538 60.2539 37.7769 59.8864 37.7284 59.5249C37.6798 59.1635 37.5606 58.8151 37.3774 58.4998C36.9062 57.6892 36.086 57.2047 35.2155 57.1362L33.438 54.0531C34.5434 53.2227 35.5175 52.1814 36.2895 50.9229L36.4389 50.6794C36.6828 51.0711 37.0472 51.3878 37.4802 51.6534C38.7915 52.3089 40.3696 51.8616 41.125 50.6303L41.2329 50.4544C41.9298 49.0754 41.3909 47.4039 40.0338 46.7017C39.324 46.3408 38.5211 46.3138 37.8299 46.5602C37.9359 45.7499 37.9441 44.9169 37.8733 44.0912L42.982 42.8674C43.6568 43.4675 44.5608 43.7242 45.483 43.5264C46.2201 43.3267 46.8237 42.8589 47.1972 42.25C47.5708 41.6411 47.7143 40.8911 47.5583 40.1436C47.1673 38.6559 45.6789 37.7428 44.1755 38.0683C43.4384 38.268 42.8349 38.7358 42.4613 39.3447C42.3783 39.48 42.2953 39.6153 42.2446 39.789L37.1358 41.0129C36.663 39.8103 35.9772 38.6818 35.0939 37.693L36.0153 36.191C36.6053 36.1575 37.169 35.9362 37.6244 35.5597C38.0797 35.1831 38.4028 34.6708 38.5464 34.0977C38.6901 33.5245 38.6468 32.9205 38.4229 32.3736C38.1991 31.8268 37.8063 31.3658 37.3019 31.058C36.799 30.7479 36.2101 30.6066 35.6212 30.6548C35.0322 30.703 34.4741 30.9382 34.0283 31.3259C33.5825 31.7137 33.2722 32.2338 33.1428 32.8104C33.0134 33.3869 33.0717 33.9897 33.3091 34.5308L32.6284 35.6404C30.504 34.3371 28.154 33.8266 25.7967 34.0566L25.0958 31.1311C25.2277 31.0071 25.3107 30.8718 25.3938 30.7365C25.7673 30.1276 25.9108 29.3776 25.7548 28.63C25.3774 27.1507 23.8754 26.2293 22.372 26.5548C21.635 26.7544 21.0314 27.2222 20.6578 27.8311C20.2843 28.44 20.1408 29.1901 20.2968 29.9376C20.5383 30.8493 21.1767 31.539 22.0175 31.8685L22.7183 34.794C21.021 35.4661 19.502 36.5457 18.2842 38.0147L16.3898 36.8526C16.3562 36.2627 16.135 35.6989 15.7584 35.2436C15.3819 34.7882 14.8696 34.4652 14.2965 34.3215C13.7233 34.1778 13.1192 34.2211 12.5724 34.445C12.0256 34.6688 11.5646 35.0616 11.2568 35.566ZM33.5832 49.2627C31.2922 52.9973 26.4017 54.1689 22.6671 51.8778C18.9325 49.5867 17.761 44.6963 20.052 40.9617C22.3431 37.2271 27.2336 36.0555 30.9682 38.3466C34.7028 40.6377 35.8743 45.5281 33.5832 49.2627ZM21.5131 44.6516C20.8241 45.7747 21.1746 47.2374 22.2976 47.9264C23.4207 48.6154 24.8835 48.265 25.5725 47.1419C26.2615 46.0188 25.9111 44.556 24.788 43.867C23.6649 43.1781 22.2021 43.5285 21.5131 44.6516ZM29.831 43.2361C29.3744 43.9803 29.6098 44.9627 30.354 45.4193C31.0982 45.8759 32.0807 45.6405 32.5372 44.8963C32.9938 44.1521 32.7584 43.1696 32.0142 42.7131C31.27 42.2565 30.2875 42.4919 29.831 43.2361Z" fill="white"/>
</g>
<defs>
<clipPath id="clip0">
<rect width="45.0853" height="45.0853" fill="white" transform="translate(67.1324 46.9863) rotate(6.09386)"/>
</clipPath>
<clipPath id="clip1">
<rect width="57.8193" height="57.8193" fill="white" transform="translate(162.133 0.395508) rotate(64.457)"/>
</clipPath>
<clipPath id="clip2">
<rect width="38.0989" height="38.0989" fill="white" transform="translate(0.618958 51.3887) rotate(-58.4719)"/>
</clipPath>
</defs>
</svg>
