<svg width="50" height="50" viewBox="0 0 51 51" fill="none" xmlns="http://www.w3.org/2000/svg">
<path d="M48.2182 0.801758H2.77411C1.68123 0.801758 0.798279 1.68471 0.798279 2.77759V48.2217C0.798279 49.3146 1.68123 50.1975 2.77411 50.1975H48.2182C49.3111 50.1975 50.194 49.3146 50.194 48.2217V2.77759C50.194 1.68471 49.3111 0.801758 48.2182 0.801758ZM42.513 15.2191H38.5675C35.4741 15.2191 34.8752 16.6887 34.8752 18.8497V23.6103H42.2599L41.2966 31.0628H34.8752V50.1975H27.1756V31.069H20.7356V23.6103H27.1756V18.115C27.1756 11.7367 31.0717 8.26052 36.7646 8.26052C39.4937 8.26052 41.8338 8.46428 42.5192 8.55689V15.2191H42.513Z" fill="#395185"/>
</svg>
