<svg width="50" height="50" viewBox="0 0 49 49" fill="none" xmlns="http://www.w3.org/2000/svg">
<g clip-path="url(#clip0)">
<path d="M4.08469 4.0172C0.358274 7.88785 1.12094 11.9996 1.12094 24.4908C1.12094 34.8639 -0.688917 45.2627 8.78322 47.7107C11.741 48.4714 37.9485 48.4714 40.9023 47.7068C44.8461 46.6892 48.0548 43.4903 48.4935 37.9126C48.5547 37.1341 48.5547 11.8612 48.4915 11.067C48.0252 5.12564 44.3679 1.70153 39.5489 1.00801C38.4444 0.847968 38.2231 0.800548 32.5564 0.790669C12.4563 0.800548 8.05018 -0.0945033 4.08469 4.0172Z" fill="url(#paint0_linear)"/>
<path d="M24.0772 6.99053C16.9029 6.99053 10.0903 6.35234 7.48812 13.0306C6.41326 15.7889 6.56935 19.3711 6.56935 24.5003C6.56935 29.0013 6.42512 33.2315 7.48812 35.9681C10.0844 42.6503 16.9523 42.0102 24.0732 42.0102C30.9432 42.0102 38.0266 42.7254 40.6603 35.9681C41.7372 33.1821 41.5791 29.6533 41.5791 24.5003C41.5791 17.66 41.9565 13.244 38.6391 9.92859C35.2802 6.56968 30.7377 6.99053 24.0693 6.99053H24.0772ZM22.5084 10.1459C37.4733 10.1222 39.378 8.45858 38.3269 31.5699C37.9534 39.7439 31.7296 38.8469 24.0792 38.8469C10.1298 38.8469 9.72871 38.4477 9.72871 24.4924C9.72871 10.3751 10.8352 10.1538 22.5084 10.142V10.1459ZM33.4229 13.0524C32.2631 13.0524 31.3226 13.9929 31.3226 15.1527C31.3226 16.3125 32.2631 17.253 33.4229 17.253C34.5827 17.253 35.5232 16.3125 35.5232 15.1527C35.5232 13.9929 34.5827 13.0524 33.4229 13.0524ZM24.0772 15.5083C19.1119 15.5083 15.0872 19.5351 15.0872 24.5003C15.0872 29.4656 19.1119 33.4904 24.0772 33.4904C29.0425 33.4904 33.0652 29.4656 33.0652 24.5003C33.0652 19.5351 29.0425 15.5083 24.0772 15.5083ZM24.0772 18.6637C31.7928 18.6637 31.8027 30.337 24.0772 30.337C16.3635 30.337 16.3517 18.6637 24.0772 18.6637Z" fill="white"/>
</g>
<defs>
<linearGradient id="paint0_linear" x1="4.17562" y1="45.1818" x2="48.2474" y2="7.0382" gradientUnits="userSpaceOnUse">
<stop stop-color="#FFDD55"/>
<stop offset="0.5" stop-color="#FF543E"/>
<stop offset="1" stop-color="#C837AB"/>
</linearGradient>
<clipPath id="clip0">
<rect width="47.4199" height="47.4199" fill="white" transform="translate(0.982605 0.790039)"/>
</clipPath>
</defs>
</svg>
