<svg width="50" height="50" viewBox="0 0 50 51" fill="none" xmlns="http://www.w3.org/2000/svg">
<path d="M47.8225 0.801758H2.37836C1.28548 0.801758 0.402527 1.68471 0.402527 2.77759V48.2217C0.402527 49.3146 1.28548 50.1975 2.37836 50.1975H47.8225C48.9153 50.1975 49.7983 49.3146 49.7983 48.2217V2.77759C49.7983 1.68471 48.9153 0.801758 47.8225 0.801758ZM38.394 18.6892C38.4126 18.9794 38.4126 19.2819 38.4126 19.5783C38.4126 28.6424 31.5095 39.0835 18.8951 39.0835C15.0052 39.0835 11.3993 37.9536 8.36142 36.0086C8.91712 36.0703 9.44813 36.095 10.0162 36.095C13.2269 36.095 16.1783 35.0083 18.5308 33.1683C15.5176 33.1066 12.9861 31.1308 12.1217 28.414C13.1775 28.5684 14.1284 28.5684 15.2151 28.2905C13.6636 27.9753 12.2691 27.1327 11.2685 25.9058C10.2678 24.679 9.72281 23.1435 9.72598 21.5603V21.4739C10.6336 21.9864 11.7018 22.3013 12.8194 22.3445C11.8799 21.7184 11.1094 20.8701 10.5763 19.8749C10.0431 18.8797 9.76379 17.7683 9.76303 16.6393C9.76303 15.3612 10.0964 14.1942 10.6954 13.1816C12.4174 15.3015 14.5663 17.0353 17.0024 18.2704C19.4384 19.5054 22.1071 20.214 24.8349 20.3501C23.8655 15.6884 27.3479 11.9158 31.5342 11.9158C33.51 11.9158 35.2883 12.7432 36.5417 14.0769C38.0915 13.7867 39.5734 13.2063 40.8947 12.4283C40.3822 14.0151 39.3079 15.355 37.8816 16.2009C39.2646 16.0527 40.5983 15.6699 41.8332 15.1327C40.9009 16.5034 39.7339 17.7198 38.394 18.6892Z" fill="#55ACEE"/>
</svg>
