<svg width="56" height="40" viewBox="0 0 56 40" fill="none" xmlns="http://www.w3.org/2000/svg">
<path d="M54.5644 6.95266C54.2495 5.77975 53.632 4.71012 52.7738 3.85083C51.9156 2.99154 50.8467 2.37272 49.6742 2.05631C45.3583 0.895508 28.0574 0.895508 28.0574 0.895508C28.0574 0.895508 10.7565 0.895508 6.44056 2.05013C5.26754 2.36552 4.19814 2.98399 3.33978 3.84345C2.48141 4.7029 1.86428 5.77307 1.55038 6.94649C0.395752 11.2686 0.395752 20.2833 0.395752 20.2833C0.395752 20.2833 0.395752 29.2981 1.55038 33.614C2.18635 35.9974 4.06339 37.8744 6.44056 38.5104C10.7565 39.6712 28.0574 39.6712 28.0574 39.6712C28.0574 39.6712 45.3583 39.6712 49.6742 38.5104C52.0576 37.8744 53.9284 35.9974 54.5644 33.614C55.719 29.2981 55.719 20.2833 55.719 20.2833C55.719 20.2833 55.719 11.2686 54.5644 6.95266ZM22.5621 28.5571V12.0096L36.8869 20.2216L22.5621 28.5571Z" fill="#FF0000"/>
</svg>
