<svg width="346" height="50" viewBox="0 0 346 50" fill="none" xmlns="http://www.w3.org/2000/svg">
<path d="M335.555 47.3605H336.574C337.48 47.4359 338.329 47.4925 339.197 47.4925C341.971 47.4925 344.046 47.0019 345.197 46.0962C345.348 45.8887 345.273 45.0774 345.235 44.5302C345.178 43.7754 345.103 42.9075 345.16 41.9829V35.3411C345.16 35.0392 345.179 34.7184 345.16 34.5109C345.537 29.1711 345.48 23.5482 345.028 18.5291V16.7366C345.046 15.0573 345.084 13.3591 345.122 11.5855C345.122 11.0194 345.16 10.4533 345.179 9.86841L345.216 8.90612C345.348 6.11356 345.499 3.2078 344.575 1.60396C344.499 1.50962 344.159 1.24545 342.876 1.24545C342.254 1.24545 341.575 1.30205 340.877 1.35866C339.858 1.43413 338.82 1.50961 337.914 1.45301H336.725C335.027 1.60396 332.876 1.6228 330.914 1.49072C331.065 3.94365 331.027 6.0192 330.819 8.50987L330.838 13.095C330.97 15.5479 331.027 18.2084 331.027 20.9255V23.6237C331.027 26.2087 331.046 29.7371 331.046 30.0956V30.5296L330.782 30.8692C329.914 31.9636 328.442 32.3033 324.668 32.3033C323.725 32.3033 322.611 32.2844 321.272 32.2278H320.045C319.479 32.2844 317.762 32.4542 316.234 32.4542C314.328 32.4542 313.441 32.2467 312.932 31.6617L312.574 31.2278C311.441 29.9824 311.592 27.9635 311.724 25.9823C311.8 25.02 311.856 24.0388 311.8 23.1142V8.66082C311.988 6.15129 311.762 3.77384 311.517 1.47186C311.347 1.35865 310.989 1.22656 310.158 1.22656C309.611 1.22656 309.026 1.28316 308.422 1.33977C307.498 1.41524 306.535 1.50959 305.63 1.43412C305.196 1.43412 304.705 1.39638 304.214 1.37752L303.384 1.32091C302.535 1.26431 301.705 1.22656 300.912 1.22656C299.327 1.22656 298.29 1.453 297.686 1.94358C297.101 2.35869 297.252 4.07575 297.365 5.4343C297.441 6.35886 297.535 7.32114 297.479 8.24571V9.34009C297.573 13.0195 297.591 16.9819 297.554 20.7934C297.554 21.0387 297.592 22.5293 297.629 24.152C297.686 26.171 297.743 28.3786 297.724 28.6805C297.61 32.624 298.648 33.8316 303.517 37.7752L304.517 38.8129C305.158 39.4922 305.818 39.9828 306.516 40.5111C307.233 41.0395 307.969 41.6055 308.668 42.3414L309.422 43.1527C312.743 46.9265 313.083 47.0774 314.762 47.0774C315.14 47.0774 315.555 47.0585 316.026 47.0397L316.31 47.0208C316.536 47.0208 317.687 47.0963 318.838 47.1906C319.932 47.2661 321.026 47.3605 321.234 47.3605H335.555Z" fill="#EEC632"/>
<path d="M43.5451 3.01979C42.9225 1.77446 40.9979 1.4348 34.5825 1.4348C33.5448 1.4348 32.4883 1.43482 31.4316 1.45369C29.2051 1.47256 27.1104 1.49142 25.4499 1.41594H22.2423C19.7894 1.51029 15.9968 1.45367 12.3552 1.3782C10.1287 1.34046 7.95873 1.30273 6.16621 1.30273C2.10944 1.30273 0.599876 1.30272 0.430058 2.79335C0.316846 3.79339 0.298088 4.00093 11.8646 14.2844C13.8458 16.0391 15.7517 17.7373 17.2801 19.1148C17.5254 19.3789 17.7894 19.7751 18.0724 20.2091C18.4121 20.7374 18.7708 21.3035 19.2236 21.7564L25.9783 28.568C26.4312 29.0397 26.9028 29.5114 27.3557 29.9265C29.8275 31.9832 33.0921 35.8701 35.7148 39.0212C39.6961 43.7761 40.5639 44.7007 41.6394 44.7007C42.0168 44.7007 42.4697 44.4931 42.715 44.229C43.4132 43.4365 43.6397 41.5685 43.7529 30.6435C43.7718 29.2284 43.7902 27.9264 43.8091 26.8132C43.7902 25.8697 43.7902 24.9452 43.8091 24.1149V23.0017C43.7902 22.0583 43.7713 21.096 43.7713 20.1714C43.7147 14.7561 43.9225 12.9447 44.4697 8.13318C44.6961 6.01989 43.998 3.92549 43.5451 3.01979Z" fill="#EEC632"/>
<path d="M227.911 4.83094L227.892 3.43465C227.892 2.84972 227.477 2.34029 226.911 2.18934L225.553 1.84969C225.119 1.73648 224.458 1.62326 222.59 1.54778C222.307 1.54778 222.156 1.52891 222.175 1.54778C221.93 1.43457 221.647 1.41571 221.364 1.47232L219.439 1.92518C219.307 1.96292 219.194 2.00066 219.081 2.07613L218.307 2.52896C218.043 2.67991 217.835 2.9252 217.741 3.20823C216.93 5.51021 216.533 8.37826 216.533 12.001C216.533 14.1332 216.59 17.3031 216.665 21.4354C216.76 25.5487 216.798 28.6998 216.798 30.8131C216.798 35.7944 216.684 40.1342 216.458 43.6815L216.42 44.5495L216.533 46.7571C216.552 47.1534 216.741 47.5119 217.062 47.7383C217.288 47.9081 217.552 47.9836 217.835 47.9836C217.948 47.9836 218.043 47.9647 218.156 47.9459L220.741 47.2854C220.854 47.3043 221.005 47.342 221.25 47.3986C222.156 47.6251 222.855 47.7383 223.458 47.7383C224.647 47.7383 225.76 47.3232 226.779 46.5118L227.439 45.9835C227.741 45.7382 227.93 45.3797 227.93 44.9835L227.949 44.1344C228.043 37.1907 228.081 32.1528 228.081 28.7375V20.3598C228.043 16.9635 228.005 11.869 227.911 4.83094Z" fill="#EEC632"/>
<path d="M190.766 1.87611C188.634 1.49874 186.955 1.34779 178.842 1.34779C176.898 1.34779 175.181 1.25345 173.691 1.08363L172.992 1.00814C172.653 0.970405 172.313 1.06475 172.049 1.2723H172.03C169.992 1.32891 168.992 2.4233 168.558 3.08371L168.2 3.64977C168.03 3.91393 167.973 4.21582 168.011 4.51772L168.087 5.17813C168.257 6.48007 168.332 7.95181 168.332 9.55565C168.332 10.1783 168.294 11.1972 168.2 12.5746C168.105 14.0841 168.068 15.254 168.068 16.0654C168.068 16.1974 168.086 16.3295 168.124 16.4427L168.143 17.0088C168.181 18.6504 168.256 22.5184 168.426 24.7638C168.502 25.7261 168.558 34.5189 168.596 40.3493C168.615 43.5759 168.634 46.1609 168.652 46.6892C168.671 47.3873 169.238 47.9534 169.955 47.9534H178.728C179.012 47.9534 179.276 47.859 179.502 47.7081C179.709 47.859 179.955 47.9534 180.219 47.9534C181.068 47.9911 181.408 48.01 181.672 48.0289C182.087 48.0666 182.314 48.0855 183.898 48.0855C187.899 48.0855 190.899 47.8591 193.012 47.4062C196.824 46.6892 199.937 45.1608 202.239 42.8211C206.352 38.6889 207.428 36.5944 207.824 35.2359C208.824 33.6321 209.428 31.632 209.635 29.2168V23.726C209.635 23.5373 209.654 23.16 209.711 22.4807C209.786 21.6693 209.824 21.1033 209.824 20.6882C209.824 19.0843 209.277 16.6125 205.126 10.4802C201.994 5.83853 197.144 2.93276 190.766 1.87611ZM180.049 35.9529C180.087 27.7828 180.163 17.1786 180.257 13.2351C181.578 13.2917 182.597 13.3294 183.465 13.3671C185.634 13.4615 186.748 13.5181 188.71 13.5181C188.88 13.5558 189.201 13.6501 189.748 13.8011C192.163 14.5181 194.238 15.7823 195.936 17.556C196.653 18.2918 196.861 18.6315 196.899 18.707C197.465 19.6693 197.823 21.2165 197.937 23.1222C197.974 24.9525 198.031 26.8393 198.107 28.7262C197.144 31.0848 196.729 31.8962 196.635 32.1037C196.031 33.1415 195.352 33.8396 194.559 34.2736C192.465 35.4057 188.748 35.9907 183.861 35.9907C183.125 35.9907 181.993 35.9718 180.295 35.9152C180.182 35.934 180.106 35.934 180.049 35.9529Z" fill="#EEC632"/>
<path d="M167.834 43.3601L167.079 41.9639C165.004 38.0958 159.834 25.0576 156.758 17.2837C155.117 13.1703 154.399 11.3212 154.173 10.906C153.531 9.66072 152.89 8.45314 152.23 7.26441C151.569 6.01908 151.097 4.96242 150.871 4.09446L150.777 3.7737C150.72 3.60388 150.645 3.43406 150.531 3.30198L150.305 3.01896C148.89 1.22644 142.437 1 142.38 1C141.757 1 141.003 1.09434 140.059 1.26416C139.474 1.37737 139.21 1.39625 139.135 1.39625H134.248C133.795 1.39625 133.361 1.64154 133.116 2.03778L132.55 2.96233C131.889 4.03784 130.983 5.58509 129.738 7.81159L129.644 8.01915C129.568 8.1701 122.474 24.1518 118.398 34.0956C117.907 35.2844 118.795 36.4354 121.078 37.6429C121.266 37.7373 121.474 37.7939 121.7 37.7939H130.833C131.436 37.8128 144.984 38.209 148.777 38.2656L151.531 46.4357C151.72 46.9829 152.211 47.3414 152.796 47.3414H152.814H153.418C155.098 47.3226 157.438 47.2848 161.57 47.2471L163.494 47.2282C163.966 47.2282 164.381 46.9641 164.626 46.5678C165.079 46.398 165.513 46.2093 165.891 45.9829L167.325 45.1338C167.947 44.7564 168.173 43.9828 167.834 43.3601ZM143.871 26.3217C143.644 26.3217 143.267 26.3217 142.927 26.435C142.72 26.4538 142.399 26.4538 141.965 26.4727C140.191 26.5293 139.871 26.567 139.663 26.5859C139.531 26.6048 139.456 26.6048 138.852 26.6048C137.399 26.6048 135.984 26.5859 134.625 26.5482C137.116 19.8875 138.739 15.8119 139.512 14.3024C139.682 13.8307 139.908 13.2458 140.191 12.5288C140.588 13.3967 141.229 14.793 142.078 16.4346C142.588 17.3025 143.003 18.1328 143.38 18.963C144.229 20.6423 145.267 23.4914 146.324 26.435C145.475 26.3406 144.644 26.3217 143.871 26.3217Z" fill="#EEC632"/>
<path d="M113.793 7.09365C111.303 4.92375 107.812 3.45199 103.416 2.69724C100.189 2.2444 96.9812 1.77269 93.8113 1.31984L93.4151 1.26324C93.2265 1.24437 93.0377 1.24437 92.849 1.30098L92.4717 1.41419C91.5283 1.69722 90.3961 1.84816 89.1319 1.84816C88.3206 1.84816 87.0375 1.75382 85.3393 1.584C83.4147 1.39531 81.981 1.28209 80.981 1.28209C79.547 1.28209 78.2071 1.39533 76.9806 1.60289L75.4899 1.86705C74.8672 1.98026 74.4147 2.50857 74.4147 3.1501V9.47112C74.4147 11.207 74.4332 13.792 74.4898 17.2073V24.8679C74.4898 26.434 74.4709 26.9812 74.452 28.0567L74.377 31.1512C74.377 31.5097 74.5089 31.8305 74.7542 32.0946C74.9995 32.3399 75.3391 32.4909 75.6788 32.4909H80.8866C80.9998 32.5286 81.1129 32.5475 81.2827 32.5475H83.094L83.3396 32.5852C83.4905 32.6041 83.6603 32.6041 83.8113 32.5663L84.8109 32.4154C84.9807 32.4154 85.1506 32.3588 85.3015 32.2833C86.0185 32.189 86.8678 32.1512 87.8301 32.1512C88.6037 32.1512 89.7927 32.189 91.3965 32.2833C93.0947 32.3777 94.4152 32.4343 95.302 32.4343C95.6416 32.4343 96.0192 32.4154 96.4343 32.3777L103.435 45.7367C104.548 47.7745 106.548 48.9066 109.076 48.9066C109.472 48.9066 110.001 48.8878 110.699 48.8312C111.19 48.7934 111.548 48.7746 111.774 48.7746C111.85 48.7746 111.982 48.7934 112.284 48.85L114.454 49.284C114.529 49.3029 114.624 49.3029 114.718 49.3029C115.02 49.3029 115.303 49.2085 115.548 49.001C115.85 48.7557 116.02 48.3783 116.02 48.0009V44.9819C116.02 44.7932 115.982 44.6234 115.907 44.4536L115.756 44.0951C115.133 42.7177 113.68 40.1138 111.284 36.1325C110.321 34.5476 109.51 33.0947 108.906 31.7928C111.793 30.8682 114.265 28.6039 116.284 25.1132C117.058 23.8302 117.378 23.1509 117.529 22.5848C117.831 21.4905 117.982 19.9809 117.982 17.8299C117.982 14.1883 117.548 11.8297 116.567 10.1504C115.907 9.13148 115.02 8.13142 113.793 7.09365ZM106.51 18.0752C106.51 18.679 106.473 18.9054 106.473 18.9054C106.378 19.3017 105.17 20.0942 102.359 20.5282C101.604 20.6414 101.095 20.7357 100.849 20.7734H95.4153C93.9813 20.8112 92.9059 20.8489 92.1889 20.8489C89.9058 20.8489 88.0189 20.7357 86.5472 20.5093L86.6416 13.0562C86.9812 13.075 87.3772 13.075 87.7923 13.0939C89.0376 13.1505 89.8491 13.1505 90.2076 13.1694C100.868 13.3958 104.434 14.6977 105.604 15.4336C105.812 15.5845 106.51 16.0374 106.51 18.0752Z" fill="#EEC632"/>
<path d="M276.536 16.9069C276.215 14.7748 275.649 12.0954 274.196 10.3218C273.252 9.01984 272.196 7.81224 271.045 6.77446C265.403 1.64218 257.233 -0.33902 248.081 1.20821C248.006 1.22708 247.931 1.24595 247.874 1.26481C246.591 1.71766 245.308 2.32145 244.082 3.05733C242.912 3.77434 241.761 4.60457 240.685 5.56687C239.289 6.83107 238.025 8.26508 236.892 9.83118C230.534 19.6806 230.383 32.0585 236.515 40.6249C237.515 42.0211 238.685 43.3608 239.968 44.5684C240.025 44.625 240.081 44.6628 240.138 44.7005L240.572 44.9835C241.459 45.5873 242.346 46.1911 243.233 46.7572C243.308 46.8138 243.383 46.8515 243.478 46.8704C246.855 48.1723 250.686 48.8516 254.535 48.8516C263.384 48.8516 273.648 44.9269 275.894 33.8887C276.139 32.7377 276.366 31.4358 276.63 29.7942C276.838 25.7375 276.819 21.6807 276.536 16.9069ZM264.988 27.5677C264.875 28.3791 264.743 29.0584 264.629 29.6622C263.176 37.304 254.535 38.3795 249.1 36.153C248.591 35.7945 248.063 35.4171 247.553 35.0397C246.93 34.417 246.365 33.7189 245.893 33.0019C243.006 28.7187 243.006 22.2845 246.101 17.1711C246.629 16.3786 247.233 15.6616 247.912 15.0012C248.421 14.5295 248.949 14.0955 249.515 13.737C250.082 13.3785 250.686 13.0577 251.308 12.8313C255.724 12.0388 259.629 12.9823 262.365 15.6616C262.912 16.1899 263.422 16.7937 263.875 17.473C264.479 18.2655 264.762 19.4542 264.931 20.7184C265.101 23.3789 265.101 25.5111 264.988 27.5677Z" fill="#EEC632"/>
</svg>
