<svg width="343" height="100" viewBox="0 0 343 100" fill="none" xmlns="http://www.w3.org/2000/svg">
<path d="M164.807 43.503L164.038 42.0785C161.902 38.0862 156.598 24.7224 153.43 16.719C151.743 12.4831 150.993 10.5712 150.768 10.1589C150.112 8.88436 149.438 7.64731 148.782 6.41026C148.088 5.13572 147.62 4.02979 147.376 3.16761L147.282 2.83024C147.226 2.66155 147.151 2.49285 147.038 2.3429L146.814 2.06182C145.352 0.206244 138.735 0 138.66 0C138.023 0 137.254 0.0937618 136.261 0.281194C135.661 0.393653 135.399 0.431172 135.324 0.431172H130.301C129.832 0.431172 129.383 0.674787 129.139 1.08714L128.558 2.04306C127.883 3.14891 126.946 4.74213 125.671 7.01005C125.652 7.0288 125.577 7.21622 125.559 7.23496C125.484 7.40365 118.174 23.8227 113.994 34.0377C113.488 35.256 114.388 36.4556 116.749 37.6739C116.937 37.7864 117.162 37.8239 117.387 37.8239H126.777C127.396 37.8426 141.322 38.2549 145.22 38.3111L148.05 46.7081C148.238 47.2704 148.763 47.6265 149.344 47.6265H149.362H149.719C151.481 47.6078 153.898 47.5703 158.378 47.5141L160.365 47.4953C160.852 47.4953 161.283 47.233 161.527 46.8206C161.995 46.6519 162.427 46.4457 162.82 46.2208L164.301 45.3398C164.938 44.9462 165.144 44.1403 164.807 43.503ZM142.671 26.0719C141.828 26.0156 140.984 25.9782 140.178 25.9782C139.935 25.9782 139.56 25.9782 139.204 26.0906C138.979 26.1094 138.66 26.1093 138.229 26.128C136.411 26.1843 136.074 26.2217 135.867 26.2405C135.736 26.2592 135.661 26.2592 135.024 26.2592C133.525 26.2592 132.062 26.2406 130.675 26.2031C133.225 19.3618 134.893 15.1633 135.699 13.6076C135.868 13.139 136.111 12.5205 136.392 11.7895C136.805 12.6892 137.461 14.1137 138.323 15.8006C138.848 16.7003 139.279 17.5437 139.654 18.4058C140.516 20.1115 141.603 23.0542 142.671 26.0719Z" fill="#EC3E8D"/>
<path d="M222.349 4.72322L222.33 3.33624C222.33 2.7552 221.918 2.24909 221.355 2.11789L220.006 1.78052C219.594 1.68681 218.919 1.55565 217.082 1.48068C216.763 1.48068 216.613 1.46192 216.632 1.46192C216.388 1.3682 216.126 1.34941 215.882 1.40564L213.971 1.85557C213.839 1.89305 213.727 1.93044 213.614 1.98667L212.846 2.4366C212.583 2.58655 212.377 2.83018 212.283 3.11133C211.478 5.37926 211.084 8.20949 211.084 11.7894C211.084 13.8887 211.121 17.0375 211.215 21.1048C211.309 25.1533 211.346 28.2647 211.346 30.3639C211.346 35.2934 211.234 39.5669 211.009 43.0719L210.972 43.934L211.084 46.127C211.103 46.5206 211.29 46.8579 211.609 47.1016C211.834 47.2703 212.096 47.3452 212.377 47.3452C212.49 47.3452 212.583 47.3266 212.696 47.3078L215.245 46.6518C215.358 46.6705 215.507 46.708 215.732 46.7642C216.613 46.9891 217.307 47.1016 217.906 47.1016C219.069 47.1016 220.174 46.6893 221.187 45.8833L221.843 45.3585C222.143 45.1148 222.311 44.7588 222.33 44.3651L222.349 43.5217C222.443 36.6617 222.48 31.6947 222.48 28.321V20.0551C222.48 16.6814 222.424 11.6582 222.349 4.72322Z" fill="#EC3E8D"/>
<path d="M201.45 10.2715C198.339 5.66067 193.541 2.79298 187.243 1.74336C185.125 1.3685 183.476 1.2185 175.472 1.2185C173.579 1.2185 171.855 1.12475 170.393 0.956065L169.718 0.881134C169.399 0.843647 169.062 0.937391 168.781 1.14357H168.762C166.757 1.1998 165.763 2.28683 165.332 2.94284L164.976 3.50523C164.807 3.76763 164.751 4.06743 164.789 4.34858L164.863 5.00466C165.013 6.2792 165.107 7.74117 165.107 9.33434C165.107 9.95286 165.07 10.9462 164.976 12.3144C164.882 13.7952 164.845 14.9573 164.845 15.7445C164.845 15.8757 164.863 16.0069 164.901 16.1194L164.92 16.7192C164.957 18.3498 165.032 22.1547 165.201 24.3477C165.276 25.3036 165.332 34.0191 165.369 39.792C165.388 42.9596 165.407 45.4712 165.426 45.996C165.444 46.6895 166.007 47.2518 166.7 47.2518H175.36C175.641 47.2518 175.903 47.1581 176.128 47.0081C176.334 47.1581 176.578 47.2518 176.84 47.2518C177.684 47.2893 178.021 47.308 178.284 47.3267C178.696 47.3642 178.921 47.383 180.477 47.383C184.431 47.383 187.393 47.1581 189.492 46.7271C193.26 46.0336 196.333 44.4966 198.601 42.2099C202.668 38.1239 203.718 36.0621 204.112 34.7314C205.105 33.1382 205.705 31.1702 205.911 28.7898V23.373C205.911 23.1855 205.93 22.8106 205.986 22.1359C206.061 21.3299 206.098 20.7677 206.098 20.3554C206.098 18.7622 205.536 16.3256 201.45 10.2715ZM176.653 35.3873C176.69 27.3277 176.766 16.8503 176.859 12.933C178.19 12.9892 179.221 13.0267 180.083 13.083C182.182 13.1767 183.307 13.2328 185.2 13.2328C185.369 13.2703 185.669 13.3641 186.212 13.514C188.592 14.2263 190.654 15.4633 192.322 17.2252C192.997 17.9187 193.222 18.2749 193.278 18.3686C193.841 19.3245 194.197 20.8427 194.309 22.717C194.347 24.5164 194.403 26.3906 194.478 28.2462C193.522 30.5891 193.128 31.3763 193.016 31.5825C192.416 32.5946 191.741 33.3069 190.954 33.7193C188.874 34.8251 185.218 35.4249 180.383 35.4249C179.652 35.4249 178.527 35.4061 176.878 35.3499C176.803 35.3687 176.728 35.3873 176.653 35.3873Z" fill="#EC3E8D"/>
<path d="M112.308 9.93343C111.727 8.95878 110.845 7.98407 109.627 6.93445C107.153 4.79772 103.723 3.33574 99.3745 2.58601C96.1881 2.13617 93.0204 1.66763 89.8903 1.21779L89.4968 1.16162C89.3093 1.14288 89.1218 1.1428 88.9531 1.19903L88.5784 1.31149C87.6412 1.59264 86.5353 1.7239 85.2795 1.7239C84.4736 1.7239 83.1803 1.63015 81.5309 1.46147C79.6191 1.27403 78.2133 1.16162 77.2199 1.16162C75.8141 1.16162 74.4836 1.27405 73.2653 1.48023L71.7845 1.74266C71.166 1.85512 70.7348 2.3799 70.7348 2.99842V9.23994C70.7348 10.9456 70.7536 13.4945 70.8098 16.8683V24.4407C70.8098 25.9963 70.7911 26.5399 70.7723 27.5895L70.6973 30.6447C70.6973 30.982 70.8288 31.3194 71.0537 31.563C71.2974 31.8067 71.6348 31.9567 71.9721 31.9567H77.1078C77.2202 31.9942 77.3513 32.0129 77.4825 32.0129L79.188 31.9941L79.5252 32.0316C79.6752 32.0504 79.8439 32.0504 79.9938 32.0129L80.9873 31.8629C81.156 31.8629 81.3247 31.8068 81.4746 31.7318C82.1869 31.6381 83.0305 31.6006 83.9864 31.6006C84.7548 31.6006 85.9354 31.6381 87.5099 31.7318C89.1968 31.8255 90.4901 31.8817 91.3711 31.8817C91.7085 31.8817 92.0647 31.863 92.4771 31.8255L99.3932 45.0207C100.48 47.0262 102.467 48.1507 104.96 48.1507C105.354 48.1507 105.879 48.132 106.572 48.0758C107.059 48.0383 107.397 48.0196 107.622 48.0196C107.697 48.0196 107.846 48.0383 108.127 48.0946L110.264 48.5256C110.339 48.5444 110.433 48.5444 110.508 48.5444C110.808 48.5444 111.089 48.4507 111.314 48.2445C111.614 48.0009 111.783 47.6447 111.783 47.2511V44.271C111.783 44.0836 111.745 43.9148 111.67 43.7461L111.52 43.4088C110.92 42.0593 109.477 39.4914 107.097 35.5366C106.141 33.9622 105.354 32.5377 104.735 31.2444C107.584 30.326 110.039 28.0956 112.026 24.6468C112.795 23.3723 113.114 22.7162 113.245 22.1539C113.545 21.0668 113.695 19.5861 113.695 17.4681C113.695 13.9257 113.282 11.5828 112.308 9.93343ZM102.43 17.7868C102.43 18.3866 102.392 18.6115 102.392 18.6115C102.299 19.0239 101.118 19.7924 98.2126 20.2422C97.4441 20.3734 96.9565 20.4483 96.9378 20.4483H91.4836C90.0592 20.4858 89.0096 20.5045 88.2974 20.5045C86.0482 20.5045 84.1739 20.3921 82.712 20.1671L82.8053 12.8011C83.1427 12.8198 83.5177 12.8199 83.9488 12.8386C85.1859 12.8948 85.9731 12.9135 86.3293 12.9135C96.8629 13.1385 100.387 14.413 101.53 15.1627C101.736 15.3314 102.43 15.7813 102.43 17.7868Z" fill="#EC3E8D"/>
<path d="M269.563 16.4003C269.244 14.3011 268.682 11.6396 267.257 9.89648C266.32 8.60319 265.27 7.42238 264.146 6.39151C258.579 1.3121 250.482 -0.637183 241.467 0.89976C241.392 0.918503 241.317 0.937187 241.26 0.95593C239.986 1.40577 238.73 2.00557 237.531 2.73656C236.368 3.43006 235.244 4.27351 234.175 5.21067C232.788 6.46647 231.533 7.87221 230.427 9.4279C224.148 19.1556 223.998 31.3762 230.052 39.8481C231.045 41.2351 232.189 42.5471 233.463 43.7467C233.52 43.8029 233.576 43.8404 233.632 43.8779L234.007 44.1216C234.907 44.7401 235.788 45.3399 236.687 45.9022C236.762 45.9584 236.837 45.9959 236.931 46.0147C240.267 47.2892 244.034 47.9827 247.858 47.9827C256.611 47.9827 266.732 44.1028 268.963 33.1943C269.207 32.0509 269.432 30.7764 269.694 29.1458C269.863 25.0973 269.844 21.0861 269.563 16.4003ZM258.129 26.8966C258.017 27.6838 257.886 28.3585 257.773 28.9583C256.33 36.4931 247.84 37.5427 242.498 35.3498C241.992 34.9937 241.486 34.6375 240.979 34.2626C240.361 33.6441 239.817 32.9694 239.349 32.2571C236.518 28.0399 236.519 21.7047 239.555 16.6815C240.08 15.913 240.679 15.182 241.335 14.5448C241.823 14.0762 242.367 13.6639 242.929 13.289C243.491 12.9329 244.072 12.633 244.691 12.3894C249.039 11.6021 252.881 12.5393 255.58 15.1633C256.124 15.6881 256.611 16.2879 257.061 16.9439C257.661 17.7312 257.923 18.8932 258.111 20.149C258.223 22.773 258.223 24.8911 258.129 26.8966Z" fill="#EC3E8D"/>
<path d="M228.421 93.4538C228.421 93.3976 228.421 93.3226 228.403 93.3038C228.403 93.2476 228.422 93.0789 228.478 92.6853C228.571 92.048 228.609 91.5233 228.609 91.1109C228.609 89.8551 228.215 88.7305 227.466 87.8309L226.884 87.156C226.622 86.8561 226.21 86.65 225.835 86.6874L224.935 86.725C223.923 86.7625 222.367 86.7999 220.287 86.7999C218.019 86.7999 211.365 86.725 207.204 86.5563C202.856 86.3876 199.557 86.3127 197.345 86.3127C196.408 86.3127 195.564 86.3126 194.815 86.3313L194.684 78.5342C196.033 78.4217 198.17 78.3468 201.581 78.3468C203.137 78.3468 204.749 78.2718 206.361 78.1219L208.01 77.9719C208.685 77.9157 209.191 77.3534 209.191 76.6786V70.3622C209.191 69.8186 208.854 69.3313 208.348 69.1438L207.167 68.7128C205.611 68.1317 203.699 67.8131 201.525 67.7568C201.375 67.7568 201.262 67.7756 201.15 67.8131C200.625 67.8319 199.425 67.8318 196.745 67.8318C195.958 67.8318 195.246 67.7943 194.609 67.7381C194.609 67.6069 194.627 67.4382 194.646 67.2695V62.9023C194.852 63.0335 195.096 63.1273 195.358 63.1273H196.033C200.663 63.1273 204.336 62.7712 207.242 62.0214C207.541 61.9465 207.804 61.7778 207.991 61.5341L208.572 60.8031C208.685 60.6719 208.76 60.5032 208.816 60.3345L209.397 58.5352C209.528 58.1604 209.547 57.8792 209.341 57.5418C209.341 57.5418 209.322 57.4481 209.322 57.1482C209.228 55.4051 209.059 54.7491 208.909 54.2992L208.478 53.0435C208.272 52.4812 207.748 52.0876 207.148 52.0876L205.33 52.0688C201.581 52.0313 198.282 52.0126 195.358 51.9939C194.983 52.0501 194.608 52.1438 194.346 52.4062C194.346 52.4062 194.346 52.4062 194.346 52.4249C194.121 52.1438 193.802 51.9563 193.428 51.9188C192.34 51.8438 191.329 51.7314 190.466 51.619L189.66 51.5065C189.304 51.4503 188.93 51.5627 188.648 51.7876L188.517 51.9001C188.461 51.9001 188.404 51.8814 188.348 51.8814C187.786 51.8252 187.411 51.7876 187.13 51.7876C184.581 51.7876 182.782 53.5308 182.763 56.0799C182.763 56.1736 182.782 56.2672 182.8 56.3609L182.894 56.7921C182.932 57.017 183.025 57.598 183.194 59.0412C183.4 60.7094 183.513 62.4525 183.513 64.2706C183.513 65.5077 183.456 67.5132 183.344 70.2122C183.232 72.9675 183.175 75.0479 183.175 76.4162C183.175 77.2222 183.213 78.3468 183.325 79.8838C183.419 81.2333 183.457 82.264 183.457 82.9388C183.457 83.4824 183.4 84.5882 183.138 86.725C182.894 88.7117 182.763 90.1924 182.763 91.2795C182.763 92.6103 182.932 93.9411 183.269 95.2531L183.644 96.6964C183.794 97.2774 184.319 97.671 184.9 97.671C184.919 97.671 184.956 97.671 184.974 97.671L186.474 97.5772C189.417 97.3898 192.341 97.2962 195.152 97.2962C197.401 97.2962 200.775 97.3337 205.442 97.4274C209.978 97.5211 216.894 97.5586 219.331 97.5586H225.704C226.06 97.5586 226.379 97.4273 226.622 97.1649L228.29 95.478C228.609 95.1594 228.74 94.6908 228.627 94.241L228.421 93.4538Z" fill="#EC3E8D"/>
<path d="M117.312 94.2031L116.543 92.7786C114.406 88.7863 109.083 75.4037 105.916 67.3816C104.247 63.1456 103.498 61.2713 103.273 60.859C102.617 59.5844 101.942 58.3474 101.286 57.1103C100.593 55.8358 100.124 54.73 99.8804 53.8678L99.7866 53.5303C99.7303 53.3616 99.6556 53.193 99.5431 53.0431L99.318 52.7619C97.856 50.9063 91.2399 50.7002 91.165 50.7002C90.5277 50.7002 89.7592 50.7938 88.7658 50.9813C88.166 51.0937 87.9036 51.1313 87.8286 51.1313H82.8051C82.3365 51.1313 81.8869 51.3749 81.6433 51.7872L81.0621 52.7431C80.3874 53.849 79.4501 55.4422 78.1756 57.7101C78.1756 57.7289 78.0822 57.9163 78.0635 57.935C77.9885 58.1037 70.6784 74.5228 66.4986 84.7378C65.9926 85.9561 66.8922 87.1557 69.2538 88.374C69.4412 88.4865 69.6663 88.524 69.8913 88.524H79.2816C79.9001 88.5427 93.8265 88.9551 97.7251 89.0113L100.555 97.4082C100.743 97.9705 101.267 98.3266 101.849 98.3266H101.867H102.223C103.985 98.3079 106.403 98.2704 110.883 98.2142L112.869 98.1954C113.357 98.1954 113.788 97.933 114.032 97.5207C114.5 97.352 114.931 97.1458 115.325 96.9209L116.806 96.04C117.424 95.6464 117.649 94.8591 117.312 94.2031ZM95.1571 76.7907C94.3136 76.7345 93.47 76.697 92.6641 76.697C92.4204 76.697 92.046 76.697 91.6898 76.8095C91.4649 76.8282 91.1462 76.8281 90.7152 76.8469C88.8971 76.9031 88.5597 76.9406 88.3535 76.9593C88.2035 76.9781 88.1469 76.9781 87.5097 76.9781C86.0102 76.9781 84.5486 76.9594 83.1616 76.9219C85.7107 70.0619 87.3787 65.8821 88.1846 64.3264C88.3533 63.8578 88.5972 63.2394 88.8784 62.5084C89.2907 63.4081 89.9463 64.8326 90.8085 66.5195C91.3333 67.4191 91.7648 68.2625 92.1397 69.1247C93.0206 70.8303 94.0887 73.7543 95.1571 76.7907Z" fill="#EC3E8D"/>
<path d="M342.249 94.2031L341.48 92.7786C339.344 88.805 334.039 75.4225 330.872 67.4379C329.185 63.1832 328.435 61.2713 328.21 60.859C327.554 59.5844 326.879 58.3474 326.223 57.1103C325.53 55.8358 325.061 54.7487 324.818 53.8678L324.724 53.5303C324.668 53.3616 324.593 53.193 324.48 53.0431L324.255 52.7619C322.793 50.9063 316.177 50.7002 316.102 50.7002C315.465 50.7002 314.697 50.7938 313.703 50.9813C313.103 51.0937 312.841 51.1313 312.766 51.1313H307.742C307.274 51.1313 306.824 51.3749 306.581 51.7872L305.999 52.7431C305.325 53.849 304.387 55.4422 303.113 57.7101C303.113 57.7289 303.02 57.9163 303.001 57.935C302.926 58.1037 295.616 74.5228 291.436 84.7378C290.949 85.9561 291.848 87.1369 294.191 88.374C294.379 88.4865 294.604 88.524 294.829 88.524H304.219C304.856 88.5427 318.764 88.9551 322.662 89.0113L325.493 97.4082C325.68 97.9705 326.205 98.3266 326.786 98.3266H326.805H327.161C328.922 98.3079 331.341 98.2704 335.82 98.2142L337.807 98.1954C338.294 98.1954 338.725 97.933 338.969 97.5207C339.438 97.352 339.869 97.1458 340.281 96.9209L341.762 96.04C342.38 95.6464 342.586 94.8591 342.249 94.2031ZM317.601 76.697C317.358 76.697 316.983 76.697 316.627 76.8095C316.402 76.8282 316.084 76.8281 315.653 76.8469C313.834 76.9031 313.497 76.9406 313.272 76.9593C313.141 76.9781 313.066 76.9781 312.428 76.9781C310.929 76.9781 309.467 76.9594 308.08 76.9219C310.629 70.0619 312.297 65.8821 313.103 64.3264C313.272 63.8578 313.516 63.2394 313.797 62.5084C314.209 63.4081 314.865 64.8326 315.746 66.5195C316.271 67.4191 316.702 68.2625 317.077 69.1247C317.958 70.8491 319.026 73.7918 320.094 76.8095C319.27 76.7157 318.426 76.697 317.601 76.697Z" fill="#EC3E8D"/>
<path d="M297.396 56.192L297.002 54.2427C296.984 54.1302 296.947 54.0365 296.89 53.9428L296.496 53.1556C296.365 52.8932 296.141 52.6871 295.878 52.5746C293.854 51.7311 291.305 51.3375 288.118 51.3375C286.263 51.3375 283.489 51.375 279.871 51.4687L278.765 51.4875C278.334 51.4312 277.697 51.3562 276.554 51.3187C276.235 51.3187 276.085 51.2813 276.066 51.2813C275.842 51.1876 275.579 51.1688 275.336 51.225L273.874 51.5624C273.049 51.5811 272.299 51.5811 271.68 51.5811C267.332 51.5811 263.565 51.4687 260.453 51.2438L259.666 51.1875L257.736 51.3001C257.379 51.3188 257.042 51.4874 256.836 51.7873C256.63 52.0684 256.536 52.4434 256.63 52.7807L257.229 55.4422C257.211 55.5547 257.173 55.7421 257.117 56.0233C256.911 56.9042 256.817 57.5978 256.817 58.1788C256.817 59.3221 257.173 60.4092 257.867 61.4026L258.335 62.0774C258.56 62.396 258.917 62.6022 259.31 62.6022L260.06 62.6209C264.408 62.6959 267.876 62.7334 270.612 62.7521C270.631 64.8514 270.668 67.7003 270.743 71.2615C270.837 75.4038 270.875 78.5713 270.875 80.708C270.875 85.75 270.762 90.1172 270.537 93.6972L270.5 94.5593L270.612 96.7897C270.631 97.1459 270.819 97.502 271.1 97.7081C271.306 97.8581 271.568 97.9518 271.812 97.9518C271.924 97.9518 272.018 97.9332 272.13 97.9144L274.698 97.2396C274.811 97.2583 274.961 97.2958 275.204 97.352C276.085 97.5769 276.779 97.6895 277.36 97.6895C278.522 97.6895 279.609 97.2771 280.602 96.4524L281.258 95.9089C281.539 95.684 281.708 95.3466 281.708 94.9717L281.727 94.1095C281.821 87.1183 281.858 82.0389 281.858 78.5902V70.1557C281.858 68.2252 281.839 65.7698 281.821 62.7334C284.763 62.7146 288.887 62.6771 294.341 62.6022L295.559 62.5834C296.121 62.5834 296.609 62.171 296.74 61.6275L297.04 60.2593C297.134 59.8469 297.228 59.1722 297.303 57.3353C297.303 56.9605 297.34 56.7918 297.34 56.7918C297.415 56.6231 297.434 56.3982 297.396 56.192Z" fill="#EC3E8D"/>
<path d="M176.859 54.5234L176.84 53.1176C176.84 52.5366 176.428 52.0306 175.865 51.8806L174.516 51.5431C174.085 51.4307 173.41 51.3183 171.592 51.2433C171.273 51.2433 171.142 51.2245 171.161 51.2245C170.917 51.1308 170.655 51.1121 170.374 51.1684L168.462 51.6182C168.331 51.6557 168.218 51.6932 168.106 51.7682L167.337 52.218C167.075 52.3679 166.869 52.6116 166.775 52.9115C165.969 55.2169 165.575 58.122 165.575 61.7582C165.575 63.9137 165.613 67.1188 165.707 71.2798C165.801 75.422 165.838 78.5896 165.838 80.7263C165.838 85.7495 165.725 90.1354 165.5 93.7154L165.463 94.5963L165.575 96.8268C165.594 97.2204 165.782 97.5766 166.1 97.8015C166.325 97.9702 166.587 98.045 166.869 98.045C166.981 98.045 167.093 98.0264 167.206 98.0076L169.755 97.3329C169.868 97.3516 170.018 97.3891 170.242 97.4453C171.123 97.689 171.817 97.7827 172.435 97.7827C173.616 97.7827 174.722 97.3703 175.734 96.5456L176.39 96.0021C176.69 95.7584 176.859 95.4022 176.859 95.0086L176.878 94.1465C176.971 87.1553 177.009 82.0758 177.009 78.6271V70.1926C176.99 66.7439 176.953 61.627 176.859 54.5234Z" fill="#EC3E8D"/>
<path d="M158.284 75.0108C158.809 74.3922 159.278 73.7175 159.709 73.0052C160.477 71.8244 160.796 71.1872 160.946 70.6811C161.246 69.669 161.396 68.282 161.396 66.2952C161.396 62.9402 160.965 60.7472 159.99 59.1915C159.409 58.2731 158.528 57.3734 157.309 56.4175C154.854 54.4495 151.424 53.1 147.113 52.4065C143.927 51.9941 140.759 51.563 137.629 51.1319L137.236 51.0757C137.067 51.0569 136.898 51.0569 136.748 51.1132L136.373 51.2256C135.417 51.488 134.312 51.6193 133.037 51.6193C132.231 51.6193 130.957 51.5443 129.27 51.3756C127.377 51.1882 125.971 51.1132 124.977 51.1132C123.572 51.1132 122.26 51.207 121.042 51.4131L119.561 51.6567C118.961 51.7504 118.53 52.2753 118.53 52.875V58.6667C118.53 60.2412 118.549 62.6215 118.605 65.7329V70.2125C118.567 70.3437 118.53 70.475 118.53 70.6249V76.6414L118.492 78.4783C118.492 78.6095 118.511 78.7219 118.549 78.8343C118.567 80.1276 118.567 81.6646 118.605 83.464V90.4739C118.605 91.9171 118.586 92.4232 118.567 93.3791L118.492 96.2093C118.492 96.5467 118.605 96.8653 118.849 97.109C119.074 97.3526 119.392 97.4838 119.73 97.4838H124.903C125.015 97.5213 125.128 97.5401 125.259 97.5401L126.983 97.5214L127.32 97.5589C127.377 97.5589 127.414 97.5589 127.47 97.5589C127.564 97.5589 127.639 97.5589 127.733 97.5214L128.745 97.3902C128.913 97.3902 129.063 97.3339 129.213 97.2777C129.944 97.2027 130.788 97.1465 131.763 97.1465C132.531 97.1465 133.712 97.184 135.286 97.2777C136.973 97.3714 138.266 97.4089 139.147 97.4089C139.541 97.4089 139.991 97.3902 140.516 97.3152C140.797 97.4652 141.134 97.5026 141.453 97.4089C142.896 96.9778 144.321 96.8278 145.764 97.0153C146.251 97.0715 146.72 97.1466 147.188 97.2215C147.713 97.2965 148.257 97.3715 148.782 97.4464C148.875 97.4652 148.988 97.4652 149.081 97.4464L149.344 97.4089C149.437 97.3902 149.531 97.3714 149.644 97.3714C149.812 97.3526 150 97.3526 150.169 97.3526H150.787H150.806C151.068 97.3526 151.293 97.2402 151.499 97.0716C154.761 96.4343 157.534 94.2975 159.746 90.7176C160.515 89.5368 160.834 88.9182 160.983 88.3934C161.283 87.3813 161.433 85.9943 161.433 84.0075C161.433 80.6524 161.002 78.4595 160.028 76.9038C159.578 76.3228 159.034 75.6855 158.284 75.0108ZM130.507 79.7341C130.863 79.7341 131.257 79.7528 131.706 79.7715C132.943 79.809 133.731 79.8278 134.087 79.8278C144.658 80.034 148.181 81.2335 149.344 81.927C149.568 82.0582 150.244 82.4706 150.244 84.2887C150.244 84.8135 150.206 85.0197 150.206 85.0197C150.131 85.3196 149.025 86.088 146.12 86.5004L145.858 86.5379C145.164 86.6316 144.733 86.7065 144.695 86.7253H139.241C137.817 86.7628 136.767 86.7816 136.055 86.7816C133.787 86.7816 131.913 86.669 130.432 86.4628L130.507 79.7341ZM150.187 67.2698C150.112 67.5697 149.006 68.3382 146.101 68.7318C145.258 68.863 144.733 68.938 144.677 68.9567H139.222L138.342 68.9755L137.217 68.8255C137.048 68.8068 136.879 68.8068 136.729 68.863L136.036 69.0129C133.768 69.0129 131.875 68.9005 130.413 68.6943L130.507 61.9654C130.863 61.9842 131.257 61.9842 131.706 62.003C132.943 62.0405 133.731 62.0593 134.087 62.0593C144.658 62.2654 148.181 63.465 149.344 64.1585C149.587 64.3084 150.244 64.7021 150.244 66.5201C150.225 67.0824 150.187 67.2698 150.187 67.2698Z" fill="#EC3E8D"/>
<path d="M255.149 60.0903C254.568 59.0969 253.687 58.0849 252.487 57.0353C250.013 54.8423 246.583 53.3615 242.216 52.5931C239.03 52.1245 235.863 51.6559 232.733 51.2061L232.339 51.1499C232.151 51.1312 231.945 51.1311 231.777 51.1873L231.401 51.2999C230.464 51.581 229.358 51.7309 228.121 51.7309C227.315 51.7309 226.06 51.6372 224.373 51.4685C222.461 51.2623 221.037 51.1687 220.062 51.1687C218.638 51.1687 217.307 51.2811 216.107 51.506L214.626 51.7685C214.008 51.8809 213.558 52.4245 213.558 53.043V59.4156C213.558 61.1587 213.577 63.7641 213.633 67.2128V74.935C213.633 76.5282 213.614 77.0717 213.595 78.1401L213.521 81.2515C213.521 81.6076 213.652 81.9262 213.896 82.1886C214.139 82.4323 214.477 82.5822 214.814 82.5822H219.95C220.062 82.6197 220.193 82.6385 220.324 82.6385L222.03 82.6197L222.367 82.6572C222.536 82.676 222.686 82.676 222.855 82.6385L223.83 82.4885C223.998 82.4885 224.166 82.4322 224.316 82.3573C225.029 82.2636 225.872 82.2262 226.809 82.2262C227.578 82.2262 228.759 82.2636 230.333 82.3573C232.02 82.451 233.313 82.5072 234.194 82.5072C234.513 82.5072 234.888 82.4886 235.3 82.4511L242.216 95.9087C243.303 97.9704 245.29 99.0951 247.802 99.0951C248.195 99.0951 248.72 99.0762 249.414 99.02C249.901 98.9825 250.257 98.9638 250.464 98.9638C250.539 98.9638 250.67 98.9825 250.951 99.0388L253.087 99.4698C253.181 99.4886 253.256 99.4886 253.35 99.4886C253.65 99.4886 253.931 99.3949 254.175 99.1887C254.475 98.9451 254.643 98.5701 254.643 98.1765V95.1402C254.643 94.9715 254.606 94.7841 254.531 94.6154L254.381 94.2593C253.781 92.8723 252.338 90.2482 249.957 86.2371C249.002 84.6252 248.196 83.1633 247.596 81.8325C250.463 80.8954 252.919 78.6274 254.887 75.0849C255.655 73.7916 255.974 73.1169 256.105 72.5546C256.405 71.4488 256.555 69.9306 256.555 67.7751C256.536 64.1577 256.105 61.7772 255.149 60.0903ZM245.253 68.0937C245.253 68.7122 245.215 68.9372 245.215 68.9372C245.103 69.3683 243.941 70.1555 241.167 70.5866C240.324 70.7178 239.799 70.8115 239.761 70.8303H234.307C232.882 70.8678 231.833 70.9052 231.12 70.9052C228.89 70.9052 227.016 70.7928 225.554 70.5678L225.648 63.0144C225.985 63.0331 226.36 63.0331 226.772 63.0518C228.009 63.108 228.796 63.1268 229.152 63.1268C239.686 63.3518 243.191 64.6637 244.334 65.4135C244.541 65.5634 245.253 66.032 245.253 68.0937Z" fill="#EC3E8D"/>
<path d="M42.9759 48.8822C42.0013 48.8822 41.4391 48.4886 31.4115 37.1864C29.6309 35.1809 27.888 33.2316 26.501 31.6947C26.2386 31.4323 25.8261 31.1699 25.3762 30.8888C24.8327 30.5326 24.2702 30.1765 23.8016 29.7079L16.9043 22.8666C16.3982 22.3793 15.8921 21.892 15.461 21.4047C13.3805 18.8931 9.38832 15.5568 6.20197 12.8766C1.36622 8.82803 0.428899 7.94706 0.410156 6.85995C0.410156 6.48509 0.578845 4.98561 0.878736 4.7232C1.68469 4.01096 3.61554 4.01096 14.7677 3.8985C16.211 3.87975 17.5227 3.91724 18.666 3.8985C19.6407 3.91724 20.5782 3.91724 21.4029 3.8985H22.546H25.4325C30.943 3.95473 32.8362 4.46079 37.7094 3.8985C38.028 3.86101 38.3467 3.8985 38.6466 3.8985C40.5021 3.8985 42.2266 4.51706 42.9388 4.87318C44.4195 5.62291 44.6067 8.17192 44.5317 17.2249C44.513 19.5303 44.4943 21.6858 44.5693 23.3352V25.0221V26.5965C44.4755 29.0893 44.5318 32.9504 44.6068 36.6803C44.7567 47.8513 44.7378 48.6948 42.9759 48.8822Z" fill="#EC3E8D"/>
</svg>
