<svg width="345" height="49" viewBox="0 0 345 49" fill="none" xmlns="http://www.w3.org/2000/svg">
<path d="M335.145 46.6652H336.164C337.07 46.7406 337.919 46.7972 338.787 46.7972C341.561 46.7972 343.636 46.3066 344.787 45.4009C344.938 45.1934 344.862 44.3821 344.825 43.8349C344.768 43.0801 344.693 42.2121 344.75 41.2876V34.6458C344.75 34.3439 344.769 34.0231 344.75 33.8156C345.127 28.4757 345.07 22.8529 344.617 17.8338V16.0413C344.636 14.362 344.674 12.6638 344.712 10.8902C344.712 10.3241 344.75 9.75803 344.769 9.1731L344.806 8.21081C344.938 5.41825 345.089 2.51248 344.165 0.908646C344.089 0.814303 343.749 0.550137 342.466 0.550137C341.843 0.550137 341.165 0.606738 340.466 0.663344C339.448 0.738819 338.41 0.8143 337.504 0.757694H336.315C334.617 0.908643 332.466 0.927491 330.504 0.79541C330.655 3.24834 330.617 5.32389 330.409 7.81456L330.428 12.3997C330.56 14.8526 330.617 17.5131 330.617 20.2301V22.9284C330.617 25.5134 330.635 29.0418 330.635 29.4003V29.8343L330.371 30.1739C329.504 31.2683 328.032 31.6079 324.258 31.6079C323.315 31.6079 322.201 31.5891 320.862 31.5325H319.635C319.069 31.5891 317.352 31.7589 315.824 31.7589C313.918 31.7589 313.031 31.5513 312.522 30.9664L312.163 30.5324C311.031 29.2871 311.182 27.2682 311.314 25.287C311.389 24.3247 311.446 23.3435 311.389 22.4189V7.96551C311.578 5.45598 311.352 3.07853 311.107 0.776552C310.937 0.66334 310.578 0.53125 309.748 0.53125C309.201 0.53125 308.616 0.587851 308.012 0.644457C307.087 0.719932 306.125 0.814281 305.219 0.738806C304.785 0.738806 304.295 0.701071 303.804 0.682203L302.974 0.625599C302.125 0.568993 301.295 0.53125 300.502 0.53125C298.917 0.53125 297.88 0.757683 297.276 1.24827C296.691 1.66338 296.842 3.38044 296.955 4.73898C297.031 5.66355 297.125 6.62583 297.068 7.5504V8.64478C297.163 12.3242 297.181 16.2866 297.144 20.0981C297.144 20.3434 297.181 21.834 297.219 23.4567C297.276 25.4756 297.332 27.6833 297.314 27.9852C297.2 31.9287 298.238 33.1363 303.106 37.0799L304.106 38.1176C304.748 38.7969 305.408 39.2875 306.106 39.8158C306.823 40.3441 307.559 40.9102 308.257 41.6461L309.012 42.4574C312.333 46.2312 312.673 46.3821 314.352 46.3821C314.729 46.3821 315.144 46.3632 315.616 46.3444L315.899 46.3255C316.126 46.3255 317.276 46.401 318.427 46.4953C319.522 46.5708 320.616 46.6652 320.824 46.6652H335.145Z" fill="#282827"/>
<path d="M43.135 2.32448C42.5123 1.07915 40.5877 0.739488 34.1724 0.739488C33.1346 0.739488 32.0781 0.739506 31.0215 0.758375C28.7949 0.777243 26.7002 0.796104 25.0398 0.720629H21.8322C19.3793 0.814973 15.5867 0.758359 11.945 0.682884C9.71852 0.645147 7.54857 0.607422 5.75605 0.607422C1.69929 0.607422 0.18972 0.607409 0.0199017 2.09803C-0.0933103 3.09807 -0.112068 3.30562 11.4544 13.589C13.4356 15.3438 15.3416 17.042 16.87 18.4194C17.1152 18.6836 17.3793 19.0798 17.6623 19.5138C18.0019 20.0421 18.3606 20.6082 18.8135 21.061L25.5681 27.8726C26.021 28.3444 26.4927 28.8161 26.9455 29.2312C29.4173 31.2879 32.6819 35.1748 35.3047 38.3259C39.286 43.0808 40.1537 44.0054 41.2292 44.0054C41.6066 44.0054 42.0596 43.7978 42.3049 43.5336C43.003 42.7412 43.2295 40.8732 43.3427 29.9482C43.3616 28.5331 43.3801 27.2311 43.3989 26.1178C43.3801 25.1744 43.3801 24.2499 43.3989 23.4196V22.3064C43.3801 21.363 43.3612 20.4007 43.3612 19.4761C43.3046 14.0608 43.5123 12.2494 44.0595 7.43787C44.286 5.32458 43.5878 3.23017 43.135 2.32448Z" fill="#282827"/>
<path d="M227.501 4.13563L227.482 2.73934C227.482 2.15441 227.067 1.64498 226.501 1.49403L225.142 1.15437C224.708 1.04116 224.048 0.927944 222.18 0.852469C221.897 0.852469 221.746 0.833601 221.765 0.852469C221.52 0.739257 221.237 0.720401 220.954 0.777007L219.029 1.22987C218.897 1.2676 218.784 1.30534 218.671 1.38082L217.897 1.83365C217.632 1.9846 217.425 2.22989 217.331 2.51292C216.52 4.8149 216.123 7.68294 216.123 11.3057C216.123 13.4379 216.18 16.6078 216.255 20.7401C216.35 24.8534 216.388 28.0045 216.388 30.1178C216.388 35.0991 216.274 39.4389 216.048 42.9862L216.01 43.8542L216.123 46.0618C216.142 46.458 216.331 46.8166 216.651 47.043C216.878 47.2128 217.142 47.2883 217.425 47.2883C217.538 47.2883 217.633 47.2694 217.746 47.2505L220.331 46.5901C220.444 46.609 220.595 46.6467 220.84 46.7033C221.746 46.9298 222.444 47.043 223.048 47.043C224.237 47.043 225.35 46.6279 226.369 45.8165L227.029 45.2882C227.331 45.0429 227.52 44.6844 227.52 44.2881L227.539 43.4391C227.633 36.4954 227.671 31.4575 227.671 28.0422V19.6645C227.633 16.2682 227.595 11.1736 227.501 4.13563Z" fill="#282827"/>
<path d="M190.356 1.1808C188.224 0.803428 186.545 0.652481 178.432 0.652481C176.488 0.652481 174.771 0.558139 173.281 0.388321L172.582 0.31283C172.243 0.275093 171.903 0.369435 171.639 0.57699H171.62C169.582 0.633596 168.582 1.72799 168.148 2.38839L167.789 2.95446C167.62 3.21862 167.563 3.5205 167.601 3.8224L167.677 4.48282C167.846 5.78476 167.922 7.2565 167.922 8.86033C167.922 9.483 167.884 10.5019 167.789 11.8793C167.695 13.3888 167.658 14.5587 167.658 15.37C167.658 15.5021 167.676 15.6342 167.714 15.7474L167.733 16.3135C167.771 17.9551 167.846 21.8231 168.016 24.0685C168.092 25.0308 168.148 33.8236 168.186 39.654C168.204 42.8806 168.223 45.4656 168.242 45.9939C168.261 46.692 168.828 47.2581 169.545 47.2581H178.318C178.601 47.2581 178.865 47.1637 179.092 47.0128C179.299 47.1637 179.545 47.2581 179.809 47.2581C180.658 47.2958 180.998 47.3147 181.262 47.3335C181.677 47.3713 181.903 47.3901 183.488 47.3901C187.488 47.3901 190.489 47.1637 192.602 46.7109C196.413 45.9939 199.527 44.4655 201.829 42.1258C205.942 37.9936 207.017 35.8991 207.414 34.5406C208.414 32.9367 209.017 30.9367 209.225 28.5215V23.0307C209.225 22.842 209.244 22.4647 209.301 21.7854C209.376 20.974 209.414 20.408 209.414 19.9929C209.414 18.389 208.867 15.9172 204.716 9.78491C201.583 5.14322 196.734 2.23745 190.356 1.1808ZM179.639 35.2576C179.677 27.0875 179.752 16.4833 179.847 12.5397C181.168 12.5964 182.186 12.6341 183.054 12.6718C185.224 12.7662 186.338 12.8228 188.3 12.8228C188.47 12.8605 188.791 12.9548 189.338 13.1058C191.753 13.8228 193.828 15.087 195.526 16.8607C196.243 17.5965 196.451 17.9362 196.489 18.0116C197.055 18.9739 197.413 20.5212 197.526 22.4269C197.564 24.2572 197.621 26.144 197.696 28.0309C196.734 30.3895 196.319 31.2009 196.225 31.4084C195.621 32.4462 194.941 33.1443 194.149 33.5783C192.055 34.7104 188.338 35.2953 183.451 35.2953C182.715 35.2953 181.583 35.2765 179.885 35.2199C179.771 35.2387 179.696 35.2387 179.639 35.2576Z" fill="#282827"/>
<path d="M167.423 42.6648L166.669 41.2686C164.593 37.4005 159.423 24.3622 156.347 16.5884C154.706 12.475 153.989 10.6258 153.762 10.2107C153.121 8.96541 152.48 7.75782 151.819 6.5691C151.159 5.32377 150.687 4.26711 150.46 3.39915L150.366 3.07838C150.31 2.90857 150.234 2.73875 150.121 2.60667L149.895 2.32365C148.479 0.531125 142.026 0.304688 141.969 0.304688C141.347 0.304688 140.592 0.39903 139.649 0.568848C139.064 0.68206 138.799 0.700942 138.724 0.700942H133.837C133.384 0.700942 132.95 0.946228 132.705 1.34247L132.139 2.26702C131.478 3.34253 130.573 4.88977 129.327 7.11628L129.233 7.32383C129.158 7.47478 122.063 23.4565 117.987 33.4003C117.497 34.589 118.384 35.74 120.667 36.9476C120.856 37.042 121.063 37.0986 121.289 37.0986H130.422C131.026 37.1175 144.573 37.5137 148.366 37.5703L151.121 45.7404C151.31 46.2876 151.8 46.6461 152.385 46.6461H152.404H153.008C154.687 46.6273 157.027 46.5895 161.159 46.5518L163.084 46.5329C163.555 46.5329 163.97 46.2687 164.216 45.8725C164.668 45.7027 165.103 45.514 165.48 45.2876L166.914 44.4385C167.537 44.0611 167.763 43.2875 167.423 42.6648ZM143.46 25.6264C143.234 25.6264 142.856 25.6264 142.517 25.7396C142.309 25.7585 141.988 25.7585 141.554 25.7774C139.781 25.834 139.46 25.8717 139.252 25.8906C139.12 25.9095 139.045 25.9095 138.441 25.9095C136.988 25.9095 135.573 25.8906 134.215 25.8528C136.705 19.1922 138.328 15.1166 139.102 13.6071C139.272 13.1354 139.498 12.5505 139.781 11.8334C140.177 12.7014 140.819 14.0977 141.668 15.7392C142.177 16.6072 142.592 17.4374 142.969 18.2677C143.819 19.947 144.856 22.7961 145.913 25.7396C145.064 25.6453 144.234 25.6264 143.46 25.6264Z" fill="#282827"/>
<path d="M113.383 6.39833C110.893 4.22844 107.402 2.75668 103.005 2.00193C99.7789 1.54908 96.5711 1.07737 93.4012 0.624527L93.005 0.567923C92.8163 0.549054 92.6275 0.549062 92.4388 0.605668L92.0616 0.718876C91.1181 1.00191 89.986 1.15285 88.7218 1.15285C87.9104 1.15285 86.6273 1.0585 84.9291 0.888687C83.0045 0.7 81.5709 0.586781 80.5708 0.586781C79.1368 0.586781 77.7969 0.700019 76.5705 0.907574L75.0798 1.17173C74.4571 1.28495 74.0046 1.81325 74.0046 2.45479V8.7758C74.0046 10.5117 74.0231 13.0967 74.0797 16.5119V24.1726C74.0797 25.7387 74.0608 26.2859 74.0419 27.3614L73.9668 30.4559C73.9668 30.8144 74.0988 31.1352 74.3441 31.3993C74.5894 31.6446 74.929 31.7956 75.2686 31.7956H80.4764C80.5896 31.8333 80.7027 31.8522 80.8726 31.8522H82.6839L82.9294 31.8899C83.0804 31.9088 83.2502 31.9088 83.4011 31.871L84.4008 31.7201C84.5706 31.7201 84.7404 31.6635 84.8914 31.588C85.6084 31.4937 86.4576 31.4559 87.4199 31.4559C88.1936 31.4559 89.3825 31.4937 90.9864 31.588C92.6845 31.6824 94.005 31.739 94.8919 31.739C95.2315 31.739 95.609 31.7201 96.0242 31.6824L103.024 45.0414C104.138 47.0792 106.138 48.2113 108.666 48.2113C109.062 48.2113 109.591 48.1924 110.289 48.1358C110.78 48.0981 111.138 48.0792 111.364 48.0792C111.44 48.0792 111.572 48.0981 111.874 48.1547L114.044 48.5887C114.119 48.6075 114.213 48.6076 114.308 48.6076C114.61 48.6076 114.893 48.5132 115.138 48.3057C115.44 48.0604 115.61 47.683 115.61 47.3056V44.2866C115.61 44.0979 115.572 43.9281 115.497 43.7583L115.346 43.3998C114.723 42.0224 113.27 39.4185 110.874 35.4372C109.911 33.8522 109.1 32.3994 108.496 31.0974C111.383 30.1729 113.855 27.9086 115.874 24.4179C116.648 23.1348 116.968 22.4556 117.119 21.8895C117.421 20.7951 117.572 19.2856 117.572 17.1346C117.572 13.493 117.138 11.1344 116.157 9.45508C115.496 8.43617 114.61 7.43611 113.383 6.39833ZM106.1 17.3799C106.1 17.9837 106.062 18.2101 106.062 18.2101C105.968 18.6064 104.76 19.3989 101.949 19.8328C101.194 19.9461 100.684 20.0404 100.439 20.0781H95.0052C93.5712 20.1159 92.4957 20.1536 91.7787 20.1536C89.4956 20.1536 87.6088 20.0404 86.137 19.814L86.2314 12.3608C86.5711 12.3797 86.967 12.3797 87.3822 12.3986C88.6275 12.4552 89.4389 12.4552 89.7974 12.474C100.458 12.7005 104.024 14.0024 105.194 14.7383C105.402 14.8892 106.1 15.3421 106.1 17.3799Z" fill="#282827"/>
<path d="M276.125 16.2116C275.805 14.0795 275.239 11.4001 273.786 9.62647C272.842 8.32453 271.786 7.11693 270.635 6.07915C264.993 0.946872 256.823 -1.03433 247.671 0.512898C247.596 0.531767 247.521 0.550633 247.464 0.569502C246.181 1.02235 244.898 1.62614 243.671 2.36202C242.502 3.07903 241.35 3.90925 240.275 4.87156C238.879 6.13576 237.614 7.56976 236.482 9.13586C230.124 18.9853 229.973 31.3632 236.105 39.9295C237.105 41.3258 238.275 42.6655 239.558 43.8731C239.615 43.9297 239.671 43.9674 239.728 44.0052L240.162 44.2882C241.048 44.892 241.936 45.4958 242.822 46.0619C242.898 46.1185 242.973 46.1562 243.067 46.1751C246.445 47.477 250.275 48.1563 254.125 48.1563C262.974 48.1563 273.238 44.2316 275.484 33.1934C275.729 32.0424 275.956 30.7405 276.22 29.0989C276.427 25.0422 276.408 20.9854 276.125 16.2116ZM264.578 26.8724C264.465 27.6838 264.332 28.3631 264.219 28.9669C262.766 36.6087 254.124 37.6842 248.69 35.4577C248.181 35.0992 247.652 34.7218 247.143 34.3444C246.52 33.7217 245.954 33.0236 245.483 32.3066C242.596 28.0234 242.596 21.5892 245.69 16.4758C246.219 15.6833 246.822 14.9663 247.502 14.3059C248.011 13.8342 248.539 13.4002 249.105 13.0417C249.671 12.6832 250.276 12.3624 250.898 12.136C255.313 11.3435 259.219 12.287 261.955 14.9663C262.502 15.4946 263.012 16.0984 263.465 16.7777C264.068 17.5702 264.352 18.7589 264.521 20.0231C264.691 22.6836 264.691 24.8157 264.578 26.8724Z" fill="#282827"/>
</svg>
