<svg width="26" height="26" viewBox="0 0 26 26" fill="none" xmlns="http://www.w3.org/2000/svg">
<path d="M24.5 0.0332031H1.5C0.946875 0.0332031 0.5 0.480078 0.5 1.0332V24.0332C0.5 24.5863 0.946875 25.0332 1.5 25.0332H24.5C25.0531 25.0332 25.5 24.5863 25.5 24.0332V1.0332C25.5 0.480078 25.0531 0.0332031 24.5 0.0332031ZM21.6125 7.33008H19.6156C18.05 7.33008 17.7469 8.07383 17.7469 9.16758V11.577H21.4844L20.9969 15.3488H17.7469V25.0332H13.85V15.352H10.5906V11.577H13.85V8.7957C13.85 5.56758 15.8219 3.8082 18.7031 3.8082C20.0844 3.8082 21.2688 3.91133 21.6156 3.9582V7.33008H21.6125Z" fill="white"/>
</svg>
