<svg width="25" height="25" viewBox="0 0 25 25" fill="none" xmlns="http://www.w3.org/2000/svg">
<path d="M24.4294 7.60648C24.416 6.59665 24.2269 5.59685 23.8708 4.65181C23.5619 3.85468 23.0901 3.13074 22.4857 2.52625C21.8812 1.92176 21.1572 1.45001 20.3601 1.14115C19.4272 0.790955 18.4417 0.601601 17.4454 0.581146C16.1628 0.523813 15.7561 0.507812 12.5001 0.507812C9.24409 0.507812 8.82676 0.507813 7.55343 0.581146C6.55764 0.601751 5.57256 0.791103 4.64009 1.14115C3.84284 1.4498 3.11879 1.92147 2.51427 2.52599C1.90975 3.13051 1.43808 3.85456 1.12943 4.65181C0.778535 5.58399 0.589591 6.56929 0.57076 7.56515C0.513427 8.84915 0.496094 9.25582 0.496094 12.5118C0.496094 15.7678 0.496094 16.1838 0.57076 17.4585C0.59076 18.4558 0.77876 19.4398 1.12943 20.3745C1.4386 21.1715 1.91062 21.8953 2.51534 22.4995C3.12006 23.1038 3.84418 23.5753 4.64143 23.8838C5.57134 24.2481 6.55659 24.451 7.55476 24.4838C8.83876 24.5412 9.24543 24.5585 12.5014 24.5585C15.7574 24.5585 16.1748 24.5585 17.4481 24.4838C18.4443 24.4642 19.4299 24.2753 20.3628 23.9252C21.1597 23.6159 21.8834 23.1441 22.4879 22.5396C23.0923 21.9352 23.5642 21.2114 23.8734 20.4145C24.2241 19.4812 24.4121 18.4972 24.4321 17.4985C24.4894 16.2158 24.5068 15.8092 24.5068 12.5518C24.5041 9.29582 24.5041 8.88248 24.4294 7.60648ZM12.4921 18.6692C9.08676 18.6692 6.32809 15.9105 6.32809 12.5051C6.32809 9.09982 9.08676 6.34115 12.4921 6.34115C14.1269 6.34115 15.6947 6.99057 16.8507 8.14654C18.0067 9.30252 18.6561 10.8704 18.6561 12.5051C18.6561 14.1399 18.0067 15.7078 16.8507 16.8638C15.6947 18.0197 14.1269 18.6691 12.4921 18.6692ZM18.9014 7.55048C18.1054 7.55048 17.4641 6.90781 17.4641 6.11315C17.4641 5.92448 17.5013 5.73766 17.5735 5.56336C17.6457 5.38905 17.7515 5.23068 17.8849 5.09727C18.0183 4.96386 18.1767 4.85804 18.351 4.78584C18.5253 4.71364 18.7121 4.67648 18.9008 4.67648C19.0894 4.67648 19.2762 4.71364 19.4506 4.78584C19.6249 4.85804 19.7832 4.96386 19.9166 5.09727C20.05 5.23068 20.1559 5.38905 20.2281 5.56336C20.3003 5.73766 20.3374 5.92448 20.3374 6.11315C20.3374 6.90781 19.6948 7.55048 18.9014 7.55048Z" fill="white"/>
</svg>
