<svg width="25" height="26" viewBox="0 0 25 26" fill="none" xmlns="http://www.w3.org/2000/svg">
<path d="M24 0.0332031H1C0.446875 0.0332031 0 0.480078 0 1.0332V24.0332C0 24.5863 0.446875 25.0332 1 25.0332H24C24.5531 25.0332 25 24.5863 25 24.0332V1.0332C25 0.480078 24.5531 0.0332031 24 0.0332031ZM19.2281 9.08633C19.2375 9.2332 19.2375 9.38633 19.2375 9.53633C19.2375 14.1238 15.7437 19.4082 9.35938 19.4082C7.39062 19.4082 5.56562 18.8363 4.02812 17.852C4.30937 17.8832 4.57813 17.8957 4.86563 17.8957C6.49063 17.8957 7.98438 17.3457 9.175 16.4145C7.65 16.3832 6.36875 15.3832 5.93125 14.0082C6.46562 14.0863 6.94687 14.0863 7.49687 13.9457C6.71164 13.7862 6.00586 13.3597 5.49943 12.7388C4.99299 12.1178 4.71715 11.3407 4.71875 10.5395V10.4957C5.17812 10.7551 5.71875 10.9145 6.28438 10.9363C5.80888 10.6194 5.41893 10.1901 5.1491 9.68642C4.87926 9.18273 4.73789 8.62024 4.7375 8.04883C4.7375 7.40195 4.90625 6.81133 5.20938 6.29883C6.08095 7.37175 7.16853 8.24927 8.40145 8.87435C9.63437 9.49942 10.985 9.85806 12.3656 9.92695C11.875 7.56758 13.6375 5.6582 15.7563 5.6582C16.7563 5.6582 17.6562 6.07695 18.2906 6.75195C19.075 6.60508 19.825 6.31133 20.4937 5.91758C20.2344 6.7207 19.6906 7.39883 18.9688 7.82695C19.6688 7.75195 20.3438 7.5582 20.9688 7.28633C20.4969 7.98008 19.9062 8.5957 19.2281 9.08633Z" fill="white"/>
</svg>
