<svg width="229" height="128" viewBox="0 0 229 128" fill="none" xmlns="http://www.w3.org/2000/svg">
<path d="M66.4956 34.1033C65.7456 34.1033 65.3256 33.8033 57.7256 25.2333C56.3756 23.7133 55.0556 22.2333 54.0056 21.0633C53.8056 20.8633 53.4957 20.6633 53.1557 20.4533C52.7457 20.1933 52.3156 19.9133 51.9556 19.5633L46.7256 14.3833C46.3456 14.0133 45.9656 13.6333 45.6256 13.2833C44.0456 11.3733 41.0256 8.85333 38.5956 6.82333C34.9356 3.76333 34.2156 3.08333 34.2056 2.26333C34.1956 1.97333 34.3356 0.833338 34.5556 0.643338C35.1656 0.0933382 36.6256 0.103333 45.0856 0.0133333C46.1756 0.00333333 47.1857 0.0333333 48.0357 0.0133333C48.7657 0.0333333 49.4856 0.0233333 50.1056 0.0133333H50.9756H53.1655C57.3355 0.0633333 58.7856 0.443333 62.4756 0.0133333C62.7156 -0.0166667 62.9556 0.0133333 63.1956 0.0133333C64.6056 0.0133333 65.9056 0.483333 66.4556 0.763333C67.5756 1.33333 67.7255 3.27332 67.6655 10.1233C67.6555 11.8633 67.6356 13.5133 67.6956 14.7633V16.0433V17.2433C67.6256 19.1333 67.6756 22.0633 67.7156 24.8933C67.8556 33.3233 67.8356 33.9633 66.4956 34.1033Z" fill="white"/>
<path d="M67.7758 37.6334C67.6458 39.1134 68.1757 45.0734 67.6757 50.4834C67.6757 51.1734 67.6757 51.8734 67.6757 52.6134C67.6757 54.0234 67.6757 55.4634 67.6757 56.9434C67.6857 57.7934 67.6858 58.5934 67.6858 59.4034C67.9258 64.1234 68.0557 69.1733 68.0557 74.2233C68.0557 75.2333 68.1158 90.5333 68.1058 91.5333C66.8758 93.0033 64.1758 93.7433 50.9858 93.2833C50.1458 93.2833 49.3158 93.2833 48.4458 93.2833C44.4158 93.6633 35.6558 94.2334 35.7758 92.5834C32.5358 90.4234 34.6959 83.9434 34.2859 78.2134C34.2859 77.4934 34.2859 76.7434 34.2859 75.9634C34.2859 68.8034 34.2859 60.4934 34.2859 53.2334C34.2859 52.4634 34.2859 51.7433 34.2859 51.0333C34.6959 46.1433 34.1858 41.3734 33.6158 36.4234C31.4558 33.1834 24.9758 35.3434 19.7458 35.0134C18.8058 34.9934 17.8458 34.9534 16.8958 34.9034C11.2158 34.6034 5.54575 33.9934 2.30575 36.4234C-0.934251 38.5834 1.22579 45.0634 0.975793 50.1034C0.975793 50.8234 0.975793 51.5634 0.975793 52.3034C1.15579 59.3334 1.20583 66.7334 1.13583 73.9534C1.12583 74.9834 1.52582 87.7934 1.50582 88.8134C1.25582 97.6634 4.38581 100.583 13.9958 107.943C14.5758 108.523 15.1658 109.113 15.7558 109.703C18.5258 112.473 21.4557 113.783 24.0457 116.373C24.5657 116.893 25.0758 117.403 25.5758 117.903C33.4558 126.423 33.7058 126.173 41.0758 125.933C41.7758 125.933 50.0958 126.573 50.8258 126.573C59.4658 126.573 70.1357 126.573 79.4157 126.573C80.1157 126.573 80.7858 126.573 81.4358 126.583C87.6258 127.143 95.7458 126.963 100.066 123.723C102.226 122.643 100.586 118.503 100.926 114.253C100.926 113.623 100.926 112.973 100.946 112.273C100.946 109.333 100.946 106.043 100.946 102.543C100.946 101.663 100.986 100.503 100.956 99.8034C101.666 90.4234 101.666 79.6234 100.676 69.4334C100.686 68.3934 100.696 67.3434 100.706 66.2934C100.746 63.1334 100.816 59.9134 100.916 56.5634C100.936 55.5034 100.976 54.4334 101.026 53.3634C101.326 46.9434 101.936 40.4633 99.5058 36.4133C97.3458 33.1733 89.7858 35.3334 84.3158 35.0134C83.4858 35.0134 82.6458 35.0134 81.8158 35.0134C77.9058 35.3434 74.3658 35.4034 70.3758 35.0734C69.1558 35.0834 67.8758 36.4634 67.7758 37.6334Z" fill="white"/>
<path d="M228.566 68.413L228.556 67.543C228.546 67.173 228.296 66.853 227.946 66.773L227.106 66.563C226.846 66.493 226.416 66.423 225.256 66.373C225.056 66.373 224.966 66.353 224.976 66.363C224.826 66.303 224.656 66.293 224.496 66.323L223.296 66.603C223.216 66.623 223.146 66.653 223.076 66.693L222.586 66.973C222.416 67.073 222.296 67.223 222.226 67.403C221.716 68.833 221.466 70.633 221.466 72.893C221.466 74.223 221.496 76.203 221.556 78.783C221.616 81.363 221.646 83.333 221.646 84.633C221.646 87.763 221.576 90.463 221.436 92.673L221.406 93.213L221.476 94.593C221.486 94.833 221.606 95.063 221.806 95.203C221.946 95.303 222.116 95.363 222.286 95.363C222.356 95.363 222.426 95.353 222.486 95.333L224.106 94.923C224.176 94.933 224.276 94.963 224.426 95.003C224.986 95.153 225.426 95.213 225.796 95.213C226.536 95.213 227.236 94.953 227.876 94.443L228.296 94.113C228.486 93.963 228.596 93.733 228.596 93.493L228.606 92.963C228.666 88.703 228.696 85.473 228.696 83.353V78.133C228.656 75.993 228.626 72.733 228.566 68.413Z" fill="white"/>
<path d="M228.836 37.1833L228.826 36.3133C228.816 35.9433 228.566 35.6233 228.216 35.5333L227.366 35.3233C227.106 35.2533 226.676 35.1833 225.516 35.1333C225.316 35.1333 225.216 35.1133 225.236 35.1233C225.086 35.0633 224.916 35.0433 224.756 35.0833L223.546 35.3633C223.466 35.3833 223.396 35.4133 223.326 35.4533L222.836 35.7333C222.666 35.8333 222.546 35.9833 222.476 36.1633C221.966 37.5933 221.716 39.3933 221.716 41.6533C221.716 42.9833 221.746 44.9633 221.806 47.5433C221.866 50.1033 221.896 52.0733 221.896 53.3933C221.896 56.5033 221.826 59.2133 221.686 61.4333L221.656 61.9733L221.726 63.3533C221.736 63.5933 221.856 63.8233 222.056 63.9633C222.196 64.0633 222.366 64.1233 222.536 64.1233C222.606 64.1233 222.676 64.1133 222.736 64.0933L224.346 63.6733C224.416 63.6833 224.516 63.7133 224.656 63.7433C225.216 63.8933 225.656 63.9533 226.026 63.9533C226.766 63.9533 227.456 63.6933 228.096 63.1833L228.516 62.8533C228.706 62.7033 228.816 62.4733 228.816 62.2333L228.826 61.6933C228.886 57.3633 228.916 54.2133 228.916 52.0833V46.8633C228.926 44.7533 228.896 41.5833 228.836 37.1833Z" fill="white"/>
<path d="M227.766 99.5234C227.166 99.5234 226.826 99.7634 220.686 106.683C219.596 107.913 218.536 109.103 217.686 110.043C217.526 110.203 217.266 110.363 216.996 110.543C216.666 110.753 216.316 110.973 216.026 111.263L211.806 115.443C211.496 115.743 211.196 116.043 210.916 116.333C209.636 117.873 207.206 119.913 205.246 121.543C202.296 124.013 201.716 124.553 201.706 125.223C201.706 125.453 201.826 125.753 201.996 125.903C202.486 126.343 203.656 126.483 210.486 126.553C211.366 126.563 212.176 126.573 212.866 126.583C213.456 126.563 214.036 126.573 214.536 126.583L215.236 126.593L216.996 126.563C220.366 126.523 221.536 126.653 224.506 127.003C224.696 127.023 224.896 127.033 225.086 127.033C226.226 127.033 227.276 126.653 227.716 126.433C228.616 125.973 228.736 124.413 228.696 118.883C228.686 117.473 228.676 116.153 228.716 115.143V114.113V113.143C228.656 111.613 228.696 109.253 228.736 106.973C228.856 100.153 228.846 99.6334 227.766 99.5234Z" fill="white"/>
<path d="M144.096 37.0237L143.996 36.3337C143.956 36.0337 143.746 35.7737 143.456 35.6837L142.796 35.4637C141.726 35.1037 140.726 35.1637 138.916 35.6437L138.016 35.8837C137.636 35.9837 137.386 36.3336 137.416 36.7236L137.486 37.6537C137.946 43.9137 138.046 45.8237 138.046 46.3137C138.046 46.7037 138.016 47.3936 137.966 48.3636L137.716 53.1537C137.536 54.6837 137.116 55.8237 136.456 56.5536C136.136 56.9237 135.896 57.0936 135.756 57.1736C135.376 57.3836 134.386 57.7437 132.086 57.7437C130.896 57.7437 129.716 57.5237 128.576 57.0837C127.376 56.6337 126.496 56.0536 125.946 55.3436C125.716 55.0336 125.546 54.5237 125.476 53.9437L125.386 51.2637C125.386 51.2537 125.376 51.1337 125.376 51.1237C125.286 50.4437 125.216 49.9137 125.166 49.6537C125.086 47.8837 125.046 46.5437 125.046 45.6537C124.956 41.6937 124.806 38.8136 124.596 37.1036L124.496 36.2537C124.456 35.8937 124.176 35.6036 123.816 35.5536L122.966 35.4236C122.116 35.2936 121.476 35.2236 121.026 35.2236C119.956 35.2236 119.056 35.5236 118.356 36.1136L117.886 36.5137C117.676 36.6937 117.566 36.9636 117.606 37.2336L117.686 37.8436C117.816 38.8836 117.886 40.1736 117.886 41.6736C117.886 42.4736 117.866 43.6536 117.826 45.1736C117.786 46.7436 117.756 47.9336 117.756 48.7336C117.756 53.4736 118.566 57.2837 120.176 60.0637C120.826 61.1737 121.166 61.5637 121.386 61.7537C121.866 62.2637 122.586 62.7537 123.636 63.3036C124.656 63.8337 125.476 64.1637 126.146 64.3137C126.626 64.4237 127.536 64.5336 130.616 64.5336C134.406 64.5336 137.486 63.9237 139.776 62.7037C141.816 61.6137 143.256 59.5537 144.056 56.5737C144.356 55.4737 144.426 55.0836 144.456 54.8436C144.486 54.6136 144.516 54.1937 144.516 52.0137C144.516 51.3037 144.526 50.2536 144.556 48.8536C144.586 47.4236 144.596 46.3636 144.596 45.6636C144.596 42.2636 144.426 39.3537 144.096 37.0237Z" fill="white"/>
<path d="M187.026 37.1834L187.016 36.3134C187.006 35.9434 186.756 35.6233 186.406 35.5333L185.556 35.3234C185.296 35.2534 184.866 35.1834 183.706 35.1334C183.506 35.1334 183.395 35.1134 183.415 35.1234C183.265 35.0634 183.096 35.0533 182.946 35.0933L181.746 35.3734C181.666 35.3934 181.596 35.4234 181.526 35.4634L181.036 35.7434C180.866 35.8434 180.746 35.9933 180.676 36.1733C180.166 37.6033 179.915 39.4033 179.915 41.6633C179.915 42.9933 179.946 44.9733 180.006 47.5533C180.066 50.1333 180.096 52.0934 180.096 53.4034C180.096 56.5134 180.026 59.2134 179.886 61.4434L179.856 61.8934C179.846 62.1034 179.906 62.3034 180.046 62.4634L181.196 63.8433C181.356 64.0333 181.586 64.1334 181.816 64.1334C181.976 64.1334 182.126 64.0934 182.266 63.9934L182.686 63.7134C182.736 63.7234 182.796 63.7434 182.866 63.7534C183.426 63.9034 183.856 63.9634 184.246 63.9634C184.986 63.9634 185.676 63.7034 186.316 63.1934L186.736 62.8633C186.926 62.7133 187.036 62.4834 187.046 62.2434L187.056 61.7134C187.116 57.3834 187.146 54.2333 187.146 52.1033V46.8834C187.106 44.7534 187.076 41.5834 187.026 37.1834Z" fill="white"/>
<path d="M175.665 62.7036L175.306 61.6335C175.196 61.3035 175.066 60.6235 175.066 59.3135C175.066 58.5835 175.126 57.3035 175.236 55.5035C175.296 54.5135 175.326 52.9735 175.326 50.9435C175.326 49.3035 175.286 44.4735 175.216 41.4835L175.206 41.1935C175.196 40.7535 174.836 40.4036 174.396 40.4036H169.016C168.576 40.4036 168.216 40.7636 168.206 41.2036C168.166 44.2336 168.106 47.9735 168.026 50.5535C164.756 46.7535 162.186 43.7736 160.386 41.7136C159.956 41.1736 159.626 40.7436 159.376 40.4036L159.256 40.2535C158.836 39.8035 158.506 39.4535 158.336 39.2635L156.896 37.3235C156.886 37.3135 156.836 37.2435 156.826 37.2335C155.856 36.0735 155.086 35.4235 154.286 35.1035C153.836 34.9335 153.336 34.8535 152.786 34.8535C152.506 34.8535 152.106 34.8735 151.586 34.9235C151.126 34.9635 150.886 34.9835 150.756 34.9835H149.766C149.356 34.9835 149.016 35.2835 148.966 35.6935L148.836 36.6735C148.506 39.1635 148.346 42.2736 148.346 45.9036C148.346 47.0736 148.365 48.8335 148.415 51.1135C148.455 53.4435 148.476 55.1136 148.476 56.2136C148.476 58.3036 148.416 60.2135 148.306 61.9135L148.226 63.0836C148.216 63.3036 148.286 63.5235 148.436 63.6835C148.586 63.8435 148.796 63.9435 149.016 63.9435L154.306 64.0836C154.636 64.1036 154.986 63.8635 155.096 63.5335L155.356 62.7335C155.486 62.3435 155.536 62.0435 155.536 61.7335C155.536 61.5035 155.506 61.2636 155.446 60.9636C155.396 59.3636 155.366 55.8035 155.366 50.3835C155.366 49.8235 155.425 48.9235 155.545 47.7335C155.585 47.3735 155.616 47.0336 155.646 46.7136C157.256 48.6036 159.105 50.9935 161.175 53.8435C164.585 58.5835 167.096 61.8836 168.626 63.6536L168.936 64.0035C169.076 64.1635 169.276 64.2635 169.486 64.2835L169.956 64.3135C170.826 64.3735 171.456 64.4036 171.906 64.4036C172.716 64.4036 173.446 64.2936 174.076 64.0836L175.146 63.7235C175.346 63.6535 175.516 63.5135 175.616 63.3135C175.716 63.1335 175.735 62.9136 175.665 62.7036Z" fill="white"/>
<path d="M141.055 104.094C139.085 101.184 136.065 99.3742 132.085 98.7142C130.755 98.4842 129.705 98.3842 124.645 98.3842C123.435 98.3842 122.355 98.3342 121.425 98.2242L120.995 98.1742C120.795 98.1542 120.585 98.2042 120.415 98.3342L120.405 98.3442C119.135 98.3842 118.515 99.0642 118.245 99.4742L118.025 99.8242C117.925 99.9842 117.885 100.164 117.905 100.354L117.955 100.774C118.055 101.584 118.105 102.504 118.105 103.514C118.105 103.904 118.075 104.534 118.025 105.394C117.965 106.334 117.935 107.064 117.935 107.564C117.935 107.644 117.945 107.724 117.965 107.794C117.965 107.874 117.975 108.014 117.975 108.204C117.995 109.224 118.045 111.624 118.145 112.994C118.195 113.594 118.225 119.104 118.245 122.744C118.255 124.744 118.265 126.354 118.275 126.674C118.285 127.104 118.635 127.454 119.075 127.454H124.555C124.735 127.454 124.905 127.394 125.035 127.294C125.165 127.384 125.315 127.444 125.485 127.454C126.015 127.474 126.235 127.494 126.395 127.504C126.655 127.524 126.795 127.534 127.785 127.534C130.285 127.534 132.145 127.394 133.475 127.114C135.855 126.674 137.795 125.714 139.225 124.264C141.795 121.684 142.465 120.384 142.705 119.534C143.325 118.534 143.705 117.284 143.835 115.784V112.354C143.835 112.234 143.845 112.004 143.885 111.574C143.935 111.074 143.955 110.714 143.955 110.454C143.985 109.454 143.635 107.924 141.055 104.094ZM125.385 119.984C125.405 114.874 125.455 108.234 125.515 105.774C126.345 105.804 126.985 105.834 127.535 105.864C128.895 105.924 129.585 105.954 130.805 105.964C130.915 105.994 131.105 106.044 131.455 106.144C132.965 106.594 134.265 107.384 135.325 108.494C135.755 108.934 135.895 109.154 135.935 109.214C136.295 109.824 136.515 110.784 136.585 111.974C136.605 113.114 136.645 114.294 136.695 115.474C136.085 116.954 135.835 117.464 135.765 117.584C135.385 118.234 134.955 118.674 134.455 118.944C133.125 119.654 130.875 120.014 127.765 120.014C127.305 120.014 126.595 120.004 125.545 119.974C125.475 119.964 125.435 119.974 125.385 119.984Z" fill="white"/>
<path d="M200.456 104.094C198.486 101.184 195.466 99.3742 191.486 98.7142C190.156 98.4842 189.106 98.3842 184.046 98.3842C182.836 98.3842 181.756 98.3342 180.826 98.2242L180.396 98.1742C180.196 98.1542 179.986 98.2042 179.816 98.3342L179.806 98.3442C178.536 98.3842 177.916 99.0642 177.646 99.4742L177.426 99.8242C177.326 99.9842 177.286 100.164 177.306 100.354L177.356 100.774C177.456 101.584 177.506 102.504 177.506 103.514C177.506 103.904 177.476 104.534 177.426 105.394C177.366 106.334 177.336 107.064 177.336 107.564C177.336 107.644 177.346 107.724 177.366 107.794C177.366 107.874 177.376 108.014 177.376 108.204C177.396 109.224 177.446 111.624 177.546 112.994C177.596 113.594 177.626 119.104 177.646 122.744C177.656 124.744 177.666 126.354 177.676 126.674C177.686 127.104 178.036 127.454 178.476 127.454H183.956C184.136 127.454 184.306 127.394 184.436 127.294C184.566 127.384 184.716 127.444 184.886 127.454C185.416 127.474 185.636 127.494 185.796 127.504C186.056 127.524 186.196 127.534 187.186 127.534C189.686 127.534 191.546 127.394 192.876 127.114C195.256 126.674 197.196 125.714 198.626 124.264C201.196 121.684 201.866 120.384 202.106 119.534C202.726 118.534 203.106 117.284 203.236 115.784V112.354C203.236 112.234 203.246 112.004 203.286 111.574C203.336 111.074 203.356 110.714 203.356 110.454C203.386 109.454 203.036 107.924 200.456 104.094ZM184.786 119.984C184.806 114.874 184.856 108.234 184.916 105.774C185.746 105.804 186.386 105.834 186.936 105.864C188.296 105.924 188.986 105.954 190.206 105.964C190.316 105.994 190.506 106.044 190.856 106.144C192.366 106.594 193.666 107.384 194.726 108.494C195.156 108.934 195.296 109.154 195.336 109.214C195.696 109.824 195.916 110.784 195.986 111.974C196.006 113.114 196.046 114.294 196.096 115.474C195.486 116.954 195.236 117.464 195.166 117.584C194.786 118.234 194.356 118.674 193.856 118.944C192.526 119.654 190.276 120.014 187.166 120.014C186.706 120.014 185.996 120.004 184.946 119.974C184.876 119.964 184.836 119.974 184.786 119.984Z" fill="white"/>
<path d="M215.046 40.6436C213.076 37.7236 210.056 35.9136 206.066 35.2536C204.736 35.0236 203.686 34.9236 198.626 34.9236C197.416 34.9236 196.336 34.8736 195.416 34.7636L194.986 34.7137C194.776 34.6837 194.566 34.7436 194.396 34.8736H194.386C193.116 34.9136 192.486 35.5936 192.226 36.0136L192.006 36.3636C191.906 36.5236 191.866 36.7137 191.886 36.9037L191.936 37.3236C192.036 38.1336 192.086 39.0536 192.086 40.0536C192.086 40.4336 192.056 41.0736 192.006 41.9336C191.946 42.8736 191.916 43.6036 191.916 44.1036C191.916 44.1836 191.926 44.2636 191.946 44.3336C191.946 44.4136 191.956 44.5536 191.956 44.7336C191.976 45.7536 192.026 48.1536 192.126 49.5236C192.176 50.1236 192.206 55.6336 192.226 59.2736C192.236 61.2836 192.246 62.8836 192.256 63.2036C192.266 63.6436 192.626 63.9936 193.066 63.9936H198.546C198.726 63.9936 198.896 63.9336 199.026 63.8336C199.156 63.9236 199.306 63.9836 199.476 63.9936C200.006 64.0136 200.226 64.0336 200.386 64.0436C200.646 64.0636 200.786 64.0736 201.776 64.0736C204.276 64.0736 206.136 63.9337 207.466 63.6537C209.846 63.2137 211.786 62.2536 213.226 60.7936C215.796 58.2136 216.466 56.9036 216.716 56.0636C217.336 55.0536 217.716 53.8136 217.846 52.3036V48.8736C217.846 48.7536 217.856 48.5236 217.896 48.1036C217.946 47.5936 217.966 47.2436 217.966 46.9836C217.976 46.0036 217.626 44.4636 215.046 40.6436ZM199.376 56.5136C199.396 51.4136 199.436 44.8036 199.506 42.3336C200.326 42.3636 200.966 42.3936 201.506 42.4236C202.856 42.4836 203.556 42.5136 204.776 42.5236C204.886 42.5536 205.076 42.6036 205.416 42.7036C206.926 43.1536 208.216 43.9436 209.276 45.0536C209.706 45.4936 209.846 45.7136 209.876 45.7736C210.236 46.3736 210.456 47.3336 210.526 48.5236C210.546 49.6636 210.586 50.8436 210.636 52.0236C210.036 53.5036 209.776 54.0036 209.706 54.1336C209.326 54.7736 208.906 55.2236 208.406 55.4836C207.076 56.1936 204.826 56.5536 201.726 56.5536C201.266 56.5536 200.556 56.5436 199.506 56.5136C199.466 56.5036 199.416 56.5036 199.376 56.5136Z" fill="white"/>
<path d="M194.166 72.1928C193.796 71.5728 193.236 70.9528 192.476 70.3028C190.916 68.9528 188.746 68.0328 185.996 67.5628C183.986 67.2728 181.986 66.9928 179.996 66.7028L179.746 66.6627C179.626 66.6427 179.516 66.6528 179.406 66.6828L179.166 66.7528C178.576 66.9328 177.876 67.0128 177.086 67.0128C176.576 67.0128 175.776 66.9627 174.716 66.8527C173.506 66.7327 172.616 66.6728 171.996 66.6728C171.106 66.6728 170.266 66.7428 169.496 66.8728L168.566 67.0427C168.176 67.1127 167.896 67.4527 167.896 67.8427V71.7927C167.896 72.8727 167.906 74.4828 167.936 76.6128V81.3928C167.936 82.3628 167.926 82.7128 167.916 83.3828L167.876 85.3128C167.876 85.5328 167.956 85.7428 168.106 85.8928C168.256 86.0528 168.466 86.1328 168.686 86.1328H171.936C172.016 86.1528 172.076 86.1428 172.176 86.1728H173.306L173.456 86.1928C173.556 86.2028 173.656 86.2028 173.756 86.1828L174.376 86.0927C174.486 86.0927 174.596 86.0628 174.686 86.0128C175.136 85.9628 175.666 85.9328 176.266 85.9328C176.746 85.9328 177.496 85.9628 178.486 86.0128C179.546 86.0728 180.366 86.1027 180.926 86.1027C181.136 86.1027 181.366 86.0928 181.626 86.0628L185.996 94.4028C186.686 95.6728 187.936 96.3728 189.516 96.3728C189.766 96.3728 190.096 96.3528 190.526 96.3228C190.836 96.3028 191.056 96.2827 191.186 96.2827C191.226 96.2827 191.326 96.2928 191.506 96.3328L192.856 96.6027C192.906 96.6127 192.966 96.6228 193.016 96.6228C193.206 96.6228 193.386 96.5628 193.526 96.4428C193.716 96.2928 193.826 96.0628 193.826 95.8128V93.9328C193.826 93.8228 193.806 93.7127 193.756 93.6027L193.656 93.3828C193.276 92.5228 192.356 90.8927 190.866 88.4127C190.256 87.4227 189.766 86.5128 189.376 85.7028C191.176 85.1228 192.726 83.7127 193.976 81.5327C194.456 80.7227 194.666 80.3028 194.746 79.9628C194.936 79.2828 195.026 78.3428 195.026 77.0028C195.056 74.7128 194.786 73.2328 194.166 72.1928ZM187.936 77.1627C187.936 77.5427 187.906 77.6828 187.906 77.6828C187.836 77.9428 187.106 78.4328 185.336 78.7028C184.866 78.7728 184.556 78.8227 184.396 78.8527H181.006C180.116 78.8827 179.446 78.8928 178.996 78.8928C177.576 78.8928 176.396 78.8228 175.466 78.6828L175.516 74.0228C175.726 74.0328 175.966 74.0428 176.236 74.0528C177.016 74.0828 177.516 74.0927 177.736 74.0927C184.396 74.2327 186.616 75.0428 187.336 75.5128C187.496 75.6028 187.936 75.8827 187.936 77.1627Z" fill="white"/>
<path d="M145.366 68.9538C145.256 68.6938 145.046 68.4838 144.776 68.3838L143.716 67.9838C143.036 67.7238 142.246 67.5938 141.386 67.5938H139.276C138.946 67.5938 138.636 67.7438 138.436 68.0138L138.106 68.4538C137.586 69.1438 137.106 70.1138 136.646 71.4238C136.576 71.6038 136.336 72.3538 135.976 73.4438C134.756 77.1438 131.916 85.8138 131.096 87.5338C131.076 87.5738 131.066 87.6038 131.046 87.6438C130.966 87.8838 130.866 88.1838 130.736 88.5338C130.606 88.4038 130.376 88.1238 130.096 87.5338C129.826 87.0238 129.606 86.5538 129.416 86.0638C128.916 84.9738 128.326 82.6238 127.756 80.3638C127.176 78.0638 126.636 75.8838 126.076 74.6538C125.796 74.1338 125.476 73.5338 125.126 72.8438C124.726 72.0738 124.566 71.3938 124.426 70.7438C124.256 69.9938 124.076 69.2138 123.526 68.5238L123.256 68.1938C123.096 67.9938 122.856 67.8538 122.606 67.8138L122.176 67.7438C121.546 67.6438 120.906 67.5938 120.276 67.5938C119.246 67.5938 118.346 67.8438 117.606 68.3238L116.806 68.8538C116.366 69.1438 116.206 69.7138 116.436 70.1938L116.856 71.0538C117.986 73.3838 120.316 81.3038 121.696 86.0338C122.586 89.0538 122.816 89.8538 122.946 90.1238C123.306 90.8838 123.666 91.6338 124.026 92.3638C124.396 93.1138 124.646 93.7538 124.766 94.2738L124.816 94.4738C124.846 94.6038 124.906 94.7238 124.976 94.8338L125.096 95.0038C125.996 96.2738 129.746 96.3738 129.786 96.3738C130.156 96.3738 130.606 96.3138 131.156 96.2038C131.426 96.1438 131.556 96.1338 131.586 96.1238H134.306C134.686 96.1238 135.046 95.9138 135.226 95.5838L135.546 95.0138C135.906 94.3538 136.416 93.3938 137.116 92.0238C137.126 92.0038 137.186 91.8738 137.186 91.8538C137.256 91.6638 144.226 72.5138 144.926 70.8338L145.356 69.8038C145.476 69.5138 145.476 69.2138 145.366 68.9538Z" fill="white"/>
<path d="M214.816 78.6541L214.636 78.5641C213.876 78.1741 212.086 77.2541 209.236 77.1141C205.956 76.9441 204.266 76.3341 203.726 75.1441C203.726 75.1441 203.766 74.9841 204.106 74.6941C205.306 73.7141 206.876 73.2441 208.926 73.2441C210.796 73.2441 215.856 73.4541 217.206 73.8041C217.446 73.8641 217.716 73.8141 217.916 73.6641C218.116 73.5041 218.236 73.2741 218.236 73.0141V67.0941C218.236 66.7141 217.976 66.3841 217.596 66.2941C216.406 66.0241 213.056 65.8541 209.626 65.7041L209.016 65.6741C205.956 65.5541 202.806 66.7741 199.736 69.3341C199.016 69.9341 198.566 70.3641 198.236 70.7241C197.316 71.8041 196.846 73.2141 196.846 74.9141C196.846 75.2741 196.896 76.0041 197.316 78.5441L197.356 78.8041C197.376 78.9341 197.426 79.0541 197.506 79.1541L197.666 79.3641C198.926 81.0941 200.896 82.4441 203.526 83.3841C204.726 83.8041 204.896 83.8441 205.056 83.8841L205.326 83.9241C206.336 83.9941 207.136 84.0241 207.786 84.0241C208.016 84.0241 208.216 84.0241 208.356 84.0141C209.136 84.0341 210.666 84.3641 211.706 84.6641C212.046 84.7641 212.246 85.3841 212.346 85.7541C212.406 85.9741 212.446 86.1241 212.466 86.2341C212.456 86.2541 212.446 86.2841 212.426 86.3141L212.356 86.4641C212.036 87.3041 211.146 88.0241 209.716 88.5841C208.626 89.0241 206.926 89.2541 204.936 89.2541C202.766 89.2541 200.986 89.0041 199.796 88.5441C199.546 88.4441 199.266 88.4741 199.036 88.6341C198.816 88.7841 198.676 89.0341 198.676 89.3041V94.9741C198.676 95.3241 198.906 95.6441 199.236 95.7541C200.286 96.0941 202.796 96.2241 204.796 96.2241C207.866 96.2241 210.676 95.9641 212.496 95.5141C214.206 95.1041 216.296 93.8341 217.586 92.4341C218.826 91.0741 219.616 89.5741 219.906 88.0541C219.986 87.8041 220.026 87.5341 220.026 87.2441C220.036 83.3241 218.286 80.4341 214.816 78.6541Z" fill="white"/>
<path d="M176.196 93.264C176.196 93.224 176.196 93.1839 176.186 93.1739C176.186 93.1339 176.196 93.0239 176.226 92.7939C176.286 92.3939 176.316 92.074 176.316 91.814C176.316 91.034 176.066 90.334 175.596 89.774L175.236 89.3439C175.076 89.1539 174.816 89.0339 174.576 89.0539L174.016 89.074C173.386 89.104 172.416 89.1139 171.126 89.1139C169.716 89.1139 165.566 89.064 162.976 88.964C160.276 88.864 158.206 88.814 156.836 88.814C156.246 88.814 155.726 88.814 155.256 88.824L155.176 83.9739C156.016 83.9139 157.346 83.8539 159.466 83.8539C160.436 83.8539 161.436 83.804 162.446 83.714L163.476 83.624C163.896 83.584 164.216 83.234 164.216 82.814V78.884C164.216 78.544 164.006 78.244 163.686 78.124L162.946 77.8539C161.976 77.4939 160.786 77.294 159.426 77.254C159.336 77.254 159.266 77.2639 159.186 77.2839C158.856 77.2939 158.116 77.2939 156.436 77.2939C155.946 77.2939 155.496 77.274 155.106 77.244C155.116 77.154 155.116 77.064 155.126 76.954V74.2339C155.256 74.3139 155.406 74.374 155.576 74.374H155.996C158.876 74.374 161.166 74.144 162.986 73.684C163.166 73.634 163.336 73.534 163.456 73.384L163.826 72.934C163.896 72.844 163.946 72.754 163.986 72.644L164.346 71.524C164.426 71.284 164.436 71.114 164.316 70.904C164.316 70.904 164.306 70.8439 164.296 70.6639C164.236 69.5839 164.136 69.174 164.036 68.894L163.766 68.1139C163.646 67.7639 163.306 67.524 162.936 67.514L161.806 67.504C159.466 67.484 157.416 67.464 155.596 67.454C155.356 67.484 155.126 67.544 154.966 67.714C154.966 67.714 154.966 67.7239 154.956 67.7239C154.816 67.5539 154.626 67.4339 154.386 67.4139C153.706 67.3639 153.086 67.3039 152.536 67.2239L152.036 67.154C151.806 67.124 151.576 67.184 151.406 67.334L151.326 67.404C151.296 67.404 151.256 67.394 151.216 67.394C150.876 67.354 150.636 67.334 150.456 67.334C148.866 67.334 147.746 68.424 147.736 70.014C147.736 70.074 147.746 70.134 147.756 70.194L147.816 70.464C147.836 70.604 147.896 70.9639 148.006 71.8639C148.136 72.9039 148.206 73.994 148.206 75.124C148.206 75.904 148.166 77.144 148.096 78.824C148.026 80.544 147.986 81.844 147.986 82.694C147.986 83.194 148.016 83.9039 148.076 84.8539C148.126 85.6939 148.156 86.334 148.156 86.764C148.156 87.104 148.126 87.7839 147.956 89.1139C147.796 90.3439 147.726 91.274 147.726 91.944C147.726 92.764 147.836 93.6039 148.046 94.4239L148.276 95.324C148.366 95.684 148.696 95.934 149.056 95.934C149.076 95.934 149.086 95.934 149.106 95.934L150.036 95.874C151.866 95.764 153.686 95.704 155.446 95.704C156.856 95.704 158.946 95.7339 161.856 95.7939C164.676 95.8539 168.986 95.884 170.506 95.884H174.476C174.696 95.884 174.896 95.794 175.046 95.644L176.086 94.5939C176.286 94.3939 176.366 94.104 176.296 93.824L176.196 93.264Z" fill="white"/>
<path d="M176.326 125.034L175.856 124.154C174.546 121.714 171.286 113.504 169.346 108.604C168.306 105.994 167.846 104.824 167.716 104.564C167.306 103.784 166.906 103.014 166.496 102.264C166.076 101.484 165.786 100.804 165.636 100.264L165.576 100.054C165.546 99.9542 165.496 99.8542 165.436 99.7642L165.296 99.5842C164.406 98.4542 160.356 98.3242 160.316 98.3242C159.926 98.3242 159.446 98.3742 158.856 98.4942C158.486 98.5642 158.316 98.5842 158.276 98.5842H155.186C154.906 98.5842 154.646 98.7342 154.496 98.9742L154.136 99.5542C153.726 100.224 153.146 101.214 152.366 102.604L152.296 102.744C152.256 102.844 147.766 112.924 145.206 119.194C144.906 119.924 145.456 120.644 146.886 121.394C147.006 121.454 147.136 121.484 147.266 121.484H153.036C153.426 121.494 162.006 121.754 164.366 121.784L166.106 126.954C166.216 127.284 166.526 127.504 166.876 127.504H166.886L167.286 127.494C168.346 127.484 169.816 127.454 172.416 127.434L173.636 127.424C173.926 127.424 174.186 127.264 174.326 127.014C174.616 126.914 174.886 126.784 175.126 126.644L176.036 126.104C176.406 125.894 176.536 125.414 176.326 125.034ZM161.506 114.844C161.326 114.844 161.066 114.844 160.826 114.914C160.676 114.924 160.456 114.924 160.156 114.934C158.896 114.974 158.666 114.994 158.516 115.014C158.416 115.024 158.366 115.024 157.936 115.024C156.886 115.024 155.866 115.014 154.886 114.984C156.666 110.214 157.826 107.304 158.376 106.234C158.496 105.904 158.666 105.484 158.866 104.964C158.876 104.954 158.886 104.944 158.906 104.934C158.916 104.944 158.916 104.964 158.926 104.974C159.206 105.594 159.656 106.584 160.256 107.744C160.616 108.364 160.916 108.954 161.176 109.544C161.786 110.744 162.536 112.794 163.286 114.904C162.686 114.864 162.076 114.844 161.506 114.844Z" fill="white"/>
<path d="M145.466 120.694H145.516C145.506 120.684 145.486 120.684 145.476 120.674C145.476 120.674 145.476 120.684 145.466 120.694Z" fill="white"/>
</svg>
