<svg width="28" height="21" viewBox="0 0 28 21" fill="none" xmlns="http://www.w3.org/2000/svg">
<path d="M27.4156 3.78633C27.2562 3.1927 26.9437 2.65134 26.5094 2.21644C26.075 1.78154 25.5341 1.46834 24.9406 1.3082C22.7562 0.720703 14 0.720703 14 0.720703C14 0.720703 5.24375 0.720703 3.05937 1.30508C2.46569 1.4647 1.92445 1.77772 1.49002 2.2127C1.05558 2.64768 0.743248 3.18932 0.584375 3.7832C-1.19209e-07 5.9707 0 10.5332 0 10.5332C0 10.5332 -1.19209e-07 15.0957 0.584375 17.2801C0.90625 18.4863 1.85625 19.4363 3.05937 19.7582C5.24375 20.3457 14 20.3457 14 20.3457C14 20.3457 22.7562 20.3457 24.9406 19.7582C26.1469 19.4363 27.0938 18.4863 27.4156 17.2801C28 15.0957 28 10.5332 28 10.5332C28 10.5332 28 5.9707 27.4156 3.78633ZM11.2188 14.7207V6.3457L18.4688 10.502L11.2188 14.7207Z" fill="white"/>
</svg>
